M48
; DRILL file {KiCad 8.0.6} date 2024-11-13T16:57:39+0100
; FORMAT={-:-/ absolute / inch / decimal}
; #@! TF.CreationDate,2024-11-13T16:57:39+01:00
; #@! TF.GenerationSoftware,Kicad,Pcbnew,8.0.6
; #@! TF.FileFunction,Plated,1,2,PTH
FMAT,2
INCH
; #@! TA.AperFunction,Plated,PTH,ComponentDrill
T1C0.0315
; #@! TA.AperFunction,Plated,PTH,ComponentDrill
T2C0.0402
; #@! TA.AperFunction,Plated,PTH,ComponentDrill
T3C0.0433
; #@! TA.AperFunction,Plated,PTH,ComponentDrill
T4C0.0512
; #@! TA.AperFunction,Plated,PTH,ComponentDrill
T5C0.0598
%
G90
G05
T1
X5.0348Y-4.0561
X5.0348Y-4.4561
X5.0565Y-4.8498
X5.2533Y-4.8498
X5.273Y-4.0561
X5.273Y-4.4561
X5.6608Y-4.0585
X5.6608Y-4.4585
X5.6766Y-4.8498
X5.8734Y-4.8498
X5.8872Y-4.0585
X5.8872Y-4.4585
X6.2061Y-4.0553
X6.2061Y-4.4553
X6.2278Y-4.8498
X6.4246Y-4.8498
X6.4482Y-4.0585
X6.4482Y-4.4585
X6.8183Y-4.0593
X6.8183Y-4.4593
X6.8183Y-4.8498
X7.0152Y-4.8498
X7.0348Y-4.0561
X7.0348Y-4.4561
X7.3931Y-4.0624
X7.3931Y-4.4624
X7.4089Y-4.8498
X7.6057Y-4.8498
X7.6195Y-4.0624
X7.6195Y-4.4624
T2
X3.6348Y-3.4498
X3.6348Y-3.5498
X3.6348Y-3.6498
X3.6348Y-3.7498
X3.6348Y-3.8498
X3.6348Y-3.9498
X3.6348Y-4.0498
X3.6348Y-4.1498
X3.6348Y-4.2498
X3.6348Y-4.3498
X3.6348Y-4.4498
X3.6348Y-4.5498
X3.6348Y-4.6498
X3.6348Y-4.7498
X3.6348Y-4.8498
X4.5348Y-3.4498
X4.5348Y-3.5498
X4.5348Y-3.6498
X4.5348Y-3.7498
X4.5348Y-3.8498
X4.5348Y-3.9498
X4.5348Y-4.0498
X4.5348Y-4.1498
X4.5348Y-4.2498
X4.5348Y-4.3498
X4.5348Y-4.4498
X4.5348Y-4.5498
X4.5348Y-4.6498
X4.5348Y-4.7498
X4.5348Y-4.8498
T3
X5.0171Y-3.5506
X5.0171Y-3.7278
X5.273Y-3.5506
X5.273Y-3.7278
X5.6608Y-3.5467
X5.6608Y-3.7238
X5.9167Y-3.5467
X5.9167Y-3.7238
X6.212Y-3.5467
X6.212Y-3.7238
X6.4679Y-3.5467
X6.4679Y-3.7238
X6.7789Y-3.5506
X6.7789Y-3.7278
X7.0348Y-3.5506
X7.0348Y-3.7278
X7.3695Y-3.5506
X7.3695Y-3.7278
X7.6254Y-3.5506
X7.6254Y-3.7278
T4
X3.0388Y-3.0191
X3.0388Y-3.2159
X3.0388Y-3.4128
X3.0388Y-3.6096
X3.0388Y-3.8065
X3.0388Y-4.0033
X3.5703Y-2.4089
X3.7671Y-2.4089
X3.964Y-2.4089
X4.1608Y-2.4089
T5
X4.9451Y-2.3892
X5.1451Y-2.3892
X5.9557Y-2.3892
X6.1557Y-2.3892
X6.3557Y-2.3892
X7.2451Y-2.4089
X7.4451Y-2.4089
X7.6451Y-2.4089
M30
