%TF.GenerationSoftware,KiCad,Pcbnew,8.0.6*%
%TF.CreationDate,2024-11-18T20:54:12+01:00*%
%TF.ProjectId,pcb,7063622e-6b69-4636-9164-5f7063625858,rev?*%
%TF.SameCoordinates,Original*%
%TF.FileFunction,Soldermask,Bot*%
%TF.FilePolarity,Negative*%
%FSLAX46Y46*%
G04 Gerber Fmt 4.6, Leading zero omitted, Abs format (unit mm)*
G04 Created by KiCad (PCBNEW 8.0.6) date 2024-11-18 20:54:12*
%MOMM*%
%LPD*%
G01*
G04 APERTURE LIST*
G04 Aperture macros list*
%AMRoundRect*
0 Rectangle with rounded corners*
0 $1 Rounding radius*
0 $2 $3 $4 $5 $6 $7 $8 $9 X,Y pos of 4 corners*
0 Add a 4 corners polygon primitive as box body*
4,1,4,$2,$3,$4,$5,$6,$7,$8,$9,$2,$3,0*
0 Add four circle primitives for the rounded corners*
1,1,$1+$1,$2,$3*
1,1,$1+$1,$4,$5*
1,1,$1+$1,$6,$7*
1,1,$1+$1,$8,$9*
0 Add four rect primitives between the rounded corners*
20,1,$1+$1,$2,$3,$4,$5,0*
20,1,$1+$1,$4,$5,$6,$7,0*
20,1,$1+$1,$6,$7,$8,$9,0*
20,1,$1+$1,$8,$9,$2,$3,0*%
G04 Aperture macros list end*
%ADD10C,2.000000*%
%ADD11R,3.000000X3.000000*%
%ADD12C,3.000000*%
%ADD13C,1.600000*%
%ADD14O,1.600000X1.600000*%
%ADD15R,2.800000X2.800000*%
%ADD16C,2.800000*%
%ADD17RoundRect,0.102000X-0.765000X-0.765000X0.765000X-0.765000X0.765000X0.765000X-0.765000X0.765000X0*%
%ADD18C,1.734000*%
G04 APERTURE END LIST*
D10*
%TO.C,SW5*%
X133500000Y-92235000D03*
X140000000Y-92235000D03*
X133500000Y-96735000D03*
X140000000Y-96735000D03*
%TD*%
D11*
%TO.C,P1*%
X137235000Y-58315000D03*
D12*
X142315000Y-58315000D03*
%TD*%
D13*
%TO.C,C2*%
X195895000Y-125420000D03*
X190895000Y-125420000D03*
%TD*%
%TO.C,R4*%
X190495000Y-105420000D03*
D14*
X190495000Y-115580000D03*
%TD*%
D13*
%TO.C,R3*%
X196245000Y-105420000D03*
D14*
X196245000Y-115580000D03*
%TD*%
D15*
%TO.C,J2*%
X111315000Y-58500000D03*
D16*
X116315000Y-58500000D03*
X121315000Y-58500000D03*
X126315000Y-58500000D03*
%TD*%
D13*
%TO.C,R1*%
X178000000Y-105340000D03*
D14*
X178000000Y-115500000D03*
%TD*%
D13*
%TO.C,R10*%
X133450000Y-105075000D03*
D14*
X133450000Y-115235000D03*
%TD*%
D13*
%TO.C,R2*%
X183500000Y-105260000D03*
D14*
X183500000Y-115420000D03*
%TD*%
D13*
%TO.C,C5*%
X139000000Y-125235000D03*
X134000000Y-125235000D03*
%TD*%
D10*
%TO.C,SW3*%
X149250000Y-92320000D03*
X155750000Y-92320000D03*
X149250000Y-96820000D03*
X155750000Y-96820000D03*
%TD*%
D13*
%TO.C,C4*%
X168400000Y-125420000D03*
X163400000Y-125420000D03*
%TD*%
D11*
%TO.C,J3*%
X156315000Y-58315000D03*
D12*
X161395000Y-58315000D03*
X166475000Y-58315000D03*
%TD*%
D10*
%TO.C,SW2*%
X189895000Y-92420000D03*
X196395000Y-92420000D03*
X189895000Y-96920000D03*
X196395000Y-96920000D03*
%TD*%
D13*
%TO.C,R5*%
X155000000Y-105320000D03*
D14*
X155000000Y-115480000D03*
%TD*%
D13*
%TO.C,R6*%
X149250000Y-105320000D03*
D14*
X149250000Y-115480000D03*
%TD*%
D13*
%TO.C,R7*%
X169000000Y-105320000D03*
D14*
X169000000Y-115480000D03*
%TD*%
D10*
%TO.C,SW4*%
X163000000Y-92320000D03*
X169500000Y-92320000D03*
X163000000Y-96820000D03*
X169500000Y-96820000D03*
%TD*%
D13*
%TO.C,C3*%
X154650000Y-125420000D03*
X149650000Y-125420000D03*
%TD*%
%TO.C,R9*%
X139500000Y-105075000D03*
D14*
X139500000Y-115235000D03*
%TD*%
D10*
%TO.C,SW1*%
X177000000Y-92420000D03*
X183500000Y-92420000D03*
X177000000Y-96920000D03*
X183500000Y-96920000D03*
%TD*%
D13*
%TO.C,R8*%
X162850000Y-105240000D03*
D14*
X162850000Y-115400000D03*
%TD*%
D13*
%TO.C,C1*%
X183000000Y-125420000D03*
X178000000Y-125420000D03*
%TD*%
D11*
%TO.C,J4*%
X178815000Y-58500000D03*
D12*
X183895000Y-58500000D03*
X188975000Y-58500000D03*
%TD*%
D17*
%TO.C,REF\u002A\u002A*%
X104140000Y-88380000D03*
D18*
X104140000Y-90920000D03*
X104140000Y-93460000D03*
X104140000Y-96000000D03*
X104140000Y-98540000D03*
X104140000Y-101080000D03*
X104140000Y-103620000D03*
X104140000Y-106160000D03*
X104140000Y-108700000D03*
X104140000Y-111240000D03*
X104140000Y-113780000D03*
X104140000Y-116320000D03*
X104140000Y-118860000D03*
X104140000Y-121400000D03*
X104140000Y-123940000D03*
X127000000Y-123940000D03*
X127000000Y-121400000D03*
X127000000Y-118860000D03*
X127000000Y-116320000D03*
X127000000Y-113780000D03*
X127000000Y-111240000D03*
X127000000Y-108700000D03*
X127000000Y-106160000D03*
X127000000Y-103620000D03*
X127000000Y-101080000D03*
X127000000Y-98540000D03*
X127000000Y-96000000D03*
X127000000Y-93460000D03*
X127000000Y-90920000D03*
X127000000Y-88380000D03*
%TD*%
D15*
%TO.C,J1*%
X138000000Y-79500000D03*
D16*
X143000000Y-79500000D03*
X148000000Y-79500000D03*
X153000000Y-79500000D03*
X158000000Y-79500000D03*
X163000000Y-79500000D03*
%TD*%
M02*
