%TF.GenerationSoftware,KiCad,Pcbnew,8.0.6*%
%TF.CreationDate,2024-11-18T20:54:05+01:00*%
%TF.ProjectId,pcb,7063622e-6b69-4636-9164-5f7063625858,rev?*%
%TF.SameCoordinates,Original*%
%TF.FileFunction,Drillmap*%
%TF.FilePolarity,Positive*%
%FSLAX45Y45*%
G04 Gerber Fmt 4.5, Leading zero omitted, Abs format (unit mm)*
G04 Created by KiCad (PCBNEW 8.0.6) date 2024-11-18 20:54:05*
%MOMM*%
%LPD*%
G01*
G04 APERTURE LIST*
%ADD10C,0.200000*%
G04 APERTURE END LIST*
D10*
X9950000Y-5050000D02*
X19950000Y-5050000D01*
X19950000Y-13050000D01*
X9950000Y-13050000D01*
X9950000Y-5050000D01*
X10200777Y-13371484D02*
X10200777Y-13171484D01*
X10200777Y-13171484D02*
X10248396Y-13171484D01*
X10248396Y-13171484D02*
X10276967Y-13181008D01*
X10276967Y-13181008D02*
X10296015Y-13200055D01*
X10296015Y-13200055D02*
X10305539Y-13219103D01*
X10305539Y-13219103D02*
X10315063Y-13257198D01*
X10315063Y-13257198D02*
X10315063Y-13285769D01*
X10315063Y-13285769D02*
X10305539Y-13323865D01*
X10305539Y-13323865D02*
X10296015Y-13342912D01*
X10296015Y-13342912D02*
X10276967Y-13361960D01*
X10276967Y-13361960D02*
X10248396Y-13371484D01*
X10248396Y-13371484D02*
X10200777Y-13371484D01*
X10400777Y-13371484D02*
X10400777Y-13238150D01*
X10400777Y-13276246D02*
X10410301Y-13257198D01*
X10410301Y-13257198D02*
X10419824Y-13247674D01*
X10419824Y-13247674D02*
X10438872Y-13238150D01*
X10438872Y-13238150D02*
X10457920Y-13238150D01*
X10524586Y-13371484D02*
X10524586Y-13238150D01*
X10524586Y-13171484D02*
X10515063Y-13181008D01*
X10515063Y-13181008D02*
X10524586Y-13190531D01*
X10524586Y-13190531D02*
X10534110Y-13181008D01*
X10534110Y-13181008D02*
X10524586Y-13171484D01*
X10524586Y-13171484D02*
X10524586Y-13190531D01*
X10648396Y-13371484D02*
X10629348Y-13361960D01*
X10629348Y-13361960D02*
X10619824Y-13342912D01*
X10619824Y-13342912D02*
X10619824Y-13171484D01*
X10753158Y-13371484D02*
X10734110Y-13361960D01*
X10734110Y-13361960D02*
X10724586Y-13342912D01*
X10724586Y-13342912D02*
X10724586Y-13171484D01*
X10981729Y-13371484D02*
X10981729Y-13171484D01*
X10981729Y-13171484D02*
X11048396Y-13314341D01*
X11048396Y-13314341D02*
X11115063Y-13171484D01*
X11115063Y-13171484D02*
X11115063Y-13371484D01*
X11296015Y-13371484D02*
X11296015Y-13266722D01*
X11296015Y-13266722D02*
X11286491Y-13247674D01*
X11286491Y-13247674D02*
X11267443Y-13238150D01*
X11267443Y-13238150D02*
X11229348Y-13238150D01*
X11229348Y-13238150D02*
X11210301Y-13247674D01*
X11296015Y-13361960D02*
X11276967Y-13371484D01*
X11276967Y-13371484D02*
X11229348Y-13371484D01*
X11229348Y-13371484D02*
X11210301Y-13361960D01*
X11210301Y-13361960D02*
X11200777Y-13342912D01*
X11200777Y-13342912D02*
X11200777Y-13323865D01*
X11200777Y-13323865D02*
X11210301Y-13304817D01*
X11210301Y-13304817D02*
X11229348Y-13295293D01*
X11229348Y-13295293D02*
X11276967Y-13295293D01*
X11276967Y-13295293D02*
X11296015Y-13285769D01*
X11391253Y-13238150D02*
X11391253Y-13438150D01*
X11391253Y-13247674D02*
X11410301Y-13238150D01*
X11410301Y-13238150D02*
X11448396Y-13238150D01*
X11448396Y-13238150D02*
X11467443Y-13247674D01*
X11467443Y-13247674D02*
X11476967Y-13257198D01*
X11476967Y-13257198D02*
X11486491Y-13276246D01*
X11486491Y-13276246D02*
X11486491Y-13333388D01*
X11486491Y-13333388D02*
X11476967Y-13352436D01*
X11476967Y-13352436D02*
X11467443Y-13361960D01*
X11467443Y-13361960D02*
X11448396Y-13371484D01*
X11448396Y-13371484D02*
X11410301Y-13371484D01*
X11410301Y-13371484D02*
X11391253Y-13361960D01*
X11572205Y-13352436D02*
X11581729Y-13361960D01*
X11581729Y-13361960D02*
X11572205Y-13371484D01*
X11572205Y-13371484D02*
X11562682Y-13361960D01*
X11562682Y-13361960D02*
X11572205Y-13352436D01*
X11572205Y-13352436D02*
X11572205Y-13371484D01*
X11572205Y-13247674D02*
X11581729Y-13257198D01*
X11581729Y-13257198D02*
X11572205Y-13266722D01*
X11572205Y-13266722D02*
X11562682Y-13257198D01*
X11562682Y-13257198D02*
X11572205Y-13247674D01*
X11572205Y-13247674D02*
X11572205Y-13266722D01*
M02*
