%TF.GenerationSoftware,KiCad,Pcbnew,8.0.6*%
%TF.CreationDate,2024-11-13T16:57:44+01:00*%
%TF.ProjectId,pcb,7063622e-6b69-4636-9164-5f7063625858,rev?*%
%TF.SameCoordinates,Original*%
%TF.FileFunction,Copper,L2,Bot*%
%TF.FilePolarity,Positive*%
%FSLAX46Y46*%
G04 Gerber Fmt 4.6, Leading zero omitted, Abs format (unit mm)*
G04 Created by KiCad (PCBNEW 8.0.6) date 2024-11-13 16:57:44*
%MOMM*%
%LPD*%
G01*
G04 APERTURE LIST*
%TA.AperFunction,ComponentPad*%
%ADD10C,2.000000*%
%TD*%
%TA.AperFunction,ComponentPad*%
%ADD11R,3.000000X3.000000*%
%TD*%
%TA.AperFunction,ComponentPad*%
%ADD12C,3.000000*%
%TD*%
%TA.AperFunction,ComponentPad*%
%ADD13C,1.600000*%
%TD*%
%TA.AperFunction,ComponentPad*%
%ADD14O,1.600000X1.600000*%
%TD*%
%TA.AperFunction,ComponentPad*%
%ADD15R,1.530000X1.530000*%
%TD*%
%TA.AperFunction,ComponentPad*%
%ADD16C,1.530000*%
%TD*%
%TA.AperFunction,ComponentPad*%
%ADD17R,2.800000X2.800000*%
%TD*%
%TA.AperFunction,ComponentPad*%
%ADD18C,2.800000*%
%TD*%
%TA.AperFunction,Conductor*%
%ADD19C,0.200000*%
%TD*%
G04 APERTURE END LIST*
D10*
%TO.P,SW5,1,1*%
%TO.N,5V*%
X127435000Y-90185000D03*
X133935000Y-90185000D03*
%TO.P,SW5,2,2*%
%TO.N,Net-(R10-Pad1)*%
X127435000Y-94685000D03*
X133935000Y-94685000D03*
%TD*%
D11*
%TO.P,P1,1,5V*%
%TO.N,5V*%
X125605000Y-60685000D03*
D12*
%TO.P,P1,2,GND*%
%TO.N,GND*%
X130685000Y-60685000D03*
%TD*%
D13*
%TO.P,C2,1*%
%TO.N,Net-(U1-GPIO1)*%
X193185000Y-123185000D03*
%TO.P,C2,2*%
%TO.N,GND*%
X188185000Y-123185000D03*
%TD*%
%TO.P,R4,1*%
%TO.N,Net-(R3-Pad1)*%
X187785000Y-103185000D03*
D14*
%TO.P,R4,2*%
%TO.N,GND*%
X187785000Y-113345000D03*
%TD*%
D15*
%TO.P,REF\u002A\u002A,1,GND*%
%TO.N,GND*%
X92325000Y-87625000D03*
D16*
%TO.P,REF\u002A\u002A,2,3V3*%
%TO.N,3V3*%
X92325000Y-90165000D03*
%TO.P,REF\u002A\u002A,3,3V3*%
X92325000Y-92705000D03*
%TO.P,REF\u002A\u002A,4,RST*%
%TO.N,unconnected-(U1-RST-Pad4)*%
X92325000Y-95245000D03*
%TO.P,REF\u002A\u002A,5,GND*%
%TO.N,GND*%
X92325000Y-97785000D03*
%TO.P,REF\u002A\u002A,6,GPIO4*%
%TO.N,Net-(J1-SCK)*%
X92325000Y-100325000D03*
%TO.P,REF\u002A\u002A,7,GPIO5*%
%TO.N,Net-(J1-MISO)*%
X92325000Y-102865000D03*
%TO.P,REF\u002A\u002A,8,GPIO6*%
%TO.N,Net-(J1-MOSI)*%
X92325000Y-105405000D03*
%TO.P,REF\u002A\u002A,9,GPIO7*%
%TO.N,Net-(J1-CS)*%
X92325000Y-107945000D03*
%TO.P,REF\u002A\u002A,10,GND*%
%TO.N,GND*%
X92325000Y-110485000D03*
%TO.P,REF\u002A\u002A,11,GPIO8/RGB_LED*%
%TO.N,Net-(D1-DIN)*%
X92325000Y-113025000D03*
%TO.P,REF\u002A\u002A,12,GPIO9*%
%TO.N,Net-(U1-GPIO9)*%
X92325000Y-115565000D03*
%TO.P,REF\u002A\u002A,13,5V*%
%TO.N,5V*%
X92325000Y-118105000D03*
%TO.P,REF\u002A\u002A,14,5V*%
X92325000Y-120645000D03*
%TO.P,REF\u002A\u002A,15,GND*%
%TO.N,GND*%
X92325000Y-123185000D03*
%TO.P,REF\u002A\u002A,16,GND*%
X115185000Y-123185000D03*
%TO.P,REF\u002A\u002A,17,GND*%
X115185000Y-120645000D03*
%TO.P,REF\u002A\u002A,18,GPIO19/USBD_+*%
%TO.N,Net-(U1-GPIO19{slash}USBD_+)*%
X115185000Y-118105000D03*
%TO.P,REF\u002A\u002A,19,GPIO18/USBD_-*%
%TO.N,unconnected-(U1-GPIO18{slash}USBD_--Pad19)*%
X115185000Y-115565000D03*
%TO.P,REF\u002A\u002A,20,GND*%
%TO.N,GND*%
X115185000Y-113025000D03*
%TO.P,REF\u002A\u002A,21,GPIO21/U0TXD*%
%TO.N,unconnected-(U1-GPIO21{slash}U0TXD-Pad21)*%
X115185000Y-110485000D03*
%TO.P,REF\u002A\u002A,22,GPIO20/U0RXD*%
%TO.N,unconnected-(U1-GPIO20{slash}U0RXD-Pad22)*%
X115185000Y-107945000D03*
%TO.P,REF\u002A\u002A,23,GND*%
%TO.N,GND*%
X115185000Y-105405000D03*
%TO.P,REF\u002A\u002A,24,GPIO10*%
%TO.N,Net-(U1-GPIO10)*%
X115185000Y-102865000D03*
%TO.P,REF\u002A\u002A,25,GND*%
%TO.N,GND*%
X115185000Y-100325000D03*
%TO.P,REF\u002A\u002A,26,GPIO3*%
X115185000Y-97785000D03*
%TO.P,REF\u002A\u002A,27,GPIO2*%
%TO.N,Net-(U1-GPIO2)*%
X115185000Y-95245000D03*
%TO.P,REF\u002A\u002A,28,GPIO1*%
%TO.N,Net-(U1-GPIO1)*%
X115185000Y-92705000D03*
%TO.P,REF\u002A\u002A,29,GPIO0*%
%TO.N,Net-(J2-A0)*%
X115185000Y-90165000D03*
%TO.P,REF\u002A\u002A,30,GND*%
%TO.N,GND*%
X115185000Y-87625000D03*
%TD*%
D13*
%TO.P,R3,1*%
%TO.N,Net-(R3-Pad1)*%
X193535000Y-103185000D03*
D14*
%TO.P,R3,2*%
%TO.N,Net-(U1-GPIO1)*%
X193535000Y-113345000D03*
%TD*%
D17*
%TO.P,J2,1,A0*%
%TO.N,Net-(J2-A0)*%
X90685000Y-61185000D03*
D18*
%TO.P,J2,2,GND*%
%TO.N,GND*%
X95685000Y-61185000D03*
%TO.P,J2,3,5V*%
%TO.N,5V*%
X100685000Y-61185000D03*
%TO.P,J2,4,D0*%
%TO.N,unconnected-(J2-D0-Pad4)*%
X105685000Y-61185000D03*
%TD*%
D13*
%TO.P,R1,1*%
%TO.N,Net-(R1-Pad1)*%
X173185000Y-103105000D03*
D14*
%TO.P,R1,2*%
%TO.N,GND*%
X173185000Y-113265000D03*
%TD*%
D13*
%TO.P,R10,1*%
%TO.N,Net-(R10-Pad1)*%
X127885000Y-103025000D03*
D14*
%TO.P,R10,2*%
%TO.N,GND*%
X127885000Y-113185000D03*
%TD*%
D13*
%TO.P,R2,1*%
%TO.N,Net-(R1-Pad1)*%
X178685000Y-103025000D03*
D14*
%TO.P,R2,2*%
%TO.N,Net-(U1-GPIO2)*%
X178685000Y-113185000D03*
%TD*%
D13*
%TO.P,C5,1*%
%TO.N,Net-(U1-GPIO19{slash}USBD_+)*%
X133435000Y-123185000D03*
%TO.P,C5,2*%
%TO.N,GND*%
X128435000Y-123185000D03*
%TD*%
D10*
%TO.P,SW3,1,1*%
%TO.N,5V*%
X143785000Y-90085000D03*
X150285000Y-90085000D03*
%TO.P,SW3,2,2*%
%TO.N,Net-(R5-Pad1)*%
X143785000Y-94585000D03*
X150285000Y-94585000D03*
%TD*%
D13*
%TO.P,C4,1*%
%TO.N,Net-(U1-GPIO10)*%
X163185000Y-123185000D03*
%TO.P,C4,2*%
%TO.N,GND*%
X158185000Y-123185000D03*
%TD*%
D11*
%TO.P,J4,1,5V*%
%TO.N,5V*%
X184025000Y-61185000D03*
D12*
%TO.P,J4,2,GND*%
%TO.N,GND*%
X189105000Y-61185000D03*
%TO.P,J4,3,Data*%
%TO.N,Net-(D3-DOUT)*%
X194185000Y-61185000D03*
%TD*%
D11*
%TO.P,J3,1,GND*%
%TO.N,GND*%
X151275000Y-60685000D03*
D12*
%TO.P,J3,2,5V*%
%TO.N,5V*%
X156355000Y-60685000D03*
%TO.P,J3,3,S*%
%TO.N,GND*%
X161435000Y-60685000D03*
%TD*%
D17*
%TO.P,J1,1,CS*%
%TO.N,Net-(J1-CS)*%
X77185000Y-101685000D03*
D18*
%TO.P,J1,2,SCK*%
%TO.N,Net-(J1-SCK)*%
X77185000Y-96685000D03*
%TO.P,J1,3,MOSI*%
%TO.N,Net-(J1-MOSI)*%
X77185000Y-91685000D03*
%TO.P,J1,4,MISO*%
%TO.N,Net-(J1-MISO)*%
X77185000Y-86685000D03*
%TO.P,J1,5,5V*%
%TO.N,5V*%
X77185000Y-81685000D03*
%TO.P,J1,6,GND*%
%TO.N,GND*%
X77185000Y-76685000D03*
%TD*%
D10*
%TO.P,SW2,1,1*%
%TO.N,5V*%
X187185000Y-90185000D03*
X193685000Y-90185000D03*
%TO.P,SW2,2,2*%
%TO.N,Net-(R3-Pad1)*%
X187185000Y-94685000D03*
X193685000Y-94685000D03*
%TD*%
D13*
%TO.P,R5,1*%
%TO.N,Net-(R5-Pad1)*%
X149535000Y-103085000D03*
D14*
%TO.P,R5,2*%
%TO.N,Net-(U1-GPIO9)*%
X149535000Y-113245000D03*
%TD*%
D13*
%TO.P,R6,1*%
%TO.N,Net-(R5-Pad1)*%
X143785000Y-103085000D03*
D14*
%TO.P,R6,2*%
%TO.N,GND*%
X143785000Y-113245000D03*
%TD*%
D13*
%TO.P,R7,1*%
%TO.N,Net-(R7-Pad1)*%
X163785000Y-103085000D03*
D14*
%TO.P,R7,2*%
%TO.N,Net-(U1-GPIO10)*%
X163785000Y-113245000D03*
%TD*%
D10*
%TO.P,SW4,1,1*%
%TO.N,5V*%
X157785000Y-90085000D03*
X164285000Y-90085000D03*
%TO.P,SW4,2,2*%
%TO.N,Net-(R7-Pad1)*%
X157785000Y-94585000D03*
X164285000Y-94585000D03*
%TD*%
D13*
%TO.P,C3,1*%
%TO.N,Net-(U1-GPIO9)*%
X149185000Y-123185000D03*
%TO.P,C3,2*%
%TO.N,GND*%
X144185000Y-123185000D03*
%TD*%
%TO.P,R9,1*%
%TO.N,Net-(R10-Pad1)*%
X133935000Y-103025000D03*
D14*
%TO.P,R9,2*%
%TO.N,Net-(U1-GPIO19{slash}USBD_+)*%
X133935000Y-113185000D03*
%TD*%
D10*
%TO.P,SW1,1,1*%
%TO.N,5V*%
X172185000Y-90185000D03*
X178685000Y-90185000D03*
%TO.P,SW1,2,2*%
%TO.N,Net-(R1-Pad1)*%
X172185000Y-94685000D03*
X178685000Y-94685000D03*
%TD*%
D13*
%TO.P,R8,1*%
%TO.N,Net-(R7-Pad1)*%
X157635000Y-103005000D03*
D14*
%TO.P,R8,2*%
%TO.N,GND*%
X157635000Y-113165000D03*
%TD*%
D13*
%TO.P,C1,1*%
%TO.N,Net-(U1-GPIO2)*%
X178185000Y-123185000D03*
%TO.P,C1,2*%
%TO.N,GND*%
X173185000Y-123185000D03*
%TD*%
D19*
%TO.N,Net-(U1-GPIO2)*%
X178685000Y-113185000D02*
X175315000Y-109815000D01*
X178685000Y-122685000D02*
X178185000Y-123185000D01*
X129755000Y-109815000D02*
X115185000Y-95245000D01*
X175315000Y-109815000D02*
X129755000Y-109815000D01*
X178685000Y-113185000D02*
X178685000Y-122685000D01*
%TO.N,GND*%
X157935000Y-64185000D02*
X186105000Y-64185000D01*
X151275000Y-61595000D02*
X151275000Y-60685000D01*
X128435000Y-123185000D02*
X115185000Y-123185000D01*
X159285000Y-124285000D02*
X158185000Y-123185000D01*
X173185000Y-113265000D02*
X173185000Y-123185000D01*
X143785000Y-113245000D02*
X143785000Y-122785000D01*
X187785000Y-113345000D02*
X187785000Y-122785000D01*
X127885000Y-113185000D02*
X127885000Y-122635000D01*
X145285000Y-124285000D02*
X144185000Y-123185000D01*
X157085000Y-124285000D02*
X145285000Y-124285000D01*
X187085000Y-124285000D02*
X174285000Y-124285000D01*
X127185000Y-64185000D02*
X130685000Y-60685000D01*
X127185000Y-64185000D02*
X148685000Y-64185000D01*
X98685000Y-64185000D02*
X127185000Y-64185000D01*
X143785000Y-122785000D02*
X144185000Y-123185000D01*
X148685000Y-64185000D02*
X151275000Y-61595000D01*
X173185000Y-123185000D02*
X172085000Y-124285000D01*
X187785000Y-122785000D02*
X188185000Y-123185000D01*
X157935000Y-64185000D02*
X161435000Y-60685000D01*
X157635000Y-122635000D02*
X158185000Y-123185000D01*
X127885000Y-122635000D02*
X128435000Y-123185000D01*
X148685000Y-64185000D02*
X157935000Y-64185000D01*
X187085000Y-124285000D02*
X188185000Y-123185000D01*
X92685000Y-58185000D02*
X90285000Y-58185000D01*
X157635000Y-113165000D02*
X157635000Y-122635000D01*
X90285000Y-58185000D02*
X81385000Y-67085000D01*
X143085000Y-124285000D02*
X129535000Y-124285000D01*
X172085000Y-124285000D02*
X159285000Y-124285000D01*
X95685000Y-61185000D02*
X92685000Y-58185000D01*
X115685000Y-122685000D02*
X115185000Y-123185000D01*
X186105000Y-64185000D02*
X189105000Y-61185000D01*
X81385000Y-67085000D02*
X81385000Y-76685000D01*
X95685000Y-61185000D02*
X98685000Y-64185000D01*
X81385000Y-76685000D02*
X92325000Y-87625000D01*
X173185000Y-123185000D02*
X172685000Y-123185000D01*
X174285000Y-124285000D02*
X173185000Y-123185000D01*
X144185000Y-123185000D02*
X143085000Y-124285000D01*
X158185000Y-123185000D02*
X157085000Y-124285000D01*
X129535000Y-124285000D02*
X128435000Y-123185000D01*
X77185000Y-76685000D02*
X81385000Y-76685000D01*
%TO.N,Net-(U1-GPIO1)*%
X193535000Y-113345000D02*
X193535000Y-112535000D01*
X193185000Y-113695000D02*
X193535000Y-113345000D01*
X193535000Y-112535000D02*
X190045000Y-109045000D01*
X190045000Y-109045000D02*
X131525000Y-109045000D01*
X131525000Y-109045000D02*
X115185000Y-92705000D01*
X193185000Y-123185000D02*
X193185000Y-113695000D01*
%TO.N,Net-(U1-GPIO9)*%
X149535000Y-113245000D02*
X147575000Y-111285000D01*
X115391138Y-111785000D02*
X96105000Y-111785000D01*
X115891138Y-111285000D02*
X115391138Y-111785000D01*
X96105000Y-111785000D02*
X92325000Y-115565000D01*
X148935000Y-122935000D02*
X149185000Y-123185000D01*
X149535000Y-122835000D02*
X149185000Y-123185000D01*
X147575000Y-111285000D02*
X115891138Y-111285000D01*
X149535000Y-113245000D02*
X149535000Y-122835000D01*
%TO.N,Net-(U1-GPIO10)*%
X163785000Y-113245000D02*
X160755000Y-110215000D01*
X160755000Y-110215000D02*
X122535000Y-110215000D01*
X121195000Y-108875000D02*
X115185000Y-102865000D01*
X122535000Y-110215000D02*
X121195000Y-108875000D01*
X163785000Y-122585000D02*
X163185000Y-123185000D01*
X163785000Y-113245000D02*
X163785000Y-122585000D01*
%TO.N,Net-(U1-GPIO19{slash}USBD_+)*%
X133935000Y-122685000D02*
X133435000Y-123185000D01*
X133935000Y-113185000D02*
X132685000Y-113185000D01*
X132685000Y-113185000D02*
X131285000Y-111785000D01*
X133935000Y-113185000D02*
X133935000Y-113435000D01*
X131285000Y-111785000D02*
X121505000Y-111785000D01*
X121505000Y-111785000D02*
X115185000Y-118105000D01*
X133435000Y-113935000D02*
X133435000Y-123185000D01*
X133935000Y-113435000D02*
X133435000Y-113935000D01*
%TO.N,5V*%
X198685000Y-85185000D02*
X193685000Y-90185000D01*
X153355000Y-57685000D02*
X180525000Y-57685000D01*
X73685000Y-85185000D02*
X77185000Y-81685000D01*
X73685000Y-102685000D02*
X73685000Y-85185000D01*
X143785000Y-90085000D02*
X134035000Y-90085000D01*
X122605000Y-57685000D02*
X125605000Y-60685000D01*
X193685000Y-90185000D02*
X187185000Y-90185000D01*
X97185000Y-57685000D02*
X100685000Y-61185000D01*
X133935000Y-90185000D02*
X127435000Y-90185000D01*
X153355000Y-57685000D02*
X156355000Y-60685000D01*
X150285000Y-90085000D02*
X143785000Y-90085000D01*
X172285000Y-90085000D02*
X164285000Y-90085000D01*
X157785000Y-90085000D02*
X150285000Y-90085000D01*
X178885000Y-90185000D02*
X178685000Y-89985000D01*
X187185000Y-90185000D02*
X178885000Y-90185000D01*
X122605000Y-57685000D02*
X153355000Y-57685000D01*
X198185000Y-57685000D02*
X198685000Y-58185000D01*
X164285000Y-90085000D02*
X157785000Y-90085000D01*
X180525000Y-57685000D02*
X184025000Y-61185000D01*
X178685000Y-89985000D02*
X172185000Y-89985000D01*
X198685000Y-58185000D02*
X198685000Y-85185000D01*
X73685000Y-70185000D02*
X86185000Y-57685000D01*
X134035000Y-90085000D02*
X133935000Y-90185000D01*
X89105000Y-118105000D02*
X73685000Y-102685000D01*
X92325000Y-118105000D02*
X89105000Y-118105000D01*
X86185000Y-57685000D02*
X97185000Y-57685000D01*
X73685000Y-85185000D02*
X73685000Y-70185000D01*
X97185000Y-57685000D02*
X122605000Y-57685000D01*
X180525000Y-57685000D02*
X198185000Y-57685000D01*
%TO.N,Net-(J1-MOSI)*%
X77185000Y-91685000D02*
X79680000Y-94180000D01*
X94965000Y-105405000D02*
X92325000Y-105405000D01*
X95185000Y-105185000D02*
X94965000Y-105405000D01*
X95180000Y-94180000D02*
X95185000Y-94185000D01*
X79680000Y-94180000D02*
X95180000Y-94180000D01*
X95185000Y-94185000D02*
X95185000Y-105185000D01*
%TO.N,Net-(J1-MISO)*%
X93005000Y-102185000D02*
X92325000Y-102865000D01*
X94185000Y-99185000D02*
X94185000Y-102185000D01*
X77185000Y-86685000D02*
X75485000Y-88385000D01*
X82280836Y-99185000D02*
X94185000Y-99185000D01*
X75485000Y-92389164D02*
X82280836Y-99185000D01*
X94185000Y-102185000D02*
X93005000Y-102185000D01*
X75485000Y-88385000D02*
X75485000Y-92389164D01*
%TO.N,Net-(J1-CS)*%
X81185000Y-104185000D02*
X77185000Y-104185000D01*
X81185000Y-104185000D02*
X84945000Y-107945000D01*
X84945000Y-107945000D02*
X92325000Y-107945000D01*
X77185000Y-101685000D02*
X77185000Y-104185000D01*
%TO.N,Net-(J1-SCK)*%
X91185000Y-99685000D02*
X91825000Y-100325000D01*
X90685000Y-100185000D02*
X91185000Y-99685000D01*
X91825000Y-100325000D02*
X92325000Y-100325000D01*
X77185000Y-96685000D02*
X80685000Y-100185000D01*
X80685000Y-100185000D02*
X90685000Y-100185000D01*
%TO.N,Net-(J2-A0)*%
X90685000Y-61185000D02*
X90685000Y-65665000D01*
X90685000Y-65665000D02*
X115185000Y-90165000D01*
X90685000Y-61185000D02*
X90185000Y-61685000D01*
%TO.N,Net-(R1-Pad1)*%
X178605000Y-103105000D02*
X178685000Y-103025000D01*
X178685000Y-94485000D02*
X172185000Y-94485000D01*
X178685000Y-94685000D02*
X178685000Y-103025000D01*
X173185000Y-103105000D02*
X178605000Y-103105000D01*
%TO.N,Net-(R3-Pad1)*%
X187785000Y-103185000D02*
X193535000Y-103185000D01*
X193685000Y-94685000D02*
X187185000Y-94685000D01*
X193535000Y-94835000D02*
X193685000Y-94685000D01*
X193535000Y-103185000D02*
X193535000Y-94835000D01*
%TO.N,Net-(R5-Pad1)*%
X150285000Y-94585000D02*
X143785000Y-94585000D01*
X150285000Y-102335000D02*
X149535000Y-103085000D01*
X150285000Y-94585000D02*
X150285000Y-102335000D01*
X149535000Y-103085000D02*
X143785000Y-103085000D01*
%TO.N,Net-(R7-Pad1)*%
X157635000Y-103005000D02*
X163705000Y-103005000D01*
X163705000Y-103005000D02*
X163785000Y-103085000D01*
X157785000Y-102855000D02*
X157635000Y-103005000D01*
X164285000Y-102585000D02*
X163785000Y-103085000D01*
X164285000Y-94585000D02*
X157785000Y-94585000D01*
X164285000Y-94585000D02*
X164285000Y-102585000D01*
%TO.N,Net-(R10-Pad1)*%
X133935000Y-103025000D02*
X127885000Y-103025000D01*
X133935000Y-94685000D02*
X127435000Y-94685000D01*
X133935000Y-94685000D02*
X133935000Y-103025000D01*
%TD*%
M02*
