%TF.GenerationSoftware,KiCad,Pcbnew,8.0.6*%
%TF.CreationDate,2024-11-18T20:54:12+01:00*%
%TF.ProjectId,pcb,7063622e-6b69-4636-9164-5f7063625858,rev?*%
%TF.SameCoordinates,Original*%
%TF.FileFunction,Legend,Bot*%
%TF.FilePolarity,Positive*%
%FSLAX46Y46*%
G04 Gerber Fmt 4.6, Leading zero omitted, Abs format (unit mm)*
G04 Created by KiCad (PCBNEW 8.0.6) date 2024-11-18 20:54:12*
%MOMM*%
%LPD*%
G01*
G04 APERTURE LIST*
%ADD10C,0.300000*%
%ADD11C,0.000000*%
G04 APERTURE END LIST*
D10*
X132659774Y-68872257D02*
X132802632Y-68800828D01*
X132802632Y-68800828D02*
X133016917Y-68800828D01*
X133016917Y-68800828D02*
X133231203Y-68872257D01*
X133231203Y-68872257D02*
X133374060Y-69015114D01*
X133374060Y-69015114D02*
X133445489Y-69157971D01*
X133445489Y-69157971D02*
X133516917Y-69443685D01*
X133516917Y-69443685D02*
X133516917Y-69657971D01*
X133516917Y-69657971D02*
X133445489Y-69943685D01*
X133445489Y-69943685D02*
X133374060Y-70086542D01*
X133374060Y-70086542D02*
X133231203Y-70229400D01*
X133231203Y-70229400D02*
X133016917Y-70300828D01*
X133016917Y-70300828D02*
X132874060Y-70300828D01*
X132874060Y-70300828D02*
X132659774Y-70229400D01*
X132659774Y-70229400D02*
X132588346Y-70157971D01*
X132588346Y-70157971D02*
X132588346Y-69657971D01*
X132588346Y-69657971D02*
X132874060Y-69657971D01*
X131945489Y-70300828D02*
X131945489Y-69300828D01*
X131945489Y-69586542D02*
X131874060Y-69443685D01*
X131874060Y-69443685D02*
X131802632Y-69372257D01*
X131802632Y-69372257D02*
X131659774Y-69300828D01*
X131659774Y-69300828D02*
X131516917Y-69300828D01*
X130802632Y-70300828D02*
X130945489Y-70229400D01*
X130945489Y-70229400D02*
X131016918Y-70157971D01*
X131016918Y-70157971D02*
X131088346Y-70015114D01*
X131088346Y-70015114D02*
X131088346Y-69586542D01*
X131088346Y-69586542D02*
X131016918Y-69443685D01*
X131016918Y-69443685D02*
X130945489Y-69372257D01*
X130945489Y-69372257D02*
X130802632Y-69300828D01*
X130802632Y-69300828D02*
X130588346Y-69300828D01*
X130588346Y-69300828D02*
X130445489Y-69372257D01*
X130445489Y-69372257D02*
X130374061Y-69443685D01*
X130374061Y-69443685D02*
X130302632Y-69586542D01*
X130302632Y-69586542D02*
X130302632Y-70015114D01*
X130302632Y-70015114D02*
X130374061Y-70157971D01*
X130374061Y-70157971D02*
X130445489Y-70229400D01*
X130445489Y-70229400D02*
X130588346Y-70300828D01*
X130588346Y-70300828D02*
X130802632Y-70300828D01*
X129016918Y-69300828D02*
X129016918Y-70300828D01*
X129659775Y-69300828D02*
X129659775Y-70086542D01*
X129659775Y-70086542D02*
X129588346Y-70229400D01*
X129588346Y-70229400D02*
X129445489Y-70300828D01*
X129445489Y-70300828D02*
X129231203Y-70300828D01*
X129231203Y-70300828D02*
X129088346Y-70229400D01*
X129088346Y-70229400D02*
X129016918Y-70157971D01*
X128302632Y-69300828D02*
X128302632Y-70800828D01*
X128302632Y-69372257D02*
X128159775Y-69300828D01*
X128159775Y-69300828D02*
X127874060Y-69300828D01*
X127874060Y-69300828D02*
X127731203Y-69372257D01*
X127731203Y-69372257D02*
X127659775Y-69443685D01*
X127659775Y-69443685D02*
X127588346Y-69586542D01*
X127588346Y-69586542D02*
X127588346Y-70015114D01*
X127588346Y-70015114D02*
X127659775Y-70157971D01*
X127659775Y-70157971D02*
X127731203Y-70229400D01*
X127731203Y-70229400D02*
X127874060Y-70300828D01*
X127874060Y-70300828D02*
X128159775Y-70300828D01*
X128159775Y-70300828D02*
X128302632Y-70229400D01*
X125731203Y-70300828D02*
X125445489Y-70300828D01*
X125445489Y-70300828D02*
X125302632Y-70229400D01*
X125302632Y-70229400D02*
X125231203Y-70157971D01*
X125231203Y-70157971D02*
X125088346Y-69943685D01*
X125088346Y-69943685D02*
X125016917Y-69657971D01*
X125016917Y-69657971D02*
X125016917Y-69086542D01*
X125016917Y-69086542D02*
X125088346Y-68943685D01*
X125088346Y-68943685D02*
X125159775Y-68872257D01*
X125159775Y-68872257D02*
X125302632Y-68800828D01*
X125302632Y-68800828D02*
X125588346Y-68800828D01*
X125588346Y-68800828D02*
X125731203Y-68872257D01*
X125731203Y-68872257D02*
X125802632Y-68943685D01*
X125802632Y-68943685D02*
X125874060Y-69086542D01*
X125874060Y-69086542D02*
X125874060Y-69443685D01*
X125874060Y-69443685D02*
X125802632Y-69586542D01*
X125802632Y-69586542D02*
X125731203Y-69657971D01*
X125731203Y-69657971D02*
X125588346Y-69729400D01*
X125588346Y-69729400D02*
X125302632Y-69729400D01*
X125302632Y-69729400D02*
X125159775Y-69657971D01*
X125159775Y-69657971D02*
X125088346Y-69586542D01*
X125088346Y-69586542D02*
X125016917Y-69443685D01*
D11*
%TO.C,G\u002A\u002A\u002A*%
G36*
X156397439Y-72387147D02*
G01*
X156462673Y-72388572D01*
X156509159Y-72392600D01*
X156543032Y-72400022D01*
X156570430Y-72411626D01*
X156618894Y-72442504D01*
X156672814Y-72490625D01*
X156709719Y-72541009D01*
X156715532Y-72555039D01*
X156725233Y-72603715D01*
X156727513Y-72661650D01*
X156722368Y-72717359D01*
X156709794Y-72759353D01*
X156697955Y-72780022D01*
X156668753Y-72816689D01*
X156629678Y-72847332D01*
X156576667Y-72874229D01*
X156505657Y-72899656D01*
X156412584Y-72925890D01*
X156332556Y-72948760D01*
X156260899Y-72975770D01*
X156212063Y-73004283D01*
X156184178Y-73035838D01*
X156175377Y-73071971D01*
X156183791Y-73114221D01*
X156196111Y-73135635D01*
X156233427Y-73165502D01*
X156285893Y-73186094D01*
X156347088Y-73195981D01*
X156410593Y-73193735D01*
X156469990Y-73177927D01*
X156487426Y-73169283D01*
X156529166Y-73136655D01*
X156559020Y-73096303D01*
X156570430Y-73056175D01*
X156570804Y-73045929D01*
X156575458Y-73034229D01*
X156589914Y-73027995D01*
X156619674Y-73025511D01*
X156670239Y-73025065D01*
X156770049Y-73025065D01*
X156760760Y-73080968D01*
X156758964Y-73090768D01*
X156747425Y-73135727D01*
X156733642Y-73171725D01*
X156732683Y-73173555D01*
X156700630Y-73215935D01*
X156652746Y-73259270D01*
X156597791Y-73296640D01*
X156544525Y-73321126D01*
X156515862Y-73328119D01*
X156445095Y-73335964D01*
X156353392Y-73337125D01*
X156319994Y-73336197D01*
X156264302Y-73332848D01*
X156222354Y-73326257D01*
X156185614Y-73314764D01*
X156145548Y-73296711D01*
X156091391Y-73264884D01*
X156039199Y-73214359D01*
X156007691Y-73150843D01*
X155993972Y-73070004D01*
X155993152Y-73035527D01*
X156001772Y-72971775D01*
X156026150Y-72918276D01*
X156068395Y-72873097D01*
X156130616Y-72834308D01*
X156214920Y-72799976D01*
X156323417Y-72768169D01*
X156385730Y-72751449D01*
X156451478Y-72730757D01*
X156496919Y-72711030D01*
X156525325Y-72690343D01*
X156539968Y-72666771D01*
X156544122Y-72638390D01*
X156536469Y-72598944D01*
X156507334Y-72559780D01*
X156459719Y-72534309D01*
X156397120Y-72525220D01*
X156336404Y-72530041D01*
X156278924Y-72550439D01*
X156237935Y-72588710D01*
X156210305Y-72646893D01*
X156205480Y-72655982D01*
X156190407Y-72664611D01*
X156160663Y-72668809D01*
X156110459Y-72669912D01*
X156067389Y-72669508D01*
X156034821Y-72665412D01*
X156020940Y-72653080D01*
X156021541Y-72627964D01*
X156032418Y-72585516D01*
X156032744Y-72584349D01*
X156059720Y-72519977D01*
X156102972Y-72468689D01*
X156167503Y-72424523D01*
X156175135Y-72420327D01*
X156205760Y-72405051D01*
X156234477Y-72395334D01*
X156268337Y-72389933D01*
X156314394Y-72387605D01*
X156379699Y-72387105D01*
X156397439Y-72387147D01*
G37*
G36*
X177001252Y-69291173D02*
G01*
X177011288Y-69399075D01*
X177005451Y-69490383D01*
X176978885Y-69606164D01*
X176931712Y-69707490D01*
X176864880Y-69792918D01*
X176779334Y-69861004D01*
X176676022Y-69910306D01*
X176651556Y-69917875D01*
X176605418Y-69926606D01*
X176547893Y-69930508D01*
X176471631Y-69930300D01*
X176409329Y-69928263D01*
X176361530Y-69924258D01*
X176323795Y-69916665D01*
X176287794Y-69903777D01*
X176245196Y-69883886D01*
X176217613Y-69869413D01*
X176147052Y-69820031D01*
X176091314Y-69757360D01*
X176044191Y-69674947D01*
X176030461Y-69645360D01*
X176016973Y-69614299D01*
X176011755Y-69599313D01*
X176014842Y-69597641D01*
X176037844Y-69594706D01*
X176078404Y-69592678D01*
X176130666Y-69591921D01*
X176249578Y-69591921D01*
X176298377Y-69643170D01*
X176327876Y-69669232D01*
X176395603Y-69705018D01*
X176471617Y-69720490D01*
X176549358Y-69714761D01*
X176622265Y-69686943D01*
X176656730Y-69656554D01*
X176689109Y-69609841D01*
X176712844Y-69557592D01*
X176722061Y-69510211D01*
X176722061Y-69473537D01*
X176359918Y-69473537D01*
X176259212Y-69473414D01*
X176172764Y-69472905D01*
X176107092Y-69471844D01*
X176059322Y-69470070D01*
X176026576Y-69467420D01*
X176005981Y-69463731D01*
X175994659Y-69458840D01*
X175989735Y-69452584D01*
X175985445Y-69421610D01*
X175988831Y-69370758D01*
X175999200Y-69308581D01*
X176010134Y-69262840D01*
X176282421Y-69262840D01*
X176285057Y-69282071D01*
X176292979Y-69283805D01*
X176323595Y-69286023D01*
X176372818Y-69287791D01*
X176436111Y-69288961D01*
X176508936Y-69289384D01*
X176725503Y-69289384D01*
X176718012Y-69243220D01*
X176709844Y-69209260D01*
X176677969Y-69150392D01*
X176627250Y-69108866D01*
X176559080Y-69085610D01*
X176474853Y-69081548D01*
X176474654Y-69081561D01*
X176426652Y-69085803D01*
X176395633Y-69093529D01*
X176372310Y-69108638D01*
X176347394Y-69135027D01*
X176334957Y-69150759D01*
X176310508Y-69189783D01*
X176291950Y-69229610D01*
X176282421Y-69262840D01*
X176010134Y-69262840D01*
X176015138Y-69241907D01*
X176035233Y-69177565D01*
X176058071Y-69122383D01*
X176068064Y-69102863D01*
X176124957Y-69017583D01*
X176196532Y-68950472D01*
X176287985Y-68896419D01*
X176310691Y-68886031D01*
X176345314Y-68873445D01*
X176381578Y-68866291D01*
X176427693Y-68863216D01*
X176491869Y-68862872D01*
X176519226Y-68863196D01*
X176577410Y-68865562D01*
X176621199Y-68871292D01*
X176659228Y-68881876D01*
X176700132Y-68898803D01*
X176734855Y-68916022D01*
X176786332Y-68945600D01*
X176827036Y-68973490D01*
X176868551Y-69012192D01*
X176927384Y-69091961D01*
X176972451Y-69186878D01*
X177000758Y-69289384D01*
X177001252Y-69291173D01*
G37*
G36*
X183055220Y-69332889D02*
G01*
X183055619Y-69401191D01*
X183055512Y-69442965D01*
X183054325Y-69499569D01*
X183050847Y-69541001D01*
X183043892Y-69574350D01*
X183032274Y-69606706D01*
X183014807Y-69645160D01*
X182966799Y-69730421D01*
X182898784Y-69811228D01*
X182816253Y-69872095D01*
X182716434Y-69915536D01*
X182683021Y-69923190D01*
X182613849Y-69929580D01*
X182522889Y-69930027D01*
X182506346Y-69929492D01*
X182405033Y-69919682D01*
X182322009Y-69897799D01*
X182251956Y-69861932D01*
X182189554Y-69810168D01*
X182170654Y-69788155D01*
X182142779Y-69749261D01*
X182113880Y-69703989D01*
X182088104Y-69659236D01*
X182069597Y-69621898D01*
X182062506Y-69598873D01*
X182065498Y-69597322D01*
X182088334Y-69594551D01*
X182128755Y-69592636D01*
X182180890Y-69591921D01*
X182299275Y-69591921D01*
X182351196Y-69643843D01*
X182415082Y-69691630D01*
X182490812Y-69717385D01*
X182574226Y-69718196D01*
X182644997Y-69699943D01*
X182702747Y-69663194D01*
X182744042Y-69606926D01*
X182770650Y-69529441D01*
X182783169Y-69473537D01*
X182417147Y-69473537D01*
X182394682Y-69473548D01*
X182287536Y-69473760D01*
X182203560Y-69473485D01*
X182140115Y-69471701D01*
X182094558Y-69467391D01*
X182064250Y-69459531D01*
X182046549Y-69447104D01*
X182038814Y-69429088D01*
X182038406Y-69404462D01*
X182042683Y-69372208D01*
X182049004Y-69331303D01*
X182063210Y-69262552D01*
X182338736Y-69262552D01*
X182339401Y-69270879D01*
X182344057Y-69278433D01*
X182356434Y-69283591D01*
X182380249Y-69286809D01*
X182419219Y-69288543D01*
X182477062Y-69289250D01*
X182557495Y-69289384D01*
X182776254Y-69289384D01*
X182768763Y-69243220D01*
X182754669Y-69196256D01*
X182716865Y-69139857D01*
X182662564Y-69100275D01*
X182612530Y-69084710D01*
X182548100Y-69079211D01*
X182485126Y-69085968D01*
X182434632Y-69104764D01*
X182405002Y-69129940D01*
X182372343Y-69172949D01*
X182348177Y-69220572D01*
X182338736Y-69262552D01*
X182063210Y-69262552D01*
X182071887Y-69220560D01*
X182113834Y-69111392D01*
X182173222Y-69020935D01*
X182250860Y-68947997D01*
X182347556Y-68891386D01*
X182351122Y-68889768D01*
X182387400Y-68875957D01*
X182426120Y-68867575D01*
X182475216Y-68863440D01*
X182542620Y-68862374D01*
X182594723Y-68862860D01*
X182643521Y-68865592D01*
X182681841Y-68872239D01*
X182718496Y-68884468D01*
X182762298Y-68903947D01*
X182773484Y-68909361D01*
X182871765Y-68972547D01*
X182952360Y-69054963D01*
X183013863Y-69155205D01*
X183025483Y-69180179D01*
X183039558Y-69214536D01*
X183048399Y-69246689D01*
X183053217Y-69283764D01*
X183053446Y-69289384D01*
X183055220Y-69332889D01*
G37*
G36*
X151998713Y-71664573D02*
G01*
X151995904Y-71719405D01*
X151977272Y-71807801D01*
X151940235Y-71880024D01*
X151883645Y-71938816D01*
X151866842Y-71951446D01*
X151834963Y-71969105D01*
X151797612Y-71978708D01*
X151744389Y-71983600D01*
X151731039Y-71984277D01*
X151678616Y-71984048D01*
X151638584Y-71976677D01*
X151599798Y-71960375D01*
X151583126Y-71951182D01*
X151552512Y-71930064D01*
X151537050Y-71912974D01*
X151532423Y-71904279D01*
X151517961Y-71893837D01*
X151511544Y-71900789D01*
X151506995Y-71927018D01*
X151506525Y-71965585D01*
X151509792Y-72008801D01*
X151516453Y-72048976D01*
X151526167Y-72078421D01*
X151555862Y-72115485D01*
X151603953Y-72145484D01*
X151657252Y-72156913D01*
X151696237Y-72151604D01*
X151739439Y-72136045D01*
X151774234Y-72114507D01*
X151791741Y-72091320D01*
X151797905Y-72077847D01*
X151812262Y-72069510D01*
X151840656Y-72065728D01*
X151889209Y-72064837D01*
X151920598Y-72065148D01*
X151958553Y-72068505D01*
X151975661Y-72078060D01*
X151975406Y-72096865D01*
X151961270Y-72127971D01*
X151946485Y-72152246D01*
X151893951Y-72206333D01*
X151826441Y-72242957D01*
X151783933Y-72253012D01*
X151720136Y-72259593D01*
X151649810Y-72260855D01*
X151583228Y-72256662D01*
X151530660Y-72246878D01*
X151482355Y-72225357D01*
X151430093Y-72188009D01*
X151387230Y-72143373D01*
X151361775Y-72098488D01*
X151360167Y-72092238D01*
X151355463Y-72055875D01*
X151351438Y-71996056D01*
X151348187Y-71914947D01*
X151345804Y-71814710D01*
X151344383Y-71697510D01*
X151344200Y-71672345D01*
X151506868Y-71672345D01*
X151518226Y-71735673D01*
X151545110Y-71791281D01*
X151587797Y-71833040D01*
X151594286Y-71837070D01*
X151651296Y-71858701D01*
X151705122Y-71856650D01*
X151752562Y-71833276D01*
X151790412Y-71790934D01*
X151815472Y-71731983D01*
X151824536Y-71658780D01*
X151819227Y-71599895D01*
X151797918Y-71535775D01*
X151762938Y-71488012D01*
X151717122Y-71459068D01*
X151663302Y-71451405D01*
X151604314Y-71467483D01*
X151563182Y-71497360D01*
X151529623Y-71547058D01*
X151510759Y-71607430D01*
X151506868Y-71672345D01*
X151344200Y-71672345D01*
X151341792Y-71341382D01*
X151424003Y-71341380D01*
X151506214Y-71341377D01*
X151506214Y-71434331D01*
X151552058Y-71388487D01*
X151569684Y-71372416D01*
X151619499Y-71342785D01*
X151679708Y-71329641D01*
X151756552Y-71331236D01*
X151784714Y-71335306D01*
X151856573Y-71361655D01*
X151915303Y-71410322D01*
X151961999Y-71482110D01*
X151979586Y-71520870D01*
X151992006Y-71560768D01*
X151997650Y-71605029D01*
X151998610Y-71658780D01*
X151998713Y-71664573D01*
G37*
G36*
X155687197Y-69658593D02*
G01*
X155670592Y-69742940D01*
X155631127Y-69814596D01*
X155569362Y-69872721D01*
X155485856Y-69916477D01*
X155476495Y-69919593D01*
X155426709Y-69928450D01*
X155362262Y-69932198D01*
X155292001Y-69930916D01*
X155224774Y-69924686D01*
X155169429Y-69913589D01*
X155146019Y-69905722D01*
X155091966Y-69881790D01*
X155046529Y-69854891D01*
X154993566Y-69816525D01*
X154989481Y-69858780D01*
X154985396Y-69901036D01*
X154837578Y-69904753D01*
X154689760Y-69908471D01*
X154704901Y-69871869D01*
X154707728Y-69860972D01*
X154712616Y-69821619D01*
X154717140Y-69758234D01*
X154721224Y-69672284D01*
X154724789Y-69565234D01*
X154727637Y-69443697D01*
X155005903Y-69443697D01*
X155007546Y-69477954D01*
X155011471Y-69523834D01*
X155014359Y-69547896D01*
X155032594Y-69624531D01*
X155063058Y-69679614D01*
X155106660Y-69714971D01*
X155122017Y-69721868D01*
X155181673Y-69737544D01*
X155248065Y-69743027D01*
X155307348Y-69736810D01*
X155358158Y-69713238D01*
X155389244Y-69672602D01*
X155399741Y-69615760D01*
X155394917Y-69578138D01*
X155368737Y-69531119D01*
X155319691Y-69496858D01*
X155247637Y-69475224D01*
X155216391Y-69469229D01*
X155150875Y-69455661D01*
X155090626Y-69442139D01*
X155053517Y-69433980D01*
X155021218Y-69428366D01*
X155007002Y-69427961D01*
X155006869Y-69428132D01*
X155005903Y-69443697D01*
X154727637Y-69443697D01*
X154727758Y-69438551D01*
X154735474Y-69041835D01*
X154776083Y-68991694D01*
X154829005Y-68942628D01*
X154907386Y-68900499D01*
X155003617Y-68872200D01*
X155114852Y-68858539D01*
X155238244Y-68860328D01*
X155255186Y-68861790D01*
X155369820Y-68882113D01*
X155467243Y-68918711D01*
X155545970Y-68970640D01*
X155604517Y-69036958D01*
X155641400Y-69116719D01*
X155649308Y-69146477D01*
X155655679Y-69180872D01*
X155655237Y-69198930D01*
X155647896Y-69202178D01*
X155618669Y-69206447D01*
X155573003Y-69209374D01*
X155516881Y-69210461D01*
X155385652Y-69210461D01*
X155360598Y-69152013D01*
X155342943Y-69118627D01*
X155305639Y-69080353D01*
X155253658Y-69059149D01*
X155182703Y-69052615D01*
X155142994Y-69054344D01*
X155082598Y-69067912D01*
X155042153Y-69095859D01*
X155019644Y-69139255D01*
X155013053Y-69182843D01*
X155023614Y-69226012D01*
X155055900Y-69258582D01*
X155111089Y-69281637D01*
X155190361Y-69296261D01*
X155302869Y-69311551D01*
X155413485Y-69332995D01*
X155501905Y-69359409D01*
X155570297Y-69392185D01*
X155620828Y-69432711D01*
X155655667Y-69482377D01*
X155676982Y-69542575D01*
X155686939Y-69614693D01*
X155686945Y-69615760D01*
X155687197Y-69658593D01*
G37*
G36*
X162410720Y-71341377D02*
G01*
X162515950Y-71341377D01*
X162515950Y-71459762D01*
X162410720Y-71459762D01*
X162409163Y-71666934D01*
X162408904Y-71698038D01*
X162407619Y-71783109D01*
X162405062Y-71846921D01*
X162400463Y-71893332D01*
X162393053Y-71926200D01*
X162382061Y-71949384D01*
X162366717Y-71966742D01*
X162346250Y-71982131D01*
X162325279Y-71994650D01*
X162295132Y-72005554D01*
X162255619Y-72010840D01*
X162198313Y-72012222D01*
X162095028Y-72012222D01*
X162095028Y-71880684D01*
X162145013Y-71880684D01*
X162152101Y-71880531D01*
X162187957Y-71875289D01*
X162210782Y-71864899D01*
X162217588Y-71847414D01*
X162222641Y-71807170D01*
X162225601Y-71743276D01*
X162226566Y-71654438D01*
X162226566Y-71459762D01*
X162160797Y-71459762D01*
X162128319Y-71459319D01*
X162105300Y-71455309D01*
X162096465Y-71443660D01*
X162095028Y-71420300D01*
X162095027Y-71419809D01*
X162091110Y-71392269D01*
X162081874Y-71380839D01*
X162077714Y-71381611D01*
X162068721Y-71395809D01*
X162066509Y-71404698D01*
X162056319Y-71435880D01*
X162038997Y-71485611D01*
X162015811Y-71550324D01*
X161988027Y-71626456D01*
X161956913Y-71710440D01*
X161934671Y-71770302D01*
X161905798Y-71848823D01*
X161881141Y-71916836D01*
X161861964Y-71970811D01*
X161849531Y-72007222D01*
X161845106Y-72022541D01*
X161845154Y-72023340D01*
X161853658Y-72042441D01*
X161872368Y-72069640D01*
X161872733Y-72070102D01*
X161894566Y-72091706D01*
X161921674Y-72101802D01*
X161964445Y-72104298D01*
X162029259Y-72104298D01*
X162029259Y-72248990D01*
X161943337Y-72248990D01*
X161937467Y-72248964D01*
X161855535Y-72241318D01*
X161792179Y-72219130D01*
X161743414Y-72181046D01*
X161741772Y-72179001D01*
X161728061Y-72154242D01*
X161707047Y-72108568D01*
X161680078Y-72045215D01*
X161648502Y-71967420D01*
X161613669Y-71878419D01*
X161576925Y-71781448D01*
X161567004Y-71754850D01*
X161532266Y-71661781D01*
X161500293Y-71576213D01*
X161472369Y-71501576D01*
X161449778Y-71441299D01*
X161433804Y-71398814D01*
X161425732Y-71377550D01*
X161411681Y-71341377D01*
X161593847Y-71341377D01*
X161667345Y-71571569D01*
X161690521Y-71642692D01*
X161712186Y-71706330D01*
X161730301Y-71756604D01*
X161743452Y-71789591D01*
X161750224Y-71801373D01*
X161756400Y-71790820D01*
X161769285Y-71758915D01*
X161787252Y-71709579D01*
X161808859Y-71646775D01*
X161832667Y-71574470D01*
X161905727Y-71347954D01*
X162066147Y-71344261D01*
X162226566Y-71340568D01*
X162226566Y-71144070D01*
X162410720Y-71144070D01*
X162410720Y-71341377D01*
G37*
G36*
X179654215Y-71069899D02*
G01*
X179732709Y-71083716D01*
X179795770Y-71106390D01*
X179811196Y-71114912D01*
X179874015Y-71165252D01*
X179917501Y-71228107D01*
X179940059Y-71298962D01*
X179940093Y-71373301D01*
X179916007Y-71446608D01*
X179911325Y-71455237D01*
X179882399Y-71494004D01*
X179841410Y-71527454D01*
X179784827Y-71557539D01*
X179709117Y-71586212D01*
X179610750Y-71615427D01*
X179539437Y-71635873D01*
X179479563Y-71656814D01*
X179439043Y-71677593D01*
X179414403Y-71700634D01*
X179402167Y-71728360D01*
X179398860Y-71763195D01*
X179398862Y-71764862D01*
X179401853Y-71803023D01*
X179414694Y-71827572D01*
X179443555Y-71850563D01*
X179448344Y-71853611D01*
X179500941Y-71873550D01*
X179565705Y-71881271D01*
X179632477Y-71876438D01*
X179691098Y-71858717D01*
X179710472Y-71847394D01*
X179748285Y-71812936D01*
X179776028Y-71771699D01*
X179786849Y-71732703D01*
X179789757Y-71721349D01*
X179802768Y-71713987D01*
X179831282Y-71710540D01*
X179880685Y-71709684D01*
X179974472Y-71709684D01*
X179967773Y-71769117D01*
X179959500Y-71808263D01*
X179926510Y-71876331D01*
X179874234Y-71936190D01*
X179807196Y-71983210D01*
X179729916Y-72012757D01*
X179678045Y-72020488D01*
X179607751Y-72023754D01*
X179532290Y-72022096D01*
X179462043Y-72015764D01*
X179407389Y-72005006D01*
X179393810Y-72000647D01*
X179321143Y-71964214D01*
X179264515Y-71913238D01*
X179224785Y-71851851D01*
X179202807Y-71784181D01*
X179199439Y-71714361D01*
X179215537Y-71646519D01*
X179251958Y-71584787D01*
X179309559Y-71533295D01*
X179332827Y-71520896D01*
X179380441Y-71501203D01*
X179440101Y-71480407D01*
X179504091Y-71461362D01*
X179531669Y-71453868D01*
X179602936Y-71433970D01*
X179654136Y-71418263D01*
X179689395Y-71405034D01*
X179712837Y-71392570D01*
X179728588Y-71379159D01*
X179740772Y-71363088D01*
X179745860Y-71354350D01*
X179754906Y-71311184D01*
X179740076Y-71269331D01*
X179702946Y-71234170D01*
X179677451Y-71221136D01*
X179639135Y-71212853D01*
X179586125Y-71213255D01*
X179567897Y-71214861D01*
X179500130Y-71231646D01*
X179453140Y-71264343D01*
X179426662Y-71313120D01*
X179422893Y-71325748D01*
X179414791Y-71342340D01*
X179400089Y-71350890D01*
X179372219Y-71354065D01*
X179324612Y-71354531D01*
X179234438Y-71354531D01*
X179234438Y-71314546D01*
X179242351Y-71264398D01*
X179272658Y-71203435D01*
X179321750Y-71149108D01*
X179385445Y-71105812D01*
X179459565Y-71077938D01*
X179489377Y-71072090D01*
X179569899Y-71065752D01*
X179654215Y-71069899D01*
G37*
G36*
X147147797Y-71706614D02*
G01*
X147132592Y-71792339D01*
X147099682Y-71870780D01*
X147050281Y-71928871D01*
X146984534Y-71966450D01*
X146902586Y-71983352D01*
X146826677Y-71982093D01*
X146755521Y-71963228D01*
X146702371Y-71926122D01*
X146679487Y-71904121D01*
X146662521Y-71897108D01*
X146654487Y-71913018D01*
X146652460Y-71953452D01*
X146652483Y-71957605D01*
X146662710Y-72033525D01*
X146690606Y-72092651D01*
X146734817Y-72133077D01*
X146793990Y-72152896D01*
X146808466Y-72154113D01*
X146862833Y-72147133D01*
X146910373Y-72124819D01*
X146941916Y-72091008D01*
X146948025Y-72081840D01*
X146964132Y-72071193D01*
X146992838Y-72066126D01*
X147040960Y-72064837D01*
X147075428Y-72065278D01*
X147107237Y-72068219D01*
X147122203Y-72075240D01*
X147125910Y-72087856D01*
X147125878Y-72089665D01*
X147112659Y-72132742D01*
X147078849Y-72176130D01*
X147029380Y-72214909D01*
X146969185Y-72244161D01*
X146933349Y-72252825D01*
X146873324Y-72259361D01*
X146805951Y-72260979D01*
X146741534Y-72257508D01*
X146690374Y-72248779D01*
X146635638Y-72227637D01*
X146570490Y-72181089D01*
X146524210Y-72117847D01*
X146517911Y-72104974D01*
X146510479Y-72086849D01*
X146504821Y-72066263D01*
X146500696Y-72039812D01*
X146497862Y-72004087D01*
X146496079Y-71955683D01*
X146495104Y-71891191D01*
X146494696Y-71807206D01*
X146494614Y-71700320D01*
X146494614Y-71621262D01*
X146656671Y-71621262D01*
X146657028Y-71686149D01*
X146676219Y-71753026D01*
X146685271Y-71771315D01*
X146709669Y-71808711D01*
X146733440Y-71832645D01*
X146753215Y-71844115D01*
X146811249Y-71861458D01*
X146866482Y-71852644D01*
X146918907Y-71817672D01*
X146934925Y-71800198D01*
X146965089Y-71745144D01*
X146978790Y-71681545D01*
X146976685Y-71615664D01*
X146959430Y-71553765D01*
X146927683Y-71502109D01*
X146882102Y-71466959D01*
X146845319Y-71454601D01*
X146790966Y-71454714D01*
X146742294Y-71475092D01*
X146701934Y-71512079D01*
X146672516Y-71562021D01*
X146656671Y-71621262D01*
X146494614Y-71621262D01*
X146494614Y-71341377D01*
X146652460Y-71341377D01*
X146652460Y-71387416D01*
X146653070Y-71404345D01*
X146659592Y-71429015D01*
X146672517Y-71428492D01*
X146690932Y-71402417D01*
X146699811Y-71389071D01*
X146739437Y-71357512D01*
X146794774Y-71337157D01*
X146859351Y-71329056D01*
X146926703Y-71334258D01*
X146990358Y-71353814D01*
X147042359Y-71386898D01*
X147093150Y-71445442D01*
X147128731Y-71520658D01*
X147147486Y-71608923D01*
X147147717Y-71681545D01*
X147147797Y-71706614D01*
G37*
G36*
X165753769Y-73139230D02*
G01*
X165753293Y-73160837D01*
X165739988Y-73228882D01*
X165707745Y-73279728D01*
X165655549Y-73315193D01*
X165640494Y-73321168D01*
X165587213Y-73334873D01*
X165533803Y-73340467D01*
X165517161Y-73340048D01*
X165460624Y-73332954D01*
X165404942Y-73319021D01*
X165358596Y-73300740D01*
X165330069Y-73280605D01*
X165311937Y-73264515D01*
X165296852Y-73267460D01*
X165291403Y-73294718D01*
X165291243Y-73303334D01*
X165287706Y-73317039D01*
X165275090Y-73324279D01*
X165247653Y-73327115D01*
X165199652Y-73327602D01*
X165107901Y-73327602D01*
X165120729Y-73293861D01*
X165124751Y-73270605D01*
X165128279Y-73225724D01*
X165131067Y-73164090D01*
X165132899Y-73090497D01*
X165133214Y-73051786D01*
X165304557Y-73051786D01*
X165305033Y-73066141D01*
X165315908Y-73123716D01*
X165338364Y-73173000D01*
X165368703Y-73205152D01*
X165373669Y-73207981D01*
X165415291Y-73222080D01*
X165465748Y-73229105D01*
X165510356Y-73226811D01*
X165544080Y-73211620D01*
X165570020Y-73179326D01*
X165579135Y-73138691D01*
X165570016Y-73097208D01*
X165541255Y-73062372D01*
X165522100Y-73051744D01*
X165479795Y-73036499D01*
X165431463Y-73025381D01*
X165397818Y-73019564D01*
X165356014Y-73011355D01*
X165329592Y-73004930D01*
X165327563Y-73004308D01*
X165312689Y-73003690D01*
X165306067Y-73017558D01*
X165304557Y-73051786D01*
X165133214Y-73051786D01*
X165133557Y-73009739D01*
X165133557Y-72759358D01*
X165176925Y-72715991D01*
X165218134Y-72683209D01*
X165270581Y-72660250D01*
X165337606Y-72647596D01*
X165424576Y-72643678D01*
X165446845Y-72643976D01*
X165545634Y-72654950D01*
X165623878Y-72681894D01*
X165682043Y-72725032D01*
X165720597Y-72784585D01*
X165728473Y-72803708D01*
X165736072Y-72831617D01*
X165728677Y-72846700D01*
X165702525Y-72852877D01*
X165653851Y-72854065D01*
X165649664Y-72854063D01*
X165604819Y-72853056D01*
X165578442Y-72848463D01*
X165563237Y-72837724D01*
X165551909Y-72818277D01*
X165522911Y-72780076D01*
X165474754Y-72756630D01*
X165410306Y-72753563D01*
X165401262Y-72754674D01*
X165349538Y-72771894D01*
X165316303Y-72804117D01*
X165304557Y-72848642D01*
X165305915Y-72861287D01*
X165320925Y-72887090D01*
X165354575Y-72907878D01*
X165409411Y-72924913D01*
X165487980Y-72939455D01*
X165543596Y-72949024D01*
X165625323Y-72970246D01*
X165684778Y-72998054D01*
X165724387Y-73034272D01*
X165746576Y-73080723D01*
X165753703Y-73138691D01*
X165753769Y-73139230D01*
G37*
G36*
X191169094Y-68863887D02*
G01*
X191247207Y-68871470D01*
X191309632Y-68884651D01*
X191356204Y-68902085D01*
X191433154Y-68949155D01*
X191489722Y-69011983D01*
X191524821Y-69089161D01*
X191537366Y-69179285D01*
X191533459Y-69237043D01*
X191517187Y-69291519D01*
X191486128Y-69337530D01*
X191437981Y-69376912D01*
X191370443Y-69411500D01*
X191281212Y-69443126D01*
X191167986Y-69473628D01*
X191096317Y-69491927D01*
X191021903Y-69514483D01*
X190968436Y-69536505D01*
X190932978Y-69559570D01*
X190912591Y-69585256D01*
X190904335Y-69615141D01*
X190911428Y-69659608D01*
X190939133Y-69696298D01*
X190982638Y-69723466D01*
X191037106Y-69739676D01*
X191097694Y-69743490D01*
X191159564Y-69733473D01*
X191217875Y-69708188D01*
X191252673Y-69676660D01*
X191280033Y-69630791D01*
X191300469Y-69578767D01*
X191430012Y-69578767D01*
X191442157Y-69578773D01*
X191497275Y-69579253D01*
X191531754Y-69581255D01*
X191550412Y-69585823D01*
X191558072Y-69594003D01*
X191559554Y-69606837D01*
X191559082Y-69619487D01*
X191543174Y-69687259D01*
X191507931Y-69755808D01*
X191457774Y-69818054D01*
X191397123Y-69866920D01*
X191378383Y-69877058D01*
X191331861Y-69896834D01*
X191282254Y-69913026D01*
X191233493Y-69923461D01*
X191141297Y-69932823D01*
X191043040Y-69932406D01*
X190946538Y-69922765D01*
X190859605Y-69904457D01*
X190790057Y-69878036D01*
X190770513Y-69866977D01*
X190706429Y-69815197D01*
X190658361Y-69750984D01*
X190627256Y-69678891D01*
X190614058Y-69603471D01*
X190619715Y-69529277D01*
X190645171Y-69460864D01*
X190691371Y-69402785D01*
X190705169Y-69390711D01*
X190742139Y-69363060D01*
X190783416Y-69340471D01*
X190834427Y-69320706D01*
X190900601Y-69301524D01*
X190987364Y-69280688D01*
X191005968Y-69276421D01*
X191096097Y-69253722D01*
X191163097Y-69232505D01*
X191209543Y-69211655D01*
X191238009Y-69190060D01*
X191251068Y-69166604D01*
X191253616Y-69153186D01*
X191247780Y-69110655D01*
X191219153Y-69079063D01*
X191169044Y-69059390D01*
X191098761Y-69052615D01*
X191069168Y-69053928D01*
X191003377Y-69068588D01*
X190954307Y-69098066D01*
X190925493Y-69140568D01*
X190909733Y-69184153D01*
X190639446Y-69184153D01*
X190647592Y-69141403D01*
X190648491Y-69136893D01*
X190678060Y-69056260D01*
X190729318Y-68984578D01*
X190798214Y-68926288D01*
X190880696Y-68885833D01*
X190926766Y-68874487D01*
X191000259Y-68865419D01*
X191083906Y-68861878D01*
X191169094Y-68863887D01*
G37*
G36*
X163994704Y-67197512D02*
G01*
X163995559Y-67270274D01*
X163995502Y-67312744D01*
X163994379Y-67369075D01*
X163990948Y-67410266D01*
X163984032Y-67443379D01*
X163972458Y-67475477D01*
X163955048Y-67513620D01*
X163902658Y-67602575D01*
X163829725Y-67681711D01*
X163739634Y-67741569D01*
X163630726Y-67783526D01*
X163614422Y-67787610D01*
X163534326Y-67797767D01*
X163444132Y-67796907D01*
X163354712Y-67785615D01*
X163276936Y-67764476D01*
X163273778Y-67763264D01*
X163187183Y-67716330D01*
X163110862Y-67649327D01*
X163050009Y-67567838D01*
X163009820Y-67477447D01*
X163008761Y-67473889D01*
X163006707Y-67461317D01*
X163012542Y-67453626D01*
X163030870Y-67449618D01*
X163066297Y-67448093D01*
X163123427Y-67447851D01*
X163245986Y-67447852D01*
X163283804Y-67495248D01*
X163284020Y-67495518D01*
X163335464Y-67543314D01*
X163398796Y-67570671D01*
X163478179Y-67579389D01*
X163547439Y-67571182D01*
X163614977Y-67543498D01*
X163667239Y-67499046D01*
X163700978Y-67440704D01*
X163712946Y-67371352D01*
X163712946Y-67329467D01*
X163352751Y-67329467D01*
X163336534Y-67329474D01*
X163229754Y-67329736D01*
X163146219Y-67329601D01*
X163083239Y-67327987D01*
X163038124Y-67323813D01*
X163008184Y-67315999D01*
X162990730Y-67303464D01*
X162983072Y-67285127D01*
X162982520Y-67259907D01*
X162986385Y-67226723D01*
X162991976Y-67184495D01*
X162999387Y-67145313D01*
X163275582Y-67145313D01*
X163724264Y-67145313D01*
X163712060Y-67102563D01*
X163699133Y-67067122D01*
X163657666Y-67004971D01*
X163598976Y-66961793D01*
X163525506Y-66939717D01*
X163485625Y-66937435D01*
X163414348Y-66950366D01*
X163354415Y-66984019D01*
X163309689Y-67035780D01*
X163284038Y-67103035D01*
X163275582Y-67145313D01*
X162999387Y-67145313D01*
X163007736Y-67101170D01*
X163046957Y-66994631D01*
X163104300Y-66901064D01*
X163177391Y-66824109D01*
X163263856Y-66767411D01*
X163265911Y-66766403D01*
X163301245Y-66750358D01*
X163333207Y-66740025D01*
X163369214Y-66734171D01*
X163416683Y-66731564D01*
X163483031Y-66730968D01*
X163507375Y-66731004D01*
X163565606Y-66731967D01*
X163607821Y-66735323D01*
X163641731Y-66742500D01*
X163675047Y-66754928D01*
X163715481Y-66774035D01*
X163767672Y-66804040D01*
X163849687Y-66870307D01*
X163917488Y-66950027D01*
X163965034Y-67036838D01*
X163975632Y-67065333D01*
X163985676Y-67102199D01*
X163991721Y-67143873D01*
X163991801Y-67145313D01*
X163994704Y-67197512D01*
G37*
G36*
X154964004Y-71840685D02*
G01*
X154952899Y-71908447D01*
X154921557Y-71960426D01*
X154869194Y-71998230D01*
X154808225Y-72017874D01*
X154736248Y-72024179D01*
X154662939Y-72017336D01*
X154596748Y-71998153D01*
X154546125Y-71967434D01*
X154521475Y-71949210D01*
X154508794Y-71952738D01*
X154505282Y-71979337D01*
X154505153Y-71987261D01*
X154501812Y-72001342D01*
X154489526Y-72008791D01*
X154462508Y-72011715D01*
X154414971Y-72012222D01*
X154324661Y-72012222D01*
X154335476Y-71956318D01*
X154337845Y-71938825D01*
X154341276Y-71893183D01*
X154344083Y-71830790D01*
X154346026Y-71757515D01*
X154346194Y-71741814D01*
X154518436Y-71741814D01*
X154518500Y-71748167D01*
X154529436Y-71816963D01*
X154558410Y-71868699D01*
X154604387Y-71901450D01*
X154653676Y-71915810D01*
X154709008Y-71915782D01*
X154753773Y-71897722D01*
X154783737Y-71863548D01*
X154794666Y-71815181D01*
X154790824Y-71792900D01*
X154764892Y-71757564D01*
X154715999Y-71729885D01*
X154645889Y-71711083D01*
X154600685Y-71702682D01*
X154560940Y-71694259D01*
X154538299Y-71688184D01*
X154526185Y-71688320D01*
X154520064Y-71704482D01*
X154518436Y-71741814D01*
X154346194Y-71741814D01*
X154346863Y-71679223D01*
X154347306Y-71609784D01*
X154349061Y-71537810D01*
X154352895Y-71484796D01*
X154359619Y-71446558D01*
X154370049Y-71418913D01*
X154384995Y-71397679D01*
X154405271Y-71378673D01*
X154424630Y-71365972D01*
X154478989Y-71346022D01*
X154548063Y-71333745D01*
X154624810Y-71329357D01*
X154702185Y-71333072D01*
X154773145Y-71345107D01*
X154830646Y-71365675D01*
X154869715Y-71389770D01*
X154912102Y-71435186D01*
X154938895Y-71497609D01*
X154950675Y-71538685D01*
X154860942Y-71538685D01*
X154847146Y-71538661D01*
X154804891Y-71537521D01*
X154781026Y-71533118D01*
X154769188Y-71523331D01*
X154763017Y-71506039D01*
X154758320Y-71492656D01*
X154732206Y-71461260D01*
X154692948Y-71442725D01*
X154646803Y-71436554D01*
X154600025Y-71442247D01*
X154558867Y-71459307D01*
X154529586Y-71487234D01*
X154518436Y-71525531D01*
X154521741Y-71550823D01*
X154537331Y-71576095D01*
X154568875Y-71595445D01*
X154619825Y-71610818D01*
X154693631Y-71624156D01*
X154700055Y-71625128D01*
X154789972Y-71641354D01*
X154857067Y-71660231D01*
X154904617Y-71683983D01*
X154935902Y-71714833D01*
X154954200Y-71755006D01*
X154962790Y-71806727D01*
X154963092Y-71815181D01*
X154964004Y-71840685D01*
G37*
G36*
X165000725Y-71856790D02*
G01*
X164986690Y-71920428D01*
X164955681Y-71966934D01*
X164905782Y-71999813D01*
X164844139Y-72018155D01*
X164771508Y-72023791D01*
X164698141Y-72016660D01*
X164632359Y-71997597D01*
X164582480Y-71967434D01*
X164557829Y-71949210D01*
X164545148Y-71952738D01*
X164541636Y-71979337D01*
X164541508Y-71987261D01*
X164538166Y-72001342D01*
X164525880Y-72008791D01*
X164498862Y-72011715D01*
X164451326Y-72012222D01*
X164361015Y-72012222D01*
X164371830Y-71956318D01*
X164374199Y-71938825D01*
X164377630Y-71893183D01*
X164380437Y-71830790D01*
X164382380Y-71757515D01*
X164382548Y-71741814D01*
X164554790Y-71741814D01*
X164554855Y-71748167D01*
X164565790Y-71816963D01*
X164594764Y-71868699D01*
X164640741Y-71901450D01*
X164690076Y-71915531D01*
X164744434Y-71915600D01*
X164789290Y-71899310D01*
X164819776Y-71868605D01*
X164831020Y-71825432D01*
X164827067Y-71797475D01*
X164802343Y-71758894D01*
X164754314Y-71730285D01*
X164682243Y-71711083D01*
X164637039Y-71702682D01*
X164597294Y-71694259D01*
X164574653Y-71688184D01*
X164562539Y-71688320D01*
X164556418Y-71704482D01*
X164554790Y-71741814D01*
X164382548Y-71741814D01*
X164383218Y-71679223D01*
X164383660Y-71609784D01*
X164385415Y-71537810D01*
X164389249Y-71484796D01*
X164395974Y-71446558D01*
X164406403Y-71418913D01*
X164421349Y-71397679D01*
X164441625Y-71378673D01*
X164460984Y-71365972D01*
X164515343Y-71346022D01*
X164584418Y-71333745D01*
X164661164Y-71329357D01*
X164738540Y-71333072D01*
X164809500Y-71345107D01*
X164867000Y-71365675D01*
X164906069Y-71389770D01*
X164948456Y-71435186D01*
X164975249Y-71497609D01*
X164987029Y-71538685D01*
X164897297Y-71538685D01*
X164883500Y-71538661D01*
X164841246Y-71537521D01*
X164817380Y-71533118D01*
X164805542Y-71523331D01*
X164799371Y-71506039D01*
X164794674Y-71492656D01*
X164768560Y-71461260D01*
X164729303Y-71442725D01*
X164683157Y-71436554D01*
X164636379Y-71442247D01*
X164595221Y-71459307D01*
X164565940Y-71487234D01*
X164554790Y-71525531D01*
X164558095Y-71550823D01*
X164573685Y-71576095D01*
X164605230Y-71595445D01*
X164656179Y-71610818D01*
X164729985Y-71624156D01*
X164737738Y-71625334D01*
X164830350Y-71642588D01*
X164899741Y-71663393D01*
X164948757Y-71689838D01*
X164980245Y-71724014D01*
X164997050Y-71768011D01*
X165002019Y-71823919D01*
X165001959Y-71825432D01*
X165000725Y-71856790D01*
G37*
G36*
X174872540Y-71334819D02*
G01*
X174939923Y-71336118D01*
X174987823Y-71339995D01*
X175022152Y-71347194D01*
X175048821Y-71358458D01*
X175049281Y-71358711D01*
X175101156Y-71401235D01*
X175132810Y-71460103D01*
X175143555Y-71534033D01*
X175143329Y-71553516D01*
X175138993Y-71589117D01*
X175125257Y-71614891D01*
X175097108Y-71642552D01*
X175082153Y-71655416D01*
X175057172Y-71675472D01*
X175044657Y-71683376D01*
X175037504Y-71684790D01*
X175009266Y-71691558D01*
X174965094Y-71702646D01*
X174910697Y-71716635D01*
X174879905Y-71724798D01*
X174813711Y-71744416D01*
X174768489Y-71762419D01*
X174740642Y-71780941D01*
X174726573Y-71802113D01*
X174722682Y-71828068D01*
X174726242Y-71850801D01*
X174750253Y-71884455D01*
X174794476Y-71905986D01*
X174856067Y-71913568D01*
X174891264Y-71911670D01*
X174925974Y-71900550D01*
X174958587Y-71874934D01*
X174967912Y-71865532D01*
X174990058Y-71838280D01*
X174998912Y-71819030D01*
X175006508Y-71809363D01*
X175033539Y-71803548D01*
X175083352Y-71801761D01*
X175167791Y-71801761D01*
X175154472Y-71851087D01*
X175146904Y-71873698D01*
X175108922Y-71935269D01*
X175051600Y-71983347D01*
X174979181Y-72013991D01*
X174972585Y-72015390D01*
X174935377Y-72019175D01*
X174883561Y-72020840D01*
X174826228Y-72020027D01*
X174815051Y-72019518D01*
X174719572Y-72006560D01*
X174645746Y-71978852D01*
X174593322Y-71936198D01*
X174562051Y-71878402D01*
X174551683Y-71805270D01*
X174554197Y-71766393D01*
X174567901Y-71720520D01*
X174596148Y-71683740D01*
X174641878Y-71653643D01*
X174708031Y-71627822D01*
X174797545Y-71603869D01*
X174849297Y-71590983D01*
X174908100Y-71572421D01*
X174946094Y-71553448D01*
X174966517Y-71532273D01*
X174972605Y-71507107D01*
X174972583Y-71505113D01*
X174962067Y-71471084D01*
X174930963Y-71449163D01*
X174877232Y-71437870D01*
X174819365Y-71440402D01*
X174772043Y-71460388D01*
X174742582Y-71496168D01*
X174735049Y-71509401D01*
X174720098Y-71519783D01*
X174692854Y-71524449D01*
X174646331Y-71525531D01*
X174634984Y-71525520D01*
X174594813Y-71524644D01*
X174574510Y-71520839D01*
X174568747Y-71511979D01*
X174572193Y-71495935D01*
X174584398Y-71462147D01*
X174617917Y-71406557D01*
X174666460Y-71365667D01*
X174690489Y-71352265D01*
X174716156Y-71343090D01*
X174748804Y-71337803D01*
X174794872Y-71335381D01*
X174860797Y-71334801D01*
X174872540Y-71334819D01*
G37*
G36*
X156915492Y-68870358D02*
G01*
X156998083Y-68903457D01*
X157071662Y-68956532D01*
X157136043Y-69016754D01*
X157136043Y-68881616D01*
X157399119Y-68881616D01*
X157399119Y-69907613D01*
X157124854Y-69907613D01*
X157120583Y-69568902D01*
X157119171Y-69470553D01*
X157117063Y-69379129D01*
X157113862Y-69307893D01*
X157108961Y-69253570D01*
X157101754Y-69212885D01*
X157091637Y-69182564D01*
X157078004Y-69159331D01*
X157060249Y-69139911D01*
X157037767Y-69121031D01*
X156988122Y-69094204D01*
X156930172Y-69084207D01*
X156873409Y-69092161D01*
X156824667Y-69117046D01*
X156790776Y-69157846D01*
X156785710Y-69169215D01*
X156779806Y-69188492D01*
X156775333Y-69214239D01*
X156772101Y-69249764D01*
X156769919Y-69298371D01*
X156768595Y-69363367D01*
X156767938Y-69448058D01*
X156767757Y-69555748D01*
X156767737Y-69907613D01*
X156478353Y-69907613D01*
X156478353Y-69583582D01*
X156478328Y-69551180D01*
X156477642Y-69441713D01*
X156475675Y-69354599D01*
X156471966Y-69286703D01*
X156466056Y-69234892D01*
X156457484Y-69196032D01*
X156445793Y-69166990D01*
X156430520Y-69144631D01*
X156411208Y-69125822D01*
X156378479Y-69104487D01*
X156319403Y-69087024D01*
X156257962Y-69089054D01*
X156201495Y-69109909D01*
X156157341Y-69148921D01*
X156152513Y-69155743D01*
X156145326Y-69168755D01*
X156139738Y-69185594D01*
X156135494Y-69209470D01*
X156132335Y-69243596D01*
X156130003Y-69291183D01*
X156128240Y-69355442D01*
X156126788Y-69439585D01*
X156125390Y-69546824D01*
X156121003Y-69907613D01*
X155831215Y-69907613D01*
X155837006Y-69516287D01*
X155837995Y-69453240D01*
X155840311Y-69340109D01*
X155843401Y-69248738D01*
X155847778Y-69176054D01*
X155853955Y-69118987D01*
X155862444Y-69074465D01*
X155873757Y-69039416D01*
X155888409Y-69010768D01*
X155906910Y-68985452D01*
X155929773Y-68960393D01*
X155969532Y-68925070D01*
X156032737Y-68889294D01*
X156108406Y-68869090D01*
X156202123Y-68862450D01*
X156220911Y-68862418D01*
X156273535Y-68863936D01*
X156311988Y-68869508D01*
X156345693Y-68881115D01*
X156384076Y-68900741D01*
X156414211Y-68919101D01*
X156456753Y-68950182D01*
X156486846Y-68978368D01*
X156519470Y-69017140D01*
X156559376Y-68968727D01*
X156591787Y-68935418D01*
X156662037Y-68889765D01*
X156742631Y-68863627D01*
X156828728Y-68857120D01*
X156915492Y-68870358D01*
G37*
G36*
X156901365Y-66730999D02*
G01*
X156964722Y-66731894D01*
X157010588Y-66734802D01*
X157045843Y-66740759D01*
X157077367Y-66750801D01*
X157112039Y-66765963D01*
X157169347Y-66797121D01*
X157256527Y-66866728D01*
X157324424Y-66954006D01*
X157372667Y-67058427D01*
X157400887Y-67179459D01*
X157403431Y-67199809D01*
X157405615Y-67320830D01*
X157385936Y-67433851D01*
X157346004Y-67536323D01*
X157287428Y-67625694D01*
X157211817Y-67699414D01*
X157120780Y-67754932D01*
X157015926Y-67789696D01*
X156996603Y-67793226D01*
X156913079Y-67799311D01*
X156822372Y-67794430D01*
X156735244Y-67779611D01*
X156662455Y-67755884D01*
X156642402Y-67746200D01*
X156558441Y-67689242D01*
X156488243Y-67614451D01*
X156435963Y-67527063D01*
X156405752Y-67432310D01*
X156396840Y-67383885D01*
X156531794Y-67379695D01*
X156532990Y-67379658D01*
X156593759Y-67378197D01*
X156633249Y-67378806D01*
X156656371Y-67382197D01*
X156668040Y-67389081D01*
X156673169Y-67400170D01*
X156679525Y-67420386D01*
X156706502Y-67475435D01*
X156742532Y-67523460D01*
X156781013Y-67554984D01*
X156782905Y-67555976D01*
X156833858Y-67572974D01*
X156893836Y-67579389D01*
X156923645Y-67577772D01*
X156987487Y-67559342D01*
X157039591Y-67518936D01*
X157082648Y-67454779D01*
X157089388Y-67441298D01*
X157103363Y-67407369D01*
X157111533Y-67372046D01*
X157115361Y-67327036D01*
X157116312Y-67264049D01*
X157116303Y-67256256D01*
X157114915Y-67193779D01*
X157110245Y-67148480D01*
X157100951Y-67112147D01*
X157085692Y-67076563D01*
X157083140Y-67071467D01*
X157038656Y-67004982D01*
X156984024Y-66961851D01*
X156917276Y-66940482D01*
X156897622Y-66938287D01*
X156825244Y-66944763D01*
X156763777Y-66974339D01*
X156715603Y-67025429D01*
X156683099Y-67096449D01*
X156678229Y-67106043D01*
X156666229Y-67113034D01*
X156642629Y-67116601D01*
X156602539Y-67117423D01*
X156541069Y-67116180D01*
X156406007Y-67112429D01*
X156409640Y-67067509D01*
X156416355Y-67027166D01*
X156447190Y-66950259D01*
X156498479Y-66877886D01*
X156566469Y-66814812D01*
X156647406Y-66765799D01*
X156657464Y-66761145D01*
X156690515Y-66747532D01*
X156722376Y-66738739D01*
X156759920Y-66733734D01*
X156810019Y-66731488D01*
X156879544Y-66730968D01*
X156901365Y-66730999D01*
G37*
G36*
X188572795Y-71336397D02*
G01*
X188646302Y-71344727D01*
X188701307Y-71361457D01*
X188741970Y-71388015D01*
X188772451Y-71425824D01*
X188788478Y-71462719D01*
X188797234Y-71520415D01*
X188791006Y-71577146D01*
X188769927Y-71622494D01*
X188759008Y-71635792D01*
X188739958Y-71654441D01*
X188716374Y-71669393D01*
X188682985Y-71683070D01*
X188634520Y-71697893D01*
X188565709Y-71716281D01*
X188517747Y-71729140D01*
X188456203Y-71748097D01*
X188415003Y-71765732D01*
X188390684Y-71784191D01*
X188379787Y-71805620D01*
X188378849Y-71832166D01*
X188378866Y-71832343D01*
X188394665Y-71869831D01*
X188429360Y-71898548D01*
X188476039Y-71914677D01*
X188527787Y-71914401D01*
X188537050Y-71912224D01*
X188576079Y-71895783D01*
X188613456Y-71871129D01*
X188641508Y-71844047D01*
X188652563Y-71820322D01*
X188652721Y-71818277D01*
X188661986Y-71808461D01*
X188688669Y-71803276D01*
X188737145Y-71801761D01*
X188821726Y-71801761D01*
X188810935Y-71839389D01*
X188807886Y-71849449D01*
X188773748Y-71920236D01*
X188721930Y-71971976D01*
X188650680Y-72006492D01*
X188630043Y-72011960D01*
X188564181Y-72020303D01*
X188481564Y-72021029D01*
X188450836Y-72019313D01*
X188360095Y-72004833D01*
X188291088Y-71976481D01*
X188242906Y-71933533D01*
X188214640Y-71875264D01*
X188205383Y-71800953D01*
X188209091Y-71753384D01*
X188223559Y-71711815D01*
X188251909Y-71678560D01*
X188297236Y-71651137D01*
X188362634Y-71627067D01*
X188451196Y-71603869D01*
X188502948Y-71590983D01*
X188561751Y-71572421D01*
X188599745Y-71553448D01*
X188620168Y-71532273D01*
X188626256Y-71507107D01*
X188626234Y-71505113D01*
X188615718Y-71471084D01*
X188584614Y-71449163D01*
X188530883Y-71437870D01*
X188473016Y-71440402D01*
X188425694Y-71460388D01*
X188396233Y-71496168D01*
X188388972Y-71509053D01*
X188374146Y-71519651D01*
X188347123Y-71524422D01*
X188300868Y-71525531D01*
X188266006Y-71524504D01*
X188230964Y-71519557D01*
X188218488Y-71511076D01*
X188223164Y-71487016D01*
X188244264Y-71444926D01*
X188276876Y-71402889D01*
X188314926Y-71369800D01*
X188317819Y-71367893D01*
X188343281Y-71352718D01*
X188368210Y-71343045D01*
X188399316Y-71337649D01*
X188443306Y-71335309D01*
X188506888Y-71334801D01*
X188572795Y-71336397D01*
G37*
G36*
X162741946Y-72387358D02*
G01*
X162796188Y-72389439D01*
X162836099Y-72394616D01*
X162869191Y-72404068D01*
X162902973Y-72418976D01*
X162922238Y-72429047D01*
X163006143Y-72490107D01*
X163071963Y-72569704D01*
X163118888Y-72666636D01*
X163146108Y-72779702D01*
X163148855Y-72801997D01*
X163150045Y-72915064D01*
X163130550Y-73021404D01*
X163092018Y-73117728D01*
X163036096Y-73200745D01*
X162964433Y-73267166D01*
X162878675Y-73313699D01*
X162851895Y-73322661D01*
X162784317Y-73335606D01*
X162698916Y-73340071D01*
X162681969Y-73340121D01*
X162627477Y-73338641D01*
X162586615Y-73332922D01*
X162549283Y-73320899D01*
X162505381Y-73300510D01*
X162449457Y-73267140D01*
X162379064Y-73201731D01*
X162329278Y-73119996D01*
X162299983Y-73021776D01*
X162291143Y-72972449D01*
X162384229Y-72972449D01*
X162422488Y-72972963D01*
X162457511Y-72976056D01*
X162476129Y-72983117D01*
X162484088Y-72995469D01*
X162487508Y-73005186D01*
X162501274Y-73037488D01*
X162519848Y-73076571D01*
X162530360Y-73095190D01*
X162574982Y-73144250D01*
X162631040Y-73174120D01*
X162693869Y-73185137D01*
X162758803Y-73177642D01*
X162821175Y-73151975D01*
X162876321Y-73108474D01*
X162919572Y-73047480D01*
X162936242Y-73011667D01*
X162947926Y-72973467D01*
X162953746Y-72928575D01*
X162955661Y-72867219D01*
X162955677Y-72865270D01*
X162954843Y-72805537D01*
X162950000Y-72761858D01*
X162939272Y-72724334D01*
X162920784Y-72683066D01*
X162898964Y-72644417D01*
X162850886Y-72589299D01*
X162790909Y-72555830D01*
X162715316Y-72541450D01*
X162700915Y-72540600D01*
X162657370Y-72541405D01*
X162623315Y-72551075D01*
X162585758Y-72572748D01*
X162569977Y-72584185D01*
X162532846Y-72618602D01*
X162507133Y-72652634D01*
X162501192Y-72663459D01*
X162487999Y-72682106D01*
X162470783Y-72691865D01*
X162442118Y-72695610D01*
X162394574Y-72696220D01*
X162348508Y-72695094D01*
X162317127Y-72688457D01*
X162305795Y-72671854D01*
X162311908Y-72640846D01*
X162332861Y-72590989D01*
X162366467Y-72531112D01*
X162421301Y-72471396D01*
X162496219Y-72422051D01*
X162524907Y-72407797D01*
X162555231Y-72396837D01*
X162589593Y-72390583D01*
X162635411Y-72387763D01*
X162700103Y-72387105D01*
X162741946Y-72387358D01*
G37*
G36*
X187656162Y-71144040D02*
G01*
X187744950Y-71144070D01*
X187744950Y-71341377D01*
X187850181Y-71341377D01*
X187850181Y-71459762D01*
X187746611Y-71459762D01*
X187742492Y-71696264D01*
X187738374Y-71932767D01*
X187701916Y-71969206D01*
X187688331Y-71981943D01*
X187668570Y-71995020D01*
X187643054Y-72002884D01*
X187604934Y-72007351D01*
X187547359Y-72010242D01*
X187429259Y-72014839D01*
X187429259Y-71882196D01*
X187484855Y-71878151D01*
X187502858Y-71876256D01*
X187529883Y-71868646D01*
X187549080Y-71852723D01*
X187561757Y-71824895D01*
X187569224Y-71781568D01*
X187572788Y-71719151D01*
X187573757Y-71634050D01*
X187573951Y-71459762D01*
X187426273Y-71459762D01*
X187432117Y-71419946D01*
X187433122Y-71412689D01*
X187434515Y-71388250D01*
X187429553Y-71384432D01*
X187417892Y-71401953D01*
X187399185Y-71441527D01*
X187373087Y-71503874D01*
X187339254Y-71589708D01*
X187297340Y-71699748D01*
X187281118Y-71743173D01*
X187247629Y-71835399D01*
X187220785Y-71913170D01*
X187201395Y-71974007D01*
X187190268Y-72015425D01*
X187188212Y-72034943D01*
X187188949Y-72036987D01*
X187211633Y-72076729D01*
X187246682Y-72097993D01*
X187299760Y-72104298D01*
X187363490Y-72104298D01*
X187363490Y-72248990D01*
X187277568Y-72248990D01*
X187239081Y-72247818D01*
X187167651Y-72236016D01*
X187113243Y-72210065D01*
X187071281Y-72168174D01*
X187061623Y-72151392D01*
X187042537Y-72110598D01*
X187017547Y-72051962D01*
X186988271Y-71979418D01*
X186956326Y-71896899D01*
X186923328Y-71808338D01*
X186899607Y-71743575D01*
X186867056Y-71655197D01*
X186836905Y-71573879D01*
X186810800Y-71504037D01*
X186790387Y-71450089D01*
X186777312Y-71416450D01*
X186746647Y-71340253D01*
X186840198Y-71344104D01*
X186933749Y-71347954D01*
X187004538Y-71571084D01*
X187028610Y-71646670D01*
X187049285Y-71710446D01*
X187064379Y-71754892D01*
X187075063Y-71783072D01*
X187082511Y-71798051D01*
X187087895Y-71802894D01*
X187092388Y-71800665D01*
X187096948Y-71789489D01*
X187108377Y-71756855D01*
X187125157Y-71706919D01*
X187145912Y-71643789D01*
X187169264Y-71571569D01*
X187241011Y-71347954D01*
X187576001Y-71340576D01*
X187571688Y-71242293D01*
X187567374Y-71144009D01*
X187656162Y-71144040D01*
G37*
G36*
X154883511Y-72917220D02*
G01*
X154886115Y-72959364D01*
X154884211Y-73017754D01*
X154879355Y-73069662D01*
X154857461Y-73157321D01*
X154817973Y-73226987D01*
X154759371Y-73280920D01*
X154680136Y-73321380D01*
X154671588Y-73324346D01*
X154610705Y-73335129D01*
X154528805Y-73336246D01*
X154458921Y-73328580D01*
X154379770Y-73302992D01*
X154318055Y-73259123D01*
X154272111Y-73196064D01*
X154240781Y-73136872D01*
X154316761Y-73132840D01*
X154341614Y-73132037D01*
X154384743Y-73135406D01*
X154406261Y-73146597D01*
X154431269Y-73170895D01*
X154482396Y-73197281D01*
X154541624Y-73209908D01*
X154599966Y-73207246D01*
X154648436Y-73187768D01*
X154656161Y-73181550D01*
X154685101Y-73144573D01*
X154707042Y-73097118D01*
X154715743Y-73051795D01*
X154715708Y-73049240D01*
X154713947Y-73040528D01*
X154706953Y-73034208D01*
X154691216Y-73029895D01*
X154663221Y-73027207D01*
X154619458Y-73025762D01*
X154556411Y-73025175D01*
X154470570Y-73025065D01*
X154225398Y-73025065D01*
X154232470Y-72947070D01*
X154238823Y-72904848D01*
X154239535Y-72902715D01*
X154403989Y-72902715D01*
X154406795Y-72911051D01*
X154419364Y-72916116D01*
X154445832Y-72918725D01*
X154490336Y-72919693D01*
X154557011Y-72919834D01*
X154610845Y-72919717D01*
X154660236Y-72918819D01*
X154691061Y-72916378D01*
X154707680Y-72911636D01*
X154714454Y-72903833D01*
X154715743Y-72892211D01*
X154713699Y-72879899D01*
X154694653Y-72846285D01*
X154661423Y-72812090D01*
X154621181Y-72783912D01*
X154581100Y-72768349D01*
X154530565Y-72768233D01*
X154477648Y-72789853D01*
X154434838Y-72831614D01*
X154406826Y-72890238D01*
X154406811Y-72890291D01*
X154403989Y-72902715D01*
X154239535Y-72902715D01*
X154267078Y-72820176D01*
X154312532Y-72746348D01*
X154371518Y-72690135D01*
X154401375Y-72671038D01*
X154433861Y-72657213D01*
X154473301Y-72649717D01*
X154529364Y-72645837D01*
X154589543Y-72646330D01*
X154677569Y-72662607D01*
X154750183Y-72699332D01*
X154809440Y-72757716D01*
X154857392Y-72838966D01*
X154858843Y-72842122D01*
X154874914Y-72881435D01*
X154877503Y-72892211D01*
X154883511Y-72917220D01*
G37*
G36*
X181943966Y-69388562D02*
G01*
X181942705Y-69437230D01*
X181925735Y-69561774D01*
X181889609Y-69671516D01*
X181835144Y-69764912D01*
X181763158Y-69840422D01*
X181674469Y-69896503D01*
X181639998Y-69911805D01*
X181597083Y-69925599D01*
X181551028Y-69932098D01*
X181490316Y-69933621D01*
X181438836Y-69931629D01*
X181354833Y-69916706D01*
X181284170Y-69885268D01*
X181220606Y-69835034D01*
X181174512Y-69790202D01*
X181179181Y-69848907D01*
X181183850Y-69907613D01*
X180904971Y-69907613D01*
X180904971Y-69394614D01*
X181187778Y-69394614D01*
X181187966Y-69430722D01*
X181189899Y-69487101D01*
X181194848Y-69528294D01*
X181203941Y-69561699D01*
X181218307Y-69594714D01*
X181221591Y-69601120D01*
X181255504Y-69650189D01*
X181295016Y-69685239D01*
X181353962Y-69709654D01*
X181424932Y-69718868D01*
X181492701Y-69709657D01*
X181495490Y-69708746D01*
X181537208Y-69684214D01*
X181579622Y-69642929D01*
X181615965Y-69592658D01*
X181639472Y-69541168D01*
X181647859Y-69498781D01*
X181653201Y-69434739D01*
X181653876Y-69364428D01*
X181649829Y-69298359D01*
X181641006Y-69247042D01*
X181616480Y-69191737D01*
X181573713Y-69137004D01*
X181522286Y-69098181D01*
X181505720Y-69091740D01*
X181462300Y-69082538D01*
X181413991Y-69078923D01*
X181388859Y-69079968D01*
X181321415Y-69096761D01*
X181266326Y-69135443D01*
X181220663Y-69197816D01*
X181207994Y-69222146D01*
X181197365Y-69250748D01*
X181191246Y-69284280D01*
X181188447Y-69329862D01*
X181187778Y-69394614D01*
X180904971Y-69394614D01*
X180904971Y-68500155D01*
X181194355Y-68500155D01*
X181194355Y-69003548D01*
X181221960Y-68968453D01*
X181237208Y-68952778D01*
X181274215Y-68924201D01*
X181317325Y-68898155D01*
X181354630Y-68880682D01*
X181391896Y-68869485D01*
X181436100Y-68864037D01*
X181496892Y-68862418D01*
X181497836Y-68862414D01*
X181558096Y-68863453D01*
X181602346Y-68868505D01*
X181640671Y-68879520D01*
X181683158Y-68898450D01*
X181703350Y-68909023D01*
X181787518Y-68970509D01*
X181854525Y-69050824D01*
X181903509Y-69148349D01*
X181933610Y-69261468D01*
X181941999Y-69364428D01*
X181943966Y-69388562D01*
G37*
G36*
X158382352Y-71617055D02*
G01*
X158382951Y-71709555D01*
X158379790Y-71744961D01*
X158358246Y-71836177D01*
X158317755Y-71909647D01*
X158257510Y-71966538D01*
X158176706Y-72008018D01*
X158140354Y-72017493D01*
X158072861Y-72023203D01*
X157999248Y-72019337D01*
X157929983Y-72006664D01*
X157875533Y-71985950D01*
X157831262Y-71953101D01*
X157783298Y-71898401D01*
X157750476Y-71837934D01*
X157748209Y-71827906D01*
X157754711Y-71819543D01*
X157777052Y-71815785D01*
X157820454Y-71814914D01*
X157855975Y-71815988D01*
X157887055Y-71819564D01*
X157899054Y-71824780D01*
X157900016Y-71827466D01*
X157915088Y-71843273D01*
X157942618Y-71864241D01*
X157943645Y-71864932D01*
X157991304Y-71885448D01*
X158047954Y-71893995D01*
X158103047Y-71890106D01*
X158146035Y-71873308D01*
X158177158Y-71842030D01*
X158204128Y-71793133D01*
X158214655Y-71743222D01*
X158214655Y-71709684D01*
X157724311Y-71709684D01*
X157731382Y-71631701D01*
X157737545Y-71587859D01*
X157738063Y-71586255D01*
X157903289Y-71586255D01*
X157904806Y-71594255D01*
X157916826Y-71599532D01*
X157943299Y-71602628D01*
X157988174Y-71604088D01*
X158055402Y-71604454D01*
X158093939Y-71604384D01*
X158148890Y-71603612D01*
X158184127Y-71601444D01*
X158203960Y-71597215D01*
X158212700Y-71590262D01*
X158214655Y-71579920D01*
X158214647Y-71578923D01*
X158202050Y-71538393D01*
X158169966Y-71501298D01*
X158125030Y-71471995D01*
X158073882Y-71454842D01*
X158023158Y-71454197D01*
X158017623Y-71455498D01*
X157983461Y-71471616D01*
X157949158Y-71497720D01*
X157922711Y-71526781D01*
X157912118Y-71551772D01*
X157911211Y-71559244D01*
X157904134Y-71583647D01*
X157903289Y-71586255D01*
X157738063Y-71586255D01*
X157766159Y-71499224D01*
X157813522Y-71427115D01*
X157877715Y-71373368D01*
X157956817Y-71339817D01*
X158048907Y-71328297D01*
X158078503Y-71329020D01*
X158155276Y-71340489D01*
X158220094Y-71368409D01*
X158281495Y-71415998D01*
X158285490Y-71419775D01*
X158335654Y-71478046D01*
X158367264Y-71541846D01*
X158374902Y-71579920D01*
X158382352Y-71617055D01*
G37*
G36*
X161060655Y-72644861D02*
G01*
X161110027Y-72653795D01*
X161151845Y-72675213D01*
X161197281Y-72713532D01*
X161240031Y-72753995D01*
X161240031Y-72656758D01*
X161322242Y-72656749D01*
X161404453Y-72656739D01*
X161400732Y-72992171D01*
X161397010Y-73327602D01*
X161226877Y-73327602D01*
X161226877Y-73104606D01*
X161225952Y-73010637D01*
X161222975Y-72932038D01*
X161218018Y-72877102D01*
X161211162Y-72847121D01*
X161184430Y-72812621D01*
X161140279Y-72785558D01*
X161090491Y-72775142D01*
X161071284Y-72775722D01*
X161039970Y-72781368D01*
X161016348Y-72795471D01*
X160999372Y-72821001D01*
X160987992Y-72860926D01*
X160981162Y-72918214D01*
X160977832Y-72995835D01*
X160976955Y-73096757D01*
X160976955Y-73327602D01*
X160805955Y-73327602D01*
X160805955Y-73125362D01*
X160805844Y-73091601D01*
X160804879Y-73020041D01*
X160803082Y-72957431D01*
X160800648Y-72909557D01*
X160797771Y-72882204D01*
X160793367Y-72865565D01*
X160766997Y-72819462D01*
X160727152Y-72788400D01*
X160679987Y-72774576D01*
X160631658Y-72780186D01*
X160588319Y-72807429D01*
X160583656Y-72812144D01*
X160573521Y-72824027D01*
X160566229Y-72838209D01*
X160561311Y-72858692D01*
X160558300Y-72889477D01*
X160556729Y-72934566D01*
X160556129Y-72997959D01*
X160556033Y-73083659D01*
X160556033Y-73327602D01*
X160467245Y-73327617D01*
X160378456Y-73327632D01*
X160382496Y-73054675D01*
X160383042Y-73019928D01*
X160384883Y-72932690D01*
X160387290Y-72866839D01*
X160390574Y-72818691D01*
X160395047Y-72784563D01*
X160401019Y-72760772D01*
X160408803Y-72743633D01*
X160413469Y-72735946D01*
X160454894Y-72688257D01*
X160509344Y-72659255D01*
X160581684Y-72646199D01*
X160587728Y-72645776D01*
X160650748Y-72644365D01*
X160697749Y-72651854D01*
X160737586Y-72670830D01*
X160779115Y-72703880D01*
X160807054Y-72728514D01*
X160825089Y-72740353D01*
X160835766Y-72737780D01*
X160845392Y-72722573D01*
X160849792Y-72715091D01*
X160889338Y-72676661D01*
X160947622Y-72652237D01*
X161020569Y-72643653D01*
X161060655Y-72644861D01*
G37*
G36*
X149437980Y-71639519D02*
G01*
X149438862Y-71652443D01*
X149434041Y-71753595D01*
X149408491Y-71842481D01*
X149363521Y-71916851D01*
X149300439Y-71974457D01*
X149220555Y-72013051D01*
X149218933Y-72013541D01*
X149186490Y-72018568D01*
X149138375Y-72021144D01*
X149084377Y-72020717D01*
X149023249Y-72014811D01*
X148942072Y-71991370D01*
X148878219Y-71949780D01*
X148829764Y-71889044D01*
X148818304Y-71868952D01*
X148802663Y-71839116D01*
X148796530Y-71823624D01*
X148805226Y-71819662D01*
X148833824Y-71816233D01*
X148875453Y-71814914D01*
X148910588Y-71816239D01*
X148942334Y-71821028D01*
X148954376Y-71828262D01*
X148954988Y-71830885D01*
X148969454Y-71847609D01*
X148997126Y-71867674D01*
X149036667Y-71884335D01*
X149095077Y-71893347D01*
X149153216Y-71889109D01*
X149199978Y-71871418D01*
X149203924Y-71868658D01*
X149236344Y-71832768D01*
X149260555Y-71784520D01*
X149270067Y-71736414D01*
X149270041Y-71734145D01*
X149268369Y-71725331D01*
X149261544Y-71718937D01*
X149246040Y-71714573D01*
X149218332Y-71711853D01*
X149174893Y-71710390D01*
X149112198Y-71709796D01*
X149026722Y-71709684D01*
X148783376Y-71709684D01*
X148783376Y-71652835D01*
X148791316Y-71590647D01*
X148954376Y-71590647D01*
X148959121Y-71594777D01*
X148987175Y-71600070D01*
X149039164Y-71603337D01*
X149113647Y-71604454D01*
X149272919Y-71604454D01*
X149263891Y-71568281D01*
X149252900Y-71539015D01*
X149218530Y-71495153D01*
X149171161Y-71465561D01*
X149117238Y-71452419D01*
X149063206Y-71457910D01*
X149015510Y-71484214D01*
X149005168Y-71494726D01*
X148981243Y-71527454D01*
X148962166Y-71563164D01*
X148954376Y-71590647D01*
X148791316Y-71590647D01*
X148793941Y-71570086D01*
X148827982Y-71484994D01*
X148882752Y-71412309D01*
X148896882Y-71398852D01*
X148955148Y-71357881D01*
X149021798Y-71335285D01*
X149104118Y-71328297D01*
X149157633Y-71331766D01*
X149246181Y-71355607D01*
X149320678Y-71400343D01*
X149378935Y-71463932D01*
X149418765Y-71544338D01*
X149430901Y-71604454D01*
X149437980Y-71639519D01*
G37*
G36*
X158308071Y-72989175D02*
G01*
X158300247Y-73073364D01*
X158275627Y-73152828D01*
X158234890Y-73223193D01*
X158178715Y-73280085D01*
X158107781Y-73319129D01*
X158058426Y-73330997D01*
X157991929Y-73336555D01*
X157921865Y-73334625D01*
X157857916Y-73325516D01*
X157809764Y-73309542D01*
X157798658Y-73303347D01*
X157747068Y-73264515D01*
X157703748Y-73216738D01*
X157676989Y-73168805D01*
X157663564Y-73130295D01*
X157741803Y-73130295D01*
X157776346Y-73131602D01*
X157808011Y-73136395D01*
X157820041Y-73143642D01*
X157820653Y-73146266D01*
X157835120Y-73162989D01*
X157862791Y-73183055D01*
X157865872Y-73184866D01*
X157914555Y-73202590D01*
X157971618Y-73209144D01*
X158026446Y-73204285D01*
X158068426Y-73187768D01*
X158076151Y-73181550D01*
X158105090Y-73144573D01*
X158127032Y-73097118D01*
X158135732Y-73051795D01*
X158135706Y-73049525D01*
X158134035Y-73040712D01*
X158127210Y-73034317D01*
X158111706Y-73029954D01*
X158083997Y-73027234D01*
X158040559Y-73025771D01*
X157977864Y-73025177D01*
X157892387Y-73025065D01*
X157649042Y-73025065D01*
X157649042Y-72974837D01*
X157649632Y-72957046D01*
X157659098Y-72902385D01*
X157826334Y-72902385D01*
X157829418Y-72918688D01*
X157842955Y-72921193D01*
X157878051Y-72922980D01*
X157928660Y-72923523D01*
X157989067Y-72922680D01*
X158138362Y-72918948D01*
X158129495Y-72883218D01*
X158110835Y-72840600D01*
X158072953Y-72800797D01*
X158024171Y-72775457D01*
X157970765Y-72766502D01*
X157919011Y-72775849D01*
X157875184Y-72805421D01*
X157853772Y-72833943D01*
X157833582Y-72872649D01*
X157833196Y-72873681D01*
X157826334Y-72902385D01*
X157659098Y-72902385D01*
X157662739Y-72881362D01*
X157689962Y-72807424D01*
X157727201Y-72747176D01*
X157747193Y-72725772D01*
X157812346Y-72680087D01*
X157889211Y-72652381D01*
X157972087Y-72642906D01*
X158055273Y-72651913D01*
X158133070Y-72679652D01*
X158199775Y-72726375D01*
X158223979Y-72752007D01*
X158270616Y-72824122D01*
X158298421Y-72904636D01*
X158300055Y-72918948D01*
X158308071Y-72989175D01*
G37*
G36*
X178099323Y-71642624D02*
G01*
X178096014Y-71733585D01*
X178074805Y-71819707D01*
X178036449Y-71893120D01*
X178002081Y-71934670D01*
X177950203Y-71975914D01*
X177882765Y-72006658D01*
X177875860Y-72009032D01*
X177791927Y-72025296D01*
X177706197Y-72021531D01*
X177624738Y-71999329D01*
X177553622Y-71960284D01*
X177498919Y-71905986D01*
X177481365Y-71880914D01*
X177462486Y-71846798D01*
X177462939Y-71826755D01*
X177483762Y-71817292D01*
X177525995Y-71814914D01*
X177570077Y-71817570D01*
X177604310Y-71829171D01*
X177638260Y-71854376D01*
X177646223Y-71861211D01*
X177676614Y-71881977D01*
X177709390Y-71891532D01*
X177756408Y-71893837D01*
X177781684Y-71893461D01*
X177817840Y-71888856D01*
X177844925Y-71875515D01*
X177874334Y-71849114D01*
X177887681Y-71834553D01*
X177910169Y-71802570D01*
X177919057Y-71777844D01*
X177920158Y-71761564D01*
X177927041Y-71730491D01*
X177927947Y-71725018D01*
X177923000Y-71719187D01*
X177907950Y-71715032D01*
X177879556Y-71712280D01*
X177834578Y-71710654D01*
X177769776Y-71709881D01*
X177681908Y-71709684D01*
X177428791Y-71709684D01*
X177437137Y-71648792D01*
X177446782Y-71594733D01*
X177451189Y-71581434D01*
X177616569Y-71581434D01*
X177616772Y-71585051D01*
X177621248Y-71593715D01*
X177634862Y-71599358D01*
X177661906Y-71602608D01*
X177706671Y-71604097D01*
X177773447Y-71604454D01*
X177930375Y-71604454D01*
X177918537Y-71563180D01*
X177902594Y-71523826D01*
X177866398Y-71483470D01*
X177810882Y-71458969D01*
X177796289Y-71455625D01*
X177734450Y-71454923D01*
X177681247Y-71475981D01*
X177641858Y-71517021D01*
X177639354Y-71521242D01*
X177623201Y-71555134D01*
X177616569Y-71581434D01*
X177451189Y-71581434D01*
X177478364Y-71499419D01*
X177525722Y-71425030D01*
X177588732Y-71371689D01*
X177667270Y-71339519D01*
X177761211Y-71328641D01*
X177794010Y-71329909D01*
X177884767Y-71348625D01*
X177963564Y-71388120D01*
X178027104Y-71446350D01*
X178072090Y-71521272D01*
X178083978Y-71554690D01*
X178092662Y-71604454D01*
X178099323Y-71642624D01*
G37*
G36*
X190119067Y-68872423D02*
G01*
X190194211Y-68892810D01*
X190262929Y-68927184D01*
X190346252Y-68992744D01*
X190414114Y-69076463D01*
X190464731Y-69175407D01*
X190496319Y-69286645D01*
X190507094Y-69407243D01*
X190501197Y-69495155D01*
X190474254Y-69608725D01*
X190426746Y-69708996D01*
X190360035Y-69793910D01*
X190275485Y-69861406D01*
X190174461Y-69909426D01*
X190124976Y-69921854D01*
X190047668Y-69931127D01*
X189963417Y-69933085D01*
X189882497Y-69927584D01*
X189815179Y-69914480D01*
X189788325Y-69905517D01*
X189696131Y-69857877D01*
X189617763Y-69789929D01*
X189556351Y-69704890D01*
X189515026Y-69605976D01*
X189506591Y-69575800D01*
X189497811Y-69541470D01*
X189494407Y-69523765D01*
X189501546Y-69520348D01*
X189530077Y-69516549D01*
X189575345Y-69513957D01*
X189631903Y-69512998D01*
X189769400Y-69512998D01*
X189782008Y-69558659D01*
X189796404Y-69597291D01*
X189835685Y-69654503D01*
X189888153Y-69695169D01*
X189948936Y-69717837D01*
X190013163Y-69721050D01*
X190075962Y-69703355D01*
X190132460Y-69663296D01*
X190167030Y-69618224D01*
X190197651Y-69547839D01*
X190214331Y-69467325D01*
X190217396Y-69382272D01*
X190207173Y-69298273D01*
X190183989Y-69220921D01*
X190148171Y-69155805D01*
X190100045Y-69108519D01*
X190049968Y-69086957D01*
X189986320Y-69078189D01*
X189922040Y-69083703D01*
X189868237Y-69103727D01*
X189845546Y-69122404D01*
X189815665Y-69159478D01*
X189792866Y-69200619D01*
X189783790Y-69235468D01*
X189782867Y-69237714D01*
X189762910Y-69244479D01*
X189717096Y-69248557D01*
X189645676Y-69249922D01*
X189611053Y-69249885D01*
X189561302Y-69249203D01*
X189530763Y-69246847D01*
X189514749Y-69241783D01*
X189508577Y-69232972D01*
X189507561Y-69219381D01*
X189508595Y-69199484D01*
X189527258Y-69127765D01*
X189566232Y-69056286D01*
X189621461Y-68990175D01*
X189688891Y-68934557D01*
X189764467Y-68894560D01*
X189765605Y-68894120D01*
X189843027Y-68873286D01*
X189934037Y-68862700D01*
X190029196Y-68862400D01*
X190119067Y-68872423D01*
G37*
G36*
X152673957Y-72938609D02*
G01*
X152674117Y-73030310D01*
X152671515Y-73059084D01*
X152650427Y-73150104D01*
X152610357Y-73223322D01*
X152550562Y-73279798D01*
X152470297Y-73320591D01*
X152433013Y-73330656D01*
X152363506Y-73338621D01*
X152289981Y-73337347D01*
X152225008Y-73326530D01*
X152206328Y-73319725D01*
X152158290Y-73291746D01*
X152110403Y-73252557D01*
X152070707Y-73209279D01*
X152047240Y-73169036D01*
X152033735Y-73130295D01*
X152111320Y-73130295D01*
X152134603Y-73130799D01*
X152178529Y-73136330D01*
X152199424Y-73147531D01*
X152232226Y-73178857D01*
X152281208Y-73200201D01*
X152337557Y-73209965D01*
X152392504Y-73206633D01*
X152437283Y-73188689D01*
X152468406Y-73157411D01*
X152495376Y-73108514D01*
X152505903Y-73058602D01*
X152505903Y-73025065D01*
X152019213Y-73025065D01*
X152019286Y-72975738D01*
X152021543Y-72936281D01*
X152024653Y-72924004D01*
X152192189Y-72924004D01*
X152205611Y-72924639D01*
X152240194Y-72924621D01*
X152290553Y-72923961D01*
X152351346Y-72922705D01*
X152388674Y-72921746D01*
X152442588Y-72919681D01*
X152476876Y-72916612D01*
X152495930Y-72911693D01*
X152504142Y-72904076D01*
X152505903Y-72892916D01*
X152503610Y-72882131D01*
X152487757Y-72852063D01*
X152461794Y-72818701D01*
X152452121Y-72808357D01*
X152423704Y-72783636D01*
X152394202Y-72772563D01*
X152351065Y-72769567D01*
X152332954Y-72769962D01*
X152274505Y-72784161D01*
X152231529Y-72819330D01*
X152202437Y-72876611D01*
X152200292Y-72883289D01*
X152192827Y-72911367D01*
X152192189Y-72924004D01*
X152024653Y-72924004D01*
X152043024Y-72851495D01*
X152088624Y-72766973D01*
X152121878Y-72725075D01*
X152180622Y-72678996D01*
X152252544Y-72652680D01*
X152341481Y-72644264D01*
X152398877Y-72647028D01*
X152472576Y-72663678D01*
X152535044Y-72698097D01*
X152593454Y-72753392D01*
X152627673Y-72798137D01*
X152659108Y-72863387D01*
X152664937Y-72892916D01*
X152673957Y-72938609D01*
G37*
G36*
X186620396Y-69323847D02*
G01*
X186623353Y-69445781D01*
X186617752Y-69497306D01*
X186589199Y-69611955D01*
X186540428Y-69712411D01*
X186472826Y-69796762D01*
X186387782Y-69863096D01*
X186286684Y-69909503D01*
X186263701Y-69916419D01*
X186214324Y-69926297D01*
X186156322Y-69930585D01*
X186080994Y-69930154D01*
X185995128Y-69923724D01*
X185904863Y-69904064D01*
X185827487Y-69869510D01*
X185756917Y-69817958D01*
X185741376Y-69802142D01*
X185711947Y-69764756D01*
X185681433Y-69719364D01*
X185654216Y-69673103D01*
X185634675Y-69633110D01*
X185627188Y-69606522D01*
X185627200Y-69606237D01*
X185640931Y-69598340D01*
X185680099Y-69593540D01*
X185744024Y-69591921D01*
X185860861Y-69591921D01*
X185912212Y-69643272D01*
X185978004Y-69691666D01*
X186054871Y-69717276D01*
X186138469Y-69718256D01*
X186206408Y-69700299D01*
X186266778Y-69661650D01*
X186308879Y-69604159D01*
X186332075Y-69528450D01*
X186340788Y-69473959D01*
X185974123Y-69470459D01*
X185607457Y-69466960D01*
X185609161Y-69373183D01*
X185617101Y-69289384D01*
X185889763Y-69289384D01*
X186340782Y-69289384D01*
X186332409Y-69246634D01*
X186325665Y-69221605D01*
X186290815Y-69160646D01*
X186231053Y-69107381D01*
X186212926Y-69095926D01*
X186184531Y-69084343D01*
X186149482Y-69080153D01*
X186098077Y-69081467D01*
X186078186Y-69082737D01*
X186032096Y-69088674D01*
X186000660Y-69099805D01*
X185975154Y-69118778D01*
X185929001Y-69176002D01*
X185898436Y-69253211D01*
X185889763Y-69289384D01*
X185617101Y-69289384D01*
X185618374Y-69275950D01*
X185649100Y-69165953D01*
X185699394Y-69069232D01*
X185767314Y-68988008D01*
X185850921Y-68924505D01*
X185948278Y-68880944D01*
X186057443Y-68859546D01*
X186095539Y-68857606D01*
X186209833Y-68867486D01*
X186314523Y-68899900D01*
X186407508Y-68952674D01*
X186486688Y-69023631D01*
X186549963Y-69110597D01*
X186595233Y-69211394D01*
X186612684Y-69289384D01*
X186620396Y-69323847D01*
G37*
G36*
X158536792Y-67239239D02*
G01*
X158529827Y-67360272D01*
X158498826Y-67477812D01*
X158444051Y-67587704D01*
X158426258Y-67613623D01*
X158354829Y-67688706D01*
X158264817Y-67745777D01*
X158155463Y-67785354D01*
X158114209Y-67792743D01*
X158050980Y-67797709D01*
X157984464Y-67797593D01*
X157902482Y-67789270D01*
X157798374Y-67761276D01*
X157710775Y-67713635D01*
X157638167Y-67645441D01*
X157579029Y-67555787D01*
X157573430Y-67544958D01*
X157553438Y-67502718D01*
X157541386Y-67471122D01*
X157539712Y-67456335D01*
X157542371Y-67455012D01*
X157565604Y-67451358D01*
X157606221Y-67448809D01*
X157657465Y-67447851D01*
X157766734Y-67447851D01*
X157825112Y-67506229D01*
X157870895Y-67545391D01*
X157918758Y-67569159D01*
X157975397Y-67578783D01*
X158048759Y-67576769D01*
X158061571Y-67575457D01*
X158131922Y-67556404D01*
X158185520Y-67517964D01*
X158223395Y-67459104D01*
X158246576Y-67378793D01*
X158255309Y-67329467D01*
X157513795Y-67329467D01*
X157520854Y-67220948D01*
X157527855Y-67156831D01*
X157530758Y-67145313D01*
X157804035Y-67145313D01*
X158254618Y-67145313D01*
X158246101Y-67109140D01*
X158234148Y-67072827D01*
X158197247Y-67012264D01*
X158146506Y-66967993D01*
X158124543Y-66957422D01*
X158067992Y-66943474D01*
X158005677Y-66940804D01*
X157947464Y-66949365D01*
X157903217Y-66969112D01*
X157884361Y-66985177D01*
X157840458Y-67041939D01*
X157812952Y-67109140D01*
X157804035Y-67145313D01*
X157530758Y-67145313D01*
X157557082Y-67040863D01*
X157605776Y-66939847D01*
X157672716Y-66855520D01*
X157756680Y-66789617D01*
X157856448Y-66743874D01*
X157866309Y-66740822D01*
X157956373Y-66725118D01*
X158055634Y-66725646D01*
X158154417Y-66741689D01*
X158243049Y-66772529D01*
X158245740Y-66773811D01*
X158342887Y-66834111D01*
X158421218Y-66912791D01*
X158480633Y-67009750D01*
X158519456Y-67118869D01*
X158523265Y-67145313D01*
X158536792Y-67239239D01*
G37*
G36*
X181808857Y-71637915D02*
G01*
X181807641Y-71732175D01*
X181785807Y-71819341D01*
X181744843Y-71895725D01*
X181686241Y-71957639D01*
X181611491Y-72001395D01*
X181600770Y-72005488D01*
X181518537Y-72023260D01*
X181430344Y-72022523D01*
X181345154Y-72004133D01*
X181271931Y-71968945D01*
X181258508Y-71958336D01*
X181228262Y-71926611D01*
X181199174Y-71888261D01*
X181177192Y-71851560D01*
X181168264Y-71824780D01*
X181174184Y-71820818D01*
X181199860Y-71816566D01*
X181239002Y-71814914D01*
X181249461Y-71814981D01*
X181291778Y-71818465D01*
X181322085Y-71830223D01*
X181352201Y-71854376D01*
X181381397Y-71877851D01*
X181414095Y-71890650D01*
X181459475Y-71893837D01*
X181485548Y-71892962D01*
X181546990Y-71880097D01*
X181590783Y-71850404D01*
X181620223Y-71802000D01*
X181621886Y-71797861D01*
X181633968Y-71767502D01*
X181640258Y-71745041D01*
X181637827Y-71729293D01*
X181623744Y-71719069D01*
X181595079Y-71713183D01*
X181548900Y-71710448D01*
X181482278Y-71709677D01*
X181392282Y-71709684D01*
X181142979Y-71709684D01*
X181150524Y-71640627D01*
X181156125Y-71604454D01*
X181323041Y-71604454D01*
X181485775Y-71604454D01*
X181552015Y-71604301D01*
X181596202Y-71603309D01*
X181622454Y-71600673D01*
X181634893Y-71595588D01*
X181637639Y-71587251D01*
X181634810Y-71574858D01*
X181633092Y-71569224D01*
X181602526Y-71511678D01*
X181556148Y-71472308D01*
X181498601Y-71453801D01*
X181434523Y-71458846D01*
X181397740Y-71473730D01*
X181356573Y-71511871D01*
X181331638Y-71570199D01*
X181323041Y-71604454D01*
X181156125Y-71604454D01*
X181158030Y-71592154D01*
X181187688Y-71500168D01*
X181234822Y-71426800D01*
X181298383Y-71373074D01*
X181377320Y-71340014D01*
X181470585Y-71328641D01*
X181539713Y-71334427D01*
X181626311Y-71361231D01*
X181699142Y-71408078D01*
X181755403Y-71473002D01*
X181792288Y-71554040D01*
X181798849Y-71587251D01*
X181808857Y-71637915D01*
G37*
G36*
X160240341Y-73564371D02*
G01*
X160069342Y-73564371D01*
X160069342Y-73406525D01*
X160068454Y-73343381D01*
X160064903Y-73286498D01*
X160058732Y-73254458D01*
X160050040Y-73247715D01*
X160038925Y-73266724D01*
X160032615Y-73274925D01*
X160007331Y-73294023D01*
X159971016Y-73314290D01*
X159950275Y-73323313D01*
X159871590Y-73340907D01*
X159793561Y-73334742D01*
X159720816Y-73306414D01*
X159657979Y-73257517D01*
X159609678Y-73189649D01*
X159599736Y-73169378D01*
X159587390Y-73137117D01*
X159580217Y-73102025D01*
X159576888Y-73056285D01*
X159576074Y-72992079D01*
X159576078Y-72991396D01*
X159742400Y-72991396D01*
X159747602Y-73069133D01*
X159769199Y-73129569D01*
X159808153Y-73175903D01*
X159851257Y-73201186D01*
X159908979Y-73211734D01*
X159966110Y-73201145D01*
X160014803Y-73169657D01*
X160037821Y-73140712D01*
X160065382Y-73077166D01*
X160076193Y-73002306D01*
X160068772Y-72922907D01*
X160065185Y-72907527D01*
X160040572Y-72843172D01*
X160003503Y-72799619D01*
X159951537Y-72773762D01*
X159920615Y-72766372D01*
X159888793Y-72767959D01*
X159851149Y-72783311D01*
X159816825Y-72803405D01*
X159778396Y-72841281D01*
X159755312Y-72892305D01*
X159744038Y-72962388D01*
X159742400Y-72991396D01*
X159576078Y-72991396D01*
X159576313Y-72952396D01*
X159578410Y-72899800D01*
X159583784Y-72861178D01*
X159593763Y-72828718D01*
X159609678Y-72794611D01*
X159636156Y-72750956D01*
X159690543Y-72695145D01*
X159759078Y-72660639D01*
X159844146Y-72645928D01*
X159853253Y-72645449D01*
X159907581Y-72645313D01*
X159948436Y-72652267D01*
X159986649Y-72667989D01*
X160001036Y-72675915D01*
X160031724Y-72697350D01*
X160047576Y-72715390D01*
X160051087Y-72723127D01*
X160065097Y-72735468D01*
X160077286Y-72725555D01*
X160082496Y-72696220D01*
X160082496Y-72656758D01*
X160240341Y-72656758D01*
X160240341Y-73002306D01*
X160240341Y-73564371D01*
G37*
G36*
X194992698Y-69405652D02*
G01*
X194985278Y-69504696D01*
X194955643Y-69617486D01*
X194904355Y-69716495D01*
X194832455Y-69800257D01*
X194740979Y-69867306D01*
X194630968Y-69916175D01*
X194589884Y-69924716D01*
X194523538Y-69929934D01*
X194439730Y-69930336D01*
X194378751Y-69928341D01*
X194330497Y-69924368D01*
X194292572Y-69916860D01*
X194256675Y-69904128D01*
X194214503Y-69884481D01*
X194213952Y-69884209D01*
X194119677Y-69823670D01*
X194043094Y-69745258D01*
X193985476Y-69651643D01*
X193948095Y-69545497D01*
X193932223Y-69429492D01*
X193933581Y-69405280D01*
X194218673Y-69405280D01*
X194227850Y-69489276D01*
X194250388Y-69567724D01*
X194286198Y-69635212D01*
X194335194Y-69686329D01*
X194335750Y-69686736D01*
X194376441Y-69705004D01*
X194431552Y-69715745D01*
X194490154Y-69717723D01*
X194541322Y-69709697D01*
X194599321Y-69679715D01*
X194646776Y-69627576D01*
X194680095Y-69556021D01*
X194698392Y-69466982D01*
X194700779Y-69362393D01*
X194695731Y-69308508D01*
X194674876Y-69223646D01*
X194638280Y-69157517D01*
X194584930Y-69107890D01*
X194568405Y-69097409D01*
X194539134Y-69084851D01*
X194504072Y-69080172D01*
X194453097Y-69081334D01*
X194416950Y-69084356D01*
X194365069Y-69095412D01*
X194325977Y-69115448D01*
X194317313Y-69122042D01*
X194272176Y-69174117D01*
X194240748Y-69242289D01*
X194222943Y-69321148D01*
X194218673Y-69405280D01*
X193933581Y-69405280D01*
X193939133Y-69306299D01*
X193939666Y-69302780D01*
X193969617Y-69184397D01*
X194019544Y-69082258D01*
X194087806Y-68997642D01*
X194172764Y-68931828D01*
X194272778Y-68886095D01*
X194386208Y-68861721D01*
X194511414Y-68859986D01*
X194517694Y-68860498D01*
X194634746Y-68882486D01*
X194737892Y-68925929D01*
X194825635Y-68989132D01*
X194896483Y-69070401D01*
X194948939Y-69168040D01*
X194981509Y-69280356D01*
X194988835Y-69362393D01*
X194992698Y-69405652D01*
G37*
G36*
X175887000Y-71606207D02*
G01*
X175891395Y-71699727D01*
X175873076Y-71799559D01*
X175836959Y-71878664D01*
X175779149Y-71945263D01*
X175702737Y-71994447D01*
X175668954Y-72007937D01*
X175584121Y-72025237D01*
X175498036Y-72022478D01*
X175416380Y-72000873D01*
X175344835Y-71961637D01*
X175289080Y-71905986D01*
X175271526Y-71880914D01*
X175252647Y-71846798D01*
X175253099Y-71826755D01*
X175273922Y-71817292D01*
X175316155Y-71814914D01*
X175360238Y-71817570D01*
X175394470Y-71829171D01*
X175428421Y-71854376D01*
X175458626Y-71877390D01*
X175492862Y-71890532D01*
X175539329Y-71893837D01*
X175542809Y-71893822D01*
X175613034Y-71884755D01*
X175663902Y-71858291D01*
X175696618Y-71813424D01*
X175712388Y-71749145D01*
X175715795Y-71716261D01*
X175467505Y-71712676D01*
X175219216Y-71709091D01*
X175228315Y-71640330D01*
X175236144Y-71595076D01*
X175240155Y-71582987D01*
X175406680Y-71582987D01*
X175406754Y-71584814D01*
X175411004Y-71593394D01*
X175424809Y-71599082D01*
X175452354Y-71602444D01*
X175497826Y-71604045D01*
X175565412Y-71604454D01*
X175565698Y-71604454D01*
X175632286Y-71604311D01*
X175676717Y-71603339D01*
X175703127Y-71600722D01*
X175715653Y-71595647D01*
X175718431Y-71587297D01*
X175715597Y-71574858D01*
X175706230Y-71549783D01*
X175672551Y-71501655D01*
X175626831Y-71469125D01*
X175574587Y-71453318D01*
X175521339Y-71455357D01*
X175472605Y-71476367D01*
X175433904Y-71517472D01*
X175429635Y-71524644D01*
X175413296Y-71558294D01*
X175406680Y-71582987D01*
X175240155Y-71582987D01*
X175267155Y-71501610D01*
X175315077Y-71427371D01*
X175379017Y-71373221D01*
X175458080Y-71340024D01*
X175551372Y-71328641D01*
X175590692Y-71330485D01*
X175680207Y-71350790D01*
X175756493Y-71391291D01*
X175817652Y-71449212D01*
X175861786Y-71521777D01*
X175881353Y-71587297D01*
X175887000Y-71606207D01*
G37*
G36*
X160372868Y-67345888D02*
G01*
X160363565Y-67397694D01*
X160328110Y-67511534D01*
X160274457Y-67606503D01*
X160202230Y-67683044D01*
X160111052Y-67741599D01*
X160000546Y-67782610D01*
X159986036Y-67786313D01*
X159873188Y-67801917D01*
X159762077Y-67795511D01*
X159656298Y-67768729D01*
X159559447Y-67723208D01*
X159475118Y-67660582D01*
X159406907Y-67582487D01*
X159358409Y-67490557D01*
X159355706Y-67483251D01*
X159331611Y-67388518D01*
X159321301Y-67283267D01*
X159322123Y-67260930D01*
X159609941Y-67260930D01*
X159617677Y-67366020D01*
X159642181Y-67450954D01*
X159683433Y-67515676D01*
X159741410Y-67560131D01*
X159743603Y-67561226D01*
X159791514Y-67574634D01*
X159851593Y-67578305D01*
X159912313Y-67572398D01*
X159962149Y-67557074D01*
X159999290Y-67531611D01*
X160041083Y-67479286D01*
X160070725Y-67412107D01*
X160088032Y-67335116D01*
X160092822Y-67253356D01*
X160084911Y-67171868D01*
X160064116Y-67095695D01*
X160030254Y-67029879D01*
X159983141Y-66979464D01*
X159970903Y-66970446D01*
X159938623Y-66952082D01*
X159903274Y-66943559D01*
X159853328Y-66941506D01*
X159837726Y-66941840D01*
X159760436Y-66955462D01*
X159699455Y-66989272D01*
X159654491Y-67043604D01*
X159625249Y-67118788D01*
X159611434Y-67215159D01*
X159609941Y-67260930D01*
X159322123Y-67260930D01*
X159325167Y-67178217D01*
X159343600Y-67084089D01*
X159356945Y-67044393D01*
X159406475Y-66942781D01*
X159472922Y-66860841D01*
X159557566Y-66797227D01*
X159661690Y-66750595D01*
X159718456Y-66735784D01*
X159813033Y-66724723D01*
X159911782Y-66726377D01*
X160005454Y-66740402D01*
X160084800Y-66766449D01*
X160099363Y-66773479D01*
X160191260Y-66833809D01*
X160266727Y-66912383D01*
X160324194Y-67006041D01*
X160362088Y-67111619D01*
X160378837Y-67225955D01*
X160377473Y-67253356D01*
X160372868Y-67345888D01*
G37*
G36*
X172854842Y-66513931D02*
G01*
X172779207Y-66514908D01*
X172747429Y-66515632D01*
X172704777Y-66517597D01*
X172677265Y-66520118D01*
X172668845Y-66521215D01*
X172634886Y-66524538D01*
X172585669Y-66528617D01*
X172528727Y-66532809D01*
X172523352Y-66533191D01*
X172397439Y-66546485D01*
X172256480Y-66568544D01*
X172109194Y-66597823D01*
X171964301Y-66632778D01*
X171948894Y-66636897D01*
X171669728Y-66725611D01*
X171401434Y-66837502D01*
X171145176Y-66971336D01*
X170902114Y-67125883D01*
X170673410Y-67299910D01*
X170460227Y-67492186D01*
X170263725Y-67701478D01*
X170085067Y-67926556D01*
X169925414Y-68166186D01*
X169785928Y-68419138D01*
X169667772Y-68684179D01*
X169572106Y-68960078D01*
X169500092Y-69245603D01*
X169494851Y-69271843D01*
X169475789Y-69382107D01*
X169459306Y-69500289D01*
X169446355Y-69618029D01*
X169437886Y-69726967D01*
X169434852Y-69818744D01*
X169434852Y-69933920D01*
X167251320Y-69933920D01*
X167251573Y-69897747D01*
X167252265Y-69861713D01*
X167255544Y-69781603D01*
X167261030Y-69685654D01*
X167268230Y-69580425D01*
X167276648Y-69472478D01*
X167285792Y-69368375D01*
X167295166Y-69274675D01*
X167304277Y-69197940D01*
X167342872Y-68949710D01*
X167422446Y-68576201D01*
X167526673Y-68211833D01*
X167655607Y-67856455D01*
X167809306Y-67509919D01*
X167987824Y-67172075D01*
X168191219Y-66842776D01*
X168225648Y-66791536D01*
X168449448Y-66485135D01*
X168691678Y-66196450D01*
X168951200Y-65926122D01*
X169226874Y-65674793D01*
X169517561Y-65443105D01*
X169822122Y-65231700D01*
X170139418Y-65041218D01*
X170468310Y-64872302D01*
X170807657Y-64725594D01*
X171156321Y-64601734D01*
X171513163Y-64501366D01*
X171877043Y-64425129D01*
X172246823Y-64373667D01*
X172621362Y-64347620D01*
X172854842Y-64339482D01*
X172854842Y-66513931D01*
G37*
G36*
X193405667Y-68869306D02*
G01*
X193473433Y-68884954D01*
X193506625Y-68898294D01*
X193595456Y-68951399D01*
X193673409Y-69023242D01*
X193735388Y-69108493D01*
X193776299Y-69201820D01*
X193791364Y-69260467D01*
X193806568Y-69382602D01*
X193799914Y-69499334D01*
X193772539Y-69607966D01*
X193725582Y-69705799D01*
X193660181Y-69790134D01*
X193577474Y-69858275D01*
X193478599Y-69907521D01*
X193470140Y-69910446D01*
X193394167Y-69926873D01*
X193305414Y-69932856D01*
X193213252Y-69928745D01*
X193127054Y-69914894D01*
X193056190Y-69891653D01*
X193055557Y-69891360D01*
X192965353Y-69835544D01*
X192892844Y-69760510D01*
X192838588Y-69666999D01*
X192803142Y-69555748D01*
X192793922Y-69512998D01*
X193066067Y-69512998D01*
X193089301Y-69578415D01*
X193101951Y-69607785D01*
X193143095Y-69663817D01*
X193196336Y-69701095D01*
X193256981Y-69719385D01*
X193320333Y-69718451D01*
X193381698Y-69698059D01*
X193436381Y-69657974D01*
X193479687Y-69597959D01*
X193489056Y-69578901D01*
X193501464Y-69546668D01*
X193508694Y-69511566D01*
X193512064Y-69465792D01*
X193512895Y-69401542D01*
X193512799Y-69376555D01*
X193511052Y-69318223D01*
X193506146Y-69275674D01*
X193496841Y-69241100D01*
X193481892Y-69206691D01*
X193464424Y-69175467D01*
X193416601Y-69121012D01*
X193356300Y-69089240D01*
X193281595Y-69078923D01*
X193245353Y-69080910D01*
X193179313Y-69099192D01*
X193130714Y-69136911D01*
X193098955Y-69194447D01*
X193079630Y-69249922D01*
X192809166Y-69249922D01*
X192809166Y-69206467D01*
X192811307Y-69180076D01*
X192832542Y-69113630D01*
X192873180Y-69046769D01*
X192929100Y-68984439D01*
X192996183Y-68931583D01*
X193070307Y-68893145D01*
X193078675Y-68890070D01*
X193149587Y-68872766D01*
X193234131Y-68863407D01*
X193322695Y-68862189D01*
X193405667Y-68869306D01*
G37*
G36*
X178853896Y-71334388D02*
G01*
X178942020Y-71356872D01*
X179013338Y-71399365D01*
X179069016Y-71462739D01*
X179110214Y-71547866D01*
X179122253Y-71599150D01*
X179127910Y-71670001D01*
X179124999Y-71742852D01*
X179113373Y-71805521D01*
X179103334Y-71830522D01*
X179069860Y-71883521D01*
X179024117Y-71935784D01*
X178973480Y-71979426D01*
X178925323Y-72006562D01*
X178919785Y-72008472D01*
X178856302Y-72020139D01*
X178771270Y-72021215D01*
X178698974Y-72012911D01*
X178620245Y-71986853D01*
X178559679Y-71942976D01*
X178515980Y-71880566D01*
X178502482Y-71853232D01*
X178482474Y-71809080D01*
X178476364Y-71782192D01*
X178485600Y-71768286D01*
X178511623Y-71763082D01*
X178555880Y-71762299D01*
X178563998Y-71762307D01*
X178607312Y-71763319D01*
X178631782Y-71767626D01*
X178643930Y-71777502D01*
X178650279Y-71795223D01*
X178661104Y-71822457D01*
X178695094Y-71861086D01*
X178742065Y-71885533D01*
X178795169Y-71894064D01*
X178847558Y-71884949D01*
X178892384Y-71856454D01*
X178924418Y-71811414D01*
X178947481Y-71745630D01*
X178955273Y-71672244D01*
X178947067Y-71599121D01*
X178922138Y-71534127D01*
X178917410Y-71526809D01*
X178885971Y-71493719D01*
X178847134Y-71467498D01*
X178841355Y-71464682D01*
X178807563Y-71451206D01*
X178779478Y-71450263D01*
X178742270Y-71460921D01*
X178740149Y-71461665D01*
X178695754Y-71485557D01*
X178668824Y-71521958D01*
X178664187Y-71531743D01*
X178652555Y-71550338D01*
X178636346Y-71560112D01*
X178608317Y-71563943D01*
X178561223Y-71564707D01*
X178473353Y-71564992D01*
X178484145Y-71527364D01*
X178500200Y-71482236D01*
X178527001Y-71439057D01*
X178569495Y-71396350D01*
X178586443Y-71382667D01*
X178649499Y-71348966D01*
X178726410Y-71332157D01*
X178821104Y-71331221D01*
X178853896Y-71334388D01*
G37*
G36*
X190020709Y-71598602D02*
G01*
X190028588Y-71656770D01*
X190022356Y-71747471D01*
X189992301Y-71841058D01*
X189984661Y-71857671D01*
X189938840Y-71927707D01*
X189877567Y-71978393D01*
X189797029Y-72013085D01*
X189746470Y-72021896D01*
X189680681Y-72023544D01*
X189613988Y-72017819D01*
X189558728Y-72005134D01*
X189517297Y-71986557D01*
X189451022Y-71935311D01*
X189400858Y-71864241D01*
X189375488Y-71814914D01*
X189449653Y-71814914D01*
X189464847Y-71815048D01*
X189506817Y-71818807D01*
X189537566Y-71830627D01*
X189568762Y-71854376D01*
X189574354Y-71859210D01*
X189605601Y-71881195D01*
X189638552Y-71891364D01*
X189685387Y-71893837D01*
X189733163Y-71889363D01*
X189789006Y-71866646D01*
X189826688Y-71825205D01*
X189845527Y-71765588D01*
X189853023Y-71709684D01*
X189359247Y-71709684D01*
X189368014Y-71635089D01*
X189375305Y-71589715D01*
X189377152Y-71584070D01*
X189547022Y-71584070D01*
X189549789Y-71592089D01*
X189562097Y-71598343D01*
X189588164Y-71602113D01*
X189632169Y-71603962D01*
X189698291Y-71604454D01*
X189700919Y-71604453D01*
X189768906Y-71603939D01*
X189814082Y-71601233D01*
X189839832Y-71594557D01*
X189849542Y-71582131D01*
X189846596Y-71562175D01*
X189834378Y-71532911D01*
X189833087Y-71530172D01*
X189798983Y-71487753D01*
X189749712Y-71461018D01*
X189692546Y-71452455D01*
X189634758Y-71464557D01*
X189625877Y-71468779D01*
X189586891Y-71499689D01*
X189558195Y-71541404D01*
X189547022Y-71584070D01*
X189377152Y-71584070D01*
X189405289Y-71498077D01*
X189452945Y-71425342D01*
X189517429Y-71372305D01*
X189597896Y-71339764D01*
X189693500Y-71328513D01*
X189699192Y-71328534D01*
X189792260Y-71341496D01*
X189873292Y-71376921D01*
X189939942Y-71432872D01*
X189989864Y-71507411D01*
X190015138Y-71582131D01*
X190020709Y-71598602D01*
G37*
G36*
X150168855Y-71674837D02*
G01*
X150162489Y-71755949D01*
X150136206Y-71845890D01*
X150090125Y-71919327D01*
X150024853Y-71975359D01*
X149940996Y-72013085D01*
X149936587Y-72014334D01*
X149887699Y-72021769D01*
X149826350Y-72023706D01*
X149764386Y-72020231D01*
X149713648Y-72011431D01*
X149698680Y-72006488D01*
X149639723Y-71973486D01*
X149585756Y-71924036D01*
X149545255Y-71865487D01*
X149519455Y-71814914D01*
X149593620Y-71814914D01*
X149608813Y-71815048D01*
X149650783Y-71818807D01*
X149681533Y-71830627D01*
X149712729Y-71854376D01*
X149718321Y-71859210D01*
X149749568Y-71881195D01*
X149782519Y-71891364D01*
X149829354Y-71893837D01*
X149877130Y-71889363D01*
X149932973Y-71866646D01*
X149970655Y-71825205D01*
X149989494Y-71765588D01*
X149996990Y-71709684D01*
X149503155Y-71709684D01*
X149510908Y-71634565D01*
X149512994Y-71617402D01*
X149516333Y-71604454D01*
X149679671Y-71604454D01*
X149836599Y-71604454D01*
X149863936Y-71604416D01*
X149922072Y-71603736D01*
X149959793Y-71601703D01*
X149981404Y-71597676D01*
X149991214Y-71591013D01*
X149993526Y-71581073D01*
X149993236Y-71576623D01*
X149981478Y-71543672D01*
X149957547Y-71506863D01*
X149928361Y-71477220D01*
X149921829Y-71472730D01*
X149874621Y-71456213D01*
X149819334Y-71455514D01*
X149766199Y-71469612D01*
X149725447Y-71497484D01*
X149706976Y-71525674D01*
X149691509Y-71563180D01*
X149679671Y-71604454D01*
X149516333Y-71604454D01*
X149537045Y-71524138D01*
X149579740Y-71446891D01*
X149639221Y-71387608D01*
X149713629Y-71348233D01*
X149801108Y-71330711D01*
X149823453Y-71329786D01*
X149921867Y-71339087D01*
X150006239Y-71369821D01*
X150074847Y-71420374D01*
X150125967Y-71489137D01*
X150157878Y-71574495D01*
X150158598Y-71581073D01*
X150168855Y-71674837D01*
G37*
G36*
X159371177Y-69406661D02*
G01*
X159367636Y-69494115D01*
X159354399Y-69567099D01*
X159344178Y-69598646D01*
X159294684Y-69701901D01*
X159226446Y-69789376D01*
X159141865Y-69858451D01*
X159043345Y-69906504D01*
X159019450Y-69913942D01*
X158944236Y-69927828D01*
X158849925Y-69932882D01*
X158742315Y-69926118D01*
X158629918Y-69898705D01*
X158533263Y-69850713D01*
X158453045Y-69782617D01*
X158389961Y-69694892D01*
X158344706Y-69588014D01*
X158332809Y-69541550D01*
X158320146Y-69440512D01*
X158320875Y-69388037D01*
X158604753Y-69388037D01*
X158606795Y-69456895D01*
X158621337Y-69545654D01*
X158650567Y-69614923D01*
X158695463Y-69666730D01*
X158757007Y-69703101D01*
X158800285Y-69717035D01*
X158872047Y-69720405D01*
X158945993Y-69698396D01*
X158986679Y-69675062D01*
X159030589Y-69630941D01*
X159060423Y-69570939D01*
X159077417Y-69492290D01*
X159082807Y-69392229D01*
X159080902Y-69337958D01*
X159065429Y-69244323D01*
X159034315Y-69171746D01*
X158987450Y-69120082D01*
X158924727Y-69089189D01*
X158846038Y-69078923D01*
X158810841Y-69080900D01*
X158738624Y-69100956D01*
X158681505Y-69142211D01*
X158639886Y-69204153D01*
X158614168Y-69286266D01*
X158604753Y-69388037D01*
X158320875Y-69388037D01*
X158321611Y-69335094D01*
X158336778Y-69234405D01*
X158365225Y-69147559D01*
X158404852Y-69079226D01*
X158470290Y-69002571D01*
X158548375Y-68938282D01*
X158631834Y-68893294D01*
X158704940Y-68873058D01*
X158796208Y-68862268D01*
X158892727Y-68862230D01*
X158984886Y-68872920D01*
X159063076Y-68894316D01*
X159079400Y-68901266D01*
X159157363Y-68948047D01*
X159230213Y-69012163D01*
X159290970Y-69086620D01*
X159332654Y-69164423D01*
X159351281Y-69227420D01*
X159365550Y-69314506D01*
X159370296Y-69392229D01*
X159371177Y-69406661D01*
G37*
G36*
X155618759Y-72645506D02*
G01*
X155701025Y-72662060D01*
X155773948Y-72693653D01*
X155829885Y-72737392D01*
X155840153Y-72749408D01*
X155879754Y-72817061D01*
X155905200Y-72898634D01*
X155915482Y-72986729D01*
X155909592Y-73073948D01*
X155886520Y-73152890D01*
X155878378Y-73170556D01*
X155842554Y-73230118D01*
X155797485Y-73273665D01*
X155735163Y-73309484D01*
X155720825Y-73315839D01*
X155637496Y-73338747D01*
X155552419Y-73341291D01*
X155470517Y-73324941D01*
X155396714Y-73291172D01*
X155335934Y-73241455D01*
X155293100Y-73177264D01*
X155277890Y-73142068D01*
X155268212Y-73107186D01*
X155275806Y-73087811D01*
X155303395Y-73079467D01*
X155353702Y-73077680D01*
X155394458Y-73078287D01*
X155423143Y-73081520D01*
X155436144Y-73089065D01*
X155439202Y-73102596D01*
X155440098Y-73108918D01*
X155453335Y-73137046D01*
X155477364Y-73168365D01*
X155478733Y-73169825D01*
X155506945Y-73194995D01*
X155536331Y-73206339D01*
X155579306Y-73208780D01*
X155614019Y-73205634D01*
X155669442Y-73183364D01*
X155709405Y-73140096D01*
X155733606Y-73076233D01*
X155741740Y-72992180D01*
X155736026Y-72924001D01*
X155712659Y-72855816D01*
X155670029Y-72801450D01*
X155664536Y-72796687D01*
X155617554Y-72773028D01*
X155564927Y-72768894D01*
X155513848Y-72782535D01*
X155471514Y-72812202D01*
X155445119Y-72856146D01*
X155441260Y-72864523D01*
X155427688Y-72874413D01*
X155400273Y-72879154D01*
X155352816Y-72880373D01*
X155320206Y-72880027D01*
X155285050Y-72875898D01*
X155271012Y-72863227D01*
X155274861Y-72837287D01*
X155293367Y-72793346D01*
X155295004Y-72789813D01*
X155338925Y-72726197D01*
X155401849Y-72680461D01*
X155483241Y-72652881D01*
X155582568Y-72643733D01*
X155618759Y-72645506D01*
G37*
G36*
X157416031Y-71341444D02*
G01*
X157491302Y-71369581D01*
X157551909Y-71417040D01*
X157601608Y-71486069D01*
X157614109Y-71508861D01*
X157629361Y-71542418D01*
X157637906Y-71575688D01*
X157641641Y-71617529D01*
X157642465Y-71676800D01*
X157641443Y-71734468D01*
X157636954Y-71782304D01*
X157627482Y-71820553D01*
X157611522Y-71858022D01*
X157583024Y-71904353D01*
X157521345Y-71964948D01*
X157441896Y-72007398D01*
X157406767Y-72016785D01*
X157338542Y-72023126D01*
X157264197Y-72019603D01*
X157194163Y-72006955D01*
X157138869Y-71985922D01*
X157090058Y-71949953D01*
X157038937Y-71886796D01*
X157006655Y-71811626D01*
X156993472Y-71762299D01*
X157076316Y-71762299D01*
X157085756Y-71762309D01*
X157127497Y-71763427D01*
X157151515Y-71768488D01*
X157165137Y-71780434D01*
X157175689Y-71802207D01*
X157204079Y-71848110D01*
X157251614Y-71882134D01*
X157312467Y-71893837D01*
X157318880Y-71893753D01*
X157375603Y-71882699D01*
X157418996Y-71851237D01*
X157452869Y-71796729D01*
X157461997Y-71773863D01*
X157476894Y-71700989D01*
X157473368Y-71628113D01*
X157452929Y-71561039D01*
X157417082Y-71505566D01*
X157367335Y-71467498D01*
X157361174Y-71464519D01*
X157327353Y-71451170D01*
X157299247Y-71450278D01*
X157262104Y-71460921D01*
X157259984Y-71461665D01*
X157215588Y-71485557D01*
X157188658Y-71521958D01*
X157184021Y-71531743D01*
X157172390Y-71550338D01*
X157156181Y-71560112D01*
X157128151Y-71563943D01*
X157081058Y-71564707D01*
X156993188Y-71564992D01*
X157003979Y-71527364D01*
X157020034Y-71482236D01*
X157046836Y-71439057D01*
X157089330Y-71396350D01*
X157109569Y-71380265D01*
X157172204Y-71347947D01*
X157248652Y-71331999D01*
X157343067Y-71331358D01*
X157416031Y-71341444D01*
G37*
G36*
X164274112Y-73021356D02*
G01*
X164255973Y-73120058D01*
X164220376Y-73204903D01*
X164168454Y-73270623D01*
X164100984Y-73315895D01*
X164086125Y-73321830D01*
X164034601Y-73334946D01*
X163982599Y-73340178D01*
X163957255Y-73338758D01*
X163904878Y-73328823D01*
X163855523Y-73311901D01*
X163816931Y-73290959D01*
X163796838Y-73268963D01*
X163794127Y-73262685D01*
X163781080Y-73249068D01*
X163770147Y-73258418D01*
X163765562Y-73288141D01*
X163765562Y-73327602D01*
X163594562Y-73327602D01*
X163594562Y-72990567D01*
X163765562Y-72990567D01*
X163765568Y-72992724D01*
X163774411Y-73067183D01*
X163798280Y-73130915D01*
X163834655Y-73177113D01*
X163845778Y-73185774D01*
X163884322Y-73204028D01*
X163934990Y-73209218D01*
X163976456Y-73206438D01*
X164007204Y-73194035D01*
X164038098Y-73166468D01*
X164067813Y-73126985D01*
X164093975Y-73063738D01*
X164103836Y-72995123D01*
X164098050Y-72926784D01*
X164077269Y-72864365D01*
X164042147Y-72813510D01*
X163993339Y-72779863D01*
X163941816Y-72766922D01*
X163885643Y-72773683D01*
X163837201Y-72801952D01*
X163799221Y-72849206D01*
X163774431Y-72912919D01*
X163765562Y-72990567D01*
X163594562Y-72990567D01*
X163594562Y-72393682D01*
X163780806Y-72393682D01*
X163776472Y-72564700D01*
X163775554Y-72607479D01*
X163775350Y-72670981D01*
X163777501Y-72711458D01*
X163782360Y-72731031D01*
X163790279Y-72731818D01*
X163801610Y-72715939D01*
X163817838Y-72696533D01*
X163860303Y-72670952D01*
X163916753Y-72653316D01*
X163979998Y-72644950D01*
X164042850Y-72647178D01*
X164098118Y-72661324D01*
X164106240Y-72664937D01*
X164167120Y-72707229D01*
X164216736Y-72768903D01*
X164252699Y-72845073D01*
X164272621Y-72930853D01*
X164273680Y-72995123D01*
X164274112Y-73021356D01*
G37*
G36*
X153158692Y-72654170D02*
G01*
X153233161Y-72684059D01*
X153298311Y-72732231D01*
X153321479Y-72757230D01*
X153362800Y-72823300D01*
X153386143Y-72902359D01*
X153393052Y-72998757D01*
X153392110Y-73032659D01*
X153383651Y-73101286D01*
X153365155Y-73157722D01*
X153353056Y-73180736D01*
X153307743Y-73239342D01*
X153249667Y-73289558D01*
X153188098Y-73322747D01*
X153126810Y-73337163D01*
X153045750Y-73339595D01*
X152963648Y-73327368D01*
X152888883Y-73301848D01*
X152829832Y-73264398D01*
X152811212Y-73241201D01*
X152788316Y-73203303D01*
X152766201Y-73160129D01*
X152749488Y-73120721D01*
X152742800Y-73094122D01*
X152748725Y-73086086D01*
X152775799Y-73079712D01*
X152826746Y-73077680D01*
X152833426Y-73077685D01*
X152876574Y-73078663D01*
X152900851Y-73083030D01*
X152912898Y-73093225D01*
X152919354Y-73111686D01*
X152922147Y-73121180D01*
X152950591Y-73167489D01*
X152996535Y-73198135D01*
X153054572Y-73209218D01*
X153071996Y-73208896D01*
X153121584Y-73201182D01*
X153157070Y-73179815D01*
X153187050Y-73140327D01*
X153207097Y-73098222D01*
X153222631Y-73029675D01*
X153221860Y-72959569D01*
X153206231Y-72893154D01*
X153177191Y-72835681D01*
X153136185Y-72792401D01*
X153084659Y-72768563D01*
X153054666Y-72767024D01*
X153004612Y-72780194D01*
X152959312Y-72807645D01*
X152929396Y-72844200D01*
X152928260Y-72846573D01*
X152916969Y-72865224D01*
X152901213Y-72875357D01*
X152873717Y-72879548D01*
X152827203Y-72880373D01*
X152742171Y-72880373D01*
X152750475Y-72844200D01*
X152761973Y-72808528D01*
X152800182Y-72747561D01*
X152855408Y-72699495D01*
X152923261Y-72665225D01*
X152999353Y-72645650D01*
X153079292Y-72641666D01*
X153158692Y-72654170D01*
G37*
G36*
X155405907Y-71331654D02*
G01*
X155472087Y-71342936D01*
X155478933Y-71345000D01*
X155538329Y-71375991D01*
X155593852Y-71426017D01*
X155639611Y-71488680D01*
X155669719Y-71557586D01*
X155686271Y-71650066D01*
X155682440Y-71742970D01*
X155658786Y-71828832D01*
X155616919Y-71903750D01*
X155558450Y-71963821D01*
X155484988Y-72005145D01*
X155479898Y-72006990D01*
X155416794Y-72019453D01*
X155331187Y-72020865D01*
X155290443Y-72018487D01*
X155243678Y-72011860D01*
X155205920Y-71999180D01*
X155166764Y-71977714D01*
X155121576Y-71942569D01*
X155070264Y-71876667D01*
X155039373Y-71798472D01*
X155030933Y-71762299D01*
X155115257Y-71762299D01*
X155161239Y-71763128D01*
X155187644Y-71767081D01*
X155200822Y-71776349D01*
X155207318Y-71793124D01*
X155208128Y-71795954D01*
X155224306Y-71827076D01*
X155249999Y-71858893D01*
X155268499Y-71875076D01*
X155300758Y-71889909D01*
X155345992Y-71893837D01*
X155391066Y-71889508D01*
X155443876Y-71866967D01*
X155480976Y-71824467D01*
X155502961Y-71761222D01*
X155510427Y-71676443D01*
X155507054Y-71615118D01*
X155490128Y-71550303D01*
X155457382Y-71502284D01*
X155407051Y-71467498D01*
X155401272Y-71464682D01*
X155367480Y-71451206D01*
X155339395Y-71450263D01*
X155302187Y-71460921D01*
X155300066Y-71461665D01*
X155255671Y-71485557D01*
X155228741Y-71521958D01*
X155224104Y-71531743D01*
X155212473Y-71550338D01*
X155196263Y-71560112D01*
X155168234Y-71563943D01*
X155121141Y-71564707D01*
X155033271Y-71564992D01*
X155044062Y-71527364D01*
X155056859Y-71492535D01*
X155098973Y-71426027D01*
X155156909Y-71374004D01*
X155225093Y-71342168D01*
X155256986Y-71335374D01*
X155329597Y-71329119D01*
X155405907Y-71331654D01*
G37*
G36*
X181073424Y-71706842D02*
G01*
X181067173Y-71762566D01*
X181042459Y-71851235D01*
X181001875Y-71924394D01*
X180947240Y-71979161D01*
X180880376Y-72012650D01*
X180862586Y-72017376D01*
X180790543Y-72025243D01*
X180719379Y-72017573D01*
X180656736Y-71995816D01*
X180610260Y-71961422D01*
X180602415Y-71952966D01*
X180579562Y-71935590D01*
X180566885Y-71942075D01*
X180562972Y-71972760D01*
X180562972Y-72012222D01*
X180405127Y-72012222D01*
X180405127Y-71670127D01*
X180569448Y-71670127D01*
X180576008Y-71742254D01*
X180596159Y-71807220D01*
X180629393Y-71857052D01*
X180655119Y-71878698D01*
X180686272Y-71890783D01*
X180731186Y-71893837D01*
X180793875Y-71883377D01*
X180844835Y-71851599D01*
X180880645Y-71800082D01*
X180900211Y-71730416D01*
X180902444Y-71644192D01*
X180898713Y-71610457D01*
X180880706Y-71548618D01*
X180846725Y-71502778D01*
X180793415Y-71467498D01*
X180788167Y-71464915D01*
X180754431Y-71451263D01*
X180726482Y-71450246D01*
X180689462Y-71460921D01*
X180646267Y-71483514D01*
X180608061Y-71521354D01*
X180599125Y-71536278D01*
X180576985Y-71598810D01*
X180569448Y-71670127D01*
X180405127Y-71670127D01*
X180405127Y-71078301D01*
X180576126Y-71078301D01*
X180576126Y-71249301D01*
X180576153Y-71261949D01*
X180577133Y-71323902D01*
X180579310Y-71374201D01*
X180582400Y-71407962D01*
X180586116Y-71420300D01*
X180595058Y-71415503D01*
X180611252Y-71396048D01*
X180624557Y-71380235D01*
X180667015Y-71353221D01*
X180724183Y-71335030D01*
X180788575Y-71328513D01*
X180800562Y-71328754D01*
X180885204Y-71343163D01*
X180955543Y-71378824D01*
X181010556Y-71434380D01*
X181049222Y-71508473D01*
X181070519Y-71599746D01*
X181071725Y-71644192D01*
X181073424Y-71706842D01*
G37*
G36*
X164016802Y-71337118D02*
G01*
X164093029Y-71362885D01*
X164132183Y-71385664D01*
X164195077Y-71443192D01*
X164237673Y-71517022D01*
X164260134Y-71607490D01*
X164262620Y-71714930D01*
X164260230Y-71741622D01*
X164238796Y-71834003D01*
X164197848Y-71908840D01*
X164137147Y-71966469D01*
X164056457Y-72007228D01*
X164017053Y-72017179D01*
X163948693Y-72023847D01*
X163876165Y-72021792D01*
X163811600Y-72010835D01*
X163790678Y-72003160D01*
X163738407Y-71970468D01*
X163688396Y-71923531D01*
X163647971Y-71869925D01*
X163624455Y-71817227D01*
X163610513Y-71762299D01*
X163693018Y-71762299D01*
X163701823Y-71762308D01*
X163743708Y-71763410D01*
X163767809Y-71768453D01*
X163781475Y-71780398D01*
X163792054Y-71802207D01*
X163820821Y-71848339D01*
X163864276Y-71880938D01*
X163914810Y-71894606D01*
X163967159Y-71889904D01*
X164016060Y-71867396D01*
X164056251Y-71827642D01*
X164082467Y-71771204D01*
X164083583Y-71766914D01*
X164092151Y-71703356D01*
X164089551Y-71635460D01*
X164076873Y-71573037D01*
X164055207Y-71525898D01*
X164010924Y-71480554D01*
X163958254Y-71454808D01*
X163903553Y-71452340D01*
X163902655Y-71452514D01*
X163866149Y-71466925D01*
X163830199Y-71491994D01*
X163802781Y-71520958D01*
X163791869Y-71547055D01*
X163791823Y-71548086D01*
X163782886Y-71558032D01*
X163755721Y-71563391D01*
X163706369Y-71564992D01*
X163676363Y-71564629D01*
X163638845Y-71560363D01*
X163622367Y-71547869D01*
X163623537Y-71522941D01*
X163638966Y-71481375D01*
X163652865Y-71456067D01*
X163693855Y-71409414D01*
X163747168Y-71369348D01*
X163804001Y-71343238D01*
X163841899Y-71334198D01*
X163929605Y-71327318D01*
X164016802Y-71337118D01*
G37*
G36*
X180767210Y-69368370D02*
G01*
X180763065Y-69481100D01*
X180738367Y-69590674D01*
X180693093Y-69692697D01*
X180627223Y-69782775D01*
X180589158Y-69819865D01*
X180509090Y-69875095D01*
X180411703Y-69915477D01*
X180368881Y-69925429D01*
X180291014Y-69932906D01*
X180205126Y-69931861D01*
X180121205Y-69922574D01*
X180049239Y-69905324D01*
X179973643Y-69868990D01*
X179898345Y-69811024D01*
X179834959Y-69739505D01*
X179790420Y-69660979D01*
X179762048Y-69591921D01*
X180007417Y-69591921D01*
X180058617Y-69643121D01*
X180078802Y-69661856D01*
X180143883Y-69703213D01*
X180215341Y-69719910D01*
X180296753Y-69712995D01*
X180355929Y-69694440D01*
X180413433Y-69656131D01*
X180452974Y-69599559D01*
X180476311Y-69522864D01*
X180485241Y-69473537D01*
X179747436Y-69473537D01*
X179747436Y-69397378D01*
X179752104Y-69321427D01*
X179759400Y-69289384D01*
X180033968Y-69289384D01*
X180486901Y-69289384D01*
X180477984Y-69253211D01*
X180476494Y-69247388D01*
X180445807Y-69174621D01*
X180398154Y-69121872D01*
X180334347Y-69089776D01*
X180255201Y-69078972D01*
X180226693Y-69079943D01*
X180158492Y-69093778D01*
X180106971Y-69125764D01*
X180069385Y-69178157D01*
X180042985Y-69253211D01*
X180033968Y-69289384D01*
X179759400Y-69289384D01*
X179778974Y-69203419D01*
X179828483Y-69095313D01*
X179899211Y-69000820D01*
X179955274Y-68950627D01*
X180043766Y-68899136D01*
X180141498Y-68868063D01*
X180244321Y-68857321D01*
X180348082Y-68866823D01*
X180448631Y-68896483D01*
X180541816Y-68946213D01*
X180623487Y-69015928D01*
X180656537Y-69055194D01*
X180713925Y-69151022D01*
X180750823Y-69256879D01*
X180755601Y-69289384D01*
X180767210Y-69368370D01*
G37*
G36*
X183180580Y-72248990D02*
G01*
X183009580Y-72248990D01*
X183009580Y-72089518D01*
X183008671Y-72028796D01*
X183006277Y-71979131D01*
X183002756Y-71945604D01*
X182998465Y-71933299D01*
X182984026Y-71940966D01*
X182962292Y-71961422D01*
X182931626Y-71987839D01*
X182871902Y-72014640D01*
X182802760Y-72024722D01*
X182730718Y-72018188D01*
X182662292Y-71995142D01*
X182604000Y-71955690D01*
X182588587Y-71940059D01*
X182549102Y-71881303D01*
X182524200Y-71806871D01*
X182512382Y-71712792D01*
X182511613Y-71694860D01*
X182512211Y-71683607D01*
X182680735Y-71683607D01*
X182680807Y-71692443D01*
X182689236Y-71765793D01*
X182713138Y-71822054D01*
X182754592Y-71866368D01*
X182792640Y-71886245D01*
X182850220Y-71893419D01*
X182877066Y-71892311D01*
X182918487Y-71882605D01*
X182950368Y-71858497D01*
X182981558Y-71814682D01*
X182994787Y-71785378D01*
X183007708Y-71725178D01*
X183010538Y-71657251D01*
X183003134Y-71591830D01*
X182985356Y-71539143D01*
X182967026Y-71512504D01*
X182924364Y-71475944D01*
X182874656Y-71454570D01*
X182826376Y-71452976D01*
X182818901Y-71454763D01*
X182759181Y-71482609D01*
X182715923Y-71530544D01*
X182689613Y-71597799D01*
X182680735Y-71683607D01*
X182512211Y-71683607D01*
X182517287Y-71588051D01*
X182540803Y-71498004D01*
X182581311Y-71425873D01*
X182637956Y-71372812D01*
X182709888Y-71339974D01*
X182796253Y-71328513D01*
X182856099Y-71333131D01*
X182924806Y-71354520D01*
X182975446Y-71392177D01*
X182984885Y-71402169D01*
X183007965Y-71418447D01*
X183019895Y-71411273D01*
X183019928Y-71380839D01*
X183014137Y-71341377D01*
X183180580Y-71341377D01*
X183180580Y-71657251D01*
X183180580Y-72248990D01*
G37*
G36*
X183956654Y-72248990D02*
G01*
X183785655Y-72248990D01*
X183785655Y-72091144D01*
X183785654Y-72089527D01*
X183785072Y-72028802D01*
X183783537Y-71979134D01*
X183781279Y-71945605D01*
X183778528Y-71933299D01*
X183778507Y-71933299D01*
X183764927Y-71941508D01*
X183742355Y-71961153D01*
X183689046Y-71998725D01*
X183619395Y-72021551D01*
X183545098Y-72024379D01*
X183471956Y-72007833D01*
X183405774Y-71972540D01*
X183352352Y-71919124D01*
X183337203Y-71896754D01*
X183306136Y-71833190D01*
X183289217Y-71760882D01*
X183284554Y-71676800D01*
X183456810Y-71676800D01*
X183463164Y-71748682D01*
X183487178Y-71816097D01*
X183529335Y-71865321D01*
X183569596Y-71886835D01*
X183625656Y-71895616D01*
X183680946Y-71885773D01*
X183726215Y-71857664D01*
X183727794Y-71856079D01*
X183756912Y-71821550D01*
X183774571Y-71784703D01*
X183783307Y-71737637D01*
X183785655Y-71672450D01*
X183783585Y-71626079D01*
X183768468Y-71556757D01*
X183737535Y-71505421D01*
X183689415Y-71469173D01*
X183640054Y-71452764D01*
X183584119Y-71457927D01*
X183528179Y-71489187D01*
X183492957Y-71527814D01*
X183465845Y-71592759D01*
X183456810Y-71676800D01*
X183284554Y-71676800D01*
X183284288Y-71672002D01*
X183284795Y-71649567D01*
X183298793Y-71550879D01*
X183331219Y-71467773D01*
X183381097Y-71402143D01*
X183447451Y-71355878D01*
X183495030Y-71338402D01*
X183567494Y-71328186D01*
X183639214Y-71334319D01*
X183702965Y-71355937D01*
X183751520Y-71392177D01*
X183759366Y-71400633D01*
X183782219Y-71418009D01*
X183794896Y-71411524D01*
X183798809Y-71380839D01*
X183798809Y-71341377D01*
X183956654Y-71341377D01*
X183956654Y-71672450D01*
X183956654Y-72248990D01*
G37*
G36*
X163446861Y-69367816D02*
G01*
X163439504Y-69489334D01*
X163413231Y-69607343D01*
X163368769Y-69713899D01*
X163307694Y-69801246D01*
X163230603Y-69868542D01*
X163138090Y-69914948D01*
X163113342Y-69921956D01*
X163047809Y-69930997D01*
X162973020Y-69932341D01*
X162899727Y-69926081D01*
X162838686Y-69912314D01*
X162821960Y-69905679D01*
X162769867Y-69876362D01*
X162724535Y-69839968D01*
X162673796Y-69789228D01*
X162673796Y-69907613D01*
X162410720Y-69907613D01*
X162410720Y-69332881D01*
X162689448Y-69332881D01*
X162689682Y-69427499D01*
X162697098Y-69506063D01*
X162715997Y-69582379D01*
X162746988Y-69640380D01*
X162791417Y-69683455D01*
X162802848Y-69690444D01*
X162846213Y-69707871D01*
X162893657Y-69717938D01*
X162928694Y-69719174D01*
X162999237Y-69704919D01*
X163058690Y-69668888D01*
X163105609Y-69613111D01*
X163138554Y-69539619D01*
X163156081Y-69450441D01*
X163156749Y-69347607D01*
X163141068Y-69253207D01*
X163109739Y-69177903D01*
X163063376Y-69123334D01*
X163002516Y-69090131D01*
X162927696Y-69078923D01*
X162856060Y-69086531D01*
X162798099Y-69111851D01*
X162748054Y-69157971D01*
X162720396Y-69199501D01*
X162699359Y-69258392D01*
X162689448Y-69332881D01*
X162410720Y-69332881D01*
X162410720Y-68500155D01*
X162686949Y-68500155D01*
X162686949Y-69002236D01*
X162748283Y-68948247D01*
X162800451Y-68910114D01*
X162887009Y-68872519D01*
X162981315Y-68857714D01*
X163079400Y-68866159D01*
X163177295Y-68898317D01*
X163207135Y-68913578D01*
X163287225Y-68973333D01*
X163352659Y-69051828D01*
X163402022Y-69145869D01*
X163433894Y-69252263D01*
X163444593Y-69347607D01*
X163446861Y-69367816D01*
G37*
G36*
X176355413Y-71337148D02*
G01*
X176430462Y-71362468D01*
X176455743Y-71376326D01*
X176521428Y-71429458D01*
X176567550Y-71498478D01*
X176594752Y-71584596D01*
X176603677Y-71689024D01*
X176600979Y-71739088D01*
X176579534Y-71829951D01*
X176537589Y-71905932D01*
X176476227Y-71965371D01*
X176396531Y-72006608D01*
X176357963Y-72016528D01*
X176289114Y-72023735D01*
X176216535Y-72022119D01*
X176152799Y-72011431D01*
X176101417Y-71989537D01*
X176040665Y-71941634D01*
X175991462Y-71876525D01*
X175958417Y-71799241D01*
X175947823Y-71762299D01*
X176032228Y-71762299D01*
X176049889Y-71762327D01*
X176088690Y-71763686D01*
X176110941Y-71769413D01*
X176123982Y-71782671D01*
X176135150Y-71806618D01*
X176163427Y-71852512D01*
X176208947Y-71883638D01*
X176270172Y-71893837D01*
X176270706Y-71893837D01*
X176330803Y-71882199D01*
X176377966Y-71849046D01*
X176410897Y-71796448D01*
X176428296Y-71726474D01*
X176428862Y-71641192D01*
X176417520Y-71582737D01*
X176389311Y-71522391D01*
X176348460Y-71478358D01*
X176298216Y-71453914D01*
X176241823Y-71452340D01*
X176240926Y-71452514D01*
X176204419Y-71466925D01*
X176168469Y-71491994D01*
X176141051Y-71520958D01*
X176130140Y-71547055D01*
X176130093Y-71548086D01*
X176121156Y-71558032D01*
X176093991Y-71563391D01*
X176044640Y-71564992D01*
X176014633Y-71564629D01*
X175977116Y-71560363D01*
X175960637Y-71547869D01*
X175961807Y-71522941D01*
X175977237Y-71481375D01*
X175991135Y-71456067D01*
X176032125Y-71409414D01*
X176085438Y-71369348D01*
X176142271Y-71343238D01*
X176182198Y-71333848D01*
X176269155Y-71327374D01*
X176355413Y-71337148D01*
G37*
G36*
X184773142Y-71649360D02*
G01*
X184807469Y-71739646D01*
X184837760Y-71818881D01*
X184862715Y-71883668D01*
X184881036Y-71930612D01*
X184891423Y-71956318D01*
X184915403Y-72012222D01*
X184711768Y-72012222D01*
X184678709Y-71910280D01*
X184645649Y-71808338D01*
X184278923Y-71801782D01*
X184245213Y-71903713D01*
X184211503Y-72005645D01*
X184109098Y-72009510D01*
X184099765Y-72009819D01*
X184052188Y-72009744D01*
X184021061Y-72006718D01*
X184011270Y-72001159D01*
X184011325Y-72001011D01*
X184017222Y-71985290D01*
X184031260Y-71947870D01*
X184052385Y-71891561D01*
X184079543Y-71819172D01*
X184111679Y-71733513D01*
X184146252Y-71641361D01*
X184340114Y-71641361D01*
X184346115Y-71649198D01*
X184365907Y-71654000D01*
X184403653Y-71656409D01*
X184463519Y-71657069D01*
X184520162Y-71656367D01*
X184560611Y-71653694D01*
X184581067Y-71648595D01*
X184584817Y-71640627D01*
X184584391Y-71639456D01*
X184576806Y-71618304D01*
X184562557Y-71578352D01*
X184543514Y-71524851D01*
X184521549Y-71463050D01*
X184517414Y-71451463D01*
X184495934Y-71393010D01*
X184477493Y-71345603D01*
X184463939Y-71313850D01*
X184457118Y-71302358D01*
X184456215Y-71303278D01*
X184448306Y-71320775D01*
X184434681Y-71356279D01*
X184417261Y-71404264D01*
X184397966Y-71459206D01*
X184378716Y-71515580D01*
X184361431Y-71567862D01*
X184348032Y-71610527D01*
X184340439Y-71638051D01*
X184340114Y-71641361D01*
X184146252Y-71641361D01*
X184147741Y-71637393D01*
X184186674Y-71533622D01*
X184357501Y-71078301D01*
X184557924Y-71078301D01*
X184712683Y-71489358D01*
X184736080Y-71551416D01*
X184769837Y-71640627D01*
X184773142Y-71649360D01*
G37*
G36*
X161039673Y-71645012D02*
G01*
X161038390Y-71736616D01*
X161019825Y-71815203D01*
X160982094Y-71888889D01*
X160956050Y-71923215D01*
X160900846Y-71970354D01*
X160825827Y-72008586D01*
X160792944Y-72016252D01*
X160743349Y-72020941D01*
X160687571Y-72021534D01*
X160645671Y-72018709D01*
X160553844Y-71998879D01*
X160479998Y-71960511D01*
X160423274Y-71903218D01*
X160401362Y-71869352D01*
X160374327Y-71805525D01*
X160361637Y-71731775D01*
X160361645Y-71676800D01*
X160529725Y-71676800D01*
X160536080Y-71748682D01*
X160560094Y-71816097D01*
X160602251Y-71865321D01*
X160639519Y-71884781D01*
X160694808Y-71894457D01*
X160750797Y-71888699D01*
X160796570Y-71867388D01*
X160825108Y-71835354D01*
X160851550Y-71779194D01*
X160866730Y-71712502D01*
X160869755Y-71643035D01*
X160859731Y-71578550D01*
X160835767Y-71526805D01*
X160817201Y-71505886D01*
X160771820Y-71473545D01*
X160721214Y-71454443D01*
X160675090Y-71453037D01*
X160670413Y-71454123D01*
X160610391Y-71481249D01*
X160566256Y-71528450D01*
X160539028Y-71594157D01*
X160529725Y-71676800D01*
X160361645Y-71676800D01*
X160361650Y-71641130D01*
X160363958Y-71608504D01*
X160371193Y-71557784D01*
X160384317Y-71517485D01*
X160406196Y-71477055D01*
X160432753Y-71439661D01*
X160494599Y-71383145D01*
X160571310Y-71347385D01*
X160664700Y-71331358D01*
X160664773Y-71331353D01*
X160770457Y-71334377D01*
X160859629Y-71357553D01*
X160931703Y-71400393D01*
X160986092Y-71462412D01*
X161022210Y-71543123D01*
X161039469Y-71642039D01*
X161039537Y-71643035D01*
X161039673Y-71645012D01*
G37*
G36*
X162202386Y-73001191D02*
G01*
X162192938Y-73088715D01*
X162166014Y-73167542D01*
X162133726Y-73220273D01*
X162073589Y-73279314D01*
X161995181Y-73320062D01*
X161941537Y-73334587D01*
X161853244Y-73340611D01*
X161764878Y-73327837D01*
X161683706Y-73297590D01*
X161616998Y-73251192D01*
X161612184Y-73246572D01*
X161569472Y-73196748D01*
X161542013Y-73142295D01*
X161527327Y-73076383D01*
X161522932Y-72992180D01*
X161522951Y-72987349D01*
X161687899Y-72987349D01*
X161693320Y-73054909D01*
X161714757Y-73118182D01*
X161753257Y-73172008D01*
X161779529Y-73194132D01*
X161810651Y-73206187D01*
X161855474Y-73209218D01*
X161897404Y-73205374D01*
X161954591Y-73182148D01*
X161995852Y-73138261D01*
X162020852Y-73074131D01*
X162029259Y-72990179D01*
X162028821Y-72971972D01*
X162016285Y-72896501D01*
X161988249Y-72835639D01*
X161947126Y-72792146D01*
X161895329Y-72768783D01*
X161835271Y-72768309D01*
X161805403Y-72777443D01*
X161757245Y-72810548D01*
X161720910Y-72860008D01*
X161697445Y-72920662D01*
X161687899Y-72987349D01*
X161522951Y-72987349D01*
X161523041Y-72964299D01*
X161524960Y-72912723D01*
X161530633Y-72875020D01*
X161541814Y-72842456D01*
X161560256Y-72806291D01*
X161568230Y-72792532D01*
X161621265Y-72725613D01*
X161687764Y-72679262D01*
X161769884Y-72652346D01*
X161869779Y-72643733D01*
X161906366Y-72645533D01*
X161988620Y-72662085D01*
X162061443Y-72693608D01*
X162117231Y-72737229D01*
X162133961Y-72757692D01*
X162172090Y-72828553D01*
X162195168Y-72912095D01*
X162201494Y-72990179D01*
X162202386Y-73001191D01*
G37*
G36*
X186372186Y-71734098D02*
G01*
X186351386Y-71826746D01*
X186311526Y-71903583D01*
X186253451Y-71963057D01*
X186178003Y-72003615D01*
X186140392Y-72013662D01*
X186071494Y-72021274D01*
X185997014Y-72020147D01*
X185927198Y-72010633D01*
X185872296Y-71993085D01*
X185839430Y-71974876D01*
X185772430Y-71918127D01*
X185725827Y-71845102D01*
X185699953Y-71756442D01*
X185695142Y-71652786D01*
X185695817Y-71641874D01*
X185698019Y-71629280D01*
X185866877Y-71629280D01*
X185867323Y-71698363D01*
X185880106Y-71766247D01*
X185904332Y-71825174D01*
X185939110Y-71867388D01*
X185975207Y-71886046D01*
X186034956Y-71893837D01*
X186074029Y-71890263D01*
X186130755Y-71867153D01*
X186172092Y-71823313D01*
X186197379Y-71759582D01*
X186205955Y-71676800D01*
X186205911Y-71670618D01*
X186195345Y-71589087D01*
X186166924Y-71524601D01*
X186121666Y-71478728D01*
X186060591Y-71453037D01*
X186037370Y-71451303D01*
X185987668Y-71462615D01*
X185938613Y-71489268D01*
X185899913Y-71526805D01*
X185879660Y-71566756D01*
X185866877Y-71629280D01*
X185698019Y-71629280D01*
X185713122Y-71542911D01*
X185749247Y-71462206D01*
X185803644Y-71400229D01*
X185875764Y-71357449D01*
X185965059Y-71334336D01*
X186070980Y-71331358D01*
X186121101Y-71337181D01*
X186205705Y-71363207D01*
X186274562Y-71409491D01*
X186329485Y-71477055D01*
X186342912Y-71500189D01*
X186359381Y-71538664D01*
X186368875Y-71582757D01*
X186374178Y-71642796D01*
X186373436Y-71676800D01*
X186372186Y-71734098D01*
G37*
G36*
X164000970Y-68863799D02*
G01*
X164092536Y-68879627D01*
X164169020Y-68913902D01*
X164234302Y-68968100D01*
X164278560Y-69015027D01*
X164278560Y-68881616D01*
X164554790Y-68881616D01*
X164554790Y-69907613D01*
X164266652Y-69907613D01*
X164262741Y-69568902D01*
X164261359Y-69469321D01*
X164259067Y-69374516D01*
X164255456Y-69300266D01*
X164249904Y-69243469D01*
X164241788Y-69201021D01*
X164230488Y-69169819D01*
X164215379Y-69146763D01*
X164195841Y-69128747D01*
X164171251Y-69112672D01*
X164169870Y-69111869D01*
X164119847Y-69093802D01*
X164060450Y-69087376D01*
X164002598Y-69092728D01*
X163957212Y-69109995D01*
X163941005Y-69121574D01*
X163923606Y-69138560D01*
X163910126Y-69160411D01*
X163900073Y-69190190D01*
X163892953Y-69230959D01*
X163888273Y-69285781D01*
X163885540Y-69357719D01*
X163884262Y-69449834D01*
X163883946Y-69565191D01*
X163883946Y-69907613D01*
X163592849Y-69907613D01*
X163596994Y-69503133D01*
X163598120Y-69400485D01*
X163599458Y-69306323D01*
X163601069Y-69232503D01*
X163603169Y-69175860D01*
X163605973Y-69133227D01*
X163609697Y-69101437D01*
X163614556Y-69077324D01*
X163620765Y-69057721D01*
X163628541Y-69039461D01*
X163629731Y-69036928D01*
X163673465Y-68970677D01*
X163733095Y-68915868D01*
X163800606Y-68879935D01*
X163803641Y-68878934D01*
X163843937Y-68870521D01*
X163898452Y-68864563D01*
X163956292Y-68862297D01*
X164000970Y-68863799D01*
G37*
G36*
X156267892Y-67776696D02*
G01*
X155978508Y-67776696D01*
X155977932Y-67457716D01*
X155977918Y-67450767D01*
X155977000Y-67332782D01*
X155974487Y-67237882D01*
X155969860Y-67163030D01*
X155962600Y-67105184D01*
X155952187Y-67061307D01*
X155938103Y-67028358D01*
X155919828Y-67003299D01*
X155896842Y-66983088D01*
X155896061Y-66982519D01*
X155848597Y-66960912D01*
X155788660Y-66950598D01*
X155727679Y-66952404D01*
X155677086Y-66967160D01*
X155655157Y-66979921D01*
X155635877Y-66996308D01*
X155620812Y-67018192D01*
X155609380Y-67048545D01*
X155601003Y-67090341D01*
X155595098Y-67146552D01*
X155591085Y-67220152D01*
X155588384Y-67314113D01*
X155586414Y-67431409D01*
X155581636Y-67776696D01*
X155307664Y-67776696D01*
X155307664Y-67402460D01*
X155307914Y-67295660D01*
X155309085Y-67188516D01*
X155311553Y-67102022D01*
X155315687Y-67033091D01*
X155321853Y-66978634D01*
X155330421Y-66935564D01*
X155341756Y-66900794D01*
X155356228Y-66871235D01*
X155374204Y-66843799D01*
X155413002Y-66800011D01*
X155469923Y-66761869D01*
X155541921Y-66738224D01*
X155633537Y-66727031D01*
X155635954Y-66726902D01*
X155725796Y-66727943D01*
X155798927Y-66743084D01*
X155861992Y-66774577D01*
X155921636Y-66824673D01*
X155978508Y-66881545D01*
X155978508Y-66356085D01*
X156267892Y-66356085D01*
X156267892Y-67776696D01*
G37*
G36*
X174833413Y-68865339D02*
G01*
X174912787Y-68881966D01*
X174980021Y-68915327D01*
X175041662Y-68967956D01*
X175090989Y-69018964D01*
X175090989Y-68881616D01*
X175367219Y-68881616D01*
X175367219Y-69907613D01*
X175079477Y-69907613D01*
X175075367Y-69575479D01*
X175074246Y-69492266D01*
X175072683Y-69406863D01*
X175070711Y-69341482D01*
X175068051Y-69292600D01*
X175064424Y-69256692D01*
X175059551Y-69230235D01*
X175053153Y-69209705D01*
X175044950Y-69191579D01*
X175033726Y-69171200D01*
X174994199Y-69123102D01*
X174943812Y-69096333D01*
X174876993Y-69087436D01*
X174861810Y-69087517D01*
X174797802Y-69097651D01*
X174749805Y-69125796D01*
X174713188Y-69174412D01*
X174709259Y-69182336D01*
X174702877Y-69200506D01*
X174697882Y-69225226D01*
X174694039Y-69259789D01*
X174691112Y-69307487D01*
X174688866Y-69371614D01*
X174687067Y-69455462D01*
X174685477Y-69562325D01*
X174680963Y-69907613D01*
X174393837Y-69907613D01*
X174393837Y-69601441D01*
X174394623Y-69464363D01*
X174397439Y-69344779D01*
X174402796Y-69246060D01*
X174411205Y-69165450D01*
X174423176Y-69100196D01*
X174439220Y-69047544D01*
X174459848Y-69004741D01*
X174485569Y-68969033D01*
X174516895Y-68937666D01*
X174553818Y-68909620D01*
X174611310Y-68882056D01*
X174680799Y-68866924D01*
X174768721Y-68862297D01*
X174833413Y-68865339D01*
G37*
G36*
X178116364Y-69907613D02*
G01*
X177828945Y-69907613D01*
X177824675Y-69568902D01*
X177823259Y-69467016D01*
X177821671Y-69385099D01*
X177819676Y-69322763D01*
X177817004Y-69276599D01*
X177813381Y-69243201D01*
X177808537Y-69219162D01*
X177802199Y-69201073D01*
X177794096Y-69185528D01*
X177786620Y-69173374D01*
X177744415Y-69123970D01*
X177692975Y-69096524D01*
X177626139Y-69087436D01*
X177610868Y-69087520D01*
X177546855Y-69097682D01*
X177498928Y-69125841D01*
X177462545Y-69174412D01*
X177459083Y-69181400D01*
X177452644Y-69199567D01*
X177447583Y-69224346D01*
X177443663Y-69259022D01*
X177440649Y-69306875D01*
X177438305Y-69371188D01*
X177436396Y-69455244D01*
X177434685Y-69562325D01*
X177429810Y-69907613D01*
X177156136Y-69907613D01*
X177156136Y-69528540D01*
X177156145Y-69505476D01*
X177156652Y-69383642D01*
X177158269Y-69284484D01*
X177161451Y-69204898D01*
X177166654Y-69141785D01*
X177174332Y-69092041D01*
X177184942Y-69052567D01*
X177198938Y-69020258D01*
X177216777Y-68992016D01*
X177238912Y-68964736D01*
X177274653Y-68930654D01*
X177347342Y-68887395D01*
X177430317Y-68863059D01*
X177518454Y-68857724D01*
X177606628Y-68871471D01*
X177689718Y-68904380D01*
X177762599Y-68956532D01*
X177826981Y-69016754D01*
X177826981Y-68500155D01*
X178116364Y-68500155D01*
X178116364Y-69907613D01*
G37*
G36*
X192664474Y-69907613D02*
G01*
X192376336Y-69907613D01*
X192372425Y-69568902D01*
X192371043Y-69469321D01*
X192368751Y-69374516D01*
X192365140Y-69300266D01*
X192359588Y-69243469D01*
X192351472Y-69201021D01*
X192340172Y-69169819D01*
X192325063Y-69146763D01*
X192305525Y-69128747D01*
X192280935Y-69112672D01*
X192279554Y-69111869D01*
X192229531Y-69093802D01*
X192170134Y-69087376D01*
X192112282Y-69092728D01*
X192066896Y-69109995D01*
X192050689Y-69121574D01*
X192033290Y-69138560D01*
X192019810Y-69160411D01*
X192009757Y-69190190D01*
X192002637Y-69230959D01*
X191997957Y-69285781D01*
X191995224Y-69357719D01*
X191993946Y-69449834D01*
X191993630Y-69565191D01*
X191993630Y-69907613D01*
X191702240Y-69907613D01*
X191706726Y-69503133D01*
X191708131Y-69386118D01*
X191709870Y-69287488D01*
X191712400Y-69208966D01*
X191716234Y-69147395D01*
X191721883Y-69099618D01*
X191729861Y-69062478D01*
X191740678Y-69032817D01*
X191754847Y-69007480D01*
X191772881Y-68983309D01*
X191795290Y-68957147D01*
X191823468Y-68929626D01*
X191886882Y-68891293D01*
X191966768Y-68869122D01*
X192065976Y-68862113D01*
X192120989Y-68864613D01*
X192201352Y-68881097D01*
X192269597Y-68915296D01*
X192332340Y-68969886D01*
X192375090Y-69015027D01*
X192375090Y-68500155D01*
X192664474Y-68500155D01*
X192664474Y-69907613D01*
G37*
G36*
X154547377Y-66725802D02*
G01*
X154647498Y-66742486D01*
X154732327Y-66780060D01*
X154802911Y-66838937D01*
X154847281Y-66887378D01*
X154847281Y-66750699D01*
X155110357Y-66750699D01*
X155110357Y-67776696D01*
X154837031Y-67776696D01*
X154831986Y-67444562D01*
X154830351Y-67351745D01*
X154827604Y-67255535D01*
X154823439Y-67179861D01*
X154817145Y-67121500D01*
X154808012Y-67077229D01*
X154795331Y-67043827D01*
X154778391Y-67018072D01*
X154756483Y-66996741D01*
X154728897Y-66976612D01*
X154715265Y-66968660D01*
X154661070Y-66951753D01*
X154600742Y-66949288D01*
X154543904Y-66960865D01*
X154500174Y-66986087D01*
X154483788Y-67004456D01*
X154469687Y-67029178D01*
X154458832Y-67062026D01*
X154450830Y-67106027D01*
X154445290Y-67164209D01*
X154441819Y-67239600D01*
X154440024Y-67335228D01*
X154439513Y-67454121D01*
X154439513Y-67777586D01*
X154298109Y-67773853D01*
X154156706Y-67770119D01*
X154152916Y-67434697D01*
X154152492Y-67391379D01*
X154152278Y-67267537D01*
X154154043Y-67165923D01*
X154158063Y-67083460D01*
X154164612Y-67017072D01*
X154173966Y-66963682D01*
X154186399Y-66920211D01*
X154202187Y-66883584D01*
X154208605Y-66871675D01*
X154258744Y-66806729D01*
X154325288Y-66760968D01*
X154409305Y-66733843D01*
X154511859Y-66724809D01*
X154547377Y-66725802D01*
G37*
G36*
X160638162Y-68870118D02*
G01*
X160720819Y-68903575D01*
X160794425Y-68956753D01*
X160858570Y-69016754D01*
X160858570Y-68880695D01*
X160993397Y-68884444D01*
X161128223Y-68888193D01*
X161135109Y-69907613D01*
X160847411Y-69907613D01*
X160843125Y-69575479D01*
X160841969Y-69492899D01*
X160840360Y-69407332D01*
X160838353Y-69341811D01*
X160835668Y-69292813D01*
X160832025Y-69256815D01*
X160827141Y-69230292D01*
X160820737Y-69209721D01*
X160812532Y-69191579D01*
X160792002Y-69156502D01*
X160753095Y-69115886D01*
X160702859Y-69094144D01*
X160635179Y-69087692D01*
X160607763Y-69088076D01*
X160569739Y-69092173D01*
X160542801Y-69103297D01*
X160516999Y-69124552D01*
X160498656Y-69145213D01*
X160483372Y-69171384D01*
X160471624Y-69205294D01*
X160462978Y-69250035D01*
X160457004Y-69308698D01*
X160453271Y-69384377D01*
X160451348Y-69480162D01*
X160450802Y-69599146D01*
X160450802Y-69907613D01*
X160161419Y-69907613D01*
X160161652Y-69608363D01*
X160162204Y-69502434D01*
X160164627Y-69375383D01*
X160169155Y-69270673D01*
X160175988Y-69186025D01*
X160185326Y-69119163D01*
X160197368Y-69067807D01*
X160212312Y-69029682D01*
X160245279Y-68979089D01*
X160306263Y-68922323D01*
X160380504Y-68882485D01*
X160463543Y-68860132D01*
X160550916Y-68855823D01*
X160638162Y-68870118D01*
G37*
G36*
X188070507Y-68884459D02*
G01*
X188211911Y-68888193D01*
X188215567Y-69217038D01*
X188216249Y-69331167D01*
X188214751Y-69457894D01*
X188209896Y-69562937D01*
X188200961Y-69648861D01*
X188187223Y-69718229D01*
X188167959Y-69773608D01*
X188142445Y-69817561D01*
X188109960Y-69852652D01*
X188069779Y-69881446D01*
X188021180Y-69906507D01*
X187982198Y-69920731D01*
X187927757Y-69930499D01*
X187856758Y-69933503D01*
X187821240Y-69932510D01*
X187721119Y-69915826D01*
X187636290Y-69878251D01*
X187565706Y-69819375D01*
X187521336Y-69770934D01*
X187521336Y-69907613D01*
X187258260Y-69907613D01*
X187258260Y-68881616D01*
X187532167Y-68881616D01*
X187536617Y-69213749D01*
X187538103Y-69307494D01*
X187540684Y-69403394D01*
X187544734Y-69478801D01*
X187550964Y-69536944D01*
X187560086Y-69581052D01*
X187572812Y-69614352D01*
X187589851Y-69640075D01*
X187611917Y-69661448D01*
X187639720Y-69681700D01*
X187653351Y-69689652D01*
X187707547Y-69706558D01*
X187767875Y-69709024D01*
X187824713Y-69697446D01*
X187868442Y-69672224D01*
X187884829Y-69653856D01*
X187898930Y-69629133D01*
X187909785Y-69596285D01*
X187917786Y-69552284D01*
X187923326Y-69494102D01*
X187926798Y-69418711D01*
X187928593Y-69323083D01*
X187929104Y-69204191D01*
X187929104Y-68880726D01*
X188070507Y-68884459D01*
G37*
G36*
X192059399Y-71408447D02*
G01*
X192059606Y-71505745D01*
X192060426Y-71590887D01*
X192062043Y-71656013D01*
X192064641Y-71704421D01*
X192068402Y-71739409D01*
X192073509Y-71764274D01*
X192080146Y-71782314D01*
X192094150Y-71805854D01*
X192136857Y-71842847D01*
X192197983Y-71862429D01*
X192278533Y-71865017D01*
X192312312Y-71862280D01*
X192350051Y-71855204D01*
X192377676Y-71841461D01*
X192405082Y-71817323D01*
X192447436Y-71774991D01*
X192455240Y-71078301D01*
X192653203Y-71078301D01*
X192648973Y-71436743D01*
X192647646Y-71537951D01*
X192646060Y-71624800D01*
X192644085Y-71691669D01*
X192641489Y-71741840D01*
X192638039Y-71778598D01*
X192633499Y-71805225D01*
X192627639Y-71825005D01*
X192620223Y-71841222D01*
X192572858Y-71911568D01*
X192508197Y-71968310D01*
X192427932Y-72005276D01*
X192329793Y-72023892D01*
X192314315Y-72025183D01*
X192196331Y-72025111D01*
X192094615Y-72006337D01*
X192010087Y-71969245D01*
X191943663Y-71914223D01*
X191896263Y-71841657D01*
X191894725Y-71838298D01*
X191886686Y-71818562D01*
X191880400Y-71796836D01*
X191875597Y-71769647D01*
X191872008Y-71733521D01*
X191869366Y-71684984D01*
X191867400Y-71620562D01*
X191865843Y-71536780D01*
X191864426Y-71430166D01*
X191860183Y-71078301D01*
X192059399Y-71078301D01*
X192059399Y-71408447D01*
G37*
G36*
X158928249Y-72656749D02*
G01*
X159017037Y-72656758D01*
X159017037Y-72867641D01*
X159017120Y-72899386D01*
X159018779Y-72987865D01*
X159023184Y-73055078D01*
X159031139Y-73104852D01*
X159043448Y-73141008D01*
X159060915Y-73167373D01*
X159084344Y-73187768D01*
X159087655Y-73189957D01*
X159131806Y-73205706D01*
X159183403Y-73207872D01*
X159228227Y-73195674D01*
X159241535Y-73187493D01*
X159260447Y-73169048D01*
X159274249Y-73142357D01*
X159283688Y-73103814D01*
X159289506Y-73049815D01*
X159292451Y-72976753D01*
X159293267Y-72881026D01*
X159293267Y-72656758D01*
X159464267Y-72656758D01*
X159463978Y-72916546D01*
X159463607Y-72987855D01*
X159461507Y-73079042D01*
X159456785Y-73149595D01*
X159448570Y-73202948D01*
X159435990Y-73242535D01*
X159418173Y-73271788D01*
X159394247Y-73294142D01*
X159363342Y-73313031D01*
X159314996Y-73330608D01*
X159251362Y-73338429D01*
X159185437Y-73334209D01*
X159124097Y-73319073D01*
X159074213Y-73294146D01*
X159042659Y-73260552D01*
X159036384Y-73250122D01*
X159019909Y-73236497D01*
X159008285Y-73247406D01*
X159003884Y-73281564D01*
X159003884Y-73327602D01*
X158846904Y-73327602D01*
X158843183Y-72992171D01*
X158839461Y-72656739D01*
X158928249Y-72656749D01*
G37*
G36*
X161660953Y-66750699D02*
G01*
X161833105Y-66750699D01*
X161825375Y-66941429D01*
X161660953Y-66949261D01*
X161660953Y-67274692D01*
X161660950Y-67297051D01*
X161660790Y-67393576D01*
X161660179Y-67468161D01*
X161658838Y-67524440D01*
X161656485Y-67566050D01*
X161652841Y-67596626D01*
X161647625Y-67619804D01*
X161640557Y-67639221D01*
X161631356Y-67658512D01*
X161627804Y-67665277D01*
X161587119Y-67718463D01*
X161530468Y-67754868D01*
X161454053Y-67777030D01*
X161448996Y-67777882D01*
X161405546Y-67782184D01*
X161351349Y-67784057D01*
X161293805Y-67783671D01*
X161240317Y-67781193D01*
X161198286Y-67776795D01*
X161175113Y-67770645D01*
X161173963Y-67769622D01*
X161167332Y-67749336D01*
X161162792Y-67709909D01*
X161161108Y-67657535D01*
X161161108Y-67553081D01*
X161242283Y-67553081D01*
X161273738Y-67553002D01*
X161306645Y-67551072D01*
X161331201Y-67544253D01*
X161348627Y-67529485D01*
X161360144Y-67503709D01*
X161366975Y-67463865D01*
X161370342Y-67406893D01*
X161371466Y-67329734D01*
X161371569Y-67229328D01*
X161371569Y-66949113D01*
X161167685Y-66941429D01*
X161159955Y-66750699D01*
X161371569Y-66750699D01*
X161371569Y-66448162D01*
X161660953Y-66448162D01*
X161660953Y-66750699D01*
G37*
G36*
X164684558Y-72651676D02*
G01*
X164746112Y-72676140D01*
X164763887Y-72687344D01*
X164794003Y-72710580D01*
X164809335Y-72728755D01*
X164817811Y-72744319D01*
X164831112Y-72749487D01*
X164840555Y-72734452D01*
X164841677Y-72702796D01*
X164836302Y-72656758D01*
X165002019Y-72656758D01*
X165002019Y-73327602D01*
X164831020Y-73327602D01*
X164830706Y-73133584D01*
X164830681Y-73123112D01*
X164829309Y-73027050D01*
X164825450Y-72953155D01*
X164818435Y-72897702D01*
X164807597Y-72856965D01*
X164792269Y-72827219D01*
X164771783Y-72804738D01*
X164742677Y-72786644D01*
X164693169Y-72775326D01*
X164642412Y-72780688D01*
X164598468Y-72801467D01*
X164569394Y-72836404D01*
X164567399Y-72842343D01*
X164562153Y-72876527D01*
X164558183Y-72932691D01*
X164555668Y-73007603D01*
X164554790Y-73098030D01*
X164554790Y-73327602D01*
X164466002Y-73327613D01*
X164377214Y-73327623D01*
X164380656Y-73061947D01*
X164381915Y-72985523D01*
X164384716Y-72898909D01*
X164389531Y-72832360D01*
X164397236Y-72782240D01*
X164408710Y-72744916D01*
X164424831Y-72716753D01*
X164446476Y-72694117D01*
X164474524Y-72673374D01*
X164486025Y-72666522D01*
X164545191Y-72646772D01*
X164614477Y-72641855D01*
X164684558Y-72651676D01*
G37*
G36*
X165028903Y-69200595D02*
G01*
X165028917Y-69207544D01*
X165029835Y-69325530D01*
X165032348Y-69420429D01*
X165036975Y-69495282D01*
X165044235Y-69553127D01*
X165054648Y-69597004D01*
X165068732Y-69629953D01*
X165087007Y-69655013D01*
X165109993Y-69675223D01*
X165110774Y-69675793D01*
X165158238Y-69697400D01*
X165218175Y-69707714D01*
X165279156Y-69705907D01*
X165329749Y-69691152D01*
X165351678Y-69678390D01*
X165370958Y-69662004D01*
X165386024Y-69640120D01*
X165397455Y-69609767D01*
X165405833Y-69567971D01*
X165411737Y-69511760D01*
X165415750Y-69438160D01*
X165418451Y-69344199D01*
X165420421Y-69226903D01*
X165425199Y-68881616D01*
X165700863Y-68881616D01*
X165696729Y-69292672D01*
X165692594Y-69703729D01*
X165656785Y-69771632D01*
X165625872Y-69820336D01*
X165567054Y-69876929D01*
X165490222Y-69915773D01*
X165462419Y-69923340D01*
X165397870Y-69931427D01*
X165324473Y-69932217D01*
X165252806Y-69925832D01*
X165193449Y-69912393D01*
X165170046Y-69902597D01*
X165118802Y-69872508D01*
X165072721Y-69835725D01*
X165015173Y-69780584D01*
X165015173Y-69907613D01*
X164738943Y-69907613D01*
X164738943Y-68881616D01*
X165028327Y-68881616D01*
X165028903Y-69200595D01*
G37*
G36*
X150540672Y-71331963D02*
G01*
X150604769Y-71347092D01*
X150658268Y-71372683D01*
X150693924Y-71407455D01*
X150699543Y-71415934D01*
X150716501Y-71431825D01*
X150726720Y-71422308D01*
X150730140Y-71387416D01*
X150730140Y-71341377D01*
X150887985Y-71341377D01*
X150887985Y-72012222D01*
X150716986Y-72012222D01*
X150716986Y-71801338D01*
X150716903Y-71769594D01*
X150715244Y-71681115D01*
X150710839Y-71613901D01*
X150702884Y-71564128D01*
X150690575Y-71527971D01*
X150673108Y-71501607D01*
X150649679Y-71481212D01*
X150646738Y-71479253D01*
X150602317Y-71463251D01*
X150550275Y-71461260D01*
X150504546Y-71473974D01*
X150498839Y-71477273D01*
X150478301Y-71495458D01*
X150462999Y-71523045D01*
X150452263Y-71563401D01*
X150445424Y-71619894D01*
X150441811Y-71695891D01*
X150440756Y-71794761D01*
X150440756Y-72012222D01*
X150267852Y-72012222D01*
X150272092Y-71739280D01*
X150273946Y-71647168D01*
X150277299Y-71562612D01*
X150282833Y-71497908D01*
X150291470Y-71449602D01*
X150304128Y-71414239D01*
X150321728Y-71388364D01*
X150345190Y-71368524D01*
X150375434Y-71351263D01*
X150409678Y-71338204D01*
X150473226Y-71328574D01*
X150540672Y-71331963D01*
G37*
G36*
X153452977Y-67776696D02*
G01*
X153163594Y-67776696D01*
X153163594Y-67411115D01*
X153117098Y-67370291D01*
X153102203Y-67357649D01*
X153075831Y-67337650D01*
X153061194Y-67330002D01*
X153060514Y-67330336D01*
X153049088Y-67344624D01*
X153026712Y-67377503D01*
X152995598Y-67425566D01*
X152957957Y-67485406D01*
X152916003Y-67553616D01*
X152780220Y-67776696D01*
X152610177Y-67776696D01*
X152598345Y-67776680D01*
X152536474Y-67776022D01*
X152486217Y-67774546D01*
X152452471Y-67772446D01*
X152440134Y-67769918D01*
X152440587Y-67768796D01*
X152450988Y-67751522D01*
X152473763Y-67715888D01*
X152507088Y-67664683D01*
X152549141Y-67600697D01*
X152598098Y-67526721D01*
X152652134Y-67445545D01*
X152864134Y-67127951D01*
X152678442Y-66943555D01*
X152668095Y-66933274D01*
X152612470Y-66877767D01*
X152564311Y-66829322D01*
X152526429Y-66790796D01*
X152501638Y-66765046D01*
X152492750Y-66754929D01*
X152492855Y-66754777D01*
X152507295Y-66753187D01*
X152542590Y-66751892D01*
X152593736Y-66751019D01*
X152655731Y-66750699D01*
X152818712Y-66750699D01*
X153163594Y-67107825D01*
X153163594Y-66356085D01*
X153452977Y-66356085D01*
X153452977Y-67776696D01*
G37*
G36*
X147559530Y-71334230D02*
G01*
X147626243Y-71358048D01*
X147674853Y-71398976D01*
X147689571Y-71416749D01*
X147707212Y-71430960D01*
X147715715Y-71421436D01*
X147717918Y-71387416D01*
X147717918Y-71341377D01*
X147888917Y-71341377D01*
X147888917Y-72012222D01*
X147704764Y-72012222D01*
X147704764Y-71789226D01*
X147703839Y-71695256D01*
X147700862Y-71616657D01*
X147695905Y-71561722D01*
X147689049Y-71531740D01*
X147674344Y-71509143D01*
X147634293Y-71478666D01*
X147583644Y-71462083D01*
X147531052Y-71461612D01*
X147485171Y-71479472D01*
X147477735Y-71485694D01*
X147459023Y-71514397D01*
X147445121Y-71560124D01*
X147435656Y-71625145D01*
X147430252Y-71711727D01*
X147428534Y-71822139D01*
X147428534Y-72012222D01*
X147255196Y-72012222D01*
X147259654Y-71745857D01*
X147260254Y-71710830D01*
X147261939Y-71628387D01*
X147263982Y-71566656D01*
X147266846Y-71521508D01*
X147270996Y-71488815D01*
X147276895Y-71464449D01*
X147285008Y-71444280D01*
X147295797Y-71424181D01*
X147305265Y-71409181D01*
X147351365Y-71363670D01*
X147414052Y-71336952D01*
X147494992Y-71328224D01*
X147559530Y-71334230D01*
G37*
G36*
X153762371Y-72644312D02*
G01*
X153825319Y-72653231D01*
X153875934Y-72674964D01*
X153923226Y-72712760D01*
X153965976Y-72753995D01*
X153965976Y-72656758D01*
X154048187Y-72656749D01*
X154130398Y-72656739D01*
X154126677Y-72992171D01*
X154122955Y-73327602D01*
X153952822Y-73327602D01*
X153952822Y-73109264D01*
X153952554Y-73053538D01*
X153950333Y-72969184D01*
X153945189Y-72905681D01*
X153936313Y-72859526D01*
X153922899Y-72827216D01*
X153904139Y-72805248D01*
X153879223Y-72790119D01*
X153828877Y-72776904D01*
X153775772Y-72778647D01*
X153732645Y-72795261D01*
X153713377Y-72814164D01*
X153698668Y-72842880D01*
X153688214Y-72884543D01*
X153681444Y-72942474D01*
X153677785Y-73019996D01*
X153676665Y-73120430D01*
X153676592Y-73327602D01*
X153503294Y-73327602D01*
X153507732Y-73054661D01*
X153509366Y-72965965D01*
X153511355Y-72894126D01*
X153513985Y-72840985D01*
X153517633Y-72802629D01*
X153522678Y-72775149D01*
X153529500Y-72754632D01*
X153538477Y-72737169D01*
X153541480Y-72732253D01*
X153587478Y-72683129D01*
X153650925Y-72653517D01*
X153731434Y-72643604D01*
X153762371Y-72644312D01*
G37*
G36*
X189362869Y-69907613D02*
G01*
X189075078Y-69907613D01*
X189070993Y-69562325D01*
X189070321Y-69506955D01*
X189068994Y-69414264D01*
X189067448Y-69342786D01*
X189065389Y-69289126D01*
X189062526Y-69249889D01*
X189058568Y-69221679D01*
X189053221Y-69201101D01*
X189046194Y-69184759D01*
X189037196Y-69169259D01*
X189035239Y-69166174D01*
X188993160Y-69121352D01*
X188935894Y-69095390D01*
X188860718Y-69087017D01*
X188852191Y-69087159D01*
X188787869Y-69099879D01*
X188739918Y-69132810D01*
X188709209Y-69185385D01*
X188704463Y-69207847D01*
X188699568Y-69259351D01*
X188695992Y-69336571D01*
X188693728Y-69439692D01*
X188692767Y-69568902D01*
X188692025Y-69907613D01*
X188400905Y-69907613D01*
X188405061Y-69509710D01*
X188409218Y-69111807D01*
X188444245Y-69037085D01*
X188455312Y-69015394D01*
X188507543Y-68946198D01*
X188576574Y-68897110D01*
X188663022Y-68867656D01*
X188717502Y-68859910D01*
X188811502Y-68862238D01*
X188900218Y-68883119D01*
X188977922Y-68920932D01*
X189038887Y-68974055D01*
X189073485Y-69015172D01*
X189073485Y-68500155D01*
X189362869Y-68500155D01*
X189362869Y-69907613D01*
G37*
G36*
X163515639Y-71620874D02*
G01*
X163514145Y-71677171D01*
X163510259Y-71778279D01*
X163505401Y-71853696D01*
X163499540Y-71903832D01*
X163492647Y-71929096D01*
X163491925Y-71930330D01*
X163461766Y-71965155D01*
X163419390Y-71996817D01*
X163377524Y-72015737D01*
X163363917Y-72018728D01*
X163299716Y-72023952D01*
X163233709Y-72017486D01*
X163172814Y-72001052D01*
X163123949Y-71976373D01*
X163094032Y-71945171D01*
X163087756Y-71934741D01*
X163071281Y-71921117D01*
X163059658Y-71932026D01*
X163055256Y-71966183D01*
X163055256Y-72012222D01*
X162897410Y-72012222D01*
X162897410Y-71341377D01*
X163068410Y-71341377D01*
X163068430Y-71555127D01*
X163068543Y-71600687D01*
X163069552Y-71673298D01*
X163071945Y-71726460D01*
X163076123Y-71764721D01*
X163082490Y-71792629D01*
X163091449Y-71814731D01*
X163106327Y-71838638D01*
X163148266Y-71875759D01*
X163198961Y-71893005D01*
X163252046Y-71888938D01*
X163301156Y-71862120D01*
X163338063Y-71830402D01*
X163342165Y-71585890D01*
X163346267Y-71341377D01*
X163434241Y-71341356D01*
X163522216Y-71341335D01*
X163515639Y-71620874D01*
G37*
G36*
X177003038Y-71335235D02*
G01*
X177063664Y-71351145D01*
X177112896Y-71375969D01*
X177143668Y-71408428D01*
X177152443Y-71422252D01*
X177168793Y-71433294D01*
X177179122Y-71421010D01*
X177179948Y-71387416D01*
X177174573Y-71341377D01*
X177340290Y-71341377D01*
X177340290Y-72012222D01*
X177169290Y-72012222D01*
X177169217Y-71811626D01*
X177169049Y-71780643D01*
X177167463Y-71707918D01*
X177164473Y-71643225D01*
X177160411Y-71592657D01*
X177155610Y-71562302D01*
X177155444Y-71561709D01*
X177129311Y-71510360D01*
X177088267Y-71475694D01*
X177038400Y-71459680D01*
X176985796Y-71464286D01*
X176936544Y-71491479D01*
X176899637Y-71523197D01*
X176895535Y-71767709D01*
X176891433Y-72012222D01*
X176803459Y-72012242D01*
X176715484Y-72012263D01*
X176722061Y-71730352D01*
X176722709Y-71703161D01*
X176725516Y-71607165D01*
X176729313Y-71533085D01*
X176735089Y-71477393D01*
X176743831Y-71436561D01*
X176756527Y-71407060D01*
X176774167Y-71385362D01*
X176797737Y-71367939D01*
X176828226Y-71351263D01*
X176875879Y-71335282D01*
X176938087Y-71329520D01*
X177003038Y-71335235D01*
G37*
G36*
X154316217Y-68581922D02*
G01*
X154455998Y-68585655D01*
X154453619Y-68733635D01*
X154451240Y-68881616D01*
X154623666Y-68881616D01*
X154623666Y-69078923D01*
X154452667Y-69078923D01*
X154452667Y-69421575D01*
X154452460Y-69532393D01*
X154451469Y-69621574D01*
X154449149Y-69690799D01*
X154444954Y-69743264D01*
X154438338Y-69782164D01*
X154428755Y-69810693D01*
X154415660Y-69832048D01*
X154398507Y-69849422D01*
X154376750Y-69866010D01*
X154337849Y-69888201D01*
X154294340Y-69905535D01*
X154276547Y-69909087D01*
X154231687Y-69913588D01*
X154173696Y-69916221D01*
X154110668Y-69916504D01*
X153972553Y-69914189D01*
X153964973Y-69685489D01*
X154010778Y-69692922D01*
X154029151Y-69695347D01*
X154088897Y-69694283D01*
X154134504Y-69678815D01*
X154161271Y-69650276D01*
X154163716Y-69642834D01*
X154169205Y-69605394D01*
X154173188Y-69543089D01*
X154175616Y-69456937D01*
X154176437Y-69347957D01*
X154176437Y-69078923D01*
X153965976Y-69078923D01*
X153965976Y-68881616D01*
X154176437Y-68881616D01*
X154176437Y-68578188D01*
X154316217Y-68581922D01*
G37*
G36*
X191379929Y-71334669D02*
G01*
X191440226Y-71350069D01*
X191489099Y-71374265D01*
X191519494Y-71406028D01*
X191526642Y-71417901D01*
X191543492Y-71432249D01*
X191555180Y-71421754D01*
X191559554Y-71387416D01*
X191559554Y-71341377D01*
X191717400Y-71341377D01*
X191717400Y-72012222D01*
X191546401Y-72012222D01*
X191546401Y-71801338D01*
X191546318Y-71769594D01*
X191544659Y-71681115D01*
X191540254Y-71613901D01*
X191532299Y-71564128D01*
X191519990Y-71527971D01*
X191502523Y-71501607D01*
X191479094Y-71481212D01*
X191466402Y-71473617D01*
X191415166Y-71460179D01*
X191360779Y-71466348D01*
X191313654Y-71491479D01*
X191276747Y-71523197D01*
X191272646Y-71767709D01*
X191268544Y-72012222D01*
X191097300Y-72012222D01*
X191101524Y-71730342D01*
X191101969Y-71701648D01*
X191103976Y-71606045D01*
X191107168Y-71532306D01*
X191112511Y-71476899D01*
X191120972Y-71436294D01*
X191133517Y-71406960D01*
X191151116Y-71385363D01*
X191174733Y-71367975D01*
X191205337Y-71351263D01*
X191253283Y-71335179D01*
X191315263Y-71329296D01*
X191379929Y-71334669D01*
G37*
G36*
X159082807Y-66750699D02*
G01*
X159253806Y-66750699D01*
X159253806Y-66948006D01*
X159082807Y-66948006D01*
X159082807Y-67284081D01*
X159082670Y-67384515D01*
X159081872Y-67472547D01*
X159079862Y-67540749D01*
X159076091Y-67592507D01*
X159070009Y-67631208D01*
X159061068Y-67660240D01*
X159048718Y-67682991D01*
X159032410Y-67702847D01*
X159011593Y-67723195D01*
X158999904Y-67732403D01*
X158956160Y-67754836D01*
X158901825Y-67771419D01*
X158841900Y-67781670D01*
X158739109Y-67788394D01*
X158645442Y-67781407D01*
X158596116Y-67773254D01*
X158596116Y-67553081D01*
X158680005Y-67553081D01*
X158726684Y-67551432D01*
X158762067Y-67544608D01*
X158781947Y-67531361D01*
X158786490Y-67522991D01*
X158792066Y-67500034D01*
X158796420Y-67462003D01*
X158799759Y-67406092D01*
X158802289Y-67329491D01*
X158804218Y-67229394D01*
X158808436Y-66949146D01*
X158705564Y-66945288D01*
X158602693Y-66941429D01*
X158594963Y-66750699D01*
X158806577Y-66750699D01*
X158806577Y-66448162D01*
X159082807Y-66448162D01*
X159082807Y-66750699D01*
G37*
G36*
X152426396Y-71340036D02*
G01*
X152486968Y-71365216D01*
X152531173Y-71402238D01*
X152542781Y-71416324D01*
X152560629Y-71431086D01*
X152569361Y-71421779D01*
X152571672Y-71387416D01*
X152571672Y-71341377D01*
X152729518Y-71341377D01*
X152729518Y-72012222D01*
X152560179Y-72012222D01*
X152556060Y-71774345D01*
X152551942Y-71536468D01*
X152508984Y-71498115D01*
X152466698Y-71469453D01*
X152419331Y-71459762D01*
X152400895Y-71460222D01*
X152362466Y-71466225D01*
X152333132Y-71481430D01*
X152311734Y-71508673D01*
X152297111Y-71550792D01*
X152288103Y-71610621D01*
X152283549Y-71690999D01*
X152282289Y-71794761D01*
X152282289Y-72012222D01*
X152109384Y-72012222D01*
X152113625Y-71739280D01*
X152115479Y-71647168D01*
X152118832Y-71562612D01*
X152124366Y-71497908D01*
X152133003Y-71449602D01*
X152145661Y-71414239D01*
X152163261Y-71388364D01*
X152186723Y-71368524D01*
X152216967Y-71351263D01*
X152223643Y-71348067D01*
X152287018Y-71330210D01*
X152357174Y-71327950D01*
X152426396Y-71340036D01*
G37*
G36*
X158661885Y-72656758D02*
G01*
X158780269Y-72656758D01*
X158780269Y-72777154D01*
X158724365Y-72773095D01*
X158668462Y-72769036D01*
X158661885Y-73012146D01*
X158659338Y-73086971D01*
X158655893Y-73157171D01*
X158651958Y-73214578D01*
X158647844Y-73254688D01*
X158643863Y-73272997D01*
X158643339Y-73273769D01*
X158622941Y-73291293D01*
X158591248Y-73308656D01*
X158590518Y-73308967D01*
X158556058Y-73317921D01*
X158506182Y-73324424D01*
X158451424Y-73327087D01*
X158352770Y-73327602D01*
X158352770Y-73196064D01*
X158401157Y-73196064D01*
X158427115Y-73195155D01*
X158452734Y-73189396D01*
X158470397Y-73175174D01*
X158481426Y-73148928D01*
X158487144Y-73107096D01*
X158488875Y-73046115D01*
X158487941Y-72962422D01*
X158484308Y-72770809D01*
X158355874Y-72768565D01*
X158354322Y-72712652D01*
X158352770Y-72656738D01*
X158421828Y-72656748D01*
X158490885Y-72656758D01*
X158490885Y-72459451D01*
X158661885Y-72459451D01*
X158661885Y-72656758D01*
G37*
G36*
X168688374Y-64344582D02*
G01*
X170125427Y-64345611D01*
X169967581Y-64421523D01*
X169914581Y-64447522D01*
X169725848Y-64547353D01*
X169530064Y-64661076D01*
X169334916Y-64783909D01*
X169148091Y-64911067D01*
X168977274Y-65037769D01*
X168933219Y-65072466D01*
X168654356Y-65309759D01*
X168389202Y-65566216D01*
X168139804Y-65839324D01*
X167908208Y-66126569D01*
X167696461Y-66425437D01*
X167506611Y-66733413D01*
X167340702Y-67047985D01*
X167331556Y-67066832D01*
X167303592Y-67123506D01*
X167280301Y-67169299D01*
X167263896Y-67199921D01*
X167256590Y-67211082D01*
X167256497Y-67210859D01*
X167255795Y-67194676D01*
X167255122Y-67154093D01*
X167254483Y-67090796D01*
X167253885Y-67006472D01*
X167253335Y-66902808D01*
X167252838Y-66781490D01*
X167252400Y-66644205D01*
X167252028Y-66492641D01*
X167251727Y-66328483D01*
X167251505Y-66153418D01*
X167251368Y-65969134D01*
X167251320Y-65777317D01*
X167251320Y-64343553D01*
X168688374Y-64344582D01*
G37*
G36*
X185383024Y-71089284D02*
G01*
X185446464Y-71114201D01*
X185495383Y-71152353D01*
X185505581Y-71164884D01*
X185527232Y-71199258D01*
X185536520Y-71226739D01*
X185537914Y-71255706D01*
X185539809Y-71295339D01*
X185540386Y-71304642D01*
X185545770Y-71325169D01*
X185562314Y-71334670D01*
X185597592Y-71338845D01*
X185653495Y-71342890D01*
X185653495Y-71459762D01*
X185534896Y-71459762D01*
X185541688Y-72012238D01*
X185364112Y-72012222D01*
X185364112Y-71459762D01*
X185248376Y-71459762D01*
X185243669Y-71400570D01*
X185238961Y-71341377D01*
X185364112Y-71341377D01*
X185364112Y-71289225D01*
X185363417Y-71273098D01*
X185351563Y-71236043D01*
X185322488Y-71215912D01*
X185272900Y-71209839D01*
X185257757Y-71209527D01*
X185240472Y-71204433D01*
X185233725Y-71187398D01*
X185232573Y-71151243D01*
X185232805Y-71129837D01*
X185236740Y-71103589D01*
X185250010Y-71091101D01*
X185278256Y-71084077D01*
X185314802Y-71080665D01*
X185383024Y-71089284D01*
G37*
G36*
X178277533Y-68855339D02*
G01*
X178324065Y-68863021D01*
X178380636Y-68881397D01*
X178436428Y-68906338D01*
X178480622Y-68933717D01*
X178491001Y-68942641D01*
X178523546Y-68976996D01*
X178553728Y-69016172D01*
X178589901Y-69069728D01*
X178589901Y-68880695D01*
X178724728Y-68884444D01*
X178859554Y-68888193D01*
X178867308Y-69907613D01*
X178579284Y-69907613D01*
X178573868Y-69614940D01*
X178571635Y-69512047D01*
X178568713Y-69429831D01*
X178564474Y-69366600D01*
X178558255Y-69318663D01*
X178549389Y-69282326D01*
X178537214Y-69253898D01*
X178521065Y-69229686D01*
X178500276Y-69205998D01*
X178466508Y-69174312D01*
X178419385Y-69145636D01*
X178363498Y-69130851D01*
X178290652Y-69126864D01*
X178195287Y-69127296D01*
X178195287Y-68999286D01*
X178195428Y-68962378D01*
X178197440Y-68911617D01*
X178203876Y-68880110D01*
X178217278Y-68863277D01*
X178240188Y-68856537D01*
X178275145Y-68855308D01*
X178277533Y-68855339D01*
G37*
G36*
X162818488Y-67777586D02*
G01*
X162677084Y-67773853D01*
X162535681Y-67770119D01*
X162532036Y-67591489D01*
X162528390Y-67412859D01*
X162482683Y-67368557D01*
X162463882Y-67351442D01*
X162438498Y-67335410D01*
X162422726Y-67338506D01*
X162412079Y-67353073D01*
X162389976Y-67386544D01*
X162358995Y-67434972D01*
X162321574Y-67494541D01*
X162280154Y-67561437D01*
X162151830Y-67770119D01*
X161976966Y-67773802D01*
X161802102Y-67777484D01*
X161825913Y-67740917D01*
X161836863Y-67724284D01*
X161861260Y-67687448D01*
X161896077Y-67634996D01*
X161939075Y-67570298D01*
X161988015Y-67496724D01*
X162040657Y-67417647D01*
X162231589Y-67130943D01*
X161852023Y-66750699D01*
X162022852Y-66751830D01*
X162193682Y-66752961D01*
X162361190Y-66928137D01*
X162528698Y-67103312D01*
X162532190Y-66732987D01*
X162535681Y-66362662D01*
X162677084Y-66358928D01*
X162818488Y-66355195D01*
X162818488Y-67777586D01*
G37*
G36*
X157664838Y-68875708D02*
G01*
X157734651Y-68907533D01*
X157797579Y-68950784D01*
X157846537Y-69002347D01*
X157885810Y-69056562D01*
X157885810Y-68881616D01*
X158162040Y-68881616D01*
X158162040Y-69907613D01*
X157874465Y-69907613D01*
X157870272Y-69614527D01*
X157868943Y-69527369D01*
X157867367Y-69452207D01*
X157865278Y-69395799D01*
X157862257Y-69354174D01*
X157857886Y-69323361D01*
X157851746Y-69299390D01*
X157843419Y-69278288D01*
X157832486Y-69256086D01*
X157793139Y-69197833D01*
X157740521Y-69156593D01*
X157672779Y-69133557D01*
X157586561Y-69126964D01*
X157491196Y-69127993D01*
X157491196Y-68998478D01*
X157491211Y-68975603D01*
X157491797Y-68924141D01*
X157494157Y-68892073D01*
X157499528Y-68874242D01*
X157509146Y-68865493D01*
X157524249Y-68860667D01*
X157532912Y-68858800D01*
X157595230Y-68858425D01*
X157664838Y-68875708D01*
G37*
G36*
X160018910Y-71084451D02*
G01*
X160090925Y-71104989D01*
X160151088Y-71142761D01*
X160165635Y-71156622D01*
X160183432Y-71181080D01*
X160192993Y-71212479D01*
X160198192Y-71260499D01*
X160204042Y-71341377D01*
X160319264Y-71341377D01*
X160319264Y-71459762D01*
X160200880Y-71459762D01*
X160200880Y-72012222D01*
X160029881Y-72012222D01*
X160029881Y-71459762D01*
X159898343Y-71459762D01*
X159898343Y-71341377D01*
X159964112Y-71341377D01*
X159998085Y-71340902D01*
X160020277Y-71336662D01*
X160028611Y-71324352D01*
X160029881Y-71299663D01*
X160029878Y-71298815D01*
X160019111Y-71251392D01*
X159989410Y-71220729D01*
X159943667Y-71209839D01*
X159927757Y-71209518D01*
X159909008Y-71204362D01*
X159900443Y-71187229D01*
X159896309Y-71150970D01*
X159891627Y-71092102D01*
X159945247Y-71084061D01*
X159945258Y-71084059D01*
X160018910Y-71084451D01*
G37*
G36*
X160480398Y-66726875D02*
G01*
X160535309Y-66734252D01*
X160626776Y-66765794D01*
X160705166Y-66819836D01*
X160768789Y-66895391D01*
X160773113Y-66902000D01*
X160782660Y-66914029D01*
X160787466Y-66910569D01*
X160788855Y-66888019D01*
X160788154Y-66842776D01*
X160786224Y-66757276D01*
X160921051Y-66753527D01*
X161055877Y-66749779D01*
X161055877Y-67776696D01*
X160783081Y-67776696D01*
X160777188Y-67488876D01*
X160777035Y-67481409D01*
X160775050Y-67388963D01*
X160773054Y-67318411D01*
X160770544Y-67265635D01*
X160767019Y-67226518D01*
X160761977Y-67196941D01*
X160754914Y-67172787D01*
X160745330Y-67149938D01*
X160732721Y-67124276D01*
X160727999Y-67115131D01*
X160685773Y-67053433D01*
X160634244Y-67013523D01*
X160569337Y-66993179D01*
X160486975Y-66990175D01*
X160398187Y-66994904D01*
X160398187Y-66721327D01*
X160480398Y-66726875D01*
G37*
G36*
X153347747Y-69907613D02*
G01*
X153058363Y-69907613D01*
X153058363Y-69557799D01*
X153006698Y-69507349D01*
X152955033Y-69456900D01*
X152911333Y-69527404D01*
X152910509Y-69528733D01*
X152886005Y-69568377D01*
X152852275Y-69623077D01*
X152813659Y-69685790D01*
X152774499Y-69749472D01*
X152681365Y-69901036D01*
X152506363Y-69904718D01*
X152331362Y-69908401D01*
X152355173Y-69871834D01*
X152366141Y-69855173D01*
X152390548Y-69818322D01*
X152425375Y-69765855D01*
X152468382Y-69701144D01*
X152517330Y-69627558D01*
X152569980Y-69548468D01*
X152760976Y-69261668D01*
X152564382Y-69072323D01*
X152367788Y-68882977D01*
X152538788Y-68882245D01*
X152709787Y-68881513D01*
X152883407Y-69062429D01*
X153057026Y-69243345D01*
X153057695Y-68871750D01*
X153058363Y-68500155D01*
X153347747Y-68500155D01*
X153347747Y-69907613D01*
G37*
G36*
X156846659Y-71341377D02*
G01*
X156965044Y-71341377D01*
X156965044Y-71459762D01*
X156846659Y-71459762D01*
X156846659Y-71690818D01*
X156846336Y-71744662D01*
X156844662Y-71819832D01*
X156841762Y-71881459D01*
X156837858Y-71925289D01*
X156833175Y-71947070D01*
X156814337Y-71969469D01*
X156783848Y-71991717D01*
X156764760Y-71999133D01*
X156714057Y-72008228D01*
X156646064Y-72011695D01*
X156544122Y-72012222D01*
X156544122Y-71880684D01*
X156594106Y-71880684D01*
X156601195Y-71880531D01*
X156637051Y-71875289D01*
X156659875Y-71864899D01*
X156666682Y-71847414D01*
X156671734Y-71807170D01*
X156674695Y-71743276D01*
X156675660Y-71654438D01*
X156675660Y-71459762D01*
X156544122Y-71459762D01*
X156544122Y-71341377D01*
X156675660Y-71341377D01*
X156675660Y-71144070D01*
X156846659Y-71144070D01*
X156846659Y-71341377D01*
G37*
G36*
X159553055Y-68500444D02*
G01*
X159604543Y-68501257D01*
X159660218Y-68505277D01*
X159702950Y-68513673D01*
X159740497Y-68527568D01*
X159743749Y-68529058D01*
X159816831Y-68573472D01*
X159869347Y-68630924D01*
X159903257Y-68704344D01*
X159920521Y-68796662D01*
X159928454Y-68881616D01*
X160082496Y-68881616D01*
X160082496Y-69078923D01*
X159924650Y-69078923D01*
X159924650Y-69907613D01*
X159635266Y-69907613D01*
X159635266Y-69078923D01*
X159437959Y-69078923D01*
X159437959Y-68881616D01*
X159635266Y-68881616D01*
X159635266Y-68830458D01*
X159629449Y-68788525D01*
X159610071Y-68748246D01*
X159600290Y-68737381D01*
X159580673Y-68724691D01*
X159551654Y-68719233D01*
X159504840Y-68718647D01*
X159424805Y-68720101D01*
X159424805Y-68500155D01*
X159553055Y-68500444D01*
G37*
G36*
X179016634Y-68857796D02*
G01*
X179062685Y-68863762D01*
X179111752Y-68875134D01*
X179130581Y-68881067D01*
X179173839Y-68900253D01*
X179214951Y-68929175D01*
X179262747Y-68973589D01*
X179339668Y-69050511D01*
X179339668Y-68881616D01*
X179602744Y-68881616D01*
X179602744Y-69907613D01*
X179329697Y-69907613D01*
X179323775Y-69621517D01*
X179323342Y-69601129D01*
X179320863Y-69505661D01*
X179317919Y-69432111D01*
X179314197Y-69376772D01*
X179309387Y-69335942D01*
X179303174Y-69305915D01*
X179295249Y-69282986D01*
X179286268Y-69263432D01*
X179245265Y-69200088D01*
X179192926Y-69157666D01*
X179125686Y-69133986D01*
X179039982Y-69126868D01*
X178944180Y-69127303D01*
X178947906Y-68994594D01*
X178951631Y-68861885D01*
X178994655Y-68857743D01*
X179016634Y-68857796D01*
G37*
G36*
X157204636Y-72647701D02*
G01*
X157260752Y-72667453D01*
X157310652Y-72698801D01*
X157344298Y-72736417D01*
X157361530Y-72763003D01*
X157375707Y-72772495D01*
X157383551Y-72756958D01*
X157385966Y-72715950D01*
X157385966Y-72656758D01*
X157468177Y-72656749D01*
X157550388Y-72656739D01*
X157546667Y-72992171D01*
X157542945Y-73327602D01*
X157372812Y-73327602D01*
X157372812Y-73135571D01*
X157372356Y-73065161D01*
X157370378Y-73001622D01*
X157366426Y-72955625D01*
X157360061Y-72922417D01*
X157350845Y-72897250D01*
X157349805Y-72895093D01*
X157311043Y-72843930D01*
X157255546Y-72812335D01*
X157185370Y-72801499D01*
X157122889Y-72801450D01*
X157122889Y-72643604D01*
X157169452Y-72643604D01*
X157204636Y-72647701D01*
G37*
G36*
X148338971Y-71332320D02*
G01*
X148395087Y-71352072D01*
X148444986Y-71383420D01*
X148478632Y-71421036D01*
X148495865Y-71447622D01*
X148510042Y-71457114D01*
X148517886Y-71441578D01*
X148520300Y-71400570D01*
X148520300Y-71341377D01*
X148678146Y-71341377D01*
X148678146Y-72012222D01*
X148507146Y-72012222D01*
X148507146Y-71825644D01*
X148507079Y-71791760D01*
X148506125Y-71723611D01*
X148503570Y-71674143D01*
X148498809Y-71637927D01*
X148491239Y-71609530D01*
X148480257Y-71583522D01*
X148478597Y-71580170D01*
X148438786Y-71528037D01*
X148382841Y-71496598D01*
X148311140Y-71486069D01*
X148257224Y-71486069D01*
X148257224Y-71328224D01*
X148303786Y-71328224D01*
X148338971Y-71332320D01*
G37*
G36*
X156126480Y-71333151D02*
G01*
X156192406Y-71361083D01*
X156251253Y-71411764D01*
X156265722Y-71427704D01*
X156288922Y-71450717D01*
X156301699Y-71459762D01*
X156303985Y-71456990D01*
X156306455Y-71435798D01*
X156305295Y-71400570D01*
X156300587Y-71341377D01*
X156465199Y-71341377D01*
X156465199Y-72012222D01*
X156294200Y-72012222D01*
X156294126Y-71837934D01*
X156293291Y-71758958D01*
X156289722Y-71686741D01*
X156282447Y-71632465D01*
X156270508Y-71591648D01*
X156252947Y-71559809D01*
X156228805Y-71532466D01*
X156203852Y-71512182D01*
X156167714Y-71496499D01*
X156116914Y-71488835D01*
X156044277Y-71482812D01*
X156044277Y-71328224D01*
X156084161Y-71328224D01*
X156126480Y-71333151D01*
G37*
G36*
X184025543Y-68960839D02*
G01*
X184029000Y-69421523D01*
X184602540Y-68500155D01*
X184916882Y-68500155D01*
X184916882Y-69907613D01*
X184613091Y-69907613D01*
X184617006Y-69441732D01*
X184617713Y-69342128D01*
X184618135Y-69242946D01*
X184618210Y-69155514D01*
X184617951Y-69082745D01*
X184617367Y-69027548D01*
X184616471Y-68992835D01*
X184615272Y-68981518D01*
X184613549Y-68983975D01*
X184600241Y-69004668D01*
X184575177Y-69044340D01*
X184539846Y-69100611D01*
X184495738Y-69171103D01*
X184444342Y-69253437D01*
X184387148Y-69345232D01*
X184325645Y-69444110D01*
X184041668Y-69901036D01*
X183719886Y-69908422D01*
X183719886Y-68500155D01*
X184022087Y-68500155D01*
X184025543Y-68960839D01*
G37*
G36*
X188933697Y-71333807D02*
G01*
X189000111Y-71362267D01*
X189055398Y-71412365D01*
X189067179Y-71426647D01*
X189089072Y-71450384D01*
X189101465Y-71459761D01*
X189103658Y-71456943D01*
X189105382Y-71435737D01*
X189103043Y-71400570D01*
X189096371Y-71341377D01*
X189270792Y-71341377D01*
X189270792Y-72012222D01*
X189093216Y-72012138D01*
X189093019Y-71818161D01*
X189092970Y-71796579D01*
X189092096Y-71722499D01*
X189089780Y-71668714D01*
X189085539Y-71630396D01*
X189078893Y-71602718D01*
X189069361Y-71580853D01*
X189029052Y-71530945D01*
X188971495Y-71497802D01*
X188902485Y-71486119D01*
X188843293Y-71486069D01*
X188843293Y-71328224D01*
X188886466Y-71328224D01*
X188933697Y-71333807D01*
G37*
G36*
X190601812Y-71676693D02*
G01*
X190487519Y-72012008D01*
X190288927Y-72012222D01*
X190175020Y-71676800D01*
X190061112Y-71341377D01*
X190149355Y-71341396D01*
X190237597Y-71341414D01*
X190261473Y-71423607D01*
X190292953Y-71530086D01*
X190322296Y-71625130D01*
X190347008Y-71700402D01*
X190366598Y-71754478D01*
X190380578Y-71785933D01*
X190388459Y-71793343D01*
X190389729Y-71791761D01*
X190400802Y-71769618D01*
X190412748Y-71735992D01*
X190413987Y-71731906D01*
X190424351Y-71698044D01*
X190440205Y-71646549D01*
X190459621Y-71583673D01*
X190480672Y-71515665D01*
X190534689Y-71341377D01*
X190716105Y-71341377D01*
X190601812Y-71676693D01*
G37*
G36*
X172854842Y-69933920D02*
G01*
X170090087Y-69933920D01*
X170098606Y-69805671D01*
X170122432Y-69570941D01*
X170171619Y-69303625D01*
X170243756Y-69048680D01*
X170339176Y-68805275D01*
X170458212Y-68572582D01*
X170601196Y-68349770D01*
X170768462Y-68136009D01*
X170837582Y-68058431D01*
X171025929Y-67874049D01*
X171230342Y-67709537D01*
X171449025Y-67565778D01*
X171680185Y-67443654D01*
X171922027Y-67344046D01*
X172172758Y-67267839D01*
X172430583Y-67215913D01*
X172693708Y-67189152D01*
X172854842Y-67180715D01*
X172854842Y-69933920D01*
G37*
G36*
X165672863Y-67776991D02*
G01*
X165136846Y-67773555D01*
X164600828Y-67770119D01*
X164600828Y-67507043D01*
X165357172Y-67500063D01*
X165357172Y-67172065D01*
X165018462Y-67168554D01*
X164679751Y-67165044D01*
X164675969Y-67043371D01*
X164672187Y-66921699D01*
X165357172Y-66921699D01*
X165357172Y-66632315D01*
X164620559Y-66632315D01*
X164620559Y-66356085D01*
X165672863Y-66356085D01*
X165672863Y-67776991D01*
G37*
G36*
X153545054Y-72012222D02*
G01*
X152838926Y-72012222D01*
X152841070Y-71854376D01*
X153347747Y-71854376D01*
X153347747Y-71604454D01*
X152887364Y-71604454D01*
X152887364Y-71459762D01*
X153348811Y-71459762D01*
X153344990Y-71351243D01*
X153341170Y-71242724D01*
X153094536Y-71239145D01*
X152847902Y-71235567D01*
X152847902Y-71078301D01*
X153545054Y-71078301D01*
X153545054Y-72012222D01*
G37*
G36*
X159477421Y-72012222D02*
G01*
X158780269Y-72012222D01*
X158780269Y-71854376D01*
X159280114Y-71854376D01*
X159280114Y-71604454D01*
X158835319Y-71604454D01*
X158826307Y-71459726D01*
X159053210Y-71459744D01*
X159280114Y-71459762D01*
X159280114Y-71236147D01*
X158786846Y-71236195D01*
X158791303Y-71157248D01*
X158795759Y-71078301D01*
X159477421Y-71078301D01*
X159477421Y-72012222D01*
G37*
G36*
X165712325Y-72012222D02*
G01*
X165515018Y-72012222D01*
X165515018Y-71617607D01*
X165120404Y-71617607D01*
X165120404Y-71472916D01*
X165516042Y-71472916D01*
X165512241Y-71357820D01*
X165508441Y-71242724D01*
X165288115Y-71239117D01*
X165067788Y-71235511D01*
X165067788Y-71078301D01*
X165712325Y-71078301D01*
X165712325Y-72012222D01*
G37*
G36*
X195492542Y-69039461D02*
G01*
X196058156Y-69039461D01*
X196058156Y-68500155D01*
X196387001Y-68500155D01*
X196387001Y-69907613D01*
X196058156Y-69907613D01*
X196058156Y-69302537D01*
X195492542Y-69302537D01*
X195492542Y-69907613D01*
X195176851Y-69907613D01*
X195176851Y-68500155D01*
X195492542Y-68500155D01*
X195492542Y-69039461D01*
G37*
G36*
X151114888Y-71078299D02*
G01*
X151203677Y-71078301D01*
X151203677Y-71222993D01*
X151114888Y-71222954D01*
X151026100Y-71222915D01*
X151026100Y-71078296D01*
X151114888Y-71078299D01*
G37*
G36*
X162765872Y-72012222D02*
G01*
X162677084Y-72012227D01*
X162588296Y-72012233D01*
X162591910Y-71545267D01*
X162595525Y-71078301D01*
X162765872Y-71078301D01*
X162765872Y-72012222D01*
G37*
G36*
X164436406Y-67777586D02*
G01*
X164295002Y-67773853D01*
X164153599Y-67770119D01*
X164153599Y-66362662D01*
X164295002Y-66358928D01*
X164436406Y-66355195D01*
X164436406Y-67777586D01*
G37*
G36*
X175840756Y-68737814D02*
G01*
X175699352Y-68734080D01*
X175557949Y-68730347D01*
X175554148Y-68615251D01*
X175550348Y-68500155D01*
X175840756Y-68500155D01*
X175840756Y-68737814D01*
G37*
G36*
X178290652Y-71341368D02*
G01*
X178379440Y-71341377D01*
X178379440Y-72012222D01*
X178209307Y-72012222D01*
X178205586Y-71676790D01*
X178201864Y-71341358D01*
X178290652Y-71341368D01*
G37*
G36*
X182315717Y-71078299D02*
G01*
X182404505Y-71078301D01*
X182404505Y-72012222D01*
X182315717Y-72012218D01*
X182226929Y-72012215D01*
X182226929Y-71078296D01*
X182315717Y-71078299D01*
G37*
G36*
X183496271Y-68737814D02*
G01*
X183354868Y-68734080D01*
X183213464Y-68730347D01*
X183209664Y-68615251D01*
X183205863Y-68500155D01*
X183496271Y-68500155D01*
X183496271Y-68737814D01*
G37*
G36*
X188011315Y-71341368D02*
G01*
X188100103Y-71341377D01*
X188100103Y-72012222D01*
X187929970Y-72012222D01*
X187926248Y-71676790D01*
X187922527Y-71341358D01*
X188011315Y-71341368D01*
G37*
G36*
X175840756Y-69907613D02*
G01*
X175551063Y-69907613D01*
X175557949Y-68888193D01*
X175699352Y-68884459D01*
X175840756Y-68880726D01*
X175840756Y-69907613D01*
G37*
G36*
X182088814Y-71222993D02*
G01*
X182000026Y-71223011D01*
X181911237Y-71223029D01*
X181920249Y-71078301D01*
X182088814Y-71078301D01*
X182088814Y-71222993D01*
G37*
G36*
X183496271Y-69907613D02*
G01*
X183206578Y-69907613D01*
X183213464Y-68888193D01*
X183354868Y-68884459D01*
X183496271Y-68880726D01*
X183496271Y-69907613D01*
G37*
G36*
X148191455Y-72012222D02*
G01*
X148020455Y-72012222D01*
X148020455Y-71341377D01*
X148191455Y-71341377D01*
X148191455Y-72012222D01*
G37*
G36*
X148191455Y-71222993D02*
G01*
X148020455Y-71222993D01*
X148020455Y-71078301D01*
X148191455Y-71078301D01*
X148191455Y-71222993D01*
G37*
G36*
X151203677Y-72012222D02*
G01*
X151026100Y-72012222D01*
X151026100Y-71341377D01*
X151203677Y-71341377D01*
X151203677Y-72012222D01*
G37*
G36*
X153847592Y-69907613D02*
G01*
X153571362Y-69907613D01*
X153571362Y-68881616D01*
X153847592Y-68881616D01*
X153847592Y-69907613D01*
G37*
G36*
X153847592Y-68736924D02*
G01*
X153571362Y-68736924D01*
X153571362Y-68500155D01*
X153847592Y-68500155D01*
X153847592Y-68736924D01*
G37*
G36*
X153952822Y-67776696D02*
G01*
X153676592Y-67776696D01*
X153676592Y-66750699D01*
X153952822Y-66750699D01*
X153952822Y-67776696D01*
G37*
G36*
X153952822Y-66592853D02*
G01*
X153676592Y-66592853D01*
X153676592Y-66356085D01*
X153952822Y-66356085D01*
X153952822Y-66592853D01*
G37*
G36*
X154202744Y-72012222D02*
G01*
X154031745Y-72012222D01*
X154031745Y-71078301D01*
X154202744Y-71078301D01*
X154202744Y-72012222D01*
G37*
G36*
X155162972Y-73327602D02*
G01*
X154991973Y-73327602D01*
X154991973Y-72656758D01*
X155162972Y-72656758D01*
X155162972Y-73327602D01*
G37*
G36*
X155162972Y-72538374D02*
G01*
X154991973Y-72538374D01*
X154991973Y-72393682D01*
X155162972Y-72393682D01*
X155162972Y-72538374D01*
G37*
G36*
X155978508Y-72012222D02*
G01*
X155800932Y-72012222D01*
X155800932Y-71341377D01*
X155978508Y-71341377D01*
X155978508Y-72012222D01*
G37*
G36*
X155978508Y-71222993D02*
G01*
X155800932Y-71223029D01*
X155809944Y-71078301D01*
X155978508Y-71078301D01*
X155978508Y-71222993D01*
G37*
G36*
X158661885Y-72012222D02*
G01*
X158490885Y-72012222D01*
X158490885Y-71078301D01*
X158661885Y-71078301D01*
X158661885Y-72012222D01*
G37*
G36*
X161660953Y-69907613D02*
G01*
X161345261Y-69907613D01*
X161345261Y-68500155D01*
X161660953Y-68500155D01*
X161660953Y-69907613D01*
G37*
G36*
X178379440Y-71222993D02*
G01*
X178201864Y-71223029D01*
X178210876Y-71078301D01*
X178379440Y-71078301D01*
X178379440Y-71222993D01*
G37*
G36*
X182088814Y-72012222D02*
G01*
X181917814Y-72012222D01*
X181917814Y-71341377D01*
X182088814Y-71341377D01*
X182088814Y-72012222D01*
G37*
G36*
X187060953Y-69907613D02*
G01*
X186771569Y-69907613D01*
X186771569Y-68500155D01*
X187060953Y-68500155D01*
X187060953Y-69907613D01*
G37*
G36*
X188100103Y-71222993D02*
G01*
X187922527Y-71223029D01*
X187931539Y-71078301D01*
X188100103Y-71078301D01*
X188100103Y-71222993D01*
G37*
G36*
X190961056Y-72012222D02*
G01*
X190783480Y-72012222D01*
X190783480Y-71341377D01*
X190961056Y-71341377D01*
X190961056Y-72012222D01*
G37*
G36*
X190961056Y-71223029D02*
G01*
X190783480Y-71222993D01*
X190783480Y-71078301D01*
X190952044Y-71078301D01*
X190961056Y-71223029D01*
G37*
%TD*%
M02*
