M48
; DRILL file {KiCad 8.0.6} date 2024-11-18T21:00:37+0100
; FORMAT={-:-/ absolute / inch / decimal}
; #@! TF.CreationDate,2024-11-18T21:00:37+01:00
; #@! TF.GenerationSoftware,Kicad,Pcbnew,8.0.6
; #@! TF.FileFunction,Plated,1,2,PTH
FMAT,2
INCH
; #@! TA.AperFunction,Plated,PTH,ComponentDrill
T1C0.0315
; #@! TA.AperFunction,Plated,PTH,ComponentDrill
T2C0.0402
; #@! TA.AperFunction,Plated,PTH,ComponentDrill
T3C0.0433
; #@! TA.AperFunction,Plated,PTH,ComponentDrill
T4C0.0512
; #@! TA.AperFunction,Plated,PTH,ComponentDrill
T5C0.0598
%
G90
G05
T1
X5.2539Y-4.1368
X5.2539Y-4.5368
X5.2756Y-4.9305
X5.4724Y-4.9305
X5.4921Y-4.1368
X5.4921Y-4.5368
X5.876Y-4.1465
X5.876Y-4.5465
X5.8917Y-4.9378
X6.0886Y-4.9378
X6.1024Y-4.1465
X6.1024Y-4.5465
X6.4114Y-4.1433
X6.4114Y-4.5433
X6.4331Y-4.9378
X6.6299Y-4.9378
X6.6535Y-4.1465
X6.6535Y-4.5465
X7.0079Y-4.1472
X7.0079Y-4.5472
X7.0079Y-4.9378
X7.2047Y-4.9378
X7.2244Y-4.1441
X7.2244Y-4.5441
X7.4998Y-4.1504
X7.4998Y-4.5504
X7.5156Y-4.9378
X7.7124Y-4.9378
X7.7262Y-4.1504
X7.7262Y-4.5504
T2
X4.1Y-3.4795
X4.1Y-3.5795
X4.1Y-3.6795
X4.1Y-3.7795
X4.1Y-3.8795
X4.1Y-3.9795
X4.1Y-4.0795
X4.1Y-4.1795
X4.1Y-4.2795
X4.1Y-4.3795
X4.1Y-4.4795
X4.1Y-4.5795
X4.1Y-4.6795
X4.1Y-4.7795
X4.1Y-4.8795
X5.0Y-3.4795
X5.0Y-3.5795
X5.0Y-3.6795
X5.0Y-3.7795
X5.0Y-3.8795
X5.0Y-3.9795
X5.0Y-4.0795
X5.0Y-4.1795
X5.0Y-4.2795
X5.0Y-4.3795
X5.0Y-4.4795
X5.0Y-4.5795
X5.0Y-4.6795
X5.0Y-4.7795
X5.0Y-4.8795
T3
X5.2559Y-3.6313
X5.2559Y-3.8085
X5.5118Y-3.6313
X5.5118Y-3.8085
X5.876Y-3.6346
X5.876Y-3.8118
X6.1319Y-3.6346
X6.1319Y-3.8118
X6.4173Y-3.6346
X6.4173Y-3.8118
X6.6732Y-3.6346
X6.6732Y-3.8118
X6.9685Y-3.6386
X6.9685Y-3.8157
X7.2244Y-3.6386
X7.2244Y-3.8157
X7.4762Y-3.6386
X7.4762Y-3.8157
X7.7321Y-3.6386
X7.7321Y-3.8157
T4
X4.3825Y-2.3031
X4.5793Y-2.3031
X4.7762Y-2.3031
X4.973Y-2.3031
X5.4331Y-3.1299
X5.6299Y-3.1299
X5.8268Y-3.1299
X6.0236Y-3.1299
X6.2205Y-3.1299
X6.4173Y-3.1299
T5
X5.403Y-2.2959
X5.603Y-2.2959
X6.1541Y-2.2959
X6.3541Y-2.2959
X6.5541Y-2.2959
X7.04Y-2.3031
X7.24Y-2.3031
X7.44Y-2.3031
M30
