%TF.GenerationSoftware,KiCad,Pcbnew,8.0.6*%
%TF.CreationDate,2024-11-13T16:57:41+01:00*%
%TF.ProjectId,pcb,7063622e-6b69-4636-9164-5f7063625858,rev?*%
%TF.SameCoordinates,Original*%
%TF.FileFunction,Drillmap*%
%TF.FilePolarity,Positive*%
%FSLAX45Y45*%
G04 Gerber Fmt 4.5, Leading zero omitted, Abs format (unit mm)*
G04 Created by KiCad (PCBNEW 8.0.6) date 2024-11-13 16:57:41*
%MOMM*%
%LPD*%
G01*
G04 APERTURE LIST*
%ADD10C,0.200000*%
%ADD11C,0.100000*%
%ADD12C,0.102000*%
%ADD13C,0.110000*%
%ADD14C,0.130000*%
%ADD15C,0.152000*%
G04 APERTURE END LIST*
D10*
X6600000Y-5050000D02*
X20100000Y-5050000D01*
X20100000Y-13050000D01*
X6600000Y-13050000D01*
X6600000Y-5050000D01*
D11*
X12748500Y-10262500D02*
X12828500Y-10342500D01*
X12828500Y-10262500D02*
X12748500Y-10342500D01*
X12748500Y-11278500D02*
X12828500Y-11358500D01*
X12828500Y-11278500D02*
X12748500Y-11358500D01*
X12803500Y-12278500D02*
X12883500Y-12358500D01*
X12883500Y-12278500D02*
X12803500Y-12358500D01*
X13303500Y-12278500D02*
X13383500Y-12358500D01*
X13383500Y-12278500D02*
X13303500Y-12358500D01*
X13353500Y-10262500D02*
X13433500Y-10342500D01*
X13433500Y-10262500D02*
X13353500Y-10342500D01*
X13353500Y-11278500D02*
X13433500Y-11358500D01*
X13433500Y-11278500D02*
X13353500Y-11358500D01*
X14338500Y-10268500D02*
X14418500Y-10348500D01*
X14418500Y-10268500D02*
X14338500Y-10348500D01*
X14338500Y-11284500D02*
X14418500Y-11364500D01*
X14418500Y-11284500D02*
X14338500Y-11364500D01*
X14378500Y-12278500D02*
X14458500Y-12358500D01*
X14458500Y-12278500D02*
X14378500Y-12358500D01*
X14878500Y-12278500D02*
X14958500Y-12358500D01*
X14958500Y-12278500D02*
X14878500Y-12358500D01*
X14913500Y-10268500D02*
X14993500Y-10348500D01*
X14993500Y-10268500D02*
X14913500Y-10348500D01*
X14913500Y-11284500D02*
X14993500Y-11364500D01*
X14993500Y-11284500D02*
X14913500Y-11364500D01*
X15723500Y-10260500D02*
X15803500Y-10340500D01*
X15803500Y-10260500D02*
X15723500Y-10340500D01*
X15723500Y-11276500D02*
X15803500Y-11356500D01*
X15803500Y-11276500D02*
X15723500Y-11356500D01*
X15778500Y-12278500D02*
X15858500Y-12358500D01*
X15858500Y-12278500D02*
X15778500Y-12358500D01*
X16278500Y-12278500D02*
X16358500Y-12358500D01*
X16358500Y-12278500D02*
X16278500Y-12358500D01*
X16338500Y-10268500D02*
X16418500Y-10348500D01*
X16418500Y-10268500D02*
X16338500Y-10348500D01*
X16338500Y-11284500D02*
X16418500Y-11364500D01*
X16418500Y-11284500D02*
X16338500Y-11364500D01*
X17278500Y-10270500D02*
X17358500Y-10350500D01*
X17358500Y-10270500D02*
X17278500Y-10350500D01*
X17278500Y-11286500D02*
X17358500Y-11366500D01*
X17358500Y-11286500D02*
X17278500Y-11366500D01*
X17278500Y-12278500D02*
X17358500Y-12358500D01*
X17358500Y-12278500D02*
X17278500Y-12358500D01*
X17778500Y-12278500D02*
X17858500Y-12358500D01*
X17858500Y-12278500D02*
X17778500Y-12358500D01*
X17828500Y-10262500D02*
X17908500Y-10342500D01*
X17908500Y-10262500D02*
X17828500Y-10342500D01*
X17828500Y-11278500D02*
X17908500Y-11358500D01*
X17908500Y-11278500D02*
X17828500Y-11358500D01*
X18738500Y-10278500D02*
X18818500Y-10358500D01*
X18818500Y-10278500D02*
X18738500Y-10358500D01*
X18738500Y-11294500D02*
X18818500Y-11374500D01*
X18818500Y-11294500D02*
X18738500Y-11374500D01*
X18778500Y-12278500D02*
X18858500Y-12358500D01*
X18858500Y-12278500D02*
X18778500Y-12358500D01*
X19278500Y-12278500D02*
X19358500Y-12358500D01*
X19358500Y-12278500D02*
X19278500Y-12358500D01*
X19313500Y-10278500D02*
X19393500Y-10358500D01*
X19393500Y-10278500D02*
X19313500Y-10358500D01*
X19313500Y-11294500D02*
X19393500Y-11374500D01*
X19393500Y-11294500D02*
X19313500Y-11374500D01*
D12*
X9283500Y-8762500D02*
G75*
G02*
X9181500Y-8762500I-51000J0D01*
G01*
X9181500Y-8762500D02*
G75*
G02*
X9283500Y-8762500I51000J0D01*
G01*
X9283500Y-9016500D02*
G75*
G02*
X9181500Y-9016500I-51000J0D01*
G01*
X9181500Y-9016500D02*
G75*
G02*
X9283500Y-9016500I51000J0D01*
G01*
X9283500Y-9270500D02*
G75*
G02*
X9181500Y-9270500I-51000J0D01*
G01*
X9181500Y-9270500D02*
G75*
G02*
X9283500Y-9270500I51000J0D01*
G01*
X9283500Y-9524500D02*
G75*
G02*
X9181500Y-9524500I-51000J0D01*
G01*
X9181500Y-9524500D02*
G75*
G02*
X9283500Y-9524500I51000J0D01*
G01*
X9283500Y-9778500D02*
G75*
G02*
X9181500Y-9778500I-51000J0D01*
G01*
X9181500Y-9778500D02*
G75*
G02*
X9283500Y-9778500I51000J0D01*
G01*
X9283500Y-10032500D02*
G75*
G02*
X9181500Y-10032500I-51000J0D01*
G01*
X9181500Y-10032500D02*
G75*
G02*
X9283500Y-10032500I51000J0D01*
G01*
X9283500Y-10286500D02*
G75*
G02*
X9181500Y-10286500I-51000J0D01*
G01*
X9181500Y-10286500D02*
G75*
G02*
X9283500Y-10286500I51000J0D01*
G01*
X9283500Y-10540500D02*
G75*
G02*
X9181500Y-10540500I-51000J0D01*
G01*
X9181500Y-10540500D02*
G75*
G02*
X9283500Y-10540500I51000J0D01*
G01*
X9283500Y-10794500D02*
G75*
G02*
X9181500Y-10794500I-51000J0D01*
G01*
X9181500Y-10794500D02*
G75*
G02*
X9283500Y-10794500I51000J0D01*
G01*
X9283500Y-11048500D02*
G75*
G02*
X9181500Y-11048500I-51000J0D01*
G01*
X9181500Y-11048500D02*
G75*
G02*
X9283500Y-11048500I51000J0D01*
G01*
X9283500Y-11302500D02*
G75*
G02*
X9181500Y-11302500I-51000J0D01*
G01*
X9181500Y-11302500D02*
G75*
G02*
X9283500Y-11302500I51000J0D01*
G01*
X9283500Y-11556500D02*
G75*
G02*
X9181500Y-11556500I-51000J0D01*
G01*
X9181500Y-11556500D02*
G75*
G02*
X9283500Y-11556500I51000J0D01*
G01*
X9283500Y-11810500D02*
G75*
G02*
X9181500Y-11810500I-51000J0D01*
G01*
X9181500Y-11810500D02*
G75*
G02*
X9283500Y-11810500I51000J0D01*
G01*
X9283500Y-12064500D02*
G75*
G02*
X9181500Y-12064500I-51000J0D01*
G01*
X9181500Y-12064500D02*
G75*
G02*
X9283500Y-12064500I51000J0D01*
G01*
X9283500Y-12318500D02*
G75*
G02*
X9181500Y-12318500I-51000J0D01*
G01*
X9181500Y-12318500D02*
G75*
G02*
X9283500Y-12318500I51000J0D01*
G01*
X11569500Y-8762500D02*
G75*
G02*
X11467500Y-8762500I-51000J0D01*
G01*
X11467500Y-8762500D02*
G75*
G02*
X11569500Y-8762500I51000J0D01*
G01*
X11569500Y-9016500D02*
G75*
G02*
X11467500Y-9016500I-51000J0D01*
G01*
X11467500Y-9016500D02*
G75*
G02*
X11569500Y-9016500I51000J0D01*
G01*
X11569500Y-9270500D02*
G75*
G02*
X11467500Y-9270500I-51000J0D01*
G01*
X11467500Y-9270500D02*
G75*
G02*
X11569500Y-9270500I51000J0D01*
G01*
X11569500Y-9524500D02*
G75*
G02*
X11467500Y-9524500I-51000J0D01*
G01*
X11467500Y-9524500D02*
G75*
G02*
X11569500Y-9524500I51000J0D01*
G01*
X11569500Y-9778500D02*
G75*
G02*
X11467500Y-9778500I-51000J0D01*
G01*
X11467500Y-9778500D02*
G75*
G02*
X11569500Y-9778500I51000J0D01*
G01*
X11569500Y-10032500D02*
G75*
G02*
X11467500Y-10032500I-51000J0D01*
G01*
X11467500Y-10032500D02*
G75*
G02*
X11569500Y-10032500I51000J0D01*
G01*
X11569500Y-10286500D02*
G75*
G02*
X11467500Y-10286500I-51000J0D01*
G01*
X11467500Y-10286500D02*
G75*
G02*
X11569500Y-10286500I51000J0D01*
G01*
X11569500Y-10540500D02*
G75*
G02*
X11467500Y-10540500I-51000J0D01*
G01*
X11467500Y-10540500D02*
G75*
G02*
X11569500Y-10540500I51000J0D01*
G01*
X11569500Y-10794500D02*
G75*
G02*
X11467500Y-10794500I-51000J0D01*
G01*
X11467500Y-10794500D02*
G75*
G02*
X11569500Y-10794500I51000J0D01*
G01*
X11569500Y-11048500D02*
G75*
G02*
X11467500Y-11048500I-51000J0D01*
G01*
X11467500Y-11048500D02*
G75*
G02*
X11569500Y-11048500I51000J0D01*
G01*
X11569500Y-11302500D02*
G75*
G02*
X11467500Y-11302500I-51000J0D01*
G01*
X11467500Y-11302500D02*
G75*
G02*
X11569500Y-11302500I51000J0D01*
G01*
X11569500Y-11556500D02*
G75*
G02*
X11467500Y-11556500I-51000J0D01*
G01*
X11467500Y-11556500D02*
G75*
G02*
X11569500Y-11556500I51000J0D01*
G01*
X11569500Y-11810500D02*
G75*
G02*
X11467500Y-11810500I-51000J0D01*
G01*
X11467500Y-11810500D02*
G75*
G02*
X11569500Y-11810500I51000J0D01*
G01*
X11569500Y-12064500D02*
G75*
G02*
X11467500Y-12064500I-51000J0D01*
G01*
X11467500Y-12064500D02*
G75*
G02*
X11569500Y-12064500I51000J0D01*
G01*
X11569500Y-12318500D02*
G75*
G02*
X11467500Y-12318500I-51000J0D01*
G01*
X11467500Y-12318500D02*
G75*
G02*
X11569500Y-12318500I51000J0D01*
G01*
D13*
X12743500Y-8963500D02*
X12743500Y-9073500D01*
X12688500Y-9018500D02*
X12798500Y-9018500D01*
X12743500Y-9413500D02*
X12743500Y-9523500D01*
X12688500Y-9468500D02*
X12798500Y-9468500D01*
X13393500Y-8963500D02*
X13393500Y-9073500D01*
X13338500Y-9018500D02*
X13448500Y-9018500D01*
X13393500Y-9413500D02*
X13393500Y-9523500D01*
X13338500Y-9468500D02*
X13448500Y-9468500D01*
X14378500Y-8953500D02*
X14378500Y-9063500D01*
X14323500Y-9008500D02*
X14433500Y-9008500D01*
X14378500Y-9403500D02*
X14378500Y-9513500D01*
X14323500Y-9458500D02*
X14433500Y-9458500D01*
X15028500Y-8953500D02*
X15028500Y-9063500D01*
X14973500Y-9008500D02*
X15083500Y-9008500D01*
X15028500Y-9403500D02*
X15028500Y-9513500D01*
X14973500Y-9458500D02*
X15083500Y-9458500D01*
X15778500Y-8953500D02*
X15778500Y-9063500D01*
X15723500Y-9008500D02*
X15833500Y-9008500D01*
X15778500Y-9403500D02*
X15778500Y-9513500D01*
X15723500Y-9458500D02*
X15833500Y-9458500D01*
X16428500Y-8953500D02*
X16428500Y-9063500D01*
X16373500Y-9008500D02*
X16483500Y-9008500D01*
X16428500Y-9403500D02*
X16428500Y-9513500D01*
X16373500Y-9458500D02*
X16483500Y-9458500D01*
X17218500Y-8963500D02*
X17218500Y-9073500D01*
X17163500Y-9018500D02*
X17273500Y-9018500D01*
X17218500Y-9413500D02*
X17218500Y-9523500D01*
X17163500Y-9468500D02*
X17273500Y-9468500D01*
X17868500Y-8963500D02*
X17868500Y-9073500D01*
X17813500Y-9018500D02*
X17923500Y-9018500D01*
X17868500Y-9413500D02*
X17868500Y-9523500D01*
X17813500Y-9468500D02*
X17923500Y-9468500D01*
X18718500Y-8963500D02*
X18718500Y-9073500D01*
X18663500Y-9018500D02*
X18773500Y-9018500D01*
X18718500Y-9413500D02*
X18718500Y-9523500D01*
X18663500Y-9468500D02*
X18773500Y-9468500D01*
X19368500Y-8963500D02*
X19368500Y-9073500D01*
X19313500Y-9018500D02*
X19423500Y-9018500D01*
X19368500Y-9413500D02*
X19368500Y-9523500D01*
X19313500Y-9468500D02*
X19423500Y-9468500D01*
D14*
X7764462Y-7714462D02*
X7764462Y-7622538D01*
X7672538Y-7622538D01*
X7672538Y-7714462D01*
X7764462Y-7714462D01*
X7764462Y-8214462D02*
X7764462Y-8122538D01*
X7672538Y-8122538D01*
X7672538Y-8214462D01*
X7764462Y-8214462D01*
X7764462Y-8714462D02*
X7764462Y-8622538D01*
X7672538Y-8622538D01*
X7672538Y-8714462D01*
X7764462Y-8714462D01*
X7764462Y-9214462D02*
X7764462Y-9122538D01*
X7672538Y-9122538D01*
X7672538Y-9214462D01*
X7764462Y-9214462D01*
X7764462Y-9714462D02*
X7764462Y-9622538D01*
X7672538Y-9622538D01*
X7672538Y-9714462D01*
X7764462Y-9714462D01*
X7764462Y-10214462D02*
X7764462Y-10122538D01*
X7672538Y-10122538D01*
X7672538Y-10214462D01*
X7764462Y-10214462D01*
X9114462Y-6164462D02*
X9114462Y-6072538D01*
X9022538Y-6072538D01*
X9022538Y-6164462D01*
X9114462Y-6164462D01*
X9614462Y-6164462D02*
X9614462Y-6072538D01*
X9522538Y-6072538D01*
X9522538Y-6164462D01*
X9614462Y-6164462D01*
X10114462Y-6164462D02*
X10114462Y-6072538D01*
X10022538Y-6072538D01*
X10022538Y-6164462D01*
X10114462Y-6164462D01*
X10614462Y-6164462D02*
X10614462Y-6072538D01*
X10522538Y-6072538D01*
X10522538Y-6164462D01*
X10614462Y-6164462D01*
D15*
X12560500Y-6144500D02*
X12636500Y-6068500D01*
X12560500Y-5992500D01*
X12484500Y-6068500D01*
X12560500Y-6144500D01*
X13068500Y-6144500D02*
X13144500Y-6068500D01*
X13068500Y-5992500D01*
X12992500Y-6068500D01*
X13068500Y-6144500D01*
X15127500Y-6144500D02*
X15203500Y-6068500D01*
X15127500Y-5992500D01*
X15051500Y-6068500D01*
X15127500Y-6144500D01*
X15635500Y-6144500D02*
X15711500Y-6068500D01*
X15635500Y-5992500D01*
X15559500Y-6068500D01*
X15635500Y-6144500D01*
X16143500Y-6144500D02*
X16219500Y-6068500D01*
X16143500Y-5992500D01*
X16067500Y-6068500D01*
X16143500Y-6144500D01*
X18402500Y-6194500D02*
X18478500Y-6118500D01*
X18402500Y-6042500D01*
X18326500Y-6118500D01*
X18402500Y-6194500D01*
X18910500Y-6194500D02*
X18986500Y-6118500D01*
X18910500Y-6042500D01*
X18834500Y-6118500D01*
X18910500Y-6194500D01*
X19418500Y-6194500D02*
X19494500Y-6118500D01*
X19418500Y-6042500D01*
X19342500Y-6118500D01*
X19418500Y-6194500D01*
D10*
X6850777Y-13371484D02*
X6850777Y-13171484D01*
X6850777Y-13171484D02*
X6898396Y-13171484D01*
X6898396Y-13171484D02*
X6926967Y-13181008D01*
X6926967Y-13181008D02*
X6946015Y-13200055D01*
X6946015Y-13200055D02*
X6955539Y-13219103D01*
X6955539Y-13219103D02*
X6965062Y-13257198D01*
X6965062Y-13257198D02*
X6965062Y-13285769D01*
X6965062Y-13285769D02*
X6955539Y-13323865D01*
X6955539Y-13323865D02*
X6946015Y-13342912D01*
X6946015Y-13342912D02*
X6926967Y-13361960D01*
X6926967Y-13361960D02*
X6898396Y-13371484D01*
X6898396Y-13371484D02*
X6850777Y-13371484D01*
X7050777Y-13371484D02*
X7050777Y-13238150D01*
X7050777Y-13276246D02*
X7060301Y-13257198D01*
X7060301Y-13257198D02*
X7069824Y-13247674D01*
X7069824Y-13247674D02*
X7088872Y-13238150D01*
X7088872Y-13238150D02*
X7107920Y-13238150D01*
X7174586Y-13371484D02*
X7174586Y-13238150D01*
X7174586Y-13171484D02*
X7165062Y-13181008D01*
X7165062Y-13181008D02*
X7174586Y-13190531D01*
X7174586Y-13190531D02*
X7184110Y-13181008D01*
X7184110Y-13181008D02*
X7174586Y-13171484D01*
X7174586Y-13171484D02*
X7174586Y-13190531D01*
X7298396Y-13371484D02*
X7279348Y-13361960D01*
X7279348Y-13361960D02*
X7269824Y-13342912D01*
X7269824Y-13342912D02*
X7269824Y-13171484D01*
X7403158Y-13371484D02*
X7384110Y-13361960D01*
X7384110Y-13361960D02*
X7374586Y-13342912D01*
X7374586Y-13342912D02*
X7374586Y-13171484D01*
X7631729Y-13371484D02*
X7631729Y-13171484D01*
X7631729Y-13171484D02*
X7698396Y-13314341D01*
X7698396Y-13314341D02*
X7765062Y-13171484D01*
X7765062Y-13171484D02*
X7765062Y-13371484D01*
X7946015Y-13371484D02*
X7946015Y-13266722D01*
X7946015Y-13266722D02*
X7936491Y-13247674D01*
X7936491Y-13247674D02*
X7917443Y-13238150D01*
X7917443Y-13238150D02*
X7879348Y-13238150D01*
X7879348Y-13238150D02*
X7860301Y-13247674D01*
X7946015Y-13361960D02*
X7926967Y-13371484D01*
X7926967Y-13371484D02*
X7879348Y-13371484D01*
X7879348Y-13371484D02*
X7860301Y-13361960D01*
X7860301Y-13361960D02*
X7850777Y-13342912D01*
X7850777Y-13342912D02*
X7850777Y-13323865D01*
X7850777Y-13323865D02*
X7860301Y-13304817D01*
X7860301Y-13304817D02*
X7879348Y-13295293D01*
X7879348Y-13295293D02*
X7926967Y-13295293D01*
X7926967Y-13295293D02*
X7946015Y-13285769D01*
X8041253Y-13238150D02*
X8041253Y-13438150D01*
X8041253Y-13247674D02*
X8060301Y-13238150D01*
X8060301Y-13238150D02*
X8098396Y-13238150D01*
X8098396Y-13238150D02*
X8117443Y-13247674D01*
X8117443Y-13247674D02*
X8126967Y-13257198D01*
X8126967Y-13257198D02*
X8136491Y-13276246D01*
X8136491Y-13276246D02*
X8136491Y-13333388D01*
X8136491Y-13333388D02*
X8126967Y-13352436D01*
X8126967Y-13352436D02*
X8117443Y-13361960D01*
X8117443Y-13361960D02*
X8098396Y-13371484D01*
X8098396Y-13371484D02*
X8060301Y-13371484D01*
X8060301Y-13371484D02*
X8041253Y-13361960D01*
X8222205Y-13352436D02*
X8231729Y-13361960D01*
X8231729Y-13361960D02*
X8222205Y-13371484D01*
X8222205Y-13371484D02*
X8212682Y-13361960D01*
X8212682Y-13361960D02*
X8222205Y-13352436D01*
X8222205Y-13352436D02*
X8222205Y-13371484D01*
X8222205Y-13247674D02*
X8231729Y-13257198D01*
X8231729Y-13257198D02*
X8222205Y-13266722D01*
X8222205Y-13266722D02*
X8212682Y-13257198D01*
X8212682Y-13257198D02*
X8222205Y-13247674D01*
X8222205Y-13247674D02*
X8222205Y-13266722D01*
D11*
X6510000Y-13660000D02*
X6590000Y-13740000D01*
X6590000Y-13660000D02*
X6510000Y-13740000D01*
D10*
X6888872Y-13591484D02*
X6907920Y-13591484D01*
X6907920Y-13591484D02*
X6926967Y-13601008D01*
X6926967Y-13601008D02*
X6936491Y-13610531D01*
X6936491Y-13610531D02*
X6946015Y-13629579D01*
X6946015Y-13629579D02*
X6955539Y-13667674D01*
X6955539Y-13667674D02*
X6955539Y-13715293D01*
X6955539Y-13715293D02*
X6946015Y-13753388D01*
X6946015Y-13753388D02*
X6936491Y-13772436D01*
X6936491Y-13772436D02*
X6926967Y-13781960D01*
X6926967Y-13781960D02*
X6907920Y-13791484D01*
X6907920Y-13791484D02*
X6888872Y-13791484D01*
X6888872Y-13791484D02*
X6869824Y-13781960D01*
X6869824Y-13781960D02*
X6860301Y-13772436D01*
X6860301Y-13772436D02*
X6850777Y-13753388D01*
X6850777Y-13753388D02*
X6841253Y-13715293D01*
X6841253Y-13715293D02*
X6841253Y-13667674D01*
X6841253Y-13667674D02*
X6850777Y-13629579D01*
X6850777Y-13629579D02*
X6860301Y-13610531D01*
X6860301Y-13610531D02*
X6869824Y-13601008D01*
X6869824Y-13601008D02*
X6888872Y-13591484D01*
X7041253Y-13772436D02*
X7050777Y-13781960D01*
X7050777Y-13781960D02*
X7041253Y-13791484D01*
X7041253Y-13791484D02*
X7031729Y-13781960D01*
X7031729Y-13781960D02*
X7041253Y-13772436D01*
X7041253Y-13772436D02*
X7041253Y-13791484D01*
X7165062Y-13677198D02*
X7146015Y-13667674D01*
X7146015Y-13667674D02*
X7136491Y-13658150D01*
X7136491Y-13658150D02*
X7126967Y-13639103D01*
X7126967Y-13639103D02*
X7126967Y-13629579D01*
X7126967Y-13629579D02*
X7136491Y-13610531D01*
X7136491Y-13610531D02*
X7146015Y-13601008D01*
X7146015Y-13601008D02*
X7165062Y-13591484D01*
X7165062Y-13591484D02*
X7203158Y-13591484D01*
X7203158Y-13591484D02*
X7222205Y-13601008D01*
X7222205Y-13601008D02*
X7231729Y-13610531D01*
X7231729Y-13610531D02*
X7241253Y-13629579D01*
X7241253Y-13629579D02*
X7241253Y-13639103D01*
X7241253Y-13639103D02*
X7231729Y-13658150D01*
X7231729Y-13658150D02*
X7222205Y-13667674D01*
X7222205Y-13667674D02*
X7203158Y-13677198D01*
X7203158Y-13677198D02*
X7165062Y-13677198D01*
X7165062Y-13677198D02*
X7146015Y-13686722D01*
X7146015Y-13686722D02*
X7136491Y-13696246D01*
X7136491Y-13696246D02*
X7126967Y-13715293D01*
X7126967Y-13715293D02*
X7126967Y-13753388D01*
X7126967Y-13753388D02*
X7136491Y-13772436D01*
X7136491Y-13772436D02*
X7146015Y-13781960D01*
X7146015Y-13781960D02*
X7165062Y-13791484D01*
X7165062Y-13791484D02*
X7203158Y-13791484D01*
X7203158Y-13791484D02*
X7222205Y-13781960D01*
X7222205Y-13781960D02*
X7231729Y-13772436D01*
X7231729Y-13772436D02*
X7241253Y-13753388D01*
X7241253Y-13753388D02*
X7241253Y-13715293D01*
X7241253Y-13715293D02*
X7231729Y-13696246D01*
X7231729Y-13696246D02*
X7222205Y-13686722D01*
X7222205Y-13686722D02*
X7203158Y-13677198D01*
X7365062Y-13591484D02*
X7384110Y-13591484D01*
X7384110Y-13591484D02*
X7403158Y-13601008D01*
X7403158Y-13601008D02*
X7412682Y-13610531D01*
X7412682Y-13610531D02*
X7422205Y-13629579D01*
X7422205Y-13629579D02*
X7431729Y-13667674D01*
X7431729Y-13667674D02*
X7431729Y-13715293D01*
X7431729Y-13715293D02*
X7422205Y-13753388D01*
X7422205Y-13753388D02*
X7412682Y-13772436D01*
X7412682Y-13772436D02*
X7403158Y-13781960D01*
X7403158Y-13781960D02*
X7384110Y-13791484D01*
X7384110Y-13791484D02*
X7365062Y-13791484D01*
X7365062Y-13791484D02*
X7346015Y-13781960D01*
X7346015Y-13781960D02*
X7336491Y-13772436D01*
X7336491Y-13772436D02*
X7326967Y-13753388D01*
X7326967Y-13753388D02*
X7317443Y-13715293D01*
X7317443Y-13715293D02*
X7317443Y-13667674D01*
X7317443Y-13667674D02*
X7326967Y-13629579D01*
X7326967Y-13629579D02*
X7336491Y-13610531D01*
X7336491Y-13610531D02*
X7346015Y-13601008D01*
X7346015Y-13601008D02*
X7365062Y-13591484D01*
X7555539Y-13591484D02*
X7574586Y-13591484D01*
X7574586Y-13591484D02*
X7593634Y-13601008D01*
X7593634Y-13601008D02*
X7603158Y-13610531D01*
X7603158Y-13610531D02*
X7612682Y-13629579D01*
X7612682Y-13629579D02*
X7622205Y-13667674D01*
X7622205Y-13667674D02*
X7622205Y-13715293D01*
X7622205Y-13715293D02*
X7612682Y-13753388D01*
X7612682Y-13753388D02*
X7603158Y-13772436D01*
X7603158Y-13772436D02*
X7593634Y-13781960D01*
X7593634Y-13781960D02*
X7574586Y-13791484D01*
X7574586Y-13791484D02*
X7555539Y-13791484D01*
X7555539Y-13791484D02*
X7536491Y-13781960D01*
X7536491Y-13781960D02*
X7526967Y-13772436D01*
X7526967Y-13772436D02*
X7517443Y-13753388D01*
X7517443Y-13753388D02*
X7507920Y-13715293D01*
X7507920Y-13715293D02*
X7507920Y-13667674D01*
X7507920Y-13667674D02*
X7517443Y-13629579D01*
X7517443Y-13629579D02*
X7526967Y-13610531D01*
X7526967Y-13610531D02*
X7536491Y-13601008D01*
X7536491Y-13601008D02*
X7555539Y-13591484D01*
X7707920Y-13791484D02*
X7707920Y-13658150D01*
X7707920Y-13677198D02*
X7717443Y-13667674D01*
X7717443Y-13667674D02*
X7736491Y-13658150D01*
X7736491Y-13658150D02*
X7765063Y-13658150D01*
X7765063Y-13658150D02*
X7784110Y-13667674D01*
X7784110Y-13667674D02*
X7793634Y-13686722D01*
X7793634Y-13686722D02*
X7793634Y-13791484D01*
X7793634Y-13686722D02*
X7803158Y-13667674D01*
X7803158Y-13667674D02*
X7822205Y-13658150D01*
X7822205Y-13658150D02*
X7850777Y-13658150D01*
X7850777Y-13658150D02*
X7869824Y-13667674D01*
X7869824Y-13667674D02*
X7879348Y-13686722D01*
X7879348Y-13686722D02*
X7879348Y-13791484D01*
X7974586Y-13791484D02*
X7974586Y-13658150D01*
X7974586Y-13677198D02*
X7984110Y-13667674D01*
X7984110Y-13667674D02*
X8003158Y-13658150D01*
X8003158Y-13658150D02*
X8031729Y-13658150D01*
X8031729Y-13658150D02*
X8050777Y-13667674D01*
X8050777Y-13667674D02*
X8060301Y-13686722D01*
X8060301Y-13686722D02*
X8060301Y-13791484D01*
X8060301Y-13686722D02*
X8069824Y-13667674D01*
X8069824Y-13667674D02*
X8088872Y-13658150D01*
X8088872Y-13658150D02*
X8117443Y-13658150D01*
X8117443Y-13658150D02*
X8136491Y-13667674D01*
X8136491Y-13667674D02*
X8146015Y-13686722D01*
X8146015Y-13686722D02*
X8146015Y-13791484D01*
X8536491Y-13581960D02*
X8365063Y-13839103D01*
X8793634Y-13591484D02*
X8812682Y-13591484D01*
X8812682Y-13591484D02*
X8831729Y-13601008D01*
X8831729Y-13601008D02*
X8841253Y-13610531D01*
X8841253Y-13610531D02*
X8850777Y-13629579D01*
X8850777Y-13629579D02*
X8860301Y-13667674D01*
X8860301Y-13667674D02*
X8860301Y-13715293D01*
X8860301Y-13715293D02*
X8850777Y-13753388D01*
X8850777Y-13753388D02*
X8841253Y-13772436D01*
X8841253Y-13772436D02*
X8831729Y-13781960D01*
X8831729Y-13781960D02*
X8812682Y-13791484D01*
X8812682Y-13791484D02*
X8793634Y-13791484D01*
X8793634Y-13791484D02*
X8774587Y-13781960D01*
X8774587Y-13781960D02*
X8765063Y-13772436D01*
X8765063Y-13772436D02*
X8755539Y-13753388D01*
X8755539Y-13753388D02*
X8746015Y-13715293D01*
X8746015Y-13715293D02*
X8746015Y-13667674D01*
X8746015Y-13667674D02*
X8755539Y-13629579D01*
X8755539Y-13629579D02*
X8765063Y-13610531D01*
X8765063Y-13610531D02*
X8774587Y-13601008D01*
X8774587Y-13601008D02*
X8793634Y-13591484D01*
X8946015Y-13772436D02*
X8955539Y-13781960D01*
X8955539Y-13781960D02*
X8946015Y-13791484D01*
X8946015Y-13791484D02*
X8936491Y-13781960D01*
X8936491Y-13781960D02*
X8946015Y-13772436D01*
X8946015Y-13772436D02*
X8946015Y-13791484D01*
X9079348Y-13591484D02*
X9098396Y-13591484D01*
X9098396Y-13591484D02*
X9117444Y-13601008D01*
X9117444Y-13601008D02*
X9126968Y-13610531D01*
X9126968Y-13610531D02*
X9136491Y-13629579D01*
X9136491Y-13629579D02*
X9146015Y-13667674D01*
X9146015Y-13667674D02*
X9146015Y-13715293D01*
X9146015Y-13715293D02*
X9136491Y-13753388D01*
X9136491Y-13753388D02*
X9126968Y-13772436D01*
X9126968Y-13772436D02*
X9117444Y-13781960D01*
X9117444Y-13781960D02*
X9098396Y-13791484D01*
X9098396Y-13791484D02*
X9079348Y-13791484D01*
X9079348Y-13791484D02*
X9060301Y-13781960D01*
X9060301Y-13781960D02*
X9050777Y-13772436D01*
X9050777Y-13772436D02*
X9041253Y-13753388D01*
X9041253Y-13753388D02*
X9031729Y-13715293D01*
X9031729Y-13715293D02*
X9031729Y-13667674D01*
X9031729Y-13667674D02*
X9041253Y-13629579D01*
X9041253Y-13629579D02*
X9050777Y-13610531D01*
X9050777Y-13610531D02*
X9060301Y-13601008D01*
X9060301Y-13601008D02*
X9079348Y-13591484D01*
X9212682Y-13591484D02*
X9336491Y-13591484D01*
X9336491Y-13591484D02*
X9269825Y-13667674D01*
X9269825Y-13667674D02*
X9298396Y-13667674D01*
X9298396Y-13667674D02*
X9317444Y-13677198D01*
X9317444Y-13677198D02*
X9326968Y-13686722D01*
X9326968Y-13686722D02*
X9336491Y-13705769D01*
X9336491Y-13705769D02*
X9336491Y-13753388D01*
X9336491Y-13753388D02*
X9326968Y-13772436D01*
X9326968Y-13772436D02*
X9317444Y-13781960D01*
X9317444Y-13781960D02*
X9298396Y-13791484D01*
X9298396Y-13791484D02*
X9241253Y-13791484D01*
X9241253Y-13791484D02*
X9222206Y-13781960D01*
X9222206Y-13781960D02*
X9212682Y-13772436D01*
X9526968Y-13791484D02*
X9412682Y-13791484D01*
X9469825Y-13791484D02*
X9469825Y-13591484D01*
X9469825Y-13591484D02*
X9450777Y-13620055D01*
X9450777Y-13620055D02*
X9431729Y-13639103D01*
X9431729Y-13639103D02*
X9412682Y-13648627D01*
X9707920Y-13591484D02*
X9612682Y-13591484D01*
X9612682Y-13591484D02*
X9603158Y-13686722D01*
X9603158Y-13686722D02*
X9612682Y-13677198D01*
X9612682Y-13677198D02*
X9631729Y-13667674D01*
X9631729Y-13667674D02*
X9679349Y-13667674D01*
X9679349Y-13667674D02*
X9698396Y-13677198D01*
X9698396Y-13677198D02*
X9707920Y-13686722D01*
X9707920Y-13686722D02*
X9717444Y-13705769D01*
X9717444Y-13705769D02*
X9717444Y-13753388D01*
X9717444Y-13753388D02*
X9707920Y-13772436D01*
X9707920Y-13772436D02*
X9698396Y-13781960D01*
X9698396Y-13781960D02*
X9679349Y-13791484D01*
X9679349Y-13791484D02*
X9631729Y-13791484D01*
X9631729Y-13791484D02*
X9612682Y-13781960D01*
X9612682Y-13781960D02*
X9603158Y-13772436D01*
X9793634Y-13591484D02*
X9793634Y-13629579D01*
X9869825Y-13591484D02*
X9869825Y-13629579D01*
X10165063Y-13867674D02*
X10155539Y-13858150D01*
X10155539Y-13858150D02*
X10136491Y-13829579D01*
X10136491Y-13829579D02*
X10126968Y-13810531D01*
X10126968Y-13810531D02*
X10117444Y-13781960D01*
X10117444Y-13781960D02*
X10107920Y-13734341D01*
X10107920Y-13734341D02*
X10107920Y-13696246D01*
X10107920Y-13696246D02*
X10117444Y-13648627D01*
X10117444Y-13648627D02*
X10126968Y-13620055D01*
X10126968Y-13620055D02*
X10136491Y-13601008D01*
X10136491Y-13601008D02*
X10155539Y-13572436D01*
X10155539Y-13572436D02*
X10165063Y-13562912D01*
X10222206Y-13591484D02*
X10346015Y-13591484D01*
X10346015Y-13591484D02*
X10279349Y-13667674D01*
X10279349Y-13667674D02*
X10307920Y-13667674D01*
X10307920Y-13667674D02*
X10326968Y-13677198D01*
X10326968Y-13677198D02*
X10336491Y-13686722D01*
X10336491Y-13686722D02*
X10346015Y-13705769D01*
X10346015Y-13705769D02*
X10346015Y-13753388D01*
X10346015Y-13753388D02*
X10336491Y-13772436D01*
X10336491Y-13772436D02*
X10326968Y-13781960D01*
X10326968Y-13781960D02*
X10307920Y-13791484D01*
X10307920Y-13791484D02*
X10250777Y-13791484D01*
X10250777Y-13791484D02*
X10231730Y-13781960D01*
X10231730Y-13781960D02*
X10222206Y-13772436D01*
X10469825Y-13591484D02*
X10488872Y-13591484D01*
X10488872Y-13591484D02*
X10507920Y-13601008D01*
X10507920Y-13601008D02*
X10517444Y-13610531D01*
X10517444Y-13610531D02*
X10526968Y-13629579D01*
X10526968Y-13629579D02*
X10536491Y-13667674D01*
X10536491Y-13667674D02*
X10536491Y-13715293D01*
X10536491Y-13715293D02*
X10526968Y-13753388D01*
X10526968Y-13753388D02*
X10517444Y-13772436D01*
X10517444Y-13772436D02*
X10507920Y-13781960D01*
X10507920Y-13781960D02*
X10488872Y-13791484D01*
X10488872Y-13791484D02*
X10469825Y-13791484D01*
X10469825Y-13791484D02*
X10450777Y-13781960D01*
X10450777Y-13781960D02*
X10441253Y-13772436D01*
X10441253Y-13772436D02*
X10431730Y-13753388D01*
X10431730Y-13753388D02*
X10422206Y-13715293D01*
X10422206Y-13715293D02*
X10422206Y-13667674D01*
X10422206Y-13667674D02*
X10431730Y-13629579D01*
X10431730Y-13629579D02*
X10441253Y-13610531D01*
X10441253Y-13610531D02*
X10450777Y-13601008D01*
X10450777Y-13601008D02*
X10469825Y-13591484D01*
X10774587Y-13791484D02*
X10774587Y-13591484D01*
X10860301Y-13791484D02*
X10860301Y-13686722D01*
X10860301Y-13686722D02*
X10850777Y-13667674D01*
X10850777Y-13667674D02*
X10831730Y-13658150D01*
X10831730Y-13658150D02*
X10803158Y-13658150D01*
X10803158Y-13658150D02*
X10784111Y-13667674D01*
X10784111Y-13667674D02*
X10774587Y-13677198D01*
X10984111Y-13791484D02*
X10965063Y-13781960D01*
X10965063Y-13781960D02*
X10955539Y-13772436D01*
X10955539Y-13772436D02*
X10946015Y-13753388D01*
X10946015Y-13753388D02*
X10946015Y-13696246D01*
X10946015Y-13696246D02*
X10955539Y-13677198D01*
X10955539Y-13677198D02*
X10965063Y-13667674D01*
X10965063Y-13667674D02*
X10984111Y-13658150D01*
X10984111Y-13658150D02*
X11012682Y-13658150D01*
X11012682Y-13658150D02*
X11031730Y-13667674D01*
X11031730Y-13667674D02*
X11041253Y-13677198D01*
X11041253Y-13677198D02*
X11050777Y-13696246D01*
X11050777Y-13696246D02*
X11050777Y-13753388D01*
X11050777Y-13753388D02*
X11041253Y-13772436D01*
X11041253Y-13772436D02*
X11031730Y-13781960D01*
X11031730Y-13781960D02*
X11012682Y-13791484D01*
X11012682Y-13791484D02*
X10984111Y-13791484D01*
X11165063Y-13791484D02*
X11146015Y-13781960D01*
X11146015Y-13781960D02*
X11136492Y-13762912D01*
X11136492Y-13762912D02*
X11136492Y-13591484D01*
X11317444Y-13781960D02*
X11298396Y-13791484D01*
X11298396Y-13791484D02*
X11260301Y-13791484D01*
X11260301Y-13791484D02*
X11241253Y-13781960D01*
X11241253Y-13781960D02*
X11231730Y-13762912D01*
X11231730Y-13762912D02*
X11231730Y-13686722D01*
X11231730Y-13686722D02*
X11241253Y-13667674D01*
X11241253Y-13667674D02*
X11260301Y-13658150D01*
X11260301Y-13658150D02*
X11298396Y-13658150D01*
X11298396Y-13658150D02*
X11317444Y-13667674D01*
X11317444Y-13667674D02*
X11326968Y-13686722D01*
X11326968Y-13686722D02*
X11326968Y-13705769D01*
X11326968Y-13705769D02*
X11231730Y-13724817D01*
X11403158Y-13781960D02*
X11422206Y-13791484D01*
X11422206Y-13791484D02*
X11460301Y-13791484D01*
X11460301Y-13791484D02*
X11479349Y-13781960D01*
X11479349Y-13781960D02*
X11488872Y-13762912D01*
X11488872Y-13762912D02*
X11488872Y-13753388D01*
X11488872Y-13753388D02*
X11479349Y-13734341D01*
X11479349Y-13734341D02*
X11460301Y-13724817D01*
X11460301Y-13724817D02*
X11431730Y-13724817D01*
X11431730Y-13724817D02*
X11412682Y-13715293D01*
X11412682Y-13715293D02*
X11403158Y-13696246D01*
X11403158Y-13696246D02*
X11403158Y-13686722D01*
X11403158Y-13686722D02*
X11412682Y-13667674D01*
X11412682Y-13667674D02*
X11431730Y-13658150D01*
X11431730Y-13658150D02*
X11460301Y-13658150D01*
X11460301Y-13658150D02*
X11479349Y-13667674D01*
X11555539Y-13867674D02*
X11565063Y-13858150D01*
X11565063Y-13858150D02*
X11584111Y-13829579D01*
X11584111Y-13829579D02*
X11593634Y-13810531D01*
X11593634Y-13810531D02*
X11603158Y-13781960D01*
X11603158Y-13781960D02*
X11612682Y-13734341D01*
X11612682Y-13734341D02*
X11612682Y-13696246D01*
X11612682Y-13696246D02*
X11603158Y-13648627D01*
X11603158Y-13648627D02*
X11593634Y-13620055D01*
X11593634Y-13620055D02*
X11584111Y-13601008D01*
X11584111Y-13601008D02*
X11565063Y-13572436D01*
X11565063Y-13572436D02*
X11555539Y-13562912D01*
D12*
X6590000Y-13964000D02*
G75*
G02*
X6488000Y-13964000I-51000J0D01*
G01*
X6488000Y-13964000D02*
G75*
G02*
X6590000Y-13964000I51000J0D01*
G01*
D10*
X6955539Y-14055484D02*
X6841253Y-14055484D01*
X6898396Y-14055484D02*
X6898396Y-13855484D01*
X6898396Y-13855484D02*
X6879348Y-13884055D01*
X6879348Y-13884055D02*
X6860301Y-13903103D01*
X6860301Y-13903103D02*
X6841253Y-13912627D01*
X7041253Y-14036436D02*
X7050777Y-14045960D01*
X7050777Y-14045960D02*
X7041253Y-14055484D01*
X7041253Y-14055484D02*
X7031729Y-14045960D01*
X7031729Y-14045960D02*
X7041253Y-14036436D01*
X7041253Y-14036436D02*
X7041253Y-14055484D01*
X7174586Y-13855484D02*
X7193634Y-13855484D01*
X7193634Y-13855484D02*
X7212682Y-13865008D01*
X7212682Y-13865008D02*
X7222205Y-13874531D01*
X7222205Y-13874531D02*
X7231729Y-13893579D01*
X7231729Y-13893579D02*
X7241253Y-13931674D01*
X7241253Y-13931674D02*
X7241253Y-13979293D01*
X7241253Y-13979293D02*
X7231729Y-14017388D01*
X7231729Y-14017388D02*
X7222205Y-14036436D01*
X7222205Y-14036436D02*
X7212682Y-14045960D01*
X7212682Y-14045960D02*
X7193634Y-14055484D01*
X7193634Y-14055484D02*
X7174586Y-14055484D01*
X7174586Y-14055484D02*
X7155539Y-14045960D01*
X7155539Y-14045960D02*
X7146015Y-14036436D01*
X7146015Y-14036436D02*
X7136491Y-14017388D01*
X7136491Y-14017388D02*
X7126967Y-13979293D01*
X7126967Y-13979293D02*
X7126967Y-13931674D01*
X7126967Y-13931674D02*
X7136491Y-13893579D01*
X7136491Y-13893579D02*
X7146015Y-13874531D01*
X7146015Y-13874531D02*
X7155539Y-13865008D01*
X7155539Y-13865008D02*
X7174586Y-13855484D01*
X7317443Y-13874531D02*
X7326967Y-13865008D01*
X7326967Y-13865008D02*
X7346015Y-13855484D01*
X7346015Y-13855484D02*
X7393634Y-13855484D01*
X7393634Y-13855484D02*
X7412682Y-13865008D01*
X7412682Y-13865008D02*
X7422205Y-13874531D01*
X7422205Y-13874531D02*
X7431729Y-13893579D01*
X7431729Y-13893579D02*
X7431729Y-13912627D01*
X7431729Y-13912627D02*
X7422205Y-13941198D01*
X7422205Y-13941198D02*
X7307920Y-14055484D01*
X7307920Y-14055484D02*
X7431729Y-14055484D01*
X7555539Y-13855484D02*
X7574586Y-13855484D01*
X7574586Y-13855484D02*
X7593634Y-13865008D01*
X7593634Y-13865008D02*
X7603158Y-13874531D01*
X7603158Y-13874531D02*
X7612682Y-13893579D01*
X7612682Y-13893579D02*
X7622205Y-13931674D01*
X7622205Y-13931674D02*
X7622205Y-13979293D01*
X7622205Y-13979293D02*
X7612682Y-14017388D01*
X7612682Y-14017388D02*
X7603158Y-14036436D01*
X7603158Y-14036436D02*
X7593634Y-14045960D01*
X7593634Y-14045960D02*
X7574586Y-14055484D01*
X7574586Y-14055484D02*
X7555539Y-14055484D01*
X7555539Y-14055484D02*
X7536491Y-14045960D01*
X7536491Y-14045960D02*
X7526967Y-14036436D01*
X7526967Y-14036436D02*
X7517443Y-14017388D01*
X7517443Y-14017388D02*
X7507920Y-13979293D01*
X7507920Y-13979293D02*
X7507920Y-13931674D01*
X7507920Y-13931674D02*
X7517443Y-13893579D01*
X7517443Y-13893579D02*
X7526967Y-13874531D01*
X7526967Y-13874531D02*
X7536491Y-13865008D01*
X7536491Y-13865008D02*
X7555539Y-13855484D01*
X7707920Y-14055484D02*
X7707920Y-13922150D01*
X7707920Y-13941198D02*
X7717443Y-13931674D01*
X7717443Y-13931674D02*
X7736491Y-13922150D01*
X7736491Y-13922150D02*
X7765063Y-13922150D01*
X7765063Y-13922150D02*
X7784110Y-13931674D01*
X7784110Y-13931674D02*
X7793634Y-13950722D01*
X7793634Y-13950722D02*
X7793634Y-14055484D01*
X7793634Y-13950722D02*
X7803158Y-13931674D01*
X7803158Y-13931674D02*
X7822205Y-13922150D01*
X7822205Y-13922150D02*
X7850777Y-13922150D01*
X7850777Y-13922150D02*
X7869824Y-13931674D01*
X7869824Y-13931674D02*
X7879348Y-13950722D01*
X7879348Y-13950722D02*
X7879348Y-14055484D01*
X7974586Y-14055484D02*
X7974586Y-13922150D01*
X7974586Y-13941198D02*
X7984110Y-13931674D01*
X7984110Y-13931674D02*
X8003158Y-13922150D01*
X8003158Y-13922150D02*
X8031729Y-13922150D01*
X8031729Y-13922150D02*
X8050777Y-13931674D01*
X8050777Y-13931674D02*
X8060301Y-13950722D01*
X8060301Y-13950722D02*
X8060301Y-14055484D01*
X8060301Y-13950722D02*
X8069824Y-13931674D01*
X8069824Y-13931674D02*
X8088872Y-13922150D01*
X8088872Y-13922150D02*
X8117443Y-13922150D01*
X8117443Y-13922150D02*
X8136491Y-13931674D01*
X8136491Y-13931674D02*
X8146015Y-13950722D01*
X8146015Y-13950722D02*
X8146015Y-14055484D01*
X8536491Y-13845960D02*
X8365063Y-14103103D01*
X8793634Y-13855484D02*
X8812682Y-13855484D01*
X8812682Y-13855484D02*
X8831729Y-13865008D01*
X8831729Y-13865008D02*
X8841253Y-13874531D01*
X8841253Y-13874531D02*
X8850777Y-13893579D01*
X8850777Y-13893579D02*
X8860301Y-13931674D01*
X8860301Y-13931674D02*
X8860301Y-13979293D01*
X8860301Y-13979293D02*
X8850777Y-14017388D01*
X8850777Y-14017388D02*
X8841253Y-14036436D01*
X8841253Y-14036436D02*
X8831729Y-14045960D01*
X8831729Y-14045960D02*
X8812682Y-14055484D01*
X8812682Y-14055484D02*
X8793634Y-14055484D01*
X8793634Y-14055484D02*
X8774587Y-14045960D01*
X8774587Y-14045960D02*
X8765063Y-14036436D01*
X8765063Y-14036436D02*
X8755539Y-14017388D01*
X8755539Y-14017388D02*
X8746015Y-13979293D01*
X8746015Y-13979293D02*
X8746015Y-13931674D01*
X8746015Y-13931674D02*
X8755539Y-13893579D01*
X8755539Y-13893579D02*
X8765063Y-13874531D01*
X8765063Y-13874531D02*
X8774587Y-13865008D01*
X8774587Y-13865008D02*
X8793634Y-13855484D01*
X8946015Y-14036436D02*
X8955539Y-14045960D01*
X8955539Y-14045960D02*
X8946015Y-14055484D01*
X8946015Y-14055484D02*
X8936491Y-14045960D01*
X8936491Y-14045960D02*
X8946015Y-14036436D01*
X8946015Y-14036436D02*
X8946015Y-14055484D01*
X9079348Y-13855484D02*
X9098396Y-13855484D01*
X9098396Y-13855484D02*
X9117444Y-13865008D01*
X9117444Y-13865008D02*
X9126968Y-13874531D01*
X9126968Y-13874531D02*
X9136491Y-13893579D01*
X9136491Y-13893579D02*
X9146015Y-13931674D01*
X9146015Y-13931674D02*
X9146015Y-13979293D01*
X9146015Y-13979293D02*
X9136491Y-14017388D01*
X9136491Y-14017388D02*
X9126968Y-14036436D01*
X9126968Y-14036436D02*
X9117444Y-14045960D01*
X9117444Y-14045960D02*
X9098396Y-14055484D01*
X9098396Y-14055484D02*
X9079348Y-14055484D01*
X9079348Y-14055484D02*
X9060301Y-14045960D01*
X9060301Y-14045960D02*
X9050777Y-14036436D01*
X9050777Y-14036436D02*
X9041253Y-14017388D01*
X9041253Y-14017388D02*
X9031729Y-13979293D01*
X9031729Y-13979293D02*
X9031729Y-13931674D01*
X9031729Y-13931674D02*
X9041253Y-13893579D01*
X9041253Y-13893579D02*
X9050777Y-13874531D01*
X9050777Y-13874531D02*
X9060301Y-13865008D01*
X9060301Y-13865008D02*
X9079348Y-13855484D01*
X9317444Y-13922150D02*
X9317444Y-14055484D01*
X9269825Y-13845960D02*
X9222206Y-13988817D01*
X9222206Y-13988817D02*
X9346015Y-13988817D01*
X9460301Y-13855484D02*
X9479349Y-13855484D01*
X9479349Y-13855484D02*
X9498396Y-13865008D01*
X9498396Y-13865008D02*
X9507920Y-13874531D01*
X9507920Y-13874531D02*
X9517444Y-13893579D01*
X9517444Y-13893579D02*
X9526968Y-13931674D01*
X9526968Y-13931674D02*
X9526968Y-13979293D01*
X9526968Y-13979293D02*
X9517444Y-14017388D01*
X9517444Y-14017388D02*
X9507920Y-14036436D01*
X9507920Y-14036436D02*
X9498396Y-14045960D01*
X9498396Y-14045960D02*
X9479349Y-14055484D01*
X9479349Y-14055484D02*
X9460301Y-14055484D01*
X9460301Y-14055484D02*
X9441253Y-14045960D01*
X9441253Y-14045960D02*
X9431729Y-14036436D01*
X9431729Y-14036436D02*
X9422206Y-14017388D01*
X9422206Y-14017388D02*
X9412682Y-13979293D01*
X9412682Y-13979293D02*
X9412682Y-13931674D01*
X9412682Y-13931674D02*
X9422206Y-13893579D01*
X9422206Y-13893579D02*
X9431729Y-13874531D01*
X9431729Y-13874531D02*
X9441253Y-13865008D01*
X9441253Y-13865008D02*
X9460301Y-13855484D01*
X9603158Y-13874531D02*
X9612682Y-13865008D01*
X9612682Y-13865008D02*
X9631729Y-13855484D01*
X9631729Y-13855484D02*
X9679349Y-13855484D01*
X9679349Y-13855484D02*
X9698396Y-13865008D01*
X9698396Y-13865008D02*
X9707920Y-13874531D01*
X9707920Y-13874531D02*
X9717444Y-13893579D01*
X9717444Y-13893579D02*
X9717444Y-13912627D01*
X9717444Y-13912627D02*
X9707920Y-13941198D01*
X9707920Y-13941198D02*
X9593634Y-14055484D01*
X9593634Y-14055484D02*
X9717444Y-14055484D01*
X9793634Y-13855484D02*
X9793634Y-13893579D01*
X9869825Y-13855484D02*
X9869825Y-13893579D01*
X10165063Y-14131674D02*
X10155539Y-14122150D01*
X10155539Y-14122150D02*
X10136491Y-14093579D01*
X10136491Y-14093579D02*
X10126968Y-14074531D01*
X10126968Y-14074531D02*
X10117444Y-14045960D01*
X10117444Y-14045960D02*
X10107920Y-13998341D01*
X10107920Y-13998341D02*
X10107920Y-13960246D01*
X10107920Y-13960246D02*
X10117444Y-13912627D01*
X10117444Y-13912627D02*
X10126968Y-13884055D01*
X10126968Y-13884055D02*
X10136491Y-13865008D01*
X10136491Y-13865008D02*
X10155539Y-13836436D01*
X10155539Y-13836436D02*
X10165063Y-13826912D01*
X10222206Y-13855484D02*
X10346015Y-13855484D01*
X10346015Y-13855484D02*
X10279349Y-13931674D01*
X10279349Y-13931674D02*
X10307920Y-13931674D01*
X10307920Y-13931674D02*
X10326968Y-13941198D01*
X10326968Y-13941198D02*
X10336491Y-13950722D01*
X10336491Y-13950722D02*
X10346015Y-13969769D01*
X10346015Y-13969769D02*
X10346015Y-14017388D01*
X10346015Y-14017388D02*
X10336491Y-14036436D01*
X10336491Y-14036436D02*
X10326968Y-14045960D01*
X10326968Y-14045960D02*
X10307920Y-14055484D01*
X10307920Y-14055484D02*
X10250777Y-14055484D01*
X10250777Y-14055484D02*
X10231730Y-14045960D01*
X10231730Y-14045960D02*
X10222206Y-14036436D01*
X10469825Y-13855484D02*
X10488872Y-13855484D01*
X10488872Y-13855484D02*
X10507920Y-13865008D01*
X10507920Y-13865008D02*
X10517444Y-13874531D01*
X10517444Y-13874531D02*
X10526968Y-13893579D01*
X10526968Y-13893579D02*
X10536491Y-13931674D01*
X10536491Y-13931674D02*
X10536491Y-13979293D01*
X10536491Y-13979293D02*
X10526968Y-14017388D01*
X10526968Y-14017388D02*
X10517444Y-14036436D01*
X10517444Y-14036436D02*
X10507920Y-14045960D01*
X10507920Y-14045960D02*
X10488872Y-14055484D01*
X10488872Y-14055484D02*
X10469825Y-14055484D01*
X10469825Y-14055484D02*
X10450777Y-14045960D01*
X10450777Y-14045960D02*
X10441253Y-14036436D01*
X10441253Y-14036436D02*
X10431730Y-14017388D01*
X10431730Y-14017388D02*
X10422206Y-13979293D01*
X10422206Y-13979293D02*
X10422206Y-13931674D01*
X10422206Y-13931674D02*
X10431730Y-13893579D01*
X10431730Y-13893579D02*
X10441253Y-13874531D01*
X10441253Y-13874531D02*
X10450777Y-13865008D01*
X10450777Y-13865008D02*
X10469825Y-13855484D01*
X10774587Y-14055484D02*
X10774587Y-13855484D01*
X10860301Y-14055484D02*
X10860301Y-13950722D01*
X10860301Y-13950722D02*
X10850777Y-13931674D01*
X10850777Y-13931674D02*
X10831730Y-13922150D01*
X10831730Y-13922150D02*
X10803158Y-13922150D01*
X10803158Y-13922150D02*
X10784111Y-13931674D01*
X10784111Y-13931674D02*
X10774587Y-13941198D01*
X10984111Y-14055484D02*
X10965063Y-14045960D01*
X10965063Y-14045960D02*
X10955539Y-14036436D01*
X10955539Y-14036436D02*
X10946015Y-14017388D01*
X10946015Y-14017388D02*
X10946015Y-13960246D01*
X10946015Y-13960246D02*
X10955539Y-13941198D01*
X10955539Y-13941198D02*
X10965063Y-13931674D01*
X10965063Y-13931674D02*
X10984111Y-13922150D01*
X10984111Y-13922150D02*
X11012682Y-13922150D01*
X11012682Y-13922150D02*
X11031730Y-13931674D01*
X11031730Y-13931674D02*
X11041253Y-13941198D01*
X11041253Y-13941198D02*
X11050777Y-13960246D01*
X11050777Y-13960246D02*
X11050777Y-14017388D01*
X11050777Y-14017388D02*
X11041253Y-14036436D01*
X11041253Y-14036436D02*
X11031730Y-14045960D01*
X11031730Y-14045960D02*
X11012682Y-14055484D01*
X11012682Y-14055484D02*
X10984111Y-14055484D01*
X11165063Y-14055484D02*
X11146015Y-14045960D01*
X11146015Y-14045960D02*
X11136492Y-14026912D01*
X11136492Y-14026912D02*
X11136492Y-13855484D01*
X11317444Y-14045960D02*
X11298396Y-14055484D01*
X11298396Y-14055484D02*
X11260301Y-14055484D01*
X11260301Y-14055484D02*
X11241253Y-14045960D01*
X11241253Y-14045960D02*
X11231730Y-14026912D01*
X11231730Y-14026912D02*
X11231730Y-13950722D01*
X11231730Y-13950722D02*
X11241253Y-13931674D01*
X11241253Y-13931674D02*
X11260301Y-13922150D01*
X11260301Y-13922150D02*
X11298396Y-13922150D01*
X11298396Y-13922150D02*
X11317444Y-13931674D01*
X11317444Y-13931674D02*
X11326968Y-13950722D01*
X11326968Y-13950722D02*
X11326968Y-13969769D01*
X11326968Y-13969769D02*
X11231730Y-13988817D01*
X11403158Y-14045960D02*
X11422206Y-14055484D01*
X11422206Y-14055484D02*
X11460301Y-14055484D01*
X11460301Y-14055484D02*
X11479349Y-14045960D01*
X11479349Y-14045960D02*
X11488872Y-14026912D01*
X11488872Y-14026912D02*
X11488872Y-14017388D01*
X11488872Y-14017388D02*
X11479349Y-13998341D01*
X11479349Y-13998341D02*
X11460301Y-13988817D01*
X11460301Y-13988817D02*
X11431730Y-13988817D01*
X11431730Y-13988817D02*
X11412682Y-13979293D01*
X11412682Y-13979293D02*
X11403158Y-13960246D01*
X11403158Y-13960246D02*
X11403158Y-13950722D01*
X11403158Y-13950722D02*
X11412682Y-13931674D01*
X11412682Y-13931674D02*
X11431730Y-13922150D01*
X11431730Y-13922150D02*
X11460301Y-13922150D01*
X11460301Y-13922150D02*
X11479349Y-13931674D01*
X11555539Y-14131674D02*
X11565063Y-14122150D01*
X11565063Y-14122150D02*
X11584111Y-14093579D01*
X11584111Y-14093579D02*
X11593634Y-14074531D01*
X11593634Y-14074531D02*
X11603158Y-14045960D01*
X11603158Y-14045960D02*
X11612682Y-13998341D01*
X11612682Y-13998341D02*
X11612682Y-13960246D01*
X11612682Y-13960246D02*
X11603158Y-13912627D01*
X11603158Y-13912627D02*
X11593634Y-13884055D01*
X11593634Y-13884055D02*
X11584111Y-13865008D01*
X11584111Y-13865008D02*
X11565063Y-13836436D01*
X11565063Y-13836436D02*
X11555539Y-13826912D01*
D13*
X6535000Y-14173000D02*
X6535000Y-14283000D01*
X6480000Y-14228000D02*
X6590000Y-14228000D01*
D10*
X6955539Y-14319484D02*
X6841253Y-14319484D01*
X6898396Y-14319484D02*
X6898396Y-14119484D01*
X6898396Y-14119484D02*
X6879348Y-14148055D01*
X6879348Y-14148055D02*
X6860301Y-14167103D01*
X6860301Y-14167103D02*
X6841253Y-14176627D01*
X7041253Y-14300436D02*
X7050777Y-14309960D01*
X7050777Y-14309960D02*
X7041253Y-14319484D01*
X7041253Y-14319484D02*
X7031729Y-14309960D01*
X7031729Y-14309960D02*
X7041253Y-14300436D01*
X7041253Y-14300436D02*
X7041253Y-14319484D01*
X7241253Y-14319484D02*
X7126967Y-14319484D01*
X7184110Y-14319484D02*
X7184110Y-14119484D01*
X7184110Y-14119484D02*
X7165062Y-14148055D01*
X7165062Y-14148055D02*
X7146015Y-14167103D01*
X7146015Y-14167103D02*
X7126967Y-14176627D01*
X7365062Y-14119484D02*
X7384110Y-14119484D01*
X7384110Y-14119484D02*
X7403158Y-14129008D01*
X7403158Y-14129008D02*
X7412682Y-14138531D01*
X7412682Y-14138531D02*
X7422205Y-14157579D01*
X7422205Y-14157579D02*
X7431729Y-14195674D01*
X7431729Y-14195674D02*
X7431729Y-14243293D01*
X7431729Y-14243293D02*
X7422205Y-14281388D01*
X7422205Y-14281388D02*
X7412682Y-14300436D01*
X7412682Y-14300436D02*
X7403158Y-14309960D01*
X7403158Y-14309960D02*
X7384110Y-14319484D01*
X7384110Y-14319484D02*
X7365062Y-14319484D01*
X7365062Y-14319484D02*
X7346015Y-14309960D01*
X7346015Y-14309960D02*
X7336491Y-14300436D01*
X7336491Y-14300436D02*
X7326967Y-14281388D01*
X7326967Y-14281388D02*
X7317443Y-14243293D01*
X7317443Y-14243293D02*
X7317443Y-14195674D01*
X7317443Y-14195674D02*
X7326967Y-14157579D01*
X7326967Y-14157579D02*
X7336491Y-14138531D01*
X7336491Y-14138531D02*
X7346015Y-14129008D01*
X7346015Y-14129008D02*
X7365062Y-14119484D01*
X7555539Y-14119484D02*
X7574586Y-14119484D01*
X7574586Y-14119484D02*
X7593634Y-14129008D01*
X7593634Y-14129008D02*
X7603158Y-14138531D01*
X7603158Y-14138531D02*
X7612682Y-14157579D01*
X7612682Y-14157579D02*
X7622205Y-14195674D01*
X7622205Y-14195674D02*
X7622205Y-14243293D01*
X7622205Y-14243293D02*
X7612682Y-14281388D01*
X7612682Y-14281388D02*
X7603158Y-14300436D01*
X7603158Y-14300436D02*
X7593634Y-14309960D01*
X7593634Y-14309960D02*
X7574586Y-14319484D01*
X7574586Y-14319484D02*
X7555539Y-14319484D01*
X7555539Y-14319484D02*
X7536491Y-14309960D01*
X7536491Y-14309960D02*
X7526967Y-14300436D01*
X7526967Y-14300436D02*
X7517443Y-14281388D01*
X7517443Y-14281388D02*
X7507920Y-14243293D01*
X7507920Y-14243293D02*
X7507920Y-14195674D01*
X7507920Y-14195674D02*
X7517443Y-14157579D01*
X7517443Y-14157579D02*
X7526967Y-14138531D01*
X7526967Y-14138531D02*
X7536491Y-14129008D01*
X7536491Y-14129008D02*
X7555539Y-14119484D01*
X7707920Y-14319484D02*
X7707920Y-14186150D01*
X7707920Y-14205198D02*
X7717443Y-14195674D01*
X7717443Y-14195674D02*
X7736491Y-14186150D01*
X7736491Y-14186150D02*
X7765063Y-14186150D01*
X7765063Y-14186150D02*
X7784110Y-14195674D01*
X7784110Y-14195674D02*
X7793634Y-14214722D01*
X7793634Y-14214722D02*
X7793634Y-14319484D01*
X7793634Y-14214722D02*
X7803158Y-14195674D01*
X7803158Y-14195674D02*
X7822205Y-14186150D01*
X7822205Y-14186150D02*
X7850777Y-14186150D01*
X7850777Y-14186150D02*
X7869824Y-14195674D01*
X7869824Y-14195674D02*
X7879348Y-14214722D01*
X7879348Y-14214722D02*
X7879348Y-14319484D01*
X7974586Y-14319484D02*
X7974586Y-14186150D01*
X7974586Y-14205198D02*
X7984110Y-14195674D01*
X7984110Y-14195674D02*
X8003158Y-14186150D01*
X8003158Y-14186150D02*
X8031729Y-14186150D01*
X8031729Y-14186150D02*
X8050777Y-14195674D01*
X8050777Y-14195674D02*
X8060301Y-14214722D01*
X8060301Y-14214722D02*
X8060301Y-14319484D01*
X8060301Y-14214722D02*
X8069824Y-14195674D01*
X8069824Y-14195674D02*
X8088872Y-14186150D01*
X8088872Y-14186150D02*
X8117443Y-14186150D01*
X8117443Y-14186150D02*
X8136491Y-14195674D01*
X8136491Y-14195674D02*
X8146015Y-14214722D01*
X8146015Y-14214722D02*
X8146015Y-14319484D01*
X8536491Y-14109960D02*
X8365063Y-14367103D01*
X8793634Y-14119484D02*
X8812682Y-14119484D01*
X8812682Y-14119484D02*
X8831729Y-14129008D01*
X8831729Y-14129008D02*
X8841253Y-14138531D01*
X8841253Y-14138531D02*
X8850777Y-14157579D01*
X8850777Y-14157579D02*
X8860301Y-14195674D01*
X8860301Y-14195674D02*
X8860301Y-14243293D01*
X8860301Y-14243293D02*
X8850777Y-14281388D01*
X8850777Y-14281388D02*
X8841253Y-14300436D01*
X8841253Y-14300436D02*
X8831729Y-14309960D01*
X8831729Y-14309960D02*
X8812682Y-14319484D01*
X8812682Y-14319484D02*
X8793634Y-14319484D01*
X8793634Y-14319484D02*
X8774587Y-14309960D01*
X8774587Y-14309960D02*
X8765063Y-14300436D01*
X8765063Y-14300436D02*
X8755539Y-14281388D01*
X8755539Y-14281388D02*
X8746015Y-14243293D01*
X8746015Y-14243293D02*
X8746015Y-14195674D01*
X8746015Y-14195674D02*
X8755539Y-14157579D01*
X8755539Y-14157579D02*
X8765063Y-14138531D01*
X8765063Y-14138531D02*
X8774587Y-14129008D01*
X8774587Y-14129008D02*
X8793634Y-14119484D01*
X8946015Y-14300436D02*
X8955539Y-14309960D01*
X8955539Y-14309960D02*
X8946015Y-14319484D01*
X8946015Y-14319484D02*
X8936491Y-14309960D01*
X8936491Y-14309960D02*
X8946015Y-14300436D01*
X8946015Y-14300436D02*
X8946015Y-14319484D01*
X9079348Y-14119484D02*
X9098396Y-14119484D01*
X9098396Y-14119484D02*
X9117444Y-14129008D01*
X9117444Y-14129008D02*
X9126968Y-14138531D01*
X9126968Y-14138531D02*
X9136491Y-14157579D01*
X9136491Y-14157579D02*
X9146015Y-14195674D01*
X9146015Y-14195674D02*
X9146015Y-14243293D01*
X9146015Y-14243293D02*
X9136491Y-14281388D01*
X9136491Y-14281388D02*
X9126968Y-14300436D01*
X9126968Y-14300436D02*
X9117444Y-14309960D01*
X9117444Y-14309960D02*
X9098396Y-14319484D01*
X9098396Y-14319484D02*
X9079348Y-14319484D01*
X9079348Y-14319484D02*
X9060301Y-14309960D01*
X9060301Y-14309960D02*
X9050777Y-14300436D01*
X9050777Y-14300436D02*
X9041253Y-14281388D01*
X9041253Y-14281388D02*
X9031729Y-14243293D01*
X9031729Y-14243293D02*
X9031729Y-14195674D01*
X9031729Y-14195674D02*
X9041253Y-14157579D01*
X9041253Y-14157579D02*
X9050777Y-14138531D01*
X9050777Y-14138531D02*
X9060301Y-14129008D01*
X9060301Y-14129008D02*
X9079348Y-14119484D01*
X9317444Y-14186150D02*
X9317444Y-14319484D01*
X9269825Y-14109960D02*
X9222206Y-14252817D01*
X9222206Y-14252817D02*
X9346015Y-14252817D01*
X9403158Y-14119484D02*
X9526968Y-14119484D01*
X9526968Y-14119484D02*
X9460301Y-14195674D01*
X9460301Y-14195674D02*
X9488872Y-14195674D01*
X9488872Y-14195674D02*
X9507920Y-14205198D01*
X9507920Y-14205198D02*
X9517444Y-14214722D01*
X9517444Y-14214722D02*
X9526968Y-14233769D01*
X9526968Y-14233769D02*
X9526968Y-14281388D01*
X9526968Y-14281388D02*
X9517444Y-14300436D01*
X9517444Y-14300436D02*
X9507920Y-14309960D01*
X9507920Y-14309960D02*
X9488872Y-14319484D01*
X9488872Y-14319484D02*
X9431729Y-14319484D01*
X9431729Y-14319484D02*
X9412682Y-14309960D01*
X9412682Y-14309960D02*
X9403158Y-14300436D01*
X9593634Y-14119484D02*
X9717444Y-14119484D01*
X9717444Y-14119484D02*
X9650777Y-14195674D01*
X9650777Y-14195674D02*
X9679349Y-14195674D01*
X9679349Y-14195674D02*
X9698396Y-14205198D01*
X9698396Y-14205198D02*
X9707920Y-14214722D01*
X9707920Y-14214722D02*
X9717444Y-14233769D01*
X9717444Y-14233769D02*
X9717444Y-14281388D01*
X9717444Y-14281388D02*
X9707920Y-14300436D01*
X9707920Y-14300436D02*
X9698396Y-14309960D01*
X9698396Y-14309960D02*
X9679349Y-14319484D01*
X9679349Y-14319484D02*
X9622206Y-14319484D01*
X9622206Y-14319484D02*
X9603158Y-14309960D01*
X9603158Y-14309960D02*
X9593634Y-14300436D01*
X9793634Y-14119484D02*
X9793634Y-14157579D01*
X9869825Y-14119484D02*
X9869825Y-14157579D01*
X10165063Y-14395674D02*
X10155539Y-14386150D01*
X10155539Y-14386150D02*
X10136491Y-14357579D01*
X10136491Y-14357579D02*
X10126968Y-14338531D01*
X10126968Y-14338531D02*
X10117444Y-14309960D01*
X10117444Y-14309960D02*
X10107920Y-14262341D01*
X10107920Y-14262341D02*
X10107920Y-14224246D01*
X10107920Y-14224246D02*
X10117444Y-14176627D01*
X10117444Y-14176627D02*
X10126968Y-14148055D01*
X10126968Y-14148055D02*
X10136491Y-14129008D01*
X10136491Y-14129008D02*
X10155539Y-14100436D01*
X10155539Y-14100436D02*
X10165063Y-14090912D01*
X10231730Y-14138531D02*
X10241253Y-14129008D01*
X10241253Y-14129008D02*
X10260301Y-14119484D01*
X10260301Y-14119484D02*
X10307920Y-14119484D01*
X10307920Y-14119484D02*
X10326968Y-14129008D01*
X10326968Y-14129008D02*
X10336491Y-14138531D01*
X10336491Y-14138531D02*
X10346015Y-14157579D01*
X10346015Y-14157579D02*
X10346015Y-14176627D01*
X10346015Y-14176627D02*
X10336491Y-14205198D01*
X10336491Y-14205198D02*
X10222206Y-14319484D01*
X10222206Y-14319484D02*
X10346015Y-14319484D01*
X10469825Y-14119484D02*
X10488872Y-14119484D01*
X10488872Y-14119484D02*
X10507920Y-14129008D01*
X10507920Y-14129008D02*
X10517444Y-14138531D01*
X10517444Y-14138531D02*
X10526968Y-14157579D01*
X10526968Y-14157579D02*
X10536491Y-14195674D01*
X10536491Y-14195674D02*
X10536491Y-14243293D01*
X10536491Y-14243293D02*
X10526968Y-14281388D01*
X10526968Y-14281388D02*
X10517444Y-14300436D01*
X10517444Y-14300436D02*
X10507920Y-14309960D01*
X10507920Y-14309960D02*
X10488872Y-14319484D01*
X10488872Y-14319484D02*
X10469825Y-14319484D01*
X10469825Y-14319484D02*
X10450777Y-14309960D01*
X10450777Y-14309960D02*
X10441253Y-14300436D01*
X10441253Y-14300436D02*
X10431730Y-14281388D01*
X10431730Y-14281388D02*
X10422206Y-14243293D01*
X10422206Y-14243293D02*
X10422206Y-14195674D01*
X10422206Y-14195674D02*
X10431730Y-14157579D01*
X10431730Y-14157579D02*
X10441253Y-14138531D01*
X10441253Y-14138531D02*
X10450777Y-14129008D01*
X10450777Y-14129008D02*
X10469825Y-14119484D01*
X10774587Y-14319484D02*
X10774587Y-14119484D01*
X10860301Y-14319484D02*
X10860301Y-14214722D01*
X10860301Y-14214722D02*
X10850777Y-14195674D01*
X10850777Y-14195674D02*
X10831730Y-14186150D01*
X10831730Y-14186150D02*
X10803158Y-14186150D01*
X10803158Y-14186150D02*
X10784111Y-14195674D01*
X10784111Y-14195674D02*
X10774587Y-14205198D01*
X10984111Y-14319484D02*
X10965063Y-14309960D01*
X10965063Y-14309960D02*
X10955539Y-14300436D01*
X10955539Y-14300436D02*
X10946015Y-14281388D01*
X10946015Y-14281388D02*
X10946015Y-14224246D01*
X10946015Y-14224246D02*
X10955539Y-14205198D01*
X10955539Y-14205198D02*
X10965063Y-14195674D01*
X10965063Y-14195674D02*
X10984111Y-14186150D01*
X10984111Y-14186150D02*
X11012682Y-14186150D01*
X11012682Y-14186150D02*
X11031730Y-14195674D01*
X11031730Y-14195674D02*
X11041253Y-14205198D01*
X11041253Y-14205198D02*
X11050777Y-14224246D01*
X11050777Y-14224246D02*
X11050777Y-14281388D01*
X11050777Y-14281388D02*
X11041253Y-14300436D01*
X11041253Y-14300436D02*
X11031730Y-14309960D01*
X11031730Y-14309960D02*
X11012682Y-14319484D01*
X11012682Y-14319484D02*
X10984111Y-14319484D01*
X11165063Y-14319484D02*
X11146015Y-14309960D01*
X11146015Y-14309960D02*
X11136492Y-14290912D01*
X11136492Y-14290912D02*
X11136492Y-14119484D01*
X11317444Y-14309960D02*
X11298396Y-14319484D01*
X11298396Y-14319484D02*
X11260301Y-14319484D01*
X11260301Y-14319484D02*
X11241253Y-14309960D01*
X11241253Y-14309960D02*
X11231730Y-14290912D01*
X11231730Y-14290912D02*
X11231730Y-14214722D01*
X11231730Y-14214722D02*
X11241253Y-14195674D01*
X11241253Y-14195674D02*
X11260301Y-14186150D01*
X11260301Y-14186150D02*
X11298396Y-14186150D01*
X11298396Y-14186150D02*
X11317444Y-14195674D01*
X11317444Y-14195674D02*
X11326968Y-14214722D01*
X11326968Y-14214722D02*
X11326968Y-14233769D01*
X11326968Y-14233769D02*
X11231730Y-14252817D01*
X11403158Y-14309960D02*
X11422206Y-14319484D01*
X11422206Y-14319484D02*
X11460301Y-14319484D01*
X11460301Y-14319484D02*
X11479349Y-14309960D01*
X11479349Y-14309960D02*
X11488872Y-14290912D01*
X11488872Y-14290912D02*
X11488872Y-14281388D01*
X11488872Y-14281388D02*
X11479349Y-14262341D01*
X11479349Y-14262341D02*
X11460301Y-14252817D01*
X11460301Y-14252817D02*
X11431730Y-14252817D01*
X11431730Y-14252817D02*
X11412682Y-14243293D01*
X11412682Y-14243293D02*
X11403158Y-14224246D01*
X11403158Y-14224246D02*
X11403158Y-14214722D01*
X11403158Y-14214722D02*
X11412682Y-14195674D01*
X11412682Y-14195674D02*
X11431730Y-14186150D01*
X11431730Y-14186150D02*
X11460301Y-14186150D01*
X11460301Y-14186150D02*
X11479349Y-14195674D01*
X11555539Y-14395674D02*
X11565063Y-14386150D01*
X11565063Y-14386150D02*
X11584111Y-14357579D01*
X11584111Y-14357579D02*
X11593634Y-14338531D01*
X11593634Y-14338531D02*
X11603158Y-14309960D01*
X11603158Y-14309960D02*
X11612682Y-14262341D01*
X11612682Y-14262341D02*
X11612682Y-14224246D01*
X11612682Y-14224246D02*
X11603158Y-14176627D01*
X11603158Y-14176627D02*
X11593634Y-14148055D01*
X11593634Y-14148055D02*
X11584111Y-14129008D01*
X11584111Y-14129008D02*
X11565063Y-14100436D01*
X11565063Y-14100436D02*
X11555539Y-14090912D01*
D14*
X6570962Y-14537962D02*
X6570962Y-14446038D01*
X6479038Y-14446038D01*
X6479038Y-14537962D01*
X6570962Y-14537962D01*
D10*
X6955539Y-14583484D02*
X6841253Y-14583484D01*
X6898396Y-14583484D02*
X6898396Y-14383484D01*
X6898396Y-14383484D02*
X6879348Y-14412055D01*
X6879348Y-14412055D02*
X6860301Y-14431103D01*
X6860301Y-14431103D02*
X6841253Y-14440627D01*
X7041253Y-14564436D02*
X7050777Y-14573960D01*
X7050777Y-14573960D02*
X7041253Y-14583484D01*
X7041253Y-14583484D02*
X7031729Y-14573960D01*
X7031729Y-14573960D02*
X7041253Y-14564436D01*
X7041253Y-14564436D02*
X7041253Y-14583484D01*
X7117443Y-14383484D02*
X7241253Y-14383484D01*
X7241253Y-14383484D02*
X7174586Y-14459674D01*
X7174586Y-14459674D02*
X7203158Y-14459674D01*
X7203158Y-14459674D02*
X7222205Y-14469198D01*
X7222205Y-14469198D02*
X7231729Y-14478722D01*
X7231729Y-14478722D02*
X7241253Y-14497769D01*
X7241253Y-14497769D02*
X7241253Y-14545388D01*
X7241253Y-14545388D02*
X7231729Y-14564436D01*
X7231729Y-14564436D02*
X7222205Y-14573960D01*
X7222205Y-14573960D02*
X7203158Y-14583484D01*
X7203158Y-14583484D02*
X7146015Y-14583484D01*
X7146015Y-14583484D02*
X7126967Y-14573960D01*
X7126967Y-14573960D02*
X7117443Y-14564436D01*
X7365062Y-14383484D02*
X7384110Y-14383484D01*
X7384110Y-14383484D02*
X7403158Y-14393008D01*
X7403158Y-14393008D02*
X7412682Y-14402531D01*
X7412682Y-14402531D02*
X7422205Y-14421579D01*
X7422205Y-14421579D02*
X7431729Y-14459674D01*
X7431729Y-14459674D02*
X7431729Y-14507293D01*
X7431729Y-14507293D02*
X7422205Y-14545388D01*
X7422205Y-14545388D02*
X7412682Y-14564436D01*
X7412682Y-14564436D02*
X7403158Y-14573960D01*
X7403158Y-14573960D02*
X7384110Y-14583484D01*
X7384110Y-14583484D02*
X7365062Y-14583484D01*
X7365062Y-14583484D02*
X7346015Y-14573960D01*
X7346015Y-14573960D02*
X7336491Y-14564436D01*
X7336491Y-14564436D02*
X7326967Y-14545388D01*
X7326967Y-14545388D02*
X7317443Y-14507293D01*
X7317443Y-14507293D02*
X7317443Y-14459674D01*
X7317443Y-14459674D02*
X7326967Y-14421579D01*
X7326967Y-14421579D02*
X7336491Y-14402531D01*
X7336491Y-14402531D02*
X7346015Y-14393008D01*
X7346015Y-14393008D02*
X7365062Y-14383484D01*
X7555539Y-14383484D02*
X7574586Y-14383484D01*
X7574586Y-14383484D02*
X7593634Y-14393008D01*
X7593634Y-14393008D02*
X7603158Y-14402531D01*
X7603158Y-14402531D02*
X7612682Y-14421579D01*
X7612682Y-14421579D02*
X7622205Y-14459674D01*
X7622205Y-14459674D02*
X7622205Y-14507293D01*
X7622205Y-14507293D02*
X7612682Y-14545388D01*
X7612682Y-14545388D02*
X7603158Y-14564436D01*
X7603158Y-14564436D02*
X7593634Y-14573960D01*
X7593634Y-14573960D02*
X7574586Y-14583484D01*
X7574586Y-14583484D02*
X7555539Y-14583484D01*
X7555539Y-14583484D02*
X7536491Y-14573960D01*
X7536491Y-14573960D02*
X7526967Y-14564436D01*
X7526967Y-14564436D02*
X7517443Y-14545388D01*
X7517443Y-14545388D02*
X7507920Y-14507293D01*
X7507920Y-14507293D02*
X7507920Y-14459674D01*
X7507920Y-14459674D02*
X7517443Y-14421579D01*
X7517443Y-14421579D02*
X7526967Y-14402531D01*
X7526967Y-14402531D02*
X7536491Y-14393008D01*
X7536491Y-14393008D02*
X7555539Y-14383484D01*
X7707920Y-14583484D02*
X7707920Y-14450150D01*
X7707920Y-14469198D02*
X7717443Y-14459674D01*
X7717443Y-14459674D02*
X7736491Y-14450150D01*
X7736491Y-14450150D02*
X7765063Y-14450150D01*
X7765063Y-14450150D02*
X7784110Y-14459674D01*
X7784110Y-14459674D02*
X7793634Y-14478722D01*
X7793634Y-14478722D02*
X7793634Y-14583484D01*
X7793634Y-14478722D02*
X7803158Y-14459674D01*
X7803158Y-14459674D02*
X7822205Y-14450150D01*
X7822205Y-14450150D02*
X7850777Y-14450150D01*
X7850777Y-14450150D02*
X7869824Y-14459674D01*
X7869824Y-14459674D02*
X7879348Y-14478722D01*
X7879348Y-14478722D02*
X7879348Y-14583484D01*
X7974586Y-14583484D02*
X7974586Y-14450150D01*
X7974586Y-14469198D02*
X7984110Y-14459674D01*
X7984110Y-14459674D02*
X8003158Y-14450150D01*
X8003158Y-14450150D02*
X8031729Y-14450150D01*
X8031729Y-14450150D02*
X8050777Y-14459674D01*
X8050777Y-14459674D02*
X8060301Y-14478722D01*
X8060301Y-14478722D02*
X8060301Y-14583484D01*
X8060301Y-14478722D02*
X8069824Y-14459674D01*
X8069824Y-14459674D02*
X8088872Y-14450150D01*
X8088872Y-14450150D02*
X8117443Y-14450150D01*
X8117443Y-14450150D02*
X8136491Y-14459674D01*
X8136491Y-14459674D02*
X8146015Y-14478722D01*
X8146015Y-14478722D02*
X8146015Y-14583484D01*
X8536491Y-14373960D02*
X8365063Y-14631103D01*
X8793634Y-14383484D02*
X8812682Y-14383484D01*
X8812682Y-14383484D02*
X8831729Y-14393008D01*
X8831729Y-14393008D02*
X8841253Y-14402531D01*
X8841253Y-14402531D02*
X8850777Y-14421579D01*
X8850777Y-14421579D02*
X8860301Y-14459674D01*
X8860301Y-14459674D02*
X8860301Y-14507293D01*
X8860301Y-14507293D02*
X8850777Y-14545388D01*
X8850777Y-14545388D02*
X8841253Y-14564436D01*
X8841253Y-14564436D02*
X8831729Y-14573960D01*
X8831729Y-14573960D02*
X8812682Y-14583484D01*
X8812682Y-14583484D02*
X8793634Y-14583484D01*
X8793634Y-14583484D02*
X8774587Y-14573960D01*
X8774587Y-14573960D02*
X8765063Y-14564436D01*
X8765063Y-14564436D02*
X8755539Y-14545388D01*
X8755539Y-14545388D02*
X8746015Y-14507293D01*
X8746015Y-14507293D02*
X8746015Y-14459674D01*
X8746015Y-14459674D02*
X8755539Y-14421579D01*
X8755539Y-14421579D02*
X8765063Y-14402531D01*
X8765063Y-14402531D02*
X8774587Y-14393008D01*
X8774587Y-14393008D02*
X8793634Y-14383484D01*
X8946015Y-14564436D02*
X8955539Y-14573960D01*
X8955539Y-14573960D02*
X8946015Y-14583484D01*
X8946015Y-14583484D02*
X8936491Y-14573960D01*
X8936491Y-14573960D02*
X8946015Y-14564436D01*
X8946015Y-14564436D02*
X8946015Y-14583484D01*
X9079348Y-14383484D02*
X9098396Y-14383484D01*
X9098396Y-14383484D02*
X9117444Y-14393008D01*
X9117444Y-14393008D02*
X9126968Y-14402531D01*
X9126968Y-14402531D02*
X9136491Y-14421579D01*
X9136491Y-14421579D02*
X9146015Y-14459674D01*
X9146015Y-14459674D02*
X9146015Y-14507293D01*
X9146015Y-14507293D02*
X9136491Y-14545388D01*
X9136491Y-14545388D02*
X9126968Y-14564436D01*
X9126968Y-14564436D02*
X9117444Y-14573960D01*
X9117444Y-14573960D02*
X9098396Y-14583484D01*
X9098396Y-14583484D02*
X9079348Y-14583484D01*
X9079348Y-14583484D02*
X9060301Y-14573960D01*
X9060301Y-14573960D02*
X9050777Y-14564436D01*
X9050777Y-14564436D02*
X9041253Y-14545388D01*
X9041253Y-14545388D02*
X9031729Y-14507293D01*
X9031729Y-14507293D02*
X9031729Y-14459674D01*
X9031729Y-14459674D02*
X9041253Y-14421579D01*
X9041253Y-14421579D02*
X9050777Y-14402531D01*
X9050777Y-14402531D02*
X9060301Y-14393008D01*
X9060301Y-14393008D02*
X9079348Y-14383484D01*
X9326968Y-14383484D02*
X9231729Y-14383484D01*
X9231729Y-14383484D02*
X9222206Y-14478722D01*
X9222206Y-14478722D02*
X9231729Y-14469198D01*
X9231729Y-14469198D02*
X9250777Y-14459674D01*
X9250777Y-14459674D02*
X9298396Y-14459674D01*
X9298396Y-14459674D02*
X9317444Y-14469198D01*
X9317444Y-14469198D02*
X9326968Y-14478722D01*
X9326968Y-14478722D02*
X9336491Y-14497769D01*
X9336491Y-14497769D02*
X9336491Y-14545388D01*
X9336491Y-14545388D02*
X9326968Y-14564436D01*
X9326968Y-14564436D02*
X9317444Y-14573960D01*
X9317444Y-14573960D02*
X9298396Y-14583484D01*
X9298396Y-14583484D02*
X9250777Y-14583484D01*
X9250777Y-14583484D02*
X9231729Y-14573960D01*
X9231729Y-14573960D02*
X9222206Y-14564436D01*
X9526968Y-14583484D02*
X9412682Y-14583484D01*
X9469825Y-14583484D02*
X9469825Y-14383484D01*
X9469825Y-14383484D02*
X9450777Y-14412055D01*
X9450777Y-14412055D02*
X9431729Y-14431103D01*
X9431729Y-14431103D02*
X9412682Y-14440627D01*
X9603158Y-14402531D02*
X9612682Y-14393008D01*
X9612682Y-14393008D02*
X9631729Y-14383484D01*
X9631729Y-14383484D02*
X9679349Y-14383484D01*
X9679349Y-14383484D02*
X9698396Y-14393008D01*
X9698396Y-14393008D02*
X9707920Y-14402531D01*
X9707920Y-14402531D02*
X9717444Y-14421579D01*
X9717444Y-14421579D02*
X9717444Y-14440627D01*
X9717444Y-14440627D02*
X9707920Y-14469198D01*
X9707920Y-14469198D02*
X9593634Y-14583484D01*
X9593634Y-14583484D02*
X9717444Y-14583484D01*
X9793634Y-14383484D02*
X9793634Y-14421579D01*
X9869825Y-14383484D02*
X9869825Y-14421579D01*
X10165063Y-14659674D02*
X10155539Y-14650150D01*
X10155539Y-14650150D02*
X10136491Y-14621579D01*
X10136491Y-14621579D02*
X10126968Y-14602531D01*
X10126968Y-14602531D02*
X10117444Y-14573960D01*
X10117444Y-14573960D02*
X10107920Y-14526341D01*
X10107920Y-14526341D02*
X10107920Y-14488246D01*
X10107920Y-14488246D02*
X10117444Y-14440627D01*
X10117444Y-14440627D02*
X10126968Y-14412055D01*
X10126968Y-14412055D02*
X10136491Y-14393008D01*
X10136491Y-14393008D02*
X10155539Y-14364436D01*
X10155539Y-14364436D02*
X10165063Y-14354912D01*
X10346015Y-14583484D02*
X10231730Y-14583484D01*
X10288872Y-14583484D02*
X10288872Y-14383484D01*
X10288872Y-14383484D02*
X10269825Y-14412055D01*
X10269825Y-14412055D02*
X10250777Y-14431103D01*
X10250777Y-14431103D02*
X10231730Y-14440627D01*
X10469825Y-14383484D02*
X10488872Y-14383484D01*
X10488872Y-14383484D02*
X10507920Y-14393008D01*
X10507920Y-14393008D02*
X10517444Y-14402531D01*
X10517444Y-14402531D02*
X10526968Y-14421579D01*
X10526968Y-14421579D02*
X10536491Y-14459674D01*
X10536491Y-14459674D02*
X10536491Y-14507293D01*
X10536491Y-14507293D02*
X10526968Y-14545388D01*
X10526968Y-14545388D02*
X10517444Y-14564436D01*
X10517444Y-14564436D02*
X10507920Y-14573960D01*
X10507920Y-14573960D02*
X10488872Y-14583484D01*
X10488872Y-14583484D02*
X10469825Y-14583484D01*
X10469825Y-14583484D02*
X10450777Y-14573960D01*
X10450777Y-14573960D02*
X10441253Y-14564436D01*
X10441253Y-14564436D02*
X10431730Y-14545388D01*
X10431730Y-14545388D02*
X10422206Y-14507293D01*
X10422206Y-14507293D02*
X10422206Y-14459674D01*
X10422206Y-14459674D02*
X10431730Y-14421579D01*
X10431730Y-14421579D02*
X10441253Y-14402531D01*
X10441253Y-14402531D02*
X10450777Y-14393008D01*
X10450777Y-14393008D02*
X10469825Y-14383484D01*
X10774587Y-14583484D02*
X10774587Y-14383484D01*
X10860301Y-14583484D02*
X10860301Y-14478722D01*
X10860301Y-14478722D02*
X10850777Y-14459674D01*
X10850777Y-14459674D02*
X10831730Y-14450150D01*
X10831730Y-14450150D02*
X10803158Y-14450150D01*
X10803158Y-14450150D02*
X10784111Y-14459674D01*
X10784111Y-14459674D02*
X10774587Y-14469198D01*
X10984111Y-14583484D02*
X10965063Y-14573960D01*
X10965063Y-14573960D02*
X10955539Y-14564436D01*
X10955539Y-14564436D02*
X10946015Y-14545388D01*
X10946015Y-14545388D02*
X10946015Y-14488246D01*
X10946015Y-14488246D02*
X10955539Y-14469198D01*
X10955539Y-14469198D02*
X10965063Y-14459674D01*
X10965063Y-14459674D02*
X10984111Y-14450150D01*
X10984111Y-14450150D02*
X11012682Y-14450150D01*
X11012682Y-14450150D02*
X11031730Y-14459674D01*
X11031730Y-14459674D02*
X11041253Y-14469198D01*
X11041253Y-14469198D02*
X11050777Y-14488246D01*
X11050777Y-14488246D02*
X11050777Y-14545388D01*
X11050777Y-14545388D02*
X11041253Y-14564436D01*
X11041253Y-14564436D02*
X11031730Y-14573960D01*
X11031730Y-14573960D02*
X11012682Y-14583484D01*
X11012682Y-14583484D02*
X10984111Y-14583484D01*
X11165063Y-14583484D02*
X11146015Y-14573960D01*
X11146015Y-14573960D02*
X11136492Y-14554912D01*
X11136492Y-14554912D02*
X11136492Y-14383484D01*
X11317444Y-14573960D02*
X11298396Y-14583484D01*
X11298396Y-14583484D02*
X11260301Y-14583484D01*
X11260301Y-14583484D02*
X11241253Y-14573960D01*
X11241253Y-14573960D02*
X11231730Y-14554912D01*
X11231730Y-14554912D02*
X11231730Y-14478722D01*
X11231730Y-14478722D02*
X11241253Y-14459674D01*
X11241253Y-14459674D02*
X11260301Y-14450150D01*
X11260301Y-14450150D02*
X11298396Y-14450150D01*
X11298396Y-14450150D02*
X11317444Y-14459674D01*
X11317444Y-14459674D02*
X11326968Y-14478722D01*
X11326968Y-14478722D02*
X11326968Y-14497769D01*
X11326968Y-14497769D02*
X11231730Y-14516817D01*
X11403158Y-14573960D02*
X11422206Y-14583484D01*
X11422206Y-14583484D02*
X11460301Y-14583484D01*
X11460301Y-14583484D02*
X11479349Y-14573960D01*
X11479349Y-14573960D02*
X11488872Y-14554912D01*
X11488872Y-14554912D02*
X11488872Y-14545388D01*
X11488872Y-14545388D02*
X11479349Y-14526341D01*
X11479349Y-14526341D02*
X11460301Y-14516817D01*
X11460301Y-14516817D02*
X11431730Y-14516817D01*
X11431730Y-14516817D02*
X11412682Y-14507293D01*
X11412682Y-14507293D02*
X11403158Y-14488246D01*
X11403158Y-14488246D02*
X11403158Y-14478722D01*
X11403158Y-14478722D02*
X11412682Y-14459674D01*
X11412682Y-14459674D02*
X11431730Y-14450150D01*
X11431730Y-14450150D02*
X11460301Y-14450150D01*
X11460301Y-14450150D02*
X11479349Y-14459674D01*
X11555539Y-14659674D02*
X11565063Y-14650150D01*
X11565063Y-14650150D02*
X11584111Y-14621579D01*
X11584111Y-14621579D02*
X11593634Y-14602531D01*
X11593634Y-14602531D02*
X11603158Y-14573960D01*
X11603158Y-14573960D02*
X11612682Y-14526341D01*
X11612682Y-14526341D02*
X11612682Y-14488246D01*
X11612682Y-14488246D02*
X11603158Y-14440627D01*
X11603158Y-14440627D02*
X11593634Y-14412055D01*
X11593634Y-14412055D02*
X11584111Y-14393008D01*
X11584111Y-14393008D02*
X11565063Y-14364436D01*
X11565063Y-14364436D02*
X11555539Y-14354912D01*
D15*
X6514000Y-14832000D02*
X6590000Y-14756000D01*
X6514000Y-14680000D01*
X6438000Y-14756000D01*
X6514000Y-14832000D01*
D10*
X6955539Y-14847484D02*
X6841253Y-14847484D01*
X6898396Y-14847484D02*
X6898396Y-14647484D01*
X6898396Y-14647484D02*
X6879348Y-14676055D01*
X6879348Y-14676055D02*
X6860301Y-14695103D01*
X6860301Y-14695103D02*
X6841253Y-14704627D01*
X7041253Y-14828436D02*
X7050777Y-14837960D01*
X7050777Y-14837960D02*
X7041253Y-14847484D01*
X7041253Y-14847484D02*
X7031729Y-14837960D01*
X7031729Y-14837960D02*
X7041253Y-14828436D01*
X7041253Y-14828436D02*
X7041253Y-14847484D01*
X7231729Y-14647484D02*
X7136491Y-14647484D01*
X7136491Y-14647484D02*
X7126967Y-14742722D01*
X7126967Y-14742722D02*
X7136491Y-14733198D01*
X7136491Y-14733198D02*
X7155539Y-14723674D01*
X7155539Y-14723674D02*
X7203158Y-14723674D01*
X7203158Y-14723674D02*
X7222205Y-14733198D01*
X7222205Y-14733198D02*
X7231729Y-14742722D01*
X7231729Y-14742722D02*
X7241253Y-14761769D01*
X7241253Y-14761769D02*
X7241253Y-14809388D01*
X7241253Y-14809388D02*
X7231729Y-14828436D01*
X7231729Y-14828436D02*
X7222205Y-14837960D01*
X7222205Y-14837960D02*
X7203158Y-14847484D01*
X7203158Y-14847484D02*
X7155539Y-14847484D01*
X7155539Y-14847484D02*
X7136491Y-14837960D01*
X7136491Y-14837960D02*
X7126967Y-14828436D01*
X7317443Y-14666531D02*
X7326967Y-14657008D01*
X7326967Y-14657008D02*
X7346015Y-14647484D01*
X7346015Y-14647484D02*
X7393634Y-14647484D01*
X7393634Y-14647484D02*
X7412682Y-14657008D01*
X7412682Y-14657008D02*
X7422205Y-14666531D01*
X7422205Y-14666531D02*
X7431729Y-14685579D01*
X7431729Y-14685579D02*
X7431729Y-14704627D01*
X7431729Y-14704627D02*
X7422205Y-14733198D01*
X7422205Y-14733198D02*
X7307920Y-14847484D01*
X7307920Y-14847484D02*
X7431729Y-14847484D01*
X7555539Y-14647484D02*
X7574586Y-14647484D01*
X7574586Y-14647484D02*
X7593634Y-14657008D01*
X7593634Y-14657008D02*
X7603158Y-14666531D01*
X7603158Y-14666531D02*
X7612682Y-14685579D01*
X7612682Y-14685579D02*
X7622205Y-14723674D01*
X7622205Y-14723674D02*
X7622205Y-14771293D01*
X7622205Y-14771293D02*
X7612682Y-14809388D01*
X7612682Y-14809388D02*
X7603158Y-14828436D01*
X7603158Y-14828436D02*
X7593634Y-14837960D01*
X7593634Y-14837960D02*
X7574586Y-14847484D01*
X7574586Y-14847484D02*
X7555539Y-14847484D01*
X7555539Y-14847484D02*
X7536491Y-14837960D01*
X7536491Y-14837960D02*
X7526967Y-14828436D01*
X7526967Y-14828436D02*
X7517443Y-14809388D01*
X7517443Y-14809388D02*
X7507920Y-14771293D01*
X7507920Y-14771293D02*
X7507920Y-14723674D01*
X7507920Y-14723674D02*
X7517443Y-14685579D01*
X7517443Y-14685579D02*
X7526967Y-14666531D01*
X7526967Y-14666531D02*
X7536491Y-14657008D01*
X7536491Y-14657008D02*
X7555539Y-14647484D01*
X7707920Y-14847484D02*
X7707920Y-14714150D01*
X7707920Y-14733198D02*
X7717443Y-14723674D01*
X7717443Y-14723674D02*
X7736491Y-14714150D01*
X7736491Y-14714150D02*
X7765063Y-14714150D01*
X7765063Y-14714150D02*
X7784110Y-14723674D01*
X7784110Y-14723674D02*
X7793634Y-14742722D01*
X7793634Y-14742722D02*
X7793634Y-14847484D01*
X7793634Y-14742722D02*
X7803158Y-14723674D01*
X7803158Y-14723674D02*
X7822205Y-14714150D01*
X7822205Y-14714150D02*
X7850777Y-14714150D01*
X7850777Y-14714150D02*
X7869824Y-14723674D01*
X7869824Y-14723674D02*
X7879348Y-14742722D01*
X7879348Y-14742722D02*
X7879348Y-14847484D01*
X7974586Y-14847484D02*
X7974586Y-14714150D01*
X7974586Y-14733198D02*
X7984110Y-14723674D01*
X7984110Y-14723674D02*
X8003158Y-14714150D01*
X8003158Y-14714150D02*
X8031729Y-14714150D01*
X8031729Y-14714150D02*
X8050777Y-14723674D01*
X8050777Y-14723674D02*
X8060301Y-14742722D01*
X8060301Y-14742722D02*
X8060301Y-14847484D01*
X8060301Y-14742722D02*
X8069824Y-14723674D01*
X8069824Y-14723674D02*
X8088872Y-14714150D01*
X8088872Y-14714150D02*
X8117443Y-14714150D01*
X8117443Y-14714150D02*
X8136491Y-14723674D01*
X8136491Y-14723674D02*
X8146015Y-14742722D01*
X8146015Y-14742722D02*
X8146015Y-14847484D01*
X8536491Y-14637960D02*
X8365063Y-14895103D01*
X8793634Y-14647484D02*
X8812682Y-14647484D01*
X8812682Y-14647484D02*
X8831729Y-14657008D01*
X8831729Y-14657008D02*
X8841253Y-14666531D01*
X8841253Y-14666531D02*
X8850777Y-14685579D01*
X8850777Y-14685579D02*
X8860301Y-14723674D01*
X8860301Y-14723674D02*
X8860301Y-14771293D01*
X8860301Y-14771293D02*
X8850777Y-14809388D01*
X8850777Y-14809388D02*
X8841253Y-14828436D01*
X8841253Y-14828436D02*
X8831729Y-14837960D01*
X8831729Y-14837960D02*
X8812682Y-14847484D01*
X8812682Y-14847484D02*
X8793634Y-14847484D01*
X8793634Y-14847484D02*
X8774587Y-14837960D01*
X8774587Y-14837960D02*
X8765063Y-14828436D01*
X8765063Y-14828436D02*
X8755539Y-14809388D01*
X8755539Y-14809388D02*
X8746015Y-14771293D01*
X8746015Y-14771293D02*
X8746015Y-14723674D01*
X8746015Y-14723674D02*
X8755539Y-14685579D01*
X8755539Y-14685579D02*
X8765063Y-14666531D01*
X8765063Y-14666531D02*
X8774587Y-14657008D01*
X8774587Y-14657008D02*
X8793634Y-14647484D01*
X8946015Y-14828436D02*
X8955539Y-14837960D01*
X8955539Y-14837960D02*
X8946015Y-14847484D01*
X8946015Y-14847484D02*
X8936491Y-14837960D01*
X8936491Y-14837960D02*
X8946015Y-14828436D01*
X8946015Y-14828436D02*
X8946015Y-14847484D01*
X9079348Y-14647484D02*
X9098396Y-14647484D01*
X9098396Y-14647484D02*
X9117444Y-14657008D01*
X9117444Y-14657008D02*
X9126968Y-14666531D01*
X9126968Y-14666531D02*
X9136491Y-14685579D01*
X9136491Y-14685579D02*
X9146015Y-14723674D01*
X9146015Y-14723674D02*
X9146015Y-14771293D01*
X9146015Y-14771293D02*
X9136491Y-14809388D01*
X9136491Y-14809388D02*
X9126968Y-14828436D01*
X9126968Y-14828436D02*
X9117444Y-14837960D01*
X9117444Y-14837960D02*
X9098396Y-14847484D01*
X9098396Y-14847484D02*
X9079348Y-14847484D01*
X9079348Y-14847484D02*
X9060301Y-14837960D01*
X9060301Y-14837960D02*
X9050777Y-14828436D01*
X9050777Y-14828436D02*
X9041253Y-14809388D01*
X9041253Y-14809388D02*
X9031729Y-14771293D01*
X9031729Y-14771293D02*
X9031729Y-14723674D01*
X9031729Y-14723674D02*
X9041253Y-14685579D01*
X9041253Y-14685579D02*
X9050777Y-14666531D01*
X9050777Y-14666531D02*
X9060301Y-14657008D01*
X9060301Y-14657008D02*
X9079348Y-14647484D01*
X9326968Y-14647484D02*
X9231729Y-14647484D01*
X9231729Y-14647484D02*
X9222206Y-14742722D01*
X9222206Y-14742722D02*
X9231729Y-14733198D01*
X9231729Y-14733198D02*
X9250777Y-14723674D01*
X9250777Y-14723674D02*
X9298396Y-14723674D01*
X9298396Y-14723674D02*
X9317444Y-14733198D01*
X9317444Y-14733198D02*
X9326968Y-14742722D01*
X9326968Y-14742722D02*
X9336491Y-14761769D01*
X9336491Y-14761769D02*
X9336491Y-14809388D01*
X9336491Y-14809388D02*
X9326968Y-14828436D01*
X9326968Y-14828436D02*
X9317444Y-14837960D01*
X9317444Y-14837960D02*
X9298396Y-14847484D01*
X9298396Y-14847484D02*
X9250777Y-14847484D01*
X9250777Y-14847484D02*
X9231729Y-14837960D01*
X9231729Y-14837960D02*
X9222206Y-14828436D01*
X9431729Y-14847484D02*
X9469825Y-14847484D01*
X9469825Y-14847484D02*
X9488872Y-14837960D01*
X9488872Y-14837960D02*
X9498396Y-14828436D01*
X9498396Y-14828436D02*
X9517444Y-14799865D01*
X9517444Y-14799865D02*
X9526968Y-14761769D01*
X9526968Y-14761769D02*
X9526968Y-14685579D01*
X9526968Y-14685579D02*
X9517444Y-14666531D01*
X9517444Y-14666531D02*
X9507920Y-14657008D01*
X9507920Y-14657008D02*
X9488872Y-14647484D01*
X9488872Y-14647484D02*
X9450777Y-14647484D01*
X9450777Y-14647484D02*
X9431729Y-14657008D01*
X9431729Y-14657008D02*
X9422206Y-14666531D01*
X9422206Y-14666531D02*
X9412682Y-14685579D01*
X9412682Y-14685579D02*
X9412682Y-14733198D01*
X9412682Y-14733198D02*
X9422206Y-14752246D01*
X9422206Y-14752246D02*
X9431729Y-14761769D01*
X9431729Y-14761769D02*
X9450777Y-14771293D01*
X9450777Y-14771293D02*
X9488872Y-14771293D01*
X9488872Y-14771293D02*
X9507920Y-14761769D01*
X9507920Y-14761769D02*
X9517444Y-14752246D01*
X9517444Y-14752246D02*
X9526968Y-14733198D01*
X9641253Y-14733198D02*
X9622206Y-14723674D01*
X9622206Y-14723674D02*
X9612682Y-14714150D01*
X9612682Y-14714150D02*
X9603158Y-14695103D01*
X9603158Y-14695103D02*
X9603158Y-14685579D01*
X9603158Y-14685579D02*
X9612682Y-14666531D01*
X9612682Y-14666531D02*
X9622206Y-14657008D01*
X9622206Y-14657008D02*
X9641253Y-14647484D01*
X9641253Y-14647484D02*
X9679349Y-14647484D01*
X9679349Y-14647484D02*
X9698396Y-14657008D01*
X9698396Y-14657008D02*
X9707920Y-14666531D01*
X9707920Y-14666531D02*
X9717444Y-14685579D01*
X9717444Y-14685579D02*
X9717444Y-14695103D01*
X9717444Y-14695103D02*
X9707920Y-14714150D01*
X9707920Y-14714150D02*
X9698396Y-14723674D01*
X9698396Y-14723674D02*
X9679349Y-14733198D01*
X9679349Y-14733198D02*
X9641253Y-14733198D01*
X9641253Y-14733198D02*
X9622206Y-14742722D01*
X9622206Y-14742722D02*
X9612682Y-14752246D01*
X9612682Y-14752246D02*
X9603158Y-14771293D01*
X9603158Y-14771293D02*
X9603158Y-14809388D01*
X9603158Y-14809388D02*
X9612682Y-14828436D01*
X9612682Y-14828436D02*
X9622206Y-14837960D01*
X9622206Y-14837960D02*
X9641253Y-14847484D01*
X9641253Y-14847484D02*
X9679349Y-14847484D01*
X9679349Y-14847484D02*
X9698396Y-14837960D01*
X9698396Y-14837960D02*
X9707920Y-14828436D01*
X9707920Y-14828436D02*
X9717444Y-14809388D01*
X9717444Y-14809388D02*
X9717444Y-14771293D01*
X9717444Y-14771293D02*
X9707920Y-14752246D01*
X9707920Y-14752246D02*
X9698396Y-14742722D01*
X9698396Y-14742722D02*
X9679349Y-14733198D01*
X9793634Y-14647484D02*
X9793634Y-14685579D01*
X9869825Y-14647484D02*
X9869825Y-14685579D01*
X10165063Y-14923674D02*
X10155539Y-14914150D01*
X10155539Y-14914150D02*
X10136491Y-14885579D01*
X10136491Y-14885579D02*
X10126968Y-14866531D01*
X10126968Y-14866531D02*
X10117444Y-14837960D01*
X10117444Y-14837960D02*
X10107920Y-14790341D01*
X10107920Y-14790341D02*
X10107920Y-14752246D01*
X10107920Y-14752246D02*
X10117444Y-14704627D01*
X10117444Y-14704627D02*
X10126968Y-14676055D01*
X10126968Y-14676055D02*
X10136491Y-14657008D01*
X10136491Y-14657008D02*
X10155539Y-14628436D01*
X10155539Y-14628436D02*
X10165063Y-14618912D01*
X10269825Y-14733198D02*
X10250777Y-14723674D01*
X10250777Y-14723674D02*
X10241253Y-14714150D01*
X10241253Y-14714150D02*
X10231730Y-14695103D01*
X10231730Y-14695103D02*
X10231730Y-14685579D01*
X10231730Y-14685579D02*
X10241253Y-14666531D01*
X10241253Y-14666531D02*
X10250777Y-14657008D01*
X10250777Y-14657008D02*
X10269825Y-14647484D01*
X10269825Y-14647484D02*
X10307920Y-14647484D01*
X10307920Y-14647484D02*
X10326968Y-14657008D01*
X10326968Y-14657008D02*
X10336491Y-14666531D01*
X10336491Y-14666531D02*
X10346015Y-14685579D01*
X10346015Y-14685579D02*
X10346015Y-14695103D01*
X10346015Y-14695103D02*
X10336491Y-14714150D01*
X10336491Y-14714150D02*
X10326968Y-14723674D01*
X10326968Y-14723674D02*
X10307920Y-14733198D01*
X10307920Y-14733198D02*
X10269825Y-14733198D01*
X10269825Y-14733198D02*
X10250777Y-14742722D01*
X10250777Y-14742722D02*
X10241253Y-14752246D01*
X10241253Y-14752246D02*
X10231730Y-14771293D01*
X10231730Y-14771293D02*
X10231730Y-14809388D01*
X10231730Y-14809388D02*
X10241253Y-14828436D01*
X10241253Y-14828436D02*
X10250777Y-14837960D01*
X10250777Y-14837960D02*
X10269825Y-14847484D01*
X10269825Y-14847484D02*
X10307920Y-14847484D01*
X10307920Y-14847484D02*
X10326968Y-14837960D01*
X10326968Y-14837960D02*
X10336491Y-14828436D01*
X10336491Y-14828436D02*
X10346015Y-14809388D01*
X10346015Y-14809388D02*
X10346015Y-14771293D01*
X10346015Y-14771293D02*
X10336491Y-14752246D01*
X10336491Y-14752246D02*
X10326968Y-14742722D01*
X10326968Y-14742722D02*
X10307920Y-14733198D01*
X10584111Y-14847484D02*
X10584111Y-14647484D01*
X10669825Y-14847484D02*
X10669825Y-14742722D01*
X10669825Y-14742722D02*
X10660301Y-14723674D01*
X10660301Y-14723674D02*
X10641253Y-14714150D01*
X10641253Y-14714150D02*
X10612682Y-14714150D01*
X10612682Y-14714150D02*
X10593634Y-14723674D01*
X10593634Y-14723674D02*
X10584111Y-14733198D01*
X10793634Y-14847484D02*
X10774587Y-14837960D01*
X10774587Y-14837960D02*
X10765063Y-14828436D01*
X10765063Y-14828436D02*
X10755539Y-14809388D01*
X10755539Y-14809388D02*
X10755539Y-14752246D01*
X10755539Y-14752246D02*
X10765063Y-14733198D01*
X10765063Y-14733198D02*
X10774587Y-14723674D01*
X10774587Y-14723674D02*
X10793634Y-14714150D01*
X10793634Y-14714150D02*
X10822206Y-14714150D01*
X10822206Y-14714150D02*
X10841253Y-14723674D01*
X10841253Y-14723674D02*
X10850777Y-14733198D01*
X10850777Y-14733198D02*
X10860301Y-14752246D01*
X10860301Y-14752246D02*
X10860301Y-14809388D01*
X10860301Y-14809388D02*
X10850777Y-14828436D01*
X10850777Y-14828436D02*
X10841253Y-14837960D01*
X10841253Y-14837960D02*
X10822206Y-14847484D01*
X10822206Y-14847484D02*
X10793634Y-14847484D01*
X10974587Y-14847484D02*
X10955539Y-14837960D01*
X10955539Y-14837960D02*
X10946015Y-14818912D01*
X10946015Y-14818912D02*
X10946015Y-14647484D01*
X11126968Y-14837960D02*
X11107920Y-14847484D01*
X11107920Y-14847484D02*
X11069825Y-14847484D01*
X11069825Y-14847484D02*
X11050777Y-14837960D01*
X11050777Y-14837960D02*
X11041253Y-14818912D01*
X11041253Y-14818912D02*
X11041253Y-14742722D01*
X11041253Y-14742722D02*
X11050777Y-14723674D01*
X11050777Y-14723674D02*
X11069825Y-14714150D01*
X11069825Y-14714150D02*
X11107920Y-14714150D01*
X11107920Y-14714150D02*
X11126968Y-14723674D01*
X11126968Y-14723674D02*
X11136492Y-14742722D01*
X11136492Y-14742722D02*
X11136492Y-14761769D01*
X11136492Y-14761769D02*
X11041253Y-14780817D01*
X11212682Y-14837960D02*
X11231730Y-14847484D01*
X11231730Y-14847484D02*
X11269825Y-14847484D01*
X11269825Y-14847484D02*
X11288872Y-14837960D01*
X11288872Y-14837960D02*
X11298396Y-14818912D01*
X11298396Y-14818912D02*
X11298396Y-14809388D01*
X11298396Y-14809388D02*
X11288872Y-14790341D01*
X11288872Y-14790341D02*
X11269825Y-14780817D01*
X11269825Y-14780817D02*
X11241253Y-14780817D01*
X11241253Y-14780817D02*
X11222206Y-14771293D01*
X11222206Y-14771293D02*
X11212682Y-14752246D01*
X11212682Y-14752246D02*
X11212682Y-14742722D01*
X11212682Y-14742722D02*
X11222206Y-14723674D01*
X11222206Y-14723674D02*
X11241253Y-14714150D01*
X11241253Y-14714150D02*
X11269825Y-14714150D01*
X11269825Y-14714150D02*
X11288872Y-14723674D01*
X11365063Y-14923674D02*
X11374587Y-14914150D01*
X11374587Y-14914150D02*
X11393634Y-14885579D01*
X11393634Y-14885579D02*
X11403158Y-14866531D01*
X11403158Y-14866531D02*
X11412682Y-14837960D01*
X11412682Y-14837960D02*
X11422206Y-14790341D01*
X11422206Y-14790341D02*
X11422206Y-14752246D01*
X11422206Y-14752246D02*
X11412682Y-14704627D01*
X11412682Y-14704627D02*
X11403158Y-14676055D01*
X11403158Y-14676055D02*
X11393634Y-14657008D01*
X11393634Y-14657008D02*
X11374587Y-14628436D01*
X11374587Y-14628436D02*
X11365063Y-14618912D01*
M02*
