M48
; DRILL file {KiCad 8.0.6} date 2024-11-18T20:28:09+0100
; FORMAT={-:-/ absolute / inch / decimal}
; #@! TF.CreationDate,2024-11-18T20:28:09+01:00
; #@! TF.GenerationSoftware,Kicad,Pcbnew,8.0.6
; #@! TF.FileFunction,Plated,1,2,PTH
FMAT,2
INCH
; #@! TA.AperFunction,Plated,PTH,ComponentDrill
T1C0.0315
; #@! TA.AperFunction,Plated,PTH,ComponentDrill
T2C0.0402
; #@! TA.AperFunction,Plated,PTH,ComponentDrill
T3C0.0433
; #@! TA.AperFunction,Plated,PTH,ComponentDrill
T4C0.0512
; #@! TA.AperFunction,Plated,PTH,ComponentDrill
T5C0.0598
%
G90
G05
T1
X5.2539Y-4.0488
X5.2539Y-4.4488
X5.2756Y-4.8425
X5.4724Y-4.8425
X5.4921Y-4.0488
X5.4921Y-4.4488
X5.876Y-4.0585
X5.876Y-4.4585
X5.8917Y-4.8498
X6.0886Y-4.8498
X6.1024Y-4.0585
X6.1024Y-4.4585
X6.4114Y-4.0553
X6.4114Y-4.4553
X6.4331Y-4.8498
X6.6299Y-4.8498
X6.6535Y-4.0585
X6.6535Y-4.4585
X7.0079Y-4.0593
X7.0079Y-4.4593
X7.0079Y-4.8498
X7.2047Y-4.8498
X7.2244Y-4.0561
X7.2244Y-4.4561
X7.4998Y-4.0624
X7.4998Y-4.4624
X7.5156Y-4.8498
X7.7124Y-4.8498
X7.7262Y-4.0624
X7.7262Y-4.4624
T2
X4.1Y-3.4795
X4.1Y-3.5795
X4.1Y-3.6795
X4.1Y-3.7795
X4.1Y-3.8795
X4.1Y-3.9795
X4.1Y-4.0795
X4.1Y-4.1795
X4.1Y-4.2795
X4.1Y-4.3795
X4.1Y-4.4795
X4.1Y-4.5795
X4.1Y-4.6795
X4.1Y-4.7795
X4.1Y-4.8795
X5.0Y-3.4795
X5.0Y-3.5795
X5.0Y-3.6795
X5.0Y-3.7795
X5.0Y-3.8795
X5.0Y-3.9795
X5.0Y-4.0795
X5.0Y-4.1795
X5.0Y-4.2795
X5.0Y-4.3795
X5.0Y-4.4795
X5.0Y-4.5795
X5.0Y-4.6795
X5.0Y-4.7795
X5.0Y-4.8795
T3
X5.2559Y-3.5433
X5.2559Y-3.7205
X5.5118Y-3.5433
X5.5118Y-3.7205
X5.876Y-3.5467
X5.876Y-3.7238
X6.1319Y-3.5467
X6.1319Y-3.7238
X6.4173Y-3.5467
X6.4173Y-3.7238
X6.6732Y-3.5467
X6.6732Y-3.7238
X6.9685Y-3.5506
X6.9685Y-3.7278
X7.2244Y-3.5506
X7.2244Y-3.7278
X7.4762Y-3.5506
X7.4762Y-3.7278
X7.7321Y-3.5506
X7.7321Y-3.7278
T4
X4.3825Y-2.3031
X4.5793Y-2.3031
X4.7762Y-2.3031
X4.973Y-2.3031
X5.2953Y-3.0512
X5.4921Y-3.0512
X5.689Y-3.0512
X5.8858Y-3.0512
X6.0827Y-3.0512
X6.2795Y-3.0512
T5
X5.403Y-2.2959
X5.603Y-2.2959
X6.1541Y-2.2959
X6.3541Y-2.2959
X6.5541Y-2.2959
X7.04Y-2.3031
X7.24Y-2.3031
X7.44Y-2.3031
M30
