%TF.GenerationSoftware,KiCad,Pcbnew,8.0.6*%
%TF.CreationDate,2024-11-18T20:54:12+01:00*%
%TF.ProjectId,pcb,7063622e-6b69-4636-9164-5f7063625858,rev?*%
%TF.SameCoordinates,Original*%
%TF.FileFunction,Legend,Top*%
%TF.FilePolarity,Positive*%
%FSLAX46Y46*%
G04 Gerber Fmt 4.6, Leading zero omitted, Abs format (unit mm)*
G04 Created by KiCad (PCBNEW 8.0.6) date 2024-11-18 20:54:12*
%MOMM*%
%LPD*%
G01*
G04 APERTURE LIST*
%ADD10C,0.300000*%
%ADD11C,0.250000*%
%ADD12C,0.400000*%
%ADD13C,0.150000*%
%ADD14C,0.120000*%
%ADD15C,0.000000*%
%ADD16C,0.127000*%
%ADD17C,0.200000*%
G04 APERTURE END LIST*
D10*
X196300828Y-66945489D02*
X194800828Y-66945489D01*
X196300828Y-66088346D02*
X195443685Y-66731203D01*
X194800828Y-66088346D02*
X195657971Y-66945489D01*
X196300828Y-65231203D02*
X196229400Y-65374060D01*
X196229400Y-65374060D02*
X196086542Y-65445489D01*
X196086542Y-65445489D02*
X194800828Y-65445489D01*
X196300828Y-64445489D02*
X196229400Y-64588346D01*
X196229400Y-64588346D02*
X196157971Y-64659775D01*
X196157971Y-64659775D02*
X196015114Y-64731203D01*
X196015114Y-64731203D02*
X195586542Y-64731203D01*
X195586542Y-64731203D02*
X195443685Y-64659775D01*
X195443685Y-64659775D02*
X195372257Y-64588346D01*
X195372257Y-64588346D02*
X195300828Y-64445489D01*
X195300828Y-64445489D02*
X195300828Y-64231203D01*
X195300828Y-64231203D02*
X195372257Y-64088346D01*
X195372257Y-64088346D02*
X195443685Y-64016918D01*
X195443685Y-64016918D02*
X195586542Y-63945489D01*
X195586542Y-63945489D02*
X196015114Y-63945489D01*
X196015114Y-63945489D02*
X196157971Y-64016918D01*
X196157971Y-64016918D02*
X196229400Y-64088346D01*
X196229400Y-64088346D02*
X196300828Y-64231203D01*
X196300828Y-64231203D02*
X196300828Y-64445489D01*
X195300828Y-63302632D02*
X196800828Y-63302632D01*
X195372257Y-63302632D02*
X195300828Y-63159775D01*
X195300828Y-63159775D02*
X195300828Y-62874060D01*
X195300828Y-62874060D02*
X195372257Y-62731203D01*
X195372257Y-62731203D02*
X195443685Y-62659775D01*
X195443685Y-62659775D02*
X195586542Y-62588346D01*
X195586542Y-62588346D02*
X196015114Y-62588346D01*
X196015114Y-62588346D02*
X196157971Y-62659775D01*
X196157971Y-62659775D02*
X196229400Y-62731203D01*
X196229400Y-62731203D02*
X196300828Y-62874060D01*
X196300828Y-62874060D02*
X196300828Y-63159775D01*
X196300828Y-63159775D02*
X196229400Y-63302632D01*
X195300828Y-62159774D02*
X195300828Y-61588346D01*
X196300828Y-61945489D02*
X195015114Y-61945489D01*
X195015114Y-61945489D02*
X194872257Y-61874060D01*
X194872257Y-61874060D02*
X194800828Y-61731203D01*
X194800828Y-61731203D02*
X194800828Y-61588346D01*
X195729400Y-59945489D02*
X195729400Y-58802632D01*
X196300828Y-56945489D02*
X194800828Y-56945489D01*
X196300828Y-56088346D02*
X195443685Y-56731203D01*
X194800828Y-56088346D02*
X195657971Y-56945489D01*
X196300828Y-55231203D02*
X196229400Y-55374060D01*
X196229400Y-55374060D02*
X196086542Y-55445489D01*
X196086542Y-55445489D02*
X194800828Y-55445489D01*
X196300828Y-54445489D02*
X196229400Y-54588346D01*
X196229400Y-54588346D02*
X196157971Y-54659775D01*
X196157971Y-54659775D02*
X196015114Y-54731203D01*
X196015114Y-54731203D02*
X195586542Y-54731203D01*
X195586542Y-54731203D02*
X195443685Y-54659775D01*
X195443685Y-54659775D02*
X195372257Y-54588346D01*
X195372257Y-54588346D02*
X195300828Y-54445489D01*
X195300828Y-54445489D02*
X195300828Y-54231203D01*
X195300828Y-54231203D02*
X195372257Y-54088346D01*
X195372257Y-54088346D02*
X195443685Y-54016918D01*
X195443685Y-54016918D02*
X195586542Y-53945489D01*
X195586542Y-53945489D02*
X196015114Y-53945489D01*
X196015114Y-53945489D02*
X196157971Y-54016918D01*
X196157971Y-54016918D02*
X196229400Y-54088346D01*
X196229400Y-54088346D02*
X196300828Y-54231203D01*
X196300828Y-54231203D02*
X196300828Y-54445489D01*
X195300828Y-53302632D02*
X196800828Y-53302632D01*
X195372257Y-53302632D02*
X195300828Y-53159775D01*
X195300828Y-53159775D02*
X195300828Y-52874060D01*
X195300828Y-52874060D02*
X195372257Y-52731203D01*
X195372257Y-52731203D02*
X195443685Y-52659775D01*
X195443685Y-52659775D02*
X195586542Y-52588346D01*
X195586542Y-52588346D02*
X196015114Y-52588346D01*
X196015114Y-52588346D02*
X196157971Y-52659775D01*
X196157971Y-52659775D02*
X196229400Y-52731203D01*
X196229400Y-52731203D02*
X196300828Y-52874060D01*
X196300828Y-52874060D02*
X196300828Y-53159775D01*
X196300828Y-53159775D02*
X196229400Y-53302632D01*
X195300828Y-52159774D02*
X195300828Y-51588346D01*
X196300828Y-51945489D02*
X195015114Y-51945489D01*
X195015114Y-51945489D02*
X194872257Y-51874060D01*
X194872257Y-51874060D02*
X194800828Y-51731203D01*
X194800828Y-51731203D02*
X194800828Y-51588346D01*
D11*
X162235901Y-100360809D02*
X162378758Y-100408428D01*
X162378758Y-100408428D02*
X162426377Y-100456047D01*
X162426377Y-100456047D02*
X162473996Y-100551285D01*
X162473996Y-100551285D02*
X162473996Y-100694142D01*
X162473996Y-100694142D02*
X162426377Y-100789380D01*
X162426377Y-100789380D02*
X162378758Y-100837000D01*
X162378758Y-100837000D02*
X162283520Y-100884619D01*
X162283520Y-100884619D02*
X161902568Y-100884619D01*
X161902568Y-100884619D02*
X161902568Y-99884619D01*
X161902568Y-99884619D02*
X162235901Y-99884619D01*
X162235901Y-99884619D02*
X162331139Y-99932238D01*
X162331139Y-99932238D02*
X162378758Y-99979857D01*
X162378758Y-99979857D02*
X162426377Y-100075095D01*
X162426377Y-100075095D02*
X162426377Y-100170333D01*
X162426377Y-100170333D02*
X162378758Y-100265571D01*
X162378758Y-100265571D02*
X162331139Y-100313190D01*
X162331139Y-100313190D02*
X162235901Y-100360809D01*
X162235901Y-100360809D02*
X161902568Y-100360809D01*
X163331139Y-100217952D02*
X163331139Y-100884619D01*
X162902568Y-100217952D02*
X162902568Y-100741761D01*
X162902568Y-100741761D02*
X162950187Y-100837000D01*
X162950187Y-100837000D02*
X163045425Y-100884619D01*
X163045425Y-100884619D02*
X163188282Y-100884619D01*
X163188282Y-100884619D02*
X163283520Y-100837000D01*
X163283520Y-100837000D02*
X163331139Y-100789380D01*
X163664473Y-100217952D02*
X164045425Y-100217952D01*
X163807330Y-99884619D02*
X163807330Y-100741761D01*
X163807330Y-100741761D02*
X163854949Y-100837000D01*
X163854949Y-100837000D02*
X163950187Y-100884619D01*
X163950187Y-100884619D02*
X164045425Y-100884619D01*
X164235902Y-100217952D02*
X164616854Y-100217952D01*
X164378759Y-99884619D02*
X164378759Y-100741761D01*
X164378759Y-100741761D02*
X164426378Y-100837000D01*
X164426378Y-100837000D02*
X164521616Y-100884619D01*
X164521616Y-100884619D02*
X164616854Y-100884619D01*
X165093045Y-100884619D02*
X164997807Y-100837000D01*
X164997807Y-100837000D02*
X164950188Y-100789380D01*
X164950188Y-100789380D02*
X164902569Y-100694142D01*
X164902569Y-100694142D02*
X164902569Y-100408428D01*
X164902569Y-100408428D02*
X164950188Y-100313190D01*
X164950188Y-100313190D02*
X164997807Y-100265571D01*
X164997807Y-100265571D02*
X165093045Y-100217952D01*
X165093045Y-100217952D02*
X165235902Y-100217952D01*
X165235902Y-100217952D02*
X165331140Y-100265571D01*
X165331140Y-100265571D02*
X165378759Y-100313190D01*
X165378759Y-100313190D02*
X165426378Y-100408428D01*
X165426378Y-100408428D02*
X165426378Y-100694142D01*
X165426378Y-100694142D02*
X165378759Y-100789380D01*
X165378759Y-100789380D02*
X165331140Y-100837000D01*
X165331140Y-100837000D02*
X165235902Y-100884619D01*
X165235902Y-100884619D02*
X165093045Y-100884619D01*
X165854950Y-100217952D02*
X165854950Y-100884619D01*
X165854950Y-100313190D02*
X165902569Y-100265571D01*
X165902569Y-100265571D02*
X165997807Y-100217952D01*
X165997807Y-100217952D02*
X166140664Y-100217952D01*
X166140664Y-100217952D02*
X166235902Y-100265571D01*
X166235902Y-100265571D02*
X166283521Y-100360809D01*
X166283521Y-100360809D02*
X166283521Y-100884619D01*
X167521617Y-100884619D02*
X167521617Y-99884619D01*
X167521617Y-99884619D02*
X167759712Y-99884619D01*
X167759712Y-99884619D02*
X167902569Y-99932238D01*
X167902569Y-99932238D02*
X167997807Y-100027476D01*
X167997807Y-100027476D02*
X168045426Y-100122714D01*
X168045426Y-100122714D02*
X168093045Y-100313190D01*
X168093045Y-100313190D02*
X168093045Y-100456047D01*
X168093045Y-100456047D02*
X168045426Y-100646523D01*
X168045426Y-100646523D02*
X167997807Y-100741761D01*
X167997807Y-100741761D02*
X167902569Y-100837000D01*
X167902569Y-100837000D02*
X167759712Y-100884619D01*
X167759712Y-100884619D02*
X167521617Y-100884619D01*
X168902569Y-100837000D02*
X168807331Y-100884619D01*
X168807331Y-100884619D02*
X168616855Y-100884619D01*
X168616855Y-100884619D02*
X168521617Y-100837000D01*
X168521617Y-100837000D02*
X168473998Y-100741761D01*
X168473998Y-100741761D02*
X168473998Y-100360809D01*
X168473998Y-100360809D02*
X168521617Y-100265571D01*
X168521617Y-100265571D02*
X168616855Y-100217952D01*
X168616855Y-100217952D02*
X168807331Y-100217952D01*
X168807331Y-100217952D02*
X168902569Y-100265571D01*
X168902569Y-100265571D02*
X168950188Y-100360809D01*
X168950188Y-100360809D02*
X168950188Y-100456047D01*
X168950188Y-100456047D02*
X168473998Y-100551285D01*
X169521617Y-100884619D02*
X169426379Y-100837000D01*
X169426379Y-100837000D02*
X169378760Y-100741761D01*
X169378760Y-100741761D02*
X169378760Y-99884619D01*
X170283522Y-100837000D02*
X170188284Y-100884619D01*
X170188284Y-100884619D02*
X169997808Y-100884619D01*
X169997808Y-100884619D02*
X169902570Y-100837000D01*
X169902570Y-100837000D02*
X169854951Y-100741761D01*
X169854951Y-100741761D02*
X169854951Y-100360809D01*
X169854951Y-100360809D02*
X169902570Y-100265571D01*
X169902570Y-100265571D02*
X169997808Y-100217952D01*
X169997808Y-100217952D02*
X170188284Y-100217952D01*
X170188284Y-100217952D02*
X170283522Y-100265571D01*
X170283522Y-100265571D02*
X170331141Y-100360809D01*
X170331141Y-100360809D02*
X170331141Y-100456047D01*
X170331141Y-100456047D02*
X169854951Y-100551285D01*
X170616856Y-100217952D02*
X170997808Y-100217952D01*
X170759713Y-99884619D02*
X170759713Y-100741761D01*
X170759713Y-100741761D02*
X170807332Y-100837000D01*
X170807332Y-100837000D02*
X170902570Y-100884619D01*
X170902570Y-100884619D02*
X170997808Y-100884619D01*
X171712094Y-100837000D02*
X171616856Y-100884619D01*
X171616856Y-100884619D02*
X171426380Y-100884619D01*
X171426380Y-100884619D02*
X171331142Y-100837000D01*
X171331142Y-100837000D02*
X171283523Y-100741761D01*
X171283523Y-100741761D02*
X171283523Y-100360809D01*
X171283523Y-100360809D02*
X171331142Y-100265571D01*
X171331142Y-100265571D02*
X171426380Y-100217952D01*
X171426380Y-100217952D02*
X171616856Y-100217952D01*
X171616856Y-100217952D02*
X171712094Y-100265571D01*
X171712094Y-100265571D02*
X171759713Y-100360809D01*
X171759713Y-100360809D02*
X171759713Y-100456047D01*
X171759713Y-100456047D02*
X171283523Y-100551285D01*
D12*
X136054347Y-65549438D02*
X136054347Y-63549438D01*
X136054347Y-63549438D02*
X136816252Y-63549438D01*
X136816252Y-63549438D02*
X137006728Y-63644676D01*
X137006728Y-63644676D02*
X137101966Y-63739914D01*
X137101966Y-63739914D02*
X137197204Y-63930390D01*
X137197204Y-63930390D02*
X137197204Y-64216104D01*
X137197204Y-64216104D02*
X137101966Y-64406580D01*
X137101966Y-64406580D02*
X137006728Y-64501819D01*
X137006728Y-64501819D02*
X136816252Y-64597057D01*
X136816252Y-64597057D02*
X136054347Y-64597057D01*
X138340061Y-65549438D02*
X138149585Y-65454200D01*
X138149585Y-65454200D02*
X138054347Y-65358961D01*
X138054347Y-65358961D02*
X137959109Y-65168485D01*
X137959109Y-65168485D02*
X137959109Y-64597057D01*
X137959109Y-64597057D02*
X138054347Y-64406580D01*
X138054347Y-64406580D02*
X138149585Y-64311342D01*
X138149585Y-64311342D02*
X138340061Y-64216104D01*
X138340061Y-64216104D02*
X138625776Y-64216104D01*
X138625776Y-64216104D02*
X138816252Y-64311342D01*
X138816252Y-64311342D02*
X138911490Y-64406580D01*
X138911490Y-64406580D02*
X139006728Y-64597057D01*
X139006728Y-64597057D02*
X139006728Y-65168485D01*
X139006728Y-65168485D02*
X138911490Y-65358961D01*
X138911490Y-65358961D02*
X138816252Y-65454200D01*
X138816252Y-65454200D02*
X138625776Y-65549438D01*
X138625776Y-65549438D02*
X138340061Y-65549438D01*
X139673395Y-64216104D02*
X140054347Y-65549438D01*
X140054347Y-65549438D02*
X140435300Y-64597057D01*
X140435300Y-64597057D02*
X140816252Y-65549438D01*
X140816252Y-65549438D02*
X141197204Y-64216104D01*
X142721014Y-65454200D02*
X142530538Y-65549438D01*
X142530538Y-65549438D02*
X142149585Y-65549438D01*
X142149585Y-65549438D02*
X141959109Y-65454200D01*
X141959109Y-65454200D02*
X141863871Y-65263723D01*
X141863871Y-65263723D02*
X141863871Y-64501819D01*
X141863871Y-64501819D02*
X141959109Y-64311342D01*
X141959109Y-64311342D02*
X142149585Y-64216104D01*
X142149585Y-64216104D02*
X142530538Y-64216104D01*
X142530538Y-64216104D02*
X142721014Y-64311342D01*
X142721014Y-64311342D02*
X142816252Y-64501819D01*
X142816252Y-64501819D02*
X142816252Y-64692295D01*
X142816252Y-64692295D02*
X141863871Y-64882771D01*
X143673395Y-65549438D02*
X143673395Y-64216104D01*
X143673395Y-64597057D02*
X143768633Y-64406580D01*
X143768633Y-64406580D02*
X143863871Y-64311342D01*
X143863871Y-64311342D02*
X144054347Y-64216104D01*
X144054347Y-64216104D02*
X144244824Y-64216104D01*
X141644109Y-70639200D02*
X141929823Y-70734438D01*
X141929823Y-70734438D02*
X142406014Y-70734438D01*
X142406014Y-70734438D02*
X142596490Y-70639200D01*
X142596490Y-70639200D02*
X142691728Y-70543961D01*
X142691728Y-70543961D02*
X142786966Y-70353485D01*
X142786966Y-70353485D02*
X142786966Y-70163009D01*
X142786966Y-70163009D02*
X142691728Y-69972533D01*
X142691728Y-69972533D02*
X142596490Y-69877295D01*
X142596490Y-69877295D02*
X142406014Y-69782057D01*
X142406014Y-69782057D02*
X142025061Y-69686819D01*
X142025061Y-69686819D02*
X141834585Y-69591580D01*
X141834585Y-69591580D02*
X141739347Y-69496342D01*
X141739347Y-69496342D02*
X141644109Y-69305866D01*
X141644109Y-69305866D02*
X141644109Y-69115390D01*
X141644109Y-69115390D02*
X141739347Y-68924914D01*
X141739347Y-68924914D02*
X141834585Y-68829676D01*
X141834585Y-68829676D02*
X142025061Y-68734438D01*
X142025061Y-68734438D02*
X142501252Y-68734438D01*
X142501252Y-68734438D02*
X142786966Y-68829676D01*
X143644109Y-70734438D02*
X143644109Y-68734438D01*
X143644109Y-68734438D02*
X144120299Y-68734438D01*
X144120299Y-68734438D02*
X144406014Y-68829676D01*
X144406014Y-68829676D02*
X144596490Y-69020152D01*
X144596490Y-69020152D02*
X144691728Y-69210628D01*
X144691728Y-69210628D02*
X144786966Y-69591580D01*
X144786966Y-69591580D02*
X144786966Y-69877295D01*
X144786966Y-69877295D02*
X144691728Y-70258247D01*
X144691728Y-70258247D02*
X144596490Y-70448723D01*
X144596490Y-70448723D02*
X144406014Y-70639200D01*
X144406014Y-70639200D02*
X144120299Y-70734438D01*
X144120299Y-70734438D02*
X143644109Y-70734438D01*
X148310776Y-70543961D02*
X148215538Y-70639200D01*
X148215538Y-70639200D02*
X147929824Y-70734438D01*
X147929824Y-70734438D02*
X147739348Y-70734438D01*
X147739348Y-70734438D02*
X147453633Y-70639200D01*
X147453633Y-70639200D02*
X147263157Y-70448723D01*
X147263157Y-70448723D02*
X147167919Y-70258247D01*
X147167919Y-70258247D02*
X147072681Y-69877295D01*
X147072681Y-69877295D02*
X147072681Y-69591580D01*
X147072681Y-69591580D02*
X147167919Y-69210628D01*
X147167919Y-69210628D02*
X147263157Y-69020152D01*
X147263157Y-69020152D02*
X147453633Y-68829676D01*
X147453633Y-68829676D02*
X147739348Y-68734438D01*
X147739348Y-68734438D02*
X147929824Y-68734438D01*
X147929824Y-68734438D02*
X148215538Y-68829676D01*
X148215538Y-68829676D02*
X148310776Y-68924914D01*
X150025062Y-70734438D02*
X150025062Y-69686819D01*
X150025062Y-69686819D02*
X149929824Y-69496342D01*
X149929824Y-69496342D02*
X149739348Y-69401104D01*
X149739348Y-69401104D02*
X149358395Y-69401104D01*
X149358395Y-69401104D02*
X149167919Y-69496342D01*
X150025062Y-70639200D02*
X149834586Y-70734438D01*
X149834586Y-70734438D02*
X149358395Y-70734438D01*
X149358395Y-70734438D02*
X149167919Y-70639200D01*
X149167919Y-70639200D02*
X149072681Y-70448723D01*
X149072681Y-70448723D02*
X149072681Y-70258247D01*
X149072681Y-70258247D02*
X149167919Y-70067771D01*
X149167919Y-70067771D02*
X149358395Y-69972533D01*
X149358395Y-69972533D02*
X149834586Y-69972533D01*
X149834586Y-69972533D02*
X150025062Y-69877295D01*
X150977443Y-70734438D02*
X150977443Y-69401104D01*
X150977443Y-69782057D02*
X151072681Y-69591580D01*
X151072681Y-69591580D02*
X151167919Y-69496342D01*
X151167919Y-69496342D02*
X151358395Y-69401104D01*
X151358395Y-69401104D02*
X151548872Y-69401104D01*
X153072681Y-70734438D02*
X153072681Y-68734438D01*
X153072681Y-70639200D02*
X152882205Y-70734438D01*
X152882205Y-70734438D02*
X152501252Y-70734438D01*
X152501252Y-70734438D02*
X152310776Y-70639200D01*
X152310776Y-70639200D02*
X152215538Y-70543961D01*
X152215538Y-70543961D02*
X152120300Y-70353485D01*
X152120300Y-70353485D02*
X152120300Y-69782057D01*
X152120300Y-69782057D02*
X152215538Y-69591580D01*
X152215538Y-69591580D02*
X152310776Y-69496342D01*
X152310776Y-69496342D02*
X152501252Y-69401104D01*
X152501252Y-69401104D02*
X152882205Y-69401104D01*
X152882205Y-69401104D02*
X153072681Y-69496342D01*
D11*
X185378758Y-70864619D02*
X184902568Y-70864619D01*
X184902568Y-70864619D02*
X184902568Y-69864619D01*
X185712092Y-70340809D02*
X186045425Y-70340809D01*
X186188282Y-70864619D02*
X185712092Y-70864619D01*
X185712092Y-70864619D02*
X185712092Y-69864619D01*
X185712092Y-69864619D02*
X186188282Y-69864619D01*
X186616854Y-70864619D02*
X186616854Y-69864619D01*
X186616854Y-69864619D02*
X186854949Y-69864619D01*
X186854949Y-69864619D02*
X186997806Y-69912238D01*
X186997806Y-69912238D02*
X187093044Y-70007476D01*
X187093044Y-70007476D02*
X187140663Y-70102714D01*
X187140663Y-70102714D02*
X187188282Y-70293190D01*
X187188282Y-70293190D02*
X187188282Y-70436047D01*
X187188282Y-70436047D02*
X187140663Y-70626523D01*
X187140663Y-70626523D02*
X187093044Y-70721761D01*
X187093044Y-70721761D02*
X186997806Y-70817000D01*
X186997806Y-70817000D02*
X186854949Y-70864619D01*
X186854949Y-70864619D02*
X186616854Y-70864619D01*
X188331140Y-70817000D02*
X188473997Y-70864619D01*
X188473997Y-70864619D02*
X188712092Y-70864619D01*
X188712092Y-70864619D02*
X188807330Y-70817000D01*
X188807330Y-70817000D02*
X188854949Y-70769380D01*
X188854949Y-70769380D02*
X188902568Y-70674142D01*
X188902568Y-70674142D02*
X188902568Y-70578904D01*
X188902568Y-70578904D02*
X188854949Y-70483666D01*
X188854949Y-70483666D02*
X188807330Y-70436047D01*
X188807330Y-70436047D02*
X188712092Y-70388428D01*
X188712092Y-70388428D02*
X188521616Y-70340809D01*
X188521616Y-70340809D02*
X188426378Y-70293190D01*
X188426378Y-70293190D02*
X188378759Y-70245571D01*
X188378759Y-70245571D02*
X188331140Y-70150333D01*
X188331140Y-70150333D02*
X188331140Y-70055095D01*
X188331140Y-70055095D02*
X188378759Y-69959857D01*
X188378759Y-69959857D02*
X188426378Y-69912238D01*
X188426378Y-69912238D02*
X188521616Y-69864619D01*
X188521616Y-69864619D02*
X188759711Y-69864619D01*
X188759711Y-69864619D02*
X188902568Y-69912238D01*
X189188283Y-70197952D02*
X189569235Y-70197952D01*
X189331140Y-69864619D02*
X189331140Y-70721761D01*
X189331140Y-70721761D02*
X189378759Y-70817000D01*
X189378759Y-70817000D02*
X189473997Y-70864619D01*
X189473997Y-70864619D02*
X189569235Y-70864619D01*
X190331140Y-70864619D02*
X190331140Y-70340809D01*
X190331140Y-70340809D02*
X190283521Y-70245571D01*
X190283521Y-70245571D02*
X190188283Y-70197952D01*
X190188283Y-70197952D02*
X189997807Y-70197952D01*
X189997807Y-70197952D02*
X189902569Y-70245571D01*
X190331140Y-70817000D02*
X190235902Y-70864619D01*
X190235902Y-70864619D02*
X189997807Y-70864619D01*
X189997807Y-70864619D02*
X189902569Y-70817000D01*
X189902569Y-70817000D02*
X189854950Y-70721761D01*
X189854950Y-70721761D02*
X189854950Y-70626523D01*
X189854950Y-70626523D02*
X189902569Y-70531285D01*
X189902569Y-70531285D02*
X189997807Y-70483666D01*
X189997807Y-70483666D02*
X190235902Y-70483666D01*
X190235902Y-70483666D02*
X190331140Y-70436047D01*
X190664474Y-70197952D02*
X191045426Y-70197952D01*
X190807331Y-69864619D02*
X190807331Y-70721761D01*
X190807331Y-70721761D02*
X190854950Y-70817000D01*
X190854950Y-70817000D02*
X190950188Y-70864619D01*
X190950188Y-70864619D02*
X191045426Y-70864619D01*
X191807331Y-70197952D02*
X191807331Y-70864619D01*
X191378760Y-70197952D02*
X191378760Y-70721761D01*
X191378760Y-70721761D02*
X191426379Y-70817000D01*
X191426379Y-70817000D02*
X191521617Y-70864619D01*
X191521617Y-70864619D02*
X191664474Y-70864619D01*
X191664474Y-70864619D02*
X191759712Y-70817000D01*
X191759712Y-70817000D02*
X191807331Y-70769380D01*
X192235903Y-70817000D02*
X192331141Y-70864619D01*
X192331141Y-70864619D02*
X192521617Y-70864619D01*
X192521617Y-70864619D02*
X192616855Y-70817000D01*
X192616855Y-70817000D02*
X192664474Y-70721761D01*
X192664474Y-70721761D02*
X192664474Y-70674142D01*
X192664474Y-70674142D02*
X192616855Y-70578904D01*
X192616855Y-70578904D02*
X192521617Y-70531285D01*
X192521617Y-70531285D02*
X192378760Y-70531285D01*
X192378760Y-70531285D02*
X192283522Y-70483666D01*
X192283522Y-70483666D02*
X192235903Y-70388428D01*
X192235903Y-70388428D02*
X192235903Y-70340809D01*
X192235903Y-70340809D02*
X192283522Y-70245571D01*
X192283522Y-70245571D02*
X192378760Y-70197952D01*
X192378760Y-70197952D02*
X192521617Y-70197952D01*
X192521617Y-70197952D02*
X192616855Y-70245571D01*
X133085901Y-100175809D02*
X133228758Y-100223428D01*
X133228758Y-100223428D02*
X133276377Y-100271047D01*
X133276377Y-100271047D02*
X133323996Y-100366285D01*
X133323996Y-100366285D02*
X133323996Y-100509142D01*
X133323996Y-100509142D02*
X133276377Y-100604380D01*
X133276377Y-100604380D02*
X133228758Y-100652000D01*
X133228758Y-100652000D02*
X133133520Y-100699619D01*
X133133520Y-100699619D02*
X132752568Y-100699619D01*
X132752568Y-100699619D02*
X132752568Y-99699619D01*
X132752568Y-99699619D02*
X133085901Y-99699619D01*
X133085901Y-99699619D02*
X133181139Y-99747238D01*
X133181139Y-99747238D02*
X133228758Y-99794857D01*
X133228758Y-99794857D02*
X133276377Y-99890095D01*
X133276377Y-99890095D02*
X133276377Y-99985333D01*
X133276377Y-99985333D02*
X133228758Y-100080571D01*
X133228758Y-100080571D02*
X133181139Y-100128190D01*
X133181139Y-100128190D02*
X133085901Y-100175809D01*
X133085901Y-100175809D02*
X132752568Y-100175809D01*
X134181139Y-100032952D02*
X134181139Y-100699619D01*
X133752568Y-100032952D02*
X133752568Y-100556761D01*
X133752568Y-100556761D02*
X133800187Y-100652000D01*
X133800187Y-100652000D02*
X133895425Y-100699619D01*
X133895425Y-100699619D02*
X134038282Y-100699619D01*
X134038282Y-100699619D02*
X134133520Y-100652000D01*
X134133520Y-100652000D02*
X134181139Y-100604380D01*
X134514473Y-100032952D02*
X134895425Y-100032952D01*
X134657330Y-99699619D02*
X134657330Y-100556761D01*
X134657330Y-100556761D02*
X134704949Y-100652000D01*
X134704949Y-100652000D02*
X134800187Y-100699619D01*
X134800187Y-100699619D02*
X134895425Y-100699619D01*
X135085902Y-100032952D02*
X135466854Y-100032952D01*
X135228759Y-99699619D02*
X135228759Y-100556761D01*
X135228759Y-100556761D02*
X135276378Y-100652000D01*
X135276378Y-100652000D02*
X135371616Y-100699619D01*
X135371616Y-100699619D02*
X135466854Y-100699619D01*
X135943045Y-100699619D02*
X135847807Y-100652000D01*
X135847807Y-100652000D02*
X135800188Y-100604380D01*
X135800188Y-100604380D02*
X135752569Y-100509142D01*
X135752569Y-100509142D02*
X135752569Y-100223428D01*
X135752569Y-100223428D02*
X135800188Y-100128190D01*
X135800188Y-100128190D02*
X135847807Y-100080571D01*
X135847807Y-100080571D02*
X135943045Y-100032952D01*
X135943045Y-100032952D02*
X136085902Y-100032952D01*
X136085902Y-100032952D02*
X136181140Y-100080571D01*
X136181140Y-100080571D02*
X136228759Y-100128190D01*
X136228759Y-100128190D02*
X136276378Y-100223428D01*
X136276378Y-100223428D02*
X136276378Y-100509142D01*
X136276378Y-100509142D02*
X136228759Y-100604380D01*
X136228759Y-100604380D02*
X136181140Y-100652000D01*
X136181140Y-100652000D02*
X136085902Y-100699619D01*
X136085902Y-100699619D02*
X135943045Y-100699619D01*
X136704950Y-100032952D02*
X136704950Y-100699619D01*
X136704950Y-100128190D02*
X136752569Y-100080571D01*
X136752569Y-100080571D02*
X136847807Y-100032952D01*
X136847807Y-100032952D02*
X136990664Y-100032952D01*
X136990664Y-100032952D02*
X137085902Y-100080571D01*
X137085902Y-100080571D02*
X137133521Y-100175809D01*
X137133521Y-100175809D02*
X137133521Y-100699619D01*
X138371617Y-100699619D02*
X138371617Y-99699619D01*
X138371617Y-99699619D02*
X138752569Y-99699619D01*
X138752569Y-99699619D02*
X138847807Y-99747238D01*
X138847807Y-99747238D02*
X138895426Y-99794857D01*
X138895426Y-99794857D02*
X138943045Y-99890095D01*
X138943045Y-99890095D02*
X138943045Y-100032952D01*
X138943045Y-100032952D02*
X138895426Y-100128190D01*
X138895426Y-100128190D02*
X138847807Y-100175809D01*
X138847807Y-100175809D02*
X138752569Y-100223428D01*
X138752569Y-100223428D02*
X138371617Y-100223428D01*
X139514474Y-100699619D02*
X139419236Y-100652000D01*
X139419236Y-100652000D02*
X139371617Y-100556761D01*
X139371617Y-100556761D02*
X139371617Y-99699619D01*
X140323998Y-100699619D02*
X140323998Y-100175809D01*
X140323998Y-100175809D02*
X140276379Y-100080571D01*
X140276379Y-100080571D02*
X140181141Y-100032952D01*
X140181141Y-100032952D02*
X139990665Y-100032952D01*
X139990665Y-100032952D02*
X139895427Y-100080571D01*
X140323998Y-100652000D02*
X140228760Y-100699619D01*
X140228760Y-100699619D02*
X139990665Y-100699619D01*
X139990665Y-100699619D02*
X139895427Y-100652000D01*
X139895427Y-100652000D02*
X139847808Y-100556761D01*
X139847808Y-100556761D02*
X139847808Y-100461523D01*
X139847808Y-100461523D02*
X139895427Y-100366285D01*
X139895427Y-100366285D02*
X139990665Y-100318666D01*
X139990665Y-100318666D02*
X140228760Y-100318666D01*
X140228760Y-100318666D02*
X140323998Y-100271047D01*
X140704951Y-100032952D02*
X140943046Y-100699619D01*
X141181141Y-100032952D02*
X140943046Y-100699619D01*
X140943046Y-100699619D02*
X140847808Y-100937714D01*
X140847808Y-100937714D02*
X140800189Y-100985333D01*
X140800189Y-100985333D02*
X140704951Y-101032952D01*
X171878758Y-70864619D02*
X171402568Y-70864619D01*
X171402568Y-70864619D02*
X171402568Y-69864619D01*
X172212092Y-70340809D02*
X172545425Y-70340809D01*
X172688282Y-70864619D02*
X172212092Y-70864619D01*
X172212092Y-70864619D02*
X172212092Y-69864619D01*
X172212092Y-69864619D02*
X172688282Y-69864619D01*
X173116854Y-70864619D02*
X173116854Y-69864619D01*
X173116854Y-69864619D02*
X173354949Y-69864619D01*
X173354949Y-69864619D02*
X173497806Y-69912238D01*
X173497806Y-69912238D02*
X173593044Y-70007476D01*
X173593044Y-70007476D02*
X173640663Y-70102714D01*
X173640663Y-70102714D02*
X173688282Y-70293190D01*
X173688282Y-70293190D02*
X173688282Y-70436047D01*
X173688282Y-70436047D02*
X173640663Y-70626523D01*
X173640663Y-70626523D02*
X173593044Y-70721761D01*
X173593044Y-70721761D02*
X173497806Y-70817000D01*
X173497806Y-70817000D02*
X173354949Y-70864619D01*
X173354949Y-70864619D02*
X173116854Y-70864619D01*
X174831140Y-70817000D02*
X174973997Y-70864619D01*
X174973997Y-70864619D02*
X175212092Y-70864619D01*
X175212092Y-70864619D02*
X175307330Y-70817000D01*
X175307330Y-70817000D02*
X175354949Y-70769380D01*
X175354949Y-70769380D02*
X175402568Y-70674142D01*
X175402568Y-70674142D02*
X175402568Y-70578904D01*
X175402568Y-70578904D02*
X175354949Y-70483666D01*
X175354949Y-70483666D02*
X175307330Y-70436047D01*
X175307330Y-70436047D02*
X175212092Y-70388428D01*
X175212092Y-70388428D02*
X175021616Y-70340809D01*
X175021616Y-70340809D02*
X174926378Y-70293190D01*
X174926378Y-70293190D02*
X174878759Y-70245571D01*
X174878759Y-70245571D02*
X174831140Y-70150333D01*
X174831140Y-70150333D02*
X174831140Y-70055095D01*
X174831140Y-70055095D02*
X174878759Y-69959857D01*
X174878759Y-69959857D02*
X174926378Y-69912238D01*
X174926378Y-69912238D02*
X175021616Y-69864619D01*
X175021616Y-69864619D02*
X175259711Y-69864619D01*
X175259711Y-69864619D02*
X175402568Y-69912238D01*
X175688283Y-70197952D02*
X176069235Y-70197952D01*
X175831140Y-69864619D02*
X175831140Y-70721761D01*
X175831140Y-70721761D02*
X175878759Y-70817000D01*
X175878759Y-70817000D02*
X175973997Y-70864619D01*
X175973997Y-70864619D02*
X176069235Y-70864619D01*
X176831140Y-70864619D02*
X176831140Y-70340809D01*
X176831140Y-70340809D02*
X176783521Y-70245571D01*
X176783521Y-70245571D02*
X176688283Y-70197952D01*
X176688283Y-70197952D02*
X176497807Y-70197952D01*
X176497807Y-70197952D02*
X176402569Y-70245571D01*
X176831140Y-70817000D02*
X176735902Y-70864619D01*
X176735902Y-70864619D02*
X176497807Y-70864619D01*
X176497807Y-70864619D02*
X176402569Y-70817000D01*
X176402569Y-70817000D02*
X176354950Y-70721761D01*
X176354950Y-70721761D02*
X176354950Y-70626523D01*
X176354950Y-70626523D02*
X176402569Y-70531285D01*
X176402569Y-70531285D02*
X176497807Y-70483666D01*
X176497807Y-70483666D02*
X176735902Y-70483666D01*
X176735902Y-70483666D02*
X176831140Y-70436047D01*
X177164474Y-70197952D02*
X177545426Y-70197952D01*
X177307331Y-69864619D02*
X177307331Y-70721761D01*
X177307331Y-70721761D02*
X177354950Y-70817000D01*
X177354950Y-70817000D02*
X177450188Y-70864619D01*
X177450188Y-70864619D02*
X177545426Y-70864619D01*
X178307331Y-70197952D02*
X178307331Y-70864619D01*
X177878760Y-70197952D02*
X177878760Y-70721761D01*
X177878760Y-70721761D02*
X177926379Y-70817000D01*
X177926379Y-70817000D02*
X178021617Y-70864619D01*
X178021617Y-70864619D02*
X178164474Y-70864619D01*
X178164474Y-70864619D02*
X178259712Y-70817000D01*
X178259712Y-70817000D02*
X178307331Y-70769380D01*
X178735903Y-70817000D02*
X178831141Y-70864619D01*
X178831141Y-70864619D02*
X179021617Y-70864619D01*
X179021617Y-70864619D02*
X179116855Y-70817000D01*
X179116855Y-70817000D02*
X179164474Y-70721761D01*
X179164474Y-70721761D02*
X179164474Y-70674142D01*
X179164474Y-70674142D02*
X179116855Y-70578904D01*
X179116855Y-70578904D02*
X179021617Y-70531285D01*
X179021617Y-70531285D02*
X178878760Y-70531285D01*
X178878760Y-70531285D02*
X178783522Y-70483666D01*
X178783522Y-70483666D02*
X178735903Y-70388428D01*
X178735903Y-70388428D02*
X178735903Y-70340809D01*
X178735903Y-70340809D02*
X178783522Y-70245571D01*
X178783522Y-70245571D02*
X178878760Y-70197952D01*
X178878760Y-70197952D02*
X179021617Y-70197952D01*
X179021617Y-70197952D02*
X179116855Y-70245571D01*
X147985901Y-100360809D02*
X148128758Y-100408428D01*
X148128758Y-100408428D02*
X148176377Y-100456047D01*
X148176377Y-100456047D02*
X148223996Y-100551285D01*
X148223996Y-100551285D02*
X148223996Y-100694142D01*
X148223996Y-100694142D02*
X148176377Y-100789380D01*
X148176377Y-100789380D02*
X148128758Y-100837000D01*
X148128758Y-100837000D02*
X148033520Y-100884619D01*
X148033520Y-100884619D02*
X147652568Y-100884619D01*
X147652568Y-100884619D02*
X147652568Y-99884619D01*
X147652568Y-99884619D02*
X147985901Y-99884619D01*
X147985901Y-99884619D02*
X148081139Y-99932238D01*
X148081139Y-99932238D02*
X148128758Y-99979857D01*
X148128758Y-99979857D02*
X148176377Y-100075095D01*
X148176377Y-100075095D02*
X148176377Y-100170333D01*
X148176377Y-100170333D02*
X148128758Y-100265571D01*
X148128758Y-100265571D02*
X148081139Y-100313190D01*
X148081139Y-100313190D02*
X147985901Y-100360809D01*
X147985901Y-100360809D02*
X147652568Y-100360809D01*
X149081139Y-100217952D02*
X149081139Y-100884619D01*
X148652568Y-100217952D02*
X148652568Y-100741761D01*
X148652568Y-100741761D02*
X148700187Y-100837000D01*
X148700187Y-100837000D02*
X148795425Y-100884619D01*
X148795425Y-100884619D02*
X148938282Y-100884619D01*
X148938282Y-100884619D02*
X149033520Y-100837000D01*
X149033520Y-100837000D02*
X149081139Y-100789380D01*
X149414473Y-100217952D02*
X149795425Y-100217952D01*
X149557330Y-99884619D02*
X149557330Y-100741761D01*
X149557330Y-100741761D02*
X149604949Y-100837000D01*
X149604949Y-100837000D02*
X149700187Y-100884619D01*
X149700187Y-100884619D02*
X149795425Y-100884619D01*
X149985902Y-100217952D02*
X150366854Y-100217952D01*
X150128759Y-99884619D02*
X150128759Y-100741761D01*
X150128759Y-100741761D02*
X150176378Y-100837000D01*
X150176378Y-100837000D02*
X150271616Y-100884619D01*
X150271616Y-100884619D02*
X150366854Y-100884619D01*
X150843045Y-100884619D02*
X150747807Y-100837000D01*
X150747807Y-100837000D02*
X150700188Y-100789380D01*
X150700188Y-100789380D02*
X150652569Y-100694142D01*
X150652569Y-100694142D02*
X150652569Y-100408428D01*
X150652569Y-100408428D02*
X150700188Y-100313190D01*
X150700188Y-100313190D02*
X150747807Y-100265571D01*
X150747807Y-100265571D02*
X150843045Y-100217952D01*
X150843045Y-100217952D02*
X150985902Y-100217952D01*
X150985902Y-100217952D02*
X151081140Y-100265571D01*
X151081140Y-100265571D02*
X151128759Y-100313190D01*
X151128759Y-100313190D02*
X151176378Y-100408428D01*
X151176378Y-100408428D02*
X151176378Y-100694142D01*
X151176378Y-100694142D02*
X151128759Y-100789380D01*
X151128759Y-100789380D02*
X151081140Y-100837000D01*
X151081140Y-100837000D02*
X150985902Y-100884619D01*
X150985902Y-100884619D02*
X150843045Y-100884619D01*
X151604950Y-100217952D02*
X151604950Y-100884619D01*
X151604950Y-100313190D02*
X151652569Y-100265571D01*
X151652569Y-100265571D02*
X151747807Y-100217952D01*
X151747807Y-100217952D02*
X151890664Y-100217952D01*
X151890664Y-100217952D02*
X151985902Y-100265571D01*
X151985902Y-100265571D02*
X152033521Y-100360809D01*
X152033521Y-100360809D02*
X152033521Y-100884619D01*
X153843045Y-100884619D02*
X153509712Y-100408428D01*
X153271617Y-100884619D02*
X153271617Y-99884619D01*
X153271617Y-99884619D02*
X153652569Y-99884619D01*
X153652569Y-99884619D02*
X153747807Y-99932238D01*
X153747807Y-99932238D02*
X153795426Y-99979857D01*
X153795426Y-99979857D02*
X153843045Y-100075095D01*
X153843045Y-100075095D02*
X153843045Y-100217952D01*
X153843045Y-100217952D02*
X153795426Y-100313190D01*
X153795426Y-100313190D02*
X153747807Y-100360809D01*
X153747807Y-100360809D02*
X153652569Y-100408428D01*
X153652569Y-100408428D02*
X153271617Y-100408428D01*
X154652569Y-100837000D02*
X154557331Y-100884619D01*
X154557331Y-100884619D02*
X154366855Y-100884619D01*
X154366855Y-100884619D02*
X154271617Y-100837000D01*
X154271617Y-100837000D02*
X154223998Y-100741761D01*
X154223998Y-100741761D02*
X154223998Y-100360809D01*
X154223998Y-100360809D02*
X154271617Y-100265571D01*
X154271617Y-100265571D02*
X154366855Y-100217952D01*
X154366855Y-100217952D02*
X154557331Y-100217952D01*
X154557331Y-100217952D02*
X154652569Y-100265571D01*
X154652569Y-100265571D02*
X154700188Y-100360809D01*
X154700188Y-100360809D02*
X154700188Y-100456047D01*
X154700188Y-100456047D02*
X154223998Y-100551285D01*
X155557331Y-100837000D02*
X155462093Y-100884619D01*
X155462093Y-100884619D02*
X155271617Y-100884619D01*
X155271617Y-100884619D02*
X155176379Y-100837000D01*
X155176379Y-100837000D02*
X155128760Y-100789380D01*
X155128760Y-100789380D02*
X155081141Y-100694142D01*
X155081141Y-100694142D02*
X155081141Y-100408428D01*
X155081141Y-100408428D02*
X155128760Y-100313190D01*
X155128760Y-100313190D02*
X155176379Y-100265571D01*
X155176379Y-100265571D02*
X155271617Y-100217952D01*
X155271617Y-100217952D02*
X155462093Y-100217952D01*
X155462093Y-100217952D02*
X155557331Y-100265571D01*
X156128760Y-100884619D02*
X156033522Y-100837000D01*
X156033522Y-100837000D02*
X155985903Y-100789380D01*
X155985903Y-100789380D02*
X155938284Y-100694142D01*
X155938284Y-100694142D02*
X155938284Y-100408428D01*
X155938284Y-100408428D02*
X155985903Y-100313190D01*
X155985903Y-100313190D02*
X156033522Y-100265571D01*
X156033522Y-100265571D02*
X156128760Y-100217952D01*
X156128760Y-100217952D02*
X156271617Y-100217952D01*
X156271617Y-100217952D02*
X156366855Y-100265571D01*
X156366855Y-100265571D02*
X156414474Y-100313190D01*
X156414474Y-100313190D02*
X156462093Y-100408428D01*
X156462093Y-100408428D02*
X156462093Y-100694142D01*
X156462093Y-100694142D02*
X156414474Y-100789380D01*
X156414474Y-100789380D02*
X156366855Y-100837000D01*
X156366855Y-100837000D02*
X156271617Y-100884619D01*
X156271617Y-100884619D02*
X156128760Y-100884619D01*
X156890665Y-100884619D02*
X156890665Y-100217952D01*
X156890665Y-100408428D02*
X156938284Y-100313190D01*
X156938284Y-100313190D02*
X156985903Y-100265571D01*
X156985903Y-100265571D02*
X157081141Y-100217952D01*
X157081141Y-100217952D02*
X157176379Y-100217952D01*
X157938284Y-100884619D02*
X157938284Y-99884619D01*
X157938284Y-100837000D02*
X157843046Y-100884619D01*
X157843046Y-100884619D02*
X157652570Y-100884619D01*
X157652570Y-100884619D02*
X157557332Y-100837000D01*
X157557332Y-100837000D02*
X157509713Y-100789380D01*
X157509713Y-100789380D02*
X157462094Y-100694142D01*
X157462094Y-100694142D02*
X157462094Y-100408428D01*
X157462094Y-100408428D02*
X157509713Y-100313190D01*
X157509713Y-100313190D02*
X157557332Y-100265571D01*
X157557332Y-100265571D02*
X157652570Y-100217952D01*
X157652570Y-100217952D02*
X157843046Y-100217952D01*
X157843046Y-100217952D02*
X157938284Y-100265571D01*
D12*
X159197204Y-65549438D02*
X158530537Y-64597057D01*
X158054347Y-65549438D02*
X158054347Y-63549438D01*
X158054347Y-63549438D02*
X158816252Y-63549438D01*
X158816252Y-63549438D02*
X159006728Y-63644676D01*
X159006728Y-63644676D02*
X159101966Y-63739914D01*
X159101966Y-63739914D02*
X159197204Y-63930390D01*
X159197204Y-63930390D02*
X159197204Y-64216104D01*
X159197204Y-64216104D02*
X159101966Y-64406580D01*
X159101966Y-64406580D02*
X159006728Y-64501819D01*
X159006728Y-64501819D02*
X158816252Y-64597057D01*
X158816252Y-64597057D02*
X158054347Y-64597057D01*
X160816252Y-65454200D02*
X160625776Y-65549438D01*
X160625776Y-65549438D02*
X160244823Y-65549438D01*
X160244823Y-65549438D02*
X160054347Y-65454200D01*
X160054347Y-65454200D02*
X159959109Y-65263723D01*
X159959109Y-65263723D02*
X159959109Y-64501819D01*
X159959109Y-64501819D02*
X160054347Y-64311342D01*
X160054347Y-64311342D02*
X160244823Y-64216104D01*
X160244823Y-64216104D02*
X160625776Y-64216104D01*
X160625776Y-64216104D02*
X160816252Y-64311342D01*
X160816252Y-64311342D02*
X160911490Y-64501819D01*
X160911490Y-64501819D02*
X160911490Y-64692295D01*
X160911490Y-64692295D02*
X159959109Y-64882771D01*
X162054347Y-65549438D02*
X161863871Y-65454200D01*
X161863871Y-65454200D02*
X161768633Y-65263723D01*
X161768633Y-65263723D02*
X161768633Y-63549438D01*
X163673395Y-65549438D02*
X163673395Y-64501819D01*
X163673395Y-64501819D02*
X163578157Y-64311342D01*
X163578157Y-64311342D02*
X163387681Y-64216104D01*
X163387681Y-64216104D02*
X163006728Y-64216104D01*
X163006728Y-64216104D02*
X162816252Y-64311342D01*
X163673395Y-65454200D02*
X163482919Y-65549438D01*
X163482919Y-65549438D02*
X163006728Y-65549438D01*
X163006728Y-65549438D02*
X162816252Y-65454200D01*
X162816252Y-65454200D02*
X162721014Y-65263723D01*
X162721014Y-65263723D02*
X162721014Y-65073247D01*
X162721014Y-65073247D02*
X162816252Y-64882771D01*
X162816252Y-64882771D02*
X163006728Y-64787533D01*
X163006728Y-64787533D02*
X163482919Y-64787533D01*
X163482919Y-64787533D02*
X163673395Y-64692295D01*
X164435300Y-64216104D02*
X164911490Y-65549438D01*
X165387681Y-64216104D02*
X164911490Y-65549438D01*
X164911490Y-65549438D02*
X164721014Y-66025628D01*
X164721014Y-66025628D02*
X164625776Y-66120866D01*
X164625776Y-66120866D02*
X164435300Y-66216104D01*
D11*
X189730901Y-100340809D02*
X189873758Y-100388428D01*
X189873758Y-100388428D02*
X189921377Y-100436047D01*
X189921377Y-100436047D02*
X189968996Y-100531285D01*
X189968996Y-100531285D02*
X189968996Y-100674142D01*
X189968996Y-100674142D02*
X189921377Y-100769380D01*
X189921377Y-100769380D02*
X189873758Y-100817000D01*
X189873758Y-100817000D02*
X189778520Y-100864619D01*
X189778520Y-100864619D02*
X189397568Y-100864619D01*
X189397568Y-100864619D02*
X189397568Y-99864619D01*
X189397568Y-99864619D02*
X189730901Y-99864619D01*
X189730901Y-99864619D02*
X189826139Y-99912238D01*
X189826139Y-99912238D02*
X189873758Y-99959857D01*
X189873758Y-99959857D02*
X189921377Y-100055095D01*
X189921377Y-100055095D02*
X189921377Y-100150333D01*
X189921377Y-100150333D02*
X189873758Y-100245571D01*
X189873758Y-100245571D02*
X189826139Y-100293190D01*
X189826139Y-100293190D02*
X189730901Y-100340809D01*
X189730901Y-100340809D02*
X189397568Y-100340809D01*
X190826139Y-100197952D02*
X190826139Y-100864619D01*
X190397568Y-100197952D02*
X190397568Y-100721761D01*
X190397568Y-100721761D02*
X190445187Y-100817000D01*
X190445187Y-100817000D02*
X190540425Y-100864619D01*
X190540425Y-100864619D02*
X190683282Y-100864619D01*
X190683282Y-100864619D02*
X190778520Y-100817000D01*
X190778520Y-100817000D02*
X190826139Y-100769380D01*
X191159473Y-100197952D02*
X191540425Y-100197952D01*
X191302330Y-99864619D02*
X191302330Y-100721761D01*
X191302330Y-100721761D02*
X191349949Y-100817000D01*
X191349949Y-100817000D02*
X191445187Y-100864619D01*
X191445187Y-100864619D02*
X191540425Y-100864619D01*
X191730902Y-100197952D02*
X192111854Y-100197952D01*
X191873759Y-99864619D02*
X191873759Y-100721761D01*
X191873759Y-100721761D02*
X191921378Y-100817000D01*
X191921378Y-100817000D02*
X192016616Y-100864619D01*
X192016616Y-100864619D02*
X192111854Y-100864619D01*
X192588045Y-100864619D02*
X192492807Y-100817000D01*
X192492807Y-100817000D02*
X192445188Y-100769380D01*
X192445188Y-100769380D02*
X192397569Y-100674142D01*
X192397569Y-100674142D02*
X192397569Y-100388428D01*
X192397569Y-100388428D02*
X192445188Y-100293190D01*
X192445188Y-100293190D02*
X192492807Y-100245571D01*
X192492807Y-100245571D02*
X192588045Y-100197952D01*
X192588045Y-100197952D02*
X192730902Y-100197952D01*
X192730902Y-100197952D02*
X192826140Y-100245571D01*
X192826140Y-100245571D02*
X192873759Y-100293190D01*
X192873759Y-100293190D02*
X192921378Y-100388428D01*
X192921378Y-100388428D02*
X192921378Y-100674142D01*
X192921378Y-100674142D02*
X192873759Y-100769380D01*
X192873759Y-100769380D02*
X192826140Y-100817000D01*
X192826140Y-100817000D02*
X192730902Y-100864619D01*
X192730902Y-100864619D02*
X192588045Y-100864619D01*
X193349950Y-100197952D02*
X193349950Y-100864619D01*
X193349950Y-100293190D02*
X193397569Y-100245571D01*
X193397569Y-100245571D02*
X193492807Y-100197952D01*
X193492807Y-100197952D02*
X193635664Y-100197952D01*
X193635664Y-100197952D02*
X193730902Y-100245571D01*
X193730902Y-100245571D02*
X193778521Y-100340809D01*
X193778521Y-100340809D02*
X193778521Y-100864619D01*
X195016617Y-100864619D02*
X195016617Y-99864619D01*
X195016617Y-99864619D02*
X195254712Y-99864619D01*
X195254712Y-99864619D02*
X195397569Y-99912238D01*
X195397569Y-99912238D02*
X195492807Y-100007476D01*
X195492807Y-100007476D02*
X195540426Y-100102714D01*
X195540426Y-100102714D02*
X195588045Y-100293190D01*
X195588045Y-100293190D02*
X195588045Y-100436047D01*
X195588045Y-100436047D02*
X195540426Y-100626523D01*
X195540426Y-100626523D02*
X195492807Y-100721761D01*
X195492807Y-100721761D02*
X195397569Y-100817000D01*
X195397569Y-100817000D02*
X195254712Y-100864619D01*
X195254712Y-100864619D02*
X195016617Y-100864619D01*
X196159474Y-100864619D02*
X196064236Y-100817000D01*
X196064236Y-100817000D02*
X196016617Y-100769380D01*
X196016617Y-100769380D02*
X195968998Y-100674142D01*
X195968998Y-100674142D02*
X195968998Y-100388428D01*
X195968998Y-100388428D02*
X196016617Y-100293190D01*
X196016617Y-100293190D02*
X196064236Y-100245571D01*
X196064236Y-100245571D02*
X196159474Y-100197952D01*
X196159474Y-100197952D02*
X196302331Y-100197952D01*
X196302331Y-100197952D02*
X196397569Y-100245571D01*
X196397569Y-100245571D02*
X196445188Y-100293190D01*
X196445188Y-100293190D02*
X196492807Y-100388428D01*
X196492807Y-100388428D02*
X196492807Y-100674142D01*
X196492807Y-100674142D02*
X196445188Y-100769380D01*
X196445188Y-100769380D02*
X196397569Y-100817000D01*
X196397569Y-100817000D02*
X196302331Y-100864619D01*
X196302331Y-100864619D02*
X196159474Y-100864619D01*
X196826141Y-100197952D02*
X197016617Y-100864619D01*
X197016617Y-100864619D02*
X197207093Y-100388428D01*
X197207093Y-100388428D02*
X197397569Y-100864619D01*
X197397569Y-100864619D02*
X197588045Y-100197952D01*
X197968998Y-100197952D02*
X197968998Y-100864619D01*
X197968998Y-100293190D02*
X198016617Y-100245571D01*
X198016617Y-100245571D02*
X198111855Y-100197952D01*
X198111855Y-100197952D02*
X198254712Y-100197952D01*
X198254712Y-100197952D02*
X198349950Y-100245571D01*
X198349950Y-100245571D02*
X198397569Y-100340809D01*
X198397569Y-100340809D02*
X198397569Y-100864619D01*
X177335901Y-100360809D02*
X177478758Y-100408428D01*
X177478758Y-100408428D02*
X177526377Y-100456047D01*
X177526377Y-100456047D02*
X177573996Y-100551285D01*
X177573996Y-100551285D02*
X177573996Y-100694142D01*
X177573996Y-100694142D02*
X177526377Y-100789380D01*
X177526377Y-100789380D02*
X177478758Y-100837000D01*
X177478758Y-100837000D02*
X177383520Y-100884619D01*
X177383520Y-100884619D02*
X177002568Y-100884619D01*
X177002568Y-100884619D02*
X177002568Y-99884619D01*
X177002568Y-99884619D02*
X177335901Y-99884619D01*
X177335901Y-99884619D02*
X177431139Y-99932238D01*
X177431139Y-99932238D02*
X177478758Y-99979857D01*
X177478758Y-99979857D02*
X177526377Y-100075095D01*
X177526377Y-100075095D02*
X177526377Y-100170333D01*
X177526377Y-100170333D02*
X177478758Y-100265571D01*
X177478758Y-100265571D02*
X177431139Y-100313190D01*
X177431139Y-100313190D02*
X177335901Y-100360809D01*
X177335901Y-100360809D02*
X177002568Y-100360809D01*
X178431139Y-100217952D02*
X178431139Y-100884619D01*
X178002568Y-100217952D02*
X178002568Y-100741761D01*
X178002568Y-100741761D02*
X178050187Y-100837000D01*
X178050187Y-100837000D02*
X178145425Y-100884619D01*
X178145425Y-100884619D02*
X178288282Y-100884619D01*
X178288282Y-100884619D02*
X178383520Y-100837000D01*
X178383520Y-100837000D02*
X178431139Y-100789380D01*
X178764473Y-100217952D02*
X179145425Y-100217952D01*
X178907330Y-99884619D02*
X178907330Y-100741761D01*
X178907330Y-100741761D02*
X178954949Y-100837000D01*
X178954949Y-100837000D02*
X179050187Y-100884619D01*
X179050187Y-100884619D02*
X179145425Y-100884619D01*
X179335902Y-100217952D02*
X179716854Y-100217952D01*
X179478759Y-99884619D02*
X179478759Y-100741761D01*
X179478759Y-100741761D02*
X179526378Y-100837000D01*
X179526378Y-100837000D02*
X179621616Y-100884619D01*
X179621616Y-100884619D02*
X179716854Y-100884619D01*
X180193045Y-100884619D02*
X180097807Y-100837000D01*
X180097807Y-100837000D02*
X180050188Y-100789380D01*
X180050188Y-100789380D02*
X180002569Y-100694142D01*
X180002569Y-100694142D02*
X180002569Y-100408428D01*
X180002569Y-100408428D02*
X180050188Y-100313190D01*
X180050188Y-100313190D02*
X180097807Y-100265571D01*
X180097807Y-100265571D02*
X180193045Y-100217952D01*
X180193045Y-100217952D02*
X180335902Y-100217952D01*
X180335902Y-100217952D02*
X180431140Y-100265571D01*
X180431140Y-100265571D02*
X180478759Y-100313190D01*
X180478759Y-100313190D02*
X180526378Y-100408428D01*
X180526378Y-100408428D02*
X180526378Y-100694142D01*
X180526378Y-100694142D02*
X180478759Y-100789380D01*
X180478759Y-100789380D02*
X180431140Y-100837000D01*
X180431140Y-100837000D02*
X180335902Y-100884619D01*
X180335902Y-100884619D02*
X180193045Y-100884619D01*
X180954950Y-100217952D02*
X180954950Y-100884619D01*
X180954950Y-100313190D02*
X181002569Y-100265571D01*
X181002569Y-100265571D02*
X181097807Y-100217952D01*
X181097807Y-100217952D02*
X181240664Y-100217952D01*
X181240664Y-100217952D02*
X181335902Y-100265571D01*
X181335902Y-100265571D02*
X181383521Y-100360809D01*
X181383521Y-100360809D02*
X181383521Y-100884619D01*
X182621617Y-99884619D02*
X182621617Y-100694142D01*
X182621617Y-100694142D02*
X182669236Y-100789380D01*
X182669236Y-100789380D02*
X182716855Y-100837000D01*
X182716855Y-100837000D02*
X182812093Y-100884619D01*
X182812093Y-100884619D02*
X183002569Y-100884619D01*
X183002569Y-100884619D02*
X183097807Y-100837000D01*
X183097807Y-100837000D02*
X183145426Y-100789380D01*
X183145426Y-100789380D02*
X183193045Y-100694142D01*
X183193045Y-100694142D02*
X183193045Y-99884619D01*
X183669236Y-100217952D02*
X183669236Y-101217952D01*
X183669236Y-100265571D02*
X183764474Y-100217952D01*
X183764474Y-100217952D02*
X183954950Y-100217952D01*
X183954950Y-100217952D02*
X184050188Y-100265571D01*
X184050188Y-100265571D02*
X184097807Y-100313190D01*
X184097807Y-100313190D02*
X184145426Y-100408428D01*
X184145426Y-100408428D02*
X184145426Y-100694142D01*
X184145426Y-100694142D02*
X184097807Y-100789380D01*
X184097807Y-100789380D02*
X184050188Y-100837000D01*
X184050188Y-100837000D02*
X183954950Y-100884619D01*
X183954950Y-100884619D02*
X183764474Y-100884619D01*
X183764474Y-100884619D02*
X183669236Y-100837000D01*
D12*
X115739347Y-65734438D02*
X115739347Y-63734438D01*
X115739347Y-63734438D02*
X116501252Y-63734438D01*
X116501252Y-63734438D02*
X116691728Y-63829676D01*
X116691728Y-63829676D02*
X116786966Y-63924914D01*
X116786966Y-63924914D02*
X116882204Y-64115390D01*
X116882204Y-64115390D02*
X116882204Y-64401104D01*
X116882204Y-64401104D02*
X116786966Y-64591580D01*
X116786966Y-64591580D02*
X116691728Y-64686819D01*
X116691728Y-64686819D02*
X116501252Y-64782057D01*
X116501252Y-64782057D02*
X115739347Y-64782057D01*
X117739347Y-65734438D02*
X117739347Y-64401104D01*
X117739347Y-63734438D02*
X117644109Y-63829676D01*
X117644109Y-63829676D02*
X117739347Y-63924914D01*
X117739347Y-63924914D02*
X117834585Y-63829676D01*
X117834585Y-63829676D02*
X117739347Y-63734438D01*
X117739347Y-63734438D02*
X117739347Y-63924914D01*
X119453633Y-65639200D02*
X119263157Y-65734438D01*
X119263157Y-65734438D02*
X118882204Y-65734438D01*
X118882204Y-65734438D02*
X118691728Y-65639200D01*
X118691728Y-65639200D02*
X118596490Y-65448723D01*
X118596490Y-65448723D02*
X118596490Y-64686819D01*
X118596490Y-64686819D02*
X118691728Y-64496342D01*
X118691728Y-64496342D02*
X118882204Y-64401104D01*
X118882204Y-64401104D02*
X119263157Y-64401104D01*
X119263157Y-64401104D02*
X119453633Y-64496342D01*
X119453633Y-64496342D02*
X119548871Y-64686819D01*
X119548871Y-64686819D02*
X119548871Y-64877295D01*
X119548871Y-64877295D02*
X118596490Y-65067771D01*
X120215538Y-64401104D02*
X121263157Y-64401104D01*
X121263157Y-64401104D02*
X120215538Y-65734438D01*
X120215538Y-65734438D02*
X121263157Y-65734438D01*
X122310776Y-65734438D02*
X122120300Y-65639200D01*
X122120300Y-65639200D02*
X122025062Y-65543961D01*
X122025062Y-65543961D02*
X121929824Y-65353485D01*
X121929824Y-65353485D02*
X121929824Y-64782057D01*
X121929824Y-64782057D02*
X122025062Y-64591580D01*
X122025062Y-64591580D02*
X122120300Y-64496342D01*
X122120300Y-64496342D02*
X122310776Y-64401104D01*
X122310776Y-64401104D02*
X122596491Y-64401104D01*
X122596491Y-64401104D02*
X122786967Y-64496342D01*
X122786967Y-64496342D02*
X122882205Y-64591580D01*
X122882205Y-64591580D02*
X122977443Y-64782057D01*
X122977443Y-64782057D02*
X122977443Y-65353485D01*
X122977443Y-65353485D02*
X122882205Y-65543961D01*
X122882205Y-65543961D02*
X122786967Y-65639200D01*
X122786967Y-65639200D02*
X122596491Y-65734438D01*
X122596491Y-65734438D02*
X122310776Y-65734438D01*
X174644109Y-65454200D02*
X174929823Y-65549438D01*
X174929823Y-65549438D02*
X175406014Y-65549438D01*
X175406014Y-65549438D02*
X175596490Y-65454200D01*
X175596490Y-65454200D02*
X175691728Y-65358961D01*
X175691728Y-65358961D02*
X175786966Y-65168485D01*
X175786966Y-65168485D02*
X175786966Y-64978009D01*
X175786966Y-64978009D02*
X175691728Y-64787533D01*
X175691728Y-64787533D02*
X175596490Y-64692295D01*
X175596490Y-64692295D02*
X175406014Y-64597057D01*
X175406014Y-64597057D02*
X175025061Y-64501819D01*
X175025061Y-64501819D02*
X174834585Y-64406580D01*
X174834585Y-64406580D02*
X174739347Y-64311342D01*
X174739347Y-64311342D02*
X174644109Y-64120866D01*
X174644109Y-64120866D02*
X174644109Y-63930390D01*
X174644109Y-63930390D02*
X174739347Y-63739914D01*
X174739347Y-63739914D02*
X174834585Y-63644676D01*
X174834585Y-63644676D02*
X175025061Y-63549438D01*
X175025061Y-63549438D02*
X175501252Y-63549438D01*
X175501252Y-63549438D02*
X175786966Y-63644676D01*
X176358395Y-64216104D02*
X177120299Y-64216104D01*
X176644109Y-63549438D02*
X176644109Y-65263723D01*
X176644109Y-65263723D02*
X176739347Y-65454200D01*
X176739347Y-65454200D02*
X176929823Y-65549438D01*
X176929823Y-65549438D02*
X177120299Y-65549438D01*
X178644109Y-65549438D02*
X178644109Y-64501819D01*
X178644109Y-64501819D02*
X178548871Y-64311342D01*
X178548871Y-64311342D02*
X178358395Y-64216104D01*
X178358395Y-64216104D02*
X177977442Y-64216104D01*
X177977442Y-64216104D02*
X177786966Y-64311342D01*
X178644109Y-65454200D02*
X178453633Y-65549438D01*
X178453633Y-65549438D02*
X177977442Y-65549438D01*
X177977442Y-65549438D02*
X177786966Y-65454200D01*
X177786966Y-65454200D02*
X177691728Y-65263723D01*
X177691728Y-65263723D02*
X177691728Y-65073247D01*
X177691728Y-65073247D02*
X177786966Y-64882771D01*
X177786966Y-64882771D02*
X177977442Y-64787533D01*
X177977442Y-64787533D02*
X178453633Y-64787533D01*
X178453633Y-64787533D02*
X178644109Y-64692295D01*
X179310776Y-64216104D02*
X180072680Y-64216104D01*
X179596490Y-63549438D02*
X179596490Y-65263723D01*
X179596490Y-65263723D02*
X179691728Y-65454200D01*
X179691728Y-65454200D02*
X179882204Y-65549438D01*
X179882204Y-65549438D02*
X180072680Y-65549438D01*
X181596490Y-64216104D02*
X181596490Y-65549438D01*
X180739347Y-64216104D02*
X180739347Y-65263723D01*
X180739347Y-65263723D02*
X180834585Y-65454200D01*
X180834585Y-65454200D02*
X181025061Y-65549438D01*
X181025061Y-65549438D02*
X181310776Y-65549438D01*
X181310776Y-65549438D02*
X181501252Y-65454200D01*
X181501252Y-65454200D02*
X181596490Y-65358961D01*
X182453633Y-65454200D02*
X182644109Y-65549438D01*
X182644109Y-65549438D02*
X183025061Y-65549438D01*
X183025061Y-65549438D02*
X183215538Y-65454200D01*
X183215538Y-65454200D02*
X183310776Y-65263723D01*
X183310776Y-65263723D02*
X183310776Y-65168485D01*
X183310776Y-65168485D02*
X183215538Y-64978009D01*
X183215538Y-64978009D02*
X183025061Y-64882771D01*
X183025061Y-64882771D02*
X182739347Y-64882771D01*
X182739347Y-64882771D02*
X182548871Y-64787533D01*
X182548871Y-64787533D02*
X182453633Y-64597057D01*
X182453633Y-64597057D02*
X182453633Y-64501819D01*
X182453633Y-64501819D02*
X182548871Y-64311342D01*
X182548871Y-64311342D02*
X182739347Y-64216104D01*
X182739347Y-64216104D02*
X183025061Y-64216104D01*
X183025061Y-64216104D02*
X183215538Y-64311342D01*
X186644110Y-65549438D02*
X185691729Y-65549438D01*
X185691729Y-65549438D02*
X185691729Y-63549438D01*
X187310777Y-64501819D02*
X187977444Y-64501819D01*
X188263158Y-65549438D02*
X187310777Y-65549438D01*
X187310777Y-65549438D02*
X187310777Y-63549438D01*
X187310777Y-63549438D02*
X188263158Y-63549438D01*
X189120301Y-65549438D02*
X189120301Y-63549438D01*
X189120301Y-63549438D02*
X189596491Y-63549438D01*
X189596491Y-63549438D02*
X189882206Y-63644676D01*
X189882206Y-63644676D02*
X190072682Y-63835152D01*
X190072682Y-63835152D02*
X190167920Y-64025628D01*
X190167920Y-64025628D02*
X190263158Y-64406580D01*
X190263158Y-64406580D02*
X190263158Y-64692295D01*
X190263158Y-64692295D02*
X190167920Y-65073247D01*
X190167920Y-65073247D02*
X190072682Y-65263723D01*
X190072682Y-65263723D02*
X189882206Y-65454200D01*
X189882206Y-65454200D02*
X189596491Y-65549438D01*
X189596491Y-65549438D02*
X189120301Y-65549438D01*
D13*
X135416667Y-90642200D02*
X135559524Y-90689819D01*
X135559524Y-90689819D02*
X135797619Y-90689819D01*
X135797619Y-90689819D02*
X135892857Y-90642200D01*
X135892857Y-90642200D02*
X135940476Y-90594580D01*
X135940476Y-90594580D02*
X135988095Y-90499342D01*
X135988095Y-90499342D02*
X135988095Y-90404104D01*
X135988095Y-90404104D02*
X135940476Y-90308866D01*
X135940476Y-90308866D02*
X135892857Y-90261247D01*
X135892857Y-90261247D02*
X135797619Y-90213628D01*
X135797619Y-90213628D02*
X135607143Y-90166009D01*
X135607143Y-90166009D02*
X135511905Y-90118390D01*
X135511905Y-90118390D02*
X135464286Y-90070771D01*
X135464286Y-90070771D02*
X135416667Y-89975533D01*
X135416667Y-89975533D02*
X135416667Y-89880295D01*
X135416667Y-89880295D02*
X135464286Y-89785057D01*
X135464286Y-89785057D02*
X135511905Y-89737438D01*
X135511905Y-89737438D02*
X135607143Y-89689819D01*
X135607143Y-89689819D02*
X135845238Y-89689819D01*
X135845238Y-89689819D02*
X135988095Y-89737438D01*
X136321429Y-89689819D02*
X136559524Y-90689819D01*
X136559524Y-90689819D02*
X136750000Y-89975533D01*
X136750000Y-89975533D02*
X136940476Y-90689819D01*
X136940476Y-90689819D02*
X137178572Y-89689819D01*
X138035714Y-89689819D02*
X137559524Y-89689819D01*
X137559524Y-89689819D02*
X137511905Y-90166009D01*
X137511905Y-90166009D02*
X137559524Y-90118390D01*
X137559524Y-90118390D02*
X137654762Y-90070771D01*
X137654762Y-90070771D02*
X137892857Y-90070771D01*
X137892857Y-90070771D02*
X137988095Y-90118390D01*
X137988095Y-90118390D02*
X138035714Y-90166009D01*
X138035714Y-90166009D02*
X138083333Y-90261247D01*
X138083333Y-90261247D02*
X138083333Y-90499342D01*
X138083333Y-90499342D02*
X138035714Y-90594580D01*
X138035714Y-90594580D02*
X137988095Y-90642200D01*
X137988095Y-90642200D02*
X137892857Y-90689819D01*
X137892857Y-90689819D02*
X137654762Y-90689819D01*
X137654762Y-90689819D02*
X137559524Y-90642200D01*
X137559524Y-90642200D02*
X137511905Y-90594580D01*
X139036905Y-53689819D02*
X139036905Y-52689819D01*
X139036905Y-52689819D02*
X139417857Y-52689819D01*
X139417857Y-52689819D02*
X139513095Y-52737438D01*
X139513095Y-52737438D02*
X139560714Y-52785057D01*
X139560714Y-52785057D02*
X139608333Y-52880295D01*
X139608333Y-52880295D02*
X139608333Y-53023152D01*
X139608333Y-53023152D02*
X139560714Y-53118390D01*
X139560714Y-53118390D02*
X139513095Y-53166009D01*
X139513095Y-53166009D02*
X139417857Y-53213628D01*
X139417857Y-53213628D02*
X139036905Y-53213628D01*
X140560714Y-53689819D02*
X139989286Y-53689819D01*
X140275000Y-53689819D02*
X140275000Y-52689819D01*
X140275000Y-52689819D02*
X140179762Y-52832676D01*
X140179762Y-52832676D02*
X140084524Y-52927914D01*
X140084524Y-52927914D02*
X139989286Y-52975533D01*
X193228333Y-128279580D02*
X193180714Y-128327200D01*
X193180714Y-128327200D02*
X193037857Y-128374819D01*
X193037857Y-128374819D02*
X192942619Y-128374819D01*
X192942619Y-128374819D02*
X192799762Y-128327200D01*
X192799762Y-128327200D02*
X192704524Y-128231961D01*
X192704524Y-128231961D02*
X192656905Y-128136723D01*
X192656905Y-128136723D02*
X192609286Y-127946247D01*
X192609286Y-127946247D02*
X192609286Y-127803390D01*
X192609286Y-127803390D02*
X192656905Y-127612914D01*
X192656905Y-127612914D02*
X192704524Y-127517676D01*
X192704524Y-127517676D02*
X192799762Y-127422438D01*
X192799762Y-127422438D02*
X192942619Y-127374819D01*
X192942619Y-127374819D02*
X193037857Y-127374819D01*
X193037857Y-127374819D02*
X193180714Y-127422438D01*
X193180714Y-127422438D02*
X193228333Y-127470057D01*
X193609286Y-127470057D02*
X193656905Y-127422438D01*
X193656905Y-127422438D02*
X193752143Y-127374819D01*
X193752143Y-127374819D02*
X193990238Y-127374819D01*
X193990238Y-127374819D02*
X194085476Y-127422438D01*
X194085476Y-127422438D02*
X194133095Y-127470057D01*
X194133095Y-127470057D02*
X194180714Y-127565295D01*
X194180714Y-127565295D02*
X194180714Y-127660533D01*
X194180714Y-127660533D02*
X194133095Y-127803390D01*
X194133095Y-127803390D02*
X193561667Y-128374819D01*
X193561667Y-128374819D02*
X194180714Y-128374819D01*
X193319819Y-110666666D02*
X192843628Y-110999999D01*
X193319819Y-111238094D02*
X192319819Y-111238094D01*
X192319819Y-111238094D02*
X192319819Y-110857142D01*
X192319819Y-110857142D02*
X192367438Y-110761904D01*
X192367438Y-110761904D02*
X192415057Y-110714285D01*
X192415057Y-110714285D02*
X192510295Y-110666666D01*
X192510295Y-110666666D02*
X192653152Y-110666666D01*
X192653152Y-110666666D02*
X192748390Y-110714285D01*
X192748390Y-110714285D02*
X192796009Y-110761904D01*
X192796009Y-110761904D02*
X192843628Y-110857142D01*
X192843628Y-110857142D02*
X192843628Y-111238094D01*
X192653152Y-109809523D02*
X193319819Y-109809523D01*
X192272200Y-110047618D02*
X192986485Y-110285713D01*
X192986485Y-110285713D02*
X192986485Y-109666666D01*
X199069819Y-110666666D02*
X198593628Y-110999999D01*
X199069819Y-111238094D02*
X198069819Y-111238094D01*
X198069819Y-111238094D02*
X198069819Y-110857142D01*
X198069819Y-110857142D02*
X198117438Y-110761904D01*
X198117438Y-110761904D02*
X198165057Y-110714285D01*
X198165057Y-110714285D02*
X198260295Y-110666666D01*
X198260295Y-110666666D02*
X198403152Y-110666666D01*
X198403152Y-110666666D02*
X198498390Y-110714285D01*
X198498390Y-110714285D02*
X198546009Y-110761904D01*
X198546009Y-110761904D02*
X198593628Y-110857142D01*
X198593628Y-110857142D02*
X198593628Y-111238094D01*
X198069819Y-110333332D02*
X198069819Y-109714285D01*
X198069819Y-109714285D02*
X198450771Y-110047618D01*
X198450771Y-110047618D02*
X198450771Y-109904761D01*
X198450771Y-109904761D02*
X198498390Y-109809523D01*
X198498390Y-109809523D02*
X198546009Y-109761904D01*
X198546009Y-109761904D02*
X198641247Y-109714285D01*
X198641247Y-109714285D02*
X198879342Y-109714285D01*
X198879342Y-109714285D02*
X198974580Y-109761904D01*
X198974580Y-109761904D02*
X199022200Y-109809523D01*
X199022200Y-109809523D02*
X199069819Y-109904761D01*
X199069819Y-109904761D02*
X199069819Y-110190475D01*
X199069819Y-110190475D02*
X199022200Y-110285713D01*
X199022200Y-110285713D02*
X198974580Y-110333332D01*
X118231666Y-52834819D02*
X118231666Y-53549104D01*
X118231666Y-53549104D02*
X118184047Y-53691961D01*
X118184047Y-53691961D02*
X118088809Y-53787200D01*
X118088809Y-53787200D02*
X117945952Y-53834819D01*
X117945952Y-53834819D02*
X117850714Y-53834819D01*
X118660238Y-52930057D02*
X118707857Y-52882438D01*
X118707857Y-52882438D02*
X118803095Y-52834819D01*
X118803095Y-52834819D02*
X119041190Y-52834819D01*
X119041190Y-52834819D02*
X119136428Y-52882438D01*
X119136428Y-52882438D02*
X119184047Y-52930057D01*
X119184047Y-52930057D02*
X119231666Y-53025295D01*
X119231666Y-53025295D02*
X119231666Y-53120533D01*
X119231666Y-53120533D02*
X119184047Y-53263390D01*
X119184047Y-53263390D02*
X118612619Y-53834819D01*
X118612619Y-53834819D02*
X119231666Y-53834819D01*
X180824819Y-110586666D02*
X180348628Y-110919999D01*
X180824819Y-111158094D02*
X179824819Y-111158094D01*
X179824819Y-111158094D02*
X179824819Y-110777142D01*
X179824819Y-110777142D02*
X179872438Y-110681904D01*
X179872438Y-110681904D02*
X179920057Y-110634285D01*
X179920057Y-110634285D02*
X180015295Y-110586666D01*
X180015295Y-110586666D02*
X180158152Y-110586666D01*
X180158152Y-110586666D02*
X180253390Y-110634285D01*
X180253390Y-110634285D02*
X180301009Y-110681904D01*
X180301009Y-110681904D02*
X180348628Y-110777142D01*
X180348628Y-110777142D02*
X180348628Y-111158094D01*
X180824819Y-109634285D02*
X180824819Y-110205713D01*
X180824819Y-109919999D02*
X179824819Y-109919999D01*
X179824819Y-109919999D02*
X179967676Y-110015237D01*
X179967676Y-110015237D02*
X180062914Y-110110475D01*
X180062914Y-110110475D02*
X180110533Y-110205713D01*
X136274819Y-110797857D02*
X135798628Y-111131190D01*
X136274819Y-111369285D02*
X135274819Y-111369285D01*
X135274819Y-111369285D02*
X135274819Y-110988333D01*
X135274819Y-110988333D02*
X135322438Y-110893095D01*
X135322438Y-110893095D02*
X135370057Y-110845476D01*
X135370057Y-110845476D02*
X135465295Y-110797857D01*
X135465295Y-110797857D02*
X135608152Y-110797857D01*
X135608152Y-110797857D02*
X135703390Y-110845476D01*
X135703390Y-110845476D02*
X135751009Y-110893095D01*
X135751009Y-110893095D02*
X135798628Y-110988333D01*
X135798628Y-110988333D02*
X135798628Y-111369285D01*
X136274819Y-109845476D02*
X136274819Y-110416904D01*
X136274819Y-110131190D02*
X135274819Y-110131190D01*
X135274819Y-110131190D02*
X135417676Y-110226428D01*
X135417676Y-110226428D02*
X135512914Y-110321666D01*
X135512914Y-110321666D02*
X135560533Y-110416904D01*
X135274819Y-109226428D02*
X135274819Y-109131190D01*
X135274819Y-109131190D02*
X135322438Y-109035952D01*
X135322438Y-109035952D02*
X135370057Y-108988333D01*
X135370057Y-108988333D02*
X135465295Y-108940714D01*
X135465295Y-108940714D02*
X135655771Y-108893095D01*
X135655771Y-108893095D02*
X135893866Y-108893095D01*
X135893866Y-108893095D02*
X136084342Y-108940714D01*
X136084342Y-108940714D02*
X136179580Y-108988333D01*
X136179580Y-108988333D02*
X136227200Y-109035952D01*
X136227200Y-109035952D02*
X136274819Y-109131190D01*
X136274819Y-109131190D02*
X136274819Y-109226428D01*
X136274819Y-109226428D02*
X136227200Y-109321666D01*
X136227200Y-109321666D02*
X136179580Y-109369285D01*
X136179580Y-109369285D02*
X136084342Y-109416904D01*
X136084342Y-109416904D02*
X135893866Y-109464523D01*
X135893866Y-109464523D02*
X135655771Y-109464523D01*
X135655771Y-109464523D02*
X135465295Y-109416904D01*
X135465295Y-109416904D02*
X135370057Y-109369285D01*
X135370057Y-109369285D02*
X135322438Y-109321666D01*
X135322438Y-109321666D02*
X135274819Y-109226428D01*
X186324819Y-110506666D02*
X185848628Y-110839999D01*
X186324819Y-111078094D02*
X185324819Y-111078094D01*
X185324819Y-111078094D02*
X185324819Y-110697142D01*
X185324819Y-110697142D02*
X185372438Y-110601904D01*
X185372438Y-110601904D02*
X185420057Y-110554285D01*
X185420057Y-110554285D02*
X185515295Y-110506666D01*
X185515295Y-110506666D02*
X185658152Y-110506666D01*
X185658152Y-110506666D02*
X185753390Y-110554285D01*
X185753390Y-110554285D02*
X185801009Y-110601904D01*
X185801009Y-110601904D02*
X185848628Y-110697142D01*
X185848628Y-110697142D02*
X185848628Y-111078094D01*
X185420057Y-110125713D02*
X185372438Y-110078094D01*
X185372438Y-110078094D02*
X185324819Y-109982856D01*
X185324819Y-109982856D02*
X185324819Y-109744761D01*
X185324819Y-109744761D02*
X185372438Y-109649523D01*
X185372438Y-109649523D02*
X185420057Y-109601904D01*
X185420057Y-109601904D02*
X185515295Y-109554285D01*
X185515295Y-109554285D02*
X185610533Y-109554285D01*
X185610533Y-109554285D02*
X185753390Y-109601904D01*
X185753390Y-109601904D02*
X186324819Y-110173332D01*
X186324819Y-110173332D02*
X186324819Y-109554285D01*
X136333333Y-128094580D02*
X136285714Y-128142200D01*
X136285714Y-128142200D02*
X136142857Y-128189819D01*
X136142857Y-128189819D02*
X136047619Y-128189819D01*
X136047619Y-128189819D02*
X135904762Y-128142200D01*
X135904762Y-128142200D02*
X135809524Y-128046961D01*
X135809524Y-128046961D02*
X135761905Y-127951723D01*
X135761905Y-127951723D02*
X135714286Y-127761247D01*
X135714286Y-127761247D02*
X135714286Y-127618390D01*
X135714286Y-127618390D02*
X135761905Y-127427914D01*
X135761905Y-127427914D02*
X135809524Y-127332676D01*
X135809524Y-127332676D02*
X135904762Y-127237438D01*
X135904762Y-127237438D02*
X136047619Y-127189819D01*
X136047619Y-127189819D02*
X136142857Y-127189819D01*
X136142857Y-127189819D02*
X136285714Y-127237438D01*
X136285714Y-127237438D02*
X136333333Y-127285057D01*
X137238095Y-127189819D02*
X136761905Y-127189819D01*
X136761905Y-127189819D02*
X136714286Y-127666009D01*
X136714286Y-127666009D02*
X136761905Y-127618390D01*
X136761905Y-127618390D02*
X136857143Y-127570771D01*
X136857143Y-127570771D02*
X137095238Y-127570771D01*
X137095238Y-127570771D02*
X137190476Y-127618390D01*
X137190476Y-127618390D02*
X137238095Y-127666009D01*
X137238095Y-127666009D02*
X137285714Y-127761247D01*
X137285714Y-127761247D02*
X137285714Y-127999342D01*
X137285714Y-127999342D02*
X137238095Y-128094580D01*
X137238095Y-128094580D02*
X137190476Y-128142200D01*
X137190476Y-128142200D02*
X137095238Y-128189819D01*
X137095238Y-128189819D02*
X136857143Y-128189819D01*
X136857143Y-128189819D02*
X136761905Y-128142200D01*
X136761905Y-128142200D02*
X136714286Y-128094580D01*
X151166667Y-90727200D02*
X151309524Y-90774819D01*
X151309524Y-90774819D02*
X151547619Y-90774819D01*
X151547619Y-90774819D02*
X151642857Y-90727200D01*
X151642857Y-90727200D02*
X151690476Y-90679580D01*
X151690476Y-90679580D02*
X151738095Y-90584342D01*
X151738095Y-90584342D02*
X151738095Y-90489104D01*
X151738095Y-90489104D02*
X151690476Y-90393866D01*
X151690476Y-90393866D02*
X151642857Y-90346247D01*
X151642857Y-90346247D02*
X151547619Y-90298628D01*
X151547619Y-90298628D02*
X151357143Y-90251009D01*
X151357143Y-90251009D02*
X151261905Y-90203390D01*
X151261905Y-90203390D02*
X151214286Y-90155771D01*
X151214286Y-90155771D02*
X151166667Y-90060533D01*
X151166667Y-90060533D02*
X151166667Y-89965295D01*
X151166667Y-89965295D02*
X151214286Y-89870057D01*
X151214286Y-89870057D02*
X151261905Y-89822438D01*
X151261905Y-89822438D02*
X151357143Y-89774819D01*
X151357143Y-89774819D02*
X151595238Y-89774819D01*
X151595238Y-89774819D02*
X151738095Y-89822438D01*
X152071429Y-89774819D02*
X152309524Y-90774819D01*
X152309524Y-90774819D02*
X152500000Y-90060533D01*
X152500000Y-90060533D02*
X152690476Y-90774819D01*
X152690476Y-90774819D02*
X152928572Y-89774819D01*
X153214286Y-89774819D02*
X153833333Y-89774819D01*
X153833333Y-89774819D02*
X153500000Y-90155771D01*
X153500000Y-90155771D02*
X153642857Y-90155771D01*
X153642857Y-90155771D02*
X153738095Y-90203390D01*
X153738095Y-90203390D02*
X153785714Y-90251009D01*
X153785714Y-90251009D02*
X153833333Y-90346247D01*
X153833333Y-90346247D02*
X153833333Y-90584342D01*
X153833333Y-90584342D02*
X153785714Y-90679580D01*
X153785714Y-90679580D02*
X153738095Y-90727200D01*
X153738095Y-90727200D02*
X153642857Y-90774819D01*
X153642857Y-90774819D02*
X153357143Y-90774819D01*
X153357143Y-90774819D02*
X153261905Y-90727200D01*
X153261905Y-90727200D02*
X153214286Y-90679580D01*
X165733333Y-128279580D02*
X165685714Y-128327200D01*
X165685714Y-128327200D02*
X165542857Y-128374819D01*
X165542857Y-128374819D02*
X165447619Y-128374819D01*
X165447619Y-128374819D02*
X165304762Y-128327200D01*
X165304762Y-128327200D02*
X165209524Y-128231961D01*
X165209524Y-128231961D02*
X165161905Y-128136723D01*
X165161905Y-128136723D02*
X165114286Y-127946247D01*
X165114286Y-127946247D02*
X165114286Y-127803390D01*
X165114286Y-127803390D02*
X165161905Y-127612914D01*
X165161905Y-127612914D02*
X165209524Y-127517676D01*
X165209524Y-127517676D02*
X165304762Y-127422438D01*
X165304762Y-127422438D02*
X165447619Y-127374819D01*
X165447619Y-127374819D02*
X165542857Y-127374819D01*
X165542857Y-127374819D02*
X165685714Y-127422438D01*
X165685714Y-127422438D02*
X165733333Y-127470057D01*
X166590476Y-127708152D02*
X166590476Y-128374819D01*
X166352381Y-127327200D02*
X166114286Y-128041485D01*
X166114286Y-128041485D02*
X166733333Y-128041485D01*
X161031666Y-53119819D02*
X161031666Y-53834104D01*
X161031666Y-53834104D02*
X160984047Y-53976961D01*
X160984047Y-53976961D02*
X160888809Y-54072200D01*
X160888809Y-54072200D02*
X160745952Y-54119819D01*
X160745952Y-54119819D02*
X160650714Y-54119819D01*
X161412619Y-53119819D02*
X162031666Y-53119819D01*
X162031666Y-53119819D02*
X161698333Y-53500771D01*
X161698333Y-53500771D02*
X161841190Y-53500771D01*
X161841190Y-53500771D02*
X161936428Y-53548390D01*
X161936428Y-53548390D02*
X161984047Y-53596009D01*
X161984047Y-53596009D02*
X162031666Y-53691247D01*
X162031666Y-53691247D02*
X162031666Y-53929342D01*
X162031666Y-53929342D02*
X161984047Y-54024580D01*
X161984047Y-54024580D02*
X161936428Y-54072200D01*
X161936428Y-54072200D02*
X161841190Y-54119819D01*
X161841190Y-54119819D02*
X161555476Y-54119819D01*
X161555476Y-54119819D02*
X161460238Y-54072200D01*
X161460238Y-54072200D02*
X161412619Y-54024580D01*
X191811667Y-90827200D02*
X191954524Y-90874819D01*
X191954524Y-90874819D02*
X192192619Y-90874819D01*
X192192619Y-90874819D02*
X192287857Y-90827200D01*
X192287857Y-90827200D02*
X192335476Y-90779580D01*
X192335476Y-90779580D02*
X192383095Y-90684342D01*
X192383095Y-90684342D02*
X192383095Y-90589104D01*
X192383095Y-90589104D02*
X192335476Y-90493866D01*
X192335476Y-90493866D02*
X192287857Y-90446247D01*
X192287857Y-90446247D02*
X192192619Y-90398628D01*
X192192619Y-90398628D02*
X192002143Y-90351009D01*
X192002143Y-90351009D02*
X191906905Y-90303390D01*
X191906905Y-90303390D02*
X191859286Y-90255771D01*
X191859286Y-90255771D02*
X191811667Y-90160533D01*
X191811667Y-90160533D02*
X191811667Y-90065295D01*
X191811667Y-90065295D02*
X191859286Y-89970057D01*
X191859286Y-89970057D02*
X191906905Y-89922438D01*
X191906905Y-89922438D02*
X192002143Y-89874819D01*
X192002143Y-89874819D02*
X192240238Y-89874819D01*
X192240238Y-89874819D02*
X192383095Y-89922438D01*
X192716429Y-89874819D02*
X192954524Y-90874819D01*
X192954524Y-90874819D02*
X193145000Y-90160533D01*
X193145000Y-90160533D02*
X193335476Y-90874819D01*
X193335476Y-90874819D02*
X193573572Y-89874819D01*
X193906905Y-89970057D02*
X193954524Y-89922438D01*
X193954524Y-89922438D02*
X194049762Y-89874819D01*
X194049762Y-89874819D02*
X194287857Y-89874819D01*
X194287857Y-89874819D02*
X194383095Y-89922438D01*
X194383095Y-89922438D02*
X194430714Y-89970057D01*
X194430714Y-89970057D02*
X194478333Y-90065295D01*
X194478333Y-90065295D02*
X194478333Y-90160533D01*
X194478333Y-90160533D02*
X194430714Y-90303390D01*
X194430714Y-90303390D02*
X193859286Y-90874819D01*
X193859286Y-90874819D02*
X194478333Y-90874819D01*
X157824819Y-110566666D02*
X157348628Y-110899999D01*
X157824819Y-111138094D02*
X156824819Y-111138094D01*
X156824819Y-111138094D02*
X156824819Y-110757142D01*
X156824819Y-110757142D02*
X156872438Y-110661904D01*
X156872438Y-110661904D02*
X156920057Y-110614285D01*
X156920057Y-110614285D02*
X157015295Y-110566666D01*
X157015295Y-110566666D02*
X157158152Y-110566666D01*
X157158152Y-110566666D02*
X157253390Y-110614285D01*
X157253390Y-110614285D02*
X157301009Y-110661904D01*
X157301009Y-110661904D02*
X157348628Y-110757142D01*
X157348628Y-110757142D02*
X157348628Y-111138094D01*
X156824819Y-109661904D02*
X156824819Y-110138094D01*
X156824819Y-110138094D02*
X157301009Y-110185713D01*
X157301009Y-110185713D02*
X157253390Y-110138094D01*
X157253390Y-110138094D02*
X157205771Y-110042856D01*
X157205771Y-110042856D02*
X157205771Y-109804761D01*
X157205771Y-109804761D02*
X157253390Y-109709523D01*
X157253390Y-109709523D02*
X157301009Y-109661904D01*
X157301009Y-109661904D02*
X157396247Y-109614285D01*
X157396247Y-109614285D02*
X157634342Y-109614285D01*
X157634342Y-109614285D02*
X157729580Y-109661904D01*
X157729580Y-109661904D02*
X157777200Y-109709523D01*
X157777200Y-109709523D02*
X157824819Y-109804761D01*
X157824819Y-109804761D02*
X157824819Y-110042856D01*
X157824819Y-110042856D02*
X157777200Y-110138094D01*
X157777200Y-110138094D02*
X157729580Y-110185713D01*
X152074819Y-110566666D02*
X151598628Y-110899999D01*
X152074819Y-111138094D02*
X151074819Y-111138094D01*
X151074819Y-111138094D02*
X151074819Y-110757142D01*
X151074819Y-110757142D02*
X151122438Y-110661904D01*
X151122438Y-110661904D02*
X151170057Y-110614285D01*
X151170057Y-110614285D02*
X151265295Y-110566666D01*
X151265295Y-110566666D02*
X151408152Y-110566666D01*
X151408152Y-110566666D02*
X151503390Y-110614285D01*
X151503390Y-110614285D02*
X151551009Y-110661904D01*
X151551009Y-110661904D02*
X151598628Y-110757142D01*
X151598628Y-110757142D02*
X151598628Y-111138094D01*
X151074819Y-109709523D02*
X151074819Y-109899999D01*
X151074819Y-109899999D02*
X151122438Y-109995237D01*
X151122438Y-109995237D02*
X151170057Y-110042856D01*
X151170057Y-110042856D02*
X151312914Y-110138094D01*
X151312914Y-110138094D02*
X151503390Y-110185713D01*
X151503390Y-110185713D02*
X151884342Y-110185713D01*
X151884342Y-110185713D02*
X151979580Y-110138094D01*
X151979580Y-110138094D02*
X152027200Y-110090475D01*
X152027200Y-110090475D02*
X152074819Y-109995237D01*
X152074819Y-109995237D02*
X152074819Y-109804761D01*
X152074819Y-109804761D02*
X152027200Y-109709523D01*
X152027200Y-109709523D02*
X151979580Y-109661904D01*
X151979580Y-109661904D02*
X151884342Y-109614285D01*
X151884342Y-109614285D02*
X151646247Y-109614285D01*
X151646247Y-109614285D02*
X151551009Y-109661904D01*
X151551009Y-109661904D02*
X151503390Y-109709523D01*
X151503390Y-109709523D02*
X151455771Y-109804761D01*
X151455771Y-109804761D02*
X151455771Y-109995237D01*
X151455771Y-109995237D02*
X151503390Y-110090475D01*
X151503390Y-110090475D02*
X151551009Y-110138094D01*
X151551009Y-110138094D02*
X151646247Y-110185713D01*
X171824819Y-110566666D02*
X171348628Y-110899999D01*
X171824819Y-111138094D02*
X170824819Y-111138094D01*
X170824819Y-111138094D02*
X170824819Y-110757142D01*
X170824819Y-110757142D02*
X170872438Y-110661904D01*
X170872438Y-110661904D02*
X170920057Y-110614285D01*
X170920057Y-110614285D02*
X171015295Y-110566666D01*
X171015295Y-110566666D02*
X171158152Y-110566666D01*
X171158152Y-110566666D02*
X171253390Y-110614285D01*
X171253390Y-110614285D02*
X171301009Y-110661904D01*
X171301009Y-110661904D02*
X171348628Y-110757142D01*
X171348628Y-110757142D02*
X171348628Y-111138094D01*
X170824819Y-110233332D02*
X170824819Y-109566666D01*
X170824819Y-109566666D02*
X171824819Y-109995237D01*
X164916667Y-90727200D02*
X165059524Y-90774819D01*
X165059524Y-90774819D02*
X165297619Y-90774819D01*
X165297619Y-90774819D02*
X165392857Y-90727200D01*
X165392857Y-90727200D02*
X165440476Y-90679580D01*
X165440476Y-90679580D02*
X165488095Y-90584342D01*
X165488095Y-90584342D02*
X165488095Y-90489104D01*
X165488095Y-90489104D02*
X165440476Y-90393866D01*
X165440476Y-90393866D02*
X165392857Y-90346247D01*
X165392857Y-90346247D02*
X165297619Y-90298628D01*
X165297619Y-90298628D02*
X165107143Y-90251009D01*
X165107143Y-90251009D02*
X165011905Y-90203390D01*
X165011905Y-90203390D02*
X164964286Y-90155771D01*
X164964286Y-90155771D02*
X164916667Y-90060533D01*
X164916667Y-90060533D02*
X164916667Y-89965295D01*
X164916667Y-89965295D02*
X164964286Y-89870057D01*
X164964286Y-89870057D02*
X165011905Y-89822438D01*
X165011905Y-89822438D02*
X165107143Y-89774819D01*
X165107143Y-89774819D02*
X165345238Y-89774819D01*
X165345238Y-89774819D02*
X165488095Y-89822438D01*
X165821429Y-89774819D02*
X166059524Y-90774819D01*
X166059524Y-90774819D02*
X166250000Y-90060533D01*
X166250000Y-90060533D02*
X166440476Y-90774819D01*
X166440476Y-90774819D02*
X166678572Y-89774819D01*
X167488095Y-90108152D02*
X167488095Y-90774819D01*
X167250000Y-89727200D02*
X167011905Y-90441485D01*
X167011905Y-90441485D02*
X167630952Y-90441485D01*
X151983333Y-128279580D02*
X151935714Y-128327200D01*
X151935714Y-128327200D02*
X151792857Y-128374819D01*
X151792857Y-128374819D02*
X151697619Y-128374819D01*
X151697619Y-128374819D02*
X151554762Y-128327200D01*
X151554762Y-128327200D02*
X151459524Y-128231961D01*
X151459524Y-128231961D02*
X151411905Y-128136723D01*
X151411905Y-128136723D02*
X151364286Y-127946247D01*
X151364286Y-127946247D02*
X151364286Y-127803390D01*
X151364286Y-127803390D02*
X151411905Y-127612914D01*
X151411905Y-127612914D02*
X151459524Y-127517676D01*
X151459524Y-127517676D02*
X151554762Y-127422438D01*
X151554762Y-127422438D02*
X151697619Y-127374819D01*
X151697619Y-127374819D02*
X151792857Y-127374819D01*
X151792857Y-127374819D02*
X151935714Y-127422438D01*
X151935714Y-127422438D02*
X151983333Y-127470057D01*
X152316667Y-127374819D02*
X152935714Y-127374819D01*
X152935714Y-127374819D02*
X152602381Y-127755771D01*
X152602381Y-127755771D02*
X152745238Y-127755771D01*
X152745238Y-127755771D02*
X152840476Y-127803390D01*
X152840476Y-127803390D02*
X152888095Y-127851009D01*
X152888095Y-127851009D02*
X152935714Y-127946247D01*
X152935714Y-127946247D02*
X152935714Y-128184342D01*
X152935714Y-128184342D02*
X152888095Y-128279580D01*
X152888095Y-128279580D02*
X152840476Y-128327200D01*
X152840476Y-128327200D02*
X152745238Y-128374819D01*
X152745238Y-128374819D02*
X152459524Y-128374819D01*
X152459524Y-128374819D02*
X152364286Y-128327200D01*
X152364286Y-128327200D02*
X152316667Y-128279580D01*
X188061905Y-72519819D02*
X188061905Y-71519819D01*
X188061905Y-71519819D02*
X188300000Y-71519819D01*
X188300000Y-71519819D02*
X188442857Y-71567438D01*
X188442857Y-71567438D02*
X188538095Y-71662676D01*
X188538095Y-71662676D02*
X188585714Y-71757914D01*
X188585714Y-71757914D02*
X188633333Y-71948390D01*
X188633333Y-71948390D02*
X188633333Y-72091247D01*
X188633333Y-72091247D02*
X188585714Y-72281723D01*
X188585714Y-72281723D02*
X188538095Y-72376961D01*
X188538095Y-72376961D02*
X188442857Y-72472200D01*
X188442857Y-72472200D02*
X188300000Y-72519819D01*
X188300000Y-72519819D02*
X188061905Y-72519819D01*
X188966667Y-71519819D02*
X189585714Y-71519819D01*
X189585714Y-71519819D02*
X189252381Y-71900771D01*
X189252381Y-71900771D02*
X189395238Y-71900771D01*
X189395238Y-71900771D02*
X189490476Y-71948390D01*
X189490476Y-71948390D02*
X189538095Y-71996009D01*
X189538095Y-71996009D02*
X189585714Y-72091247D01*
X189585714Y-72091247D02*
X189585714Y-72329342D01*
X189585714Y-72329342D02*
X189538095Y-72424580D01*
X189538095Y-72424580D02*
X189490476Y-72472200D01*
X189490476Y-72472200D02*
X189395238Y-72519819D01*
X189395238Y-72519819D02*
X189109524Y-72519819D01*
X189109524Y-72519819D02*
X189014286Y-72472200D01*
X189014286Y-72472200D02*
X188966667Y-72424580D01*
X193235714Y-79654819D02*
X192664286Y-79654819D01*
X192950000Y-79654819D02*
X192950000Y-78654819D01*
X192950000Y-78654819D02*
X192854762Y-78797676D01*
X192854762Y-78797676D02*
X192759524Y-78892914D01*
X192759524Y-78892914D02*
X192664286Y-78940533D01*
X174141905Y-72834819D02*
X174141905Y-71834819D01*
X174141905Y-71834819D02*
X174380000Y-71834819D01*
X174380000Y-71834819D02*
X174522857Y-71882438D01*
X174522857Y-71882438D02*
X174618095Y-71977676D01*
X174618095Y-71977676D02*
X174665714Y-72072914D01*
X174665714Y-72072914D02*
X174713333Y-72263390D01*
X174713333Y-72263390D02*
X174713333Y-72406247D01*
X174713333Y-72406247D02*
X174665714Y-72596723D01*
X174665714Y-72596723D02*
X174618095Y-72691961D01*
X174618095Y-72691961D02*
X174522857Y-72787200D01*
X174522857Y-72787200D02*
X174380000Y-72834819D01*
X174380000Y-72834819D02*
X174141905Y-72834819D01*
X175665714Y-72834819D02*
X175094286Y-72834819D01*
X175380000Y-72834819D02*
X175380000Y-71834819D01*
X175380000Y-71834819D02*
X175284762Y-71977676D01*
X175284762Y-71977676D02*
X175189524Y-72072914D01*
X175189524Y-72072914D02*
X175094286Y-72120533D01*
X179050714Y-79969819D02*
X178479286Y-79969819D01*
X178765000Y-79969819D02*
X178765000Y-78969819D01*
X178765000Y-78969819D02*
X178669762Y-79112676D01*
X178669762Y-79112676D02*
X178574524Y-79207914D01*
X178574524Y-79207914D02*
X178479286Y-79255533D01*
X142324819Y-110321666D02*
X141848628Y-110654999D01*
X142324819Y-110893094D02*
X141324819Y-110893094D01*
X141324819Y-110893094D02*
X141324819Y-110512142D01*
X141324819Y-110512142D02*
X141372438Y-110416904D01*
X141372438Y-110416904D02*
X141420057Y-110369285D01*
X141420057Y-110369285D02*
X141515295Y-110321666D01*
X141515295Y-110321666D02*
X141658152Y-110321666D01*
X141658152Y-110321666D02*
X141753390Y-110369285D01*
X141753390Y-110369285D02*
X141801009Y-110416904D01*
X141801009Y-110416904D02*
X141848628Y-110512142D01*
X141848628Y-110512142D02*
X141848628Y-110893094D01*
X142324819Y-109845475D02*
X142324819Y-109654999D01*
X142324819Y-109654999D02*
X142277200Y-109559761D01*
X142277200Y-109559761D02*
X142229580Y-109512142D01*
X142229580Y-109512142D02*
X142086723Y-109416904D01*
X142086723Y-109416904D02*
X141896247Y-109369285D01*
X141896247Y-109369285D02*
X141515295Y-109369285D01*
X141515295Y-109369285D02*
X141420057Y-109416904D01*
X141420057Y-109416904D02*
X141372438Y-109464523D01*
X141372438Y-109464523D02*
X141324819Y-109559761D01*
X141324819Y-109559761D02*
X141324819Y-109750237D01*
X141324819Y-109750237D02*
X141372438Y-109845475D01*
X141372438Y-109845475D02*
X141420057Y-109893094D01*
X141420057Y-109893094D02*
X141515295Y-109940713D01*
X141515295Y-109940713D02*
X141753390Y-109940713D01*
X141753390Y-109940713D02*
X141848628Y-109893094D01*
X141848628Y-109893094D02*
X141896247Y-109845475D01*
X141896247Y-109845475D02*
X141943866Y-109750237D01*
X141943866Y-109750237D02*
X141943866Y-109559761D01*
X141943866Y-109559761D02*
X141896247Y-109464523D01*
X141896247Y-109464523D02*
X141848628Y-109416904D01*
X141848628Y-109416904D02*
X141753390Y-109369285D01*
X178916667Y-90827200D02*
X179059524Y-90874819D01*
X179059524Y-90874819D02*
X179297619Y-90874819D01*
X179297619Y-90874819D02*
X179392857Y-90827200D01*
X179392857Y-90827200D02*
X179440476Y-90779580D01*
X179440476Y-90779580D02*
X179488095Y-90684342D01*
X179488095Y-90684342D02*
X179488095Y-90589104D01*
X179488095Y-90589104D02*
X179440476Y-90493866D01*
X179440476Y-90493866D02*
X179392857Y-90446247D01*
X179392857Y-90446247D02*
X179297619Y-90398628D01*
X179297619Y-90398628D02*
X179107143Y-90351009D01*
X179107143Y-90351009D02*
X179011905Y-90303390D01*
X179011905Y-90303390D02*
X178964286Y-90255771D01*
X178964286Y-90255771D02*
X178916667Y-90160533D01*
X178916667Y-90160533D02*
X178916667Y-90065295D01*
X178916667Y-90065295D02*
X178964286Y-89970057D01*
X178964286Y-89970057D02*
X179011905Y-89922438D01*
X179011905Y-89922438D02*
X179107143Y-89874819D01*
X179107143Y-89874819D02*
X179345238Y-89874819D01*
X179345238Y-89874819D02*
X179488095Y-89922438D01*
X179821429Y-89874819D02*
X180059524Y-90874819D01*
X180059524Y-90874819D02*
X180250000Y-90160533D01*
X180250000Y-90160533D02*
X180440476Y-90874819D01*
X180440476Y-90874819D02*
X180678572Y-89874819D01*
X181583333Y-90874819D02*
X181011905Y-90874819D01*
X181297619Y-90874819D02*
X181297619Y-89874819D01*
X181297619Y-89874819D02*
X181202381Y-90017676D01*
X181202381Y-90017676D02*
X181107143Y-90112914D01*
X181107143Y-90112914D02*
X181011905Y-90160533D01*
X165674819Y-110486666D02*
X165198628Y-110819999D01*
X165674819Y-111058094D02*
X164674819Y-111058094D01*
X164674819Y-111058094D02*
X164674819Y-110677142D01*
X164674819Y-110677142D02*
X164722438Y-110581904D01*
X164722438Y-110581904D02*
X164770057Y-110534285D01*
X164770057Y-110534285D02*
X164865295Y-110486666D01*
X164865295Y-110486666D02*
X165008152Y-110486666D01*
X165008152Y-110486666D02*
X165103390Y-110534285D01*
X165103390Y-110534285D02*
X165151009Y-110581904D01*
X165151009Y-110581904D02*
X165198628Y-110677142D01*
X165198628Y-110677142D02*
X165198628Y-111058094D01*
X165103390Y-109915237D02*
X165055771Y-110010475D01*
X165055771Y-110010475D02*
X165008152Y-110058094D01*
X165008152Y-110058094D02*
X164912914Y-110105713D01*
X164912914Y-110105713D02*
X164865295Y-110105713D01*
X164865295Y-110105713D02*
X164770057Y-110058094D01*
X164770057Y-110058094D02*
X164722438Y-110010475D01*
X164722438Y-110010475D02*
X164674819Y-109915237D01*
X164674819Y-109915237D02*
X164674819Y-109724761D01*
X164674819Y-109724761D02*
X164722438Y-109629523D01*
X164722438Y-109629523D02*
X164770057Y-109581904D01*
X164770057Y-109581904D02*
X164865295Y-109534285D01*
X164865295Y-109534285D02*
X164912914Y-109534285D01*
X164912914Y-109534285D02*
X165008152Y-109581904D01*
X165008152Y-109581904D02*
X165055771Y-109629523D01*
X165055771Y-109629523D02*
X165103390Y-109724761D01*
X165103390Y-109724761D02*
X165103390Y-109915237D01*
X165103390Y-109915237D02*
X165151009Y-110010475D01*
X165151009Y-110010475D02*
X165198628Y-110058094D01*
X165198628Y-110058094D02*
X165293866Y-110105713D01*
X165293866Y-110105713D02*
X165484342Y-110105713D01*
X165484342Y-110105713D02*
X165579580Y-110058094D01*
X165579580Y-110058094D02*
X165627200Y-110010475D01*
X165627200Y-110010475D02*
X165674819Y-109915237D01*
X165674819Y-109915237D02*
X165674819Y-109724761D01*
X165674819Y-109724761D02*
X165627200Y-109629523D01*
X165627200Y-109629523D02*
X165579580Y-109581904D01*
X165579580Y-109581904D02*
X165484342Y-109534285D01*
X165484342Y-109534285D02*
X165293866Y-109534285D01*
X165293866Y-109534285D02*
X165198628Y-109581904D01*
X165198628Y-109581904D02*
X165151009Y-109629523D01*
X165151009Y-109629523D02*
X165103390Y-109724761D01*
X180333333Y-128279580D02*
X180285714Y-128327200D01*
X180285714Y-128327200D02*
X180142857Y-128374819D01*
X180142857Y-128374819D02*
X180047619Y-128374819D01*
X180047619Y-128374819D02*
X179904762Y-128327200D01*
X179904762Y-128327200D02*
X179809524Y-128231961D01*
X179809524Y-128231961D02*
X179761905Y-128136723D01*
X179761905Y-128136723D02*
X179714286Y-127946247D01*
X179714286Y-127946247D02*
X179714286Y-127803390D01*
X179714286Y-127803390D02*
X179761905Y-127612914D01*
X179761905Y-127612914D02*
X179809524Y-127517676D01*
X179809524Y-127517676D02*
X179904762Y-127422438D01*
X179904762Y-127422438D02*
X180047619Y-127374819D01*
X180047619Y-127374819D02*
X180142857Y-127374819D01*
X180142857Y-127374819D02*
X180285714Y-127422438D01*
X180285714Y-127422438D02*
X180333333Y-127470057D01*
X181285714Y-128374819D02*
X180714286Y-128374819D01*
X181000000Y-128374819D02*
X181000000Y-127374819D01*
X181000000Y-127374819D02*
X180904762Y-127517676D01*
X180904762Y-127517676D02*
X180809524Y-127612914D01*
X180809524Y-127612914D02*
X180714286Y-127660533D01*
X183531666Y-53304819D02*
X183531666Y-54019104D01*
X183531666Y-54019104D02*
X183484047Y-54161961D01*
X183484047Y-54161961D02*
X183388809Y-54257200D01*
X183388809Y-54257200D02*
X183245952Y-54304819D01*
X183245952Y-54304819D02*
X183150714Y-54304819D01*
X184436428Y-53638152D02*
X184436428Y-54304819D01*
X184198333Y-53257200D02*
X183960238Y-53971485D01*
X183960238Y-53971485D02*
X184579285Y-53971485D01*
X149916666Y-73834819D02*
X149916666Y-74549104D01*
X149916666Y-74549104D02*
X149869047Y-74691961D01*
X149869047Y-74691961D02*
X149773809Y-74787200D01*
X149773809Y-74787200D02*
X149630952Y-74834819D01*
X149630952Y-74834819D02*
X149535714Y-74834819D01*
X150916666Y-74834819D02*
X150345238Y-74834819D01*
X150630952Y-74834819D02*
X150630952Y-73834819D01*
X150630952Y-73834819D02*
X150535714Y-73977676D01*
X150535714Y-73977676D02*
X150440476Y-74072914D01*
X150440476Y-74072914D02*
X150345238Y-74120533D01*
D14*
%TO.C,SW5*%
X133250000Y-93735000D02*
X133250000Y-95235000D01*
X134500000Y-97735000D02*
X139000000Y-97735000D01*
X139000000Y-91235000D02*
X134500000Y-91235000D01*
X140250000Y-95235000D02*
X140250000Y-93735000D01*
%TO.C,P1*%
X134695000Y-54505000D02*
X134695000Y-62125000D01*
X134695000Y-62125000D02*
X144855000Y-62125000D01*
X144855000Y-54505000D02*
X134695000Y-54505000D01*
X144855000Y-60855000D02*
X134695000Y-60855000D01*
X144855000Y-62125000D02*
X144855000Y-54505000D01*
%TO.C,C2*%
X190775000Y-124365000D02*
X190775000Y-124050000D01*
X190775000Y-126790000D02*
X190775000Y-126475000D01*
X196015000Y-124050000D02*
X190775000Y-124050000D01*
X196015000Y-124365000D02*
X196015000Y-124050000D01*
X196015000Y-126790000D02*
X190775000Y-126790000D01*
X196015000Y-126790000D02*
X196015000Y-126475000D01*
%TO.C,R4*%
X189125000Y-107230000D02*
X189125000Y-113770000D01*
X189125000Y-113770000D02*
X191865000Y-113770000D01*
X190495000Y-106460000D02*
X190495000Y-107230000D01*
X190495000Y-114540000D02*
X190495000Y-113770000D01*
X191865000Y-107230000D02*
X189125000Y-107230000D01*
X191865000Y-113770000D02*
X191865000Y-107230000D01*
%TO.C,R3*%
X194875000Y-107230000D02*
X194875000Y-113770000D01*
X194875000Y-113770000D02*
X197615000Y-113770000D01*
X196245000Y-106460000D02*
X196245000Y-107230000D01*
X196245000Y-114540000D02*
X196245000Y-113770000D01*
X197615000Y-107230000D02*
X194875000Y-107230000D01*
X197615000Y-113770000D02*
X197615000Y-107230000D01*
%TO.C,J2*%
X107955000Y-60470000D02*
X107955000Y-62660000D01*
X107955000Y-62660000D02*
X109905000Y-62660000D01*
X108195000Y-54380000D02*
X108195000Y-62420000D01*
X108195000Y-54380000D02*
X128935000Y-54380000D01*
X108195000Y-58000000D02*
X109435000Y-58000000D01*
X108195000Y-59000000D02*
X109435000Y-59000000D01*
X108195000Y-60300000D02*
X109435000Y-60300000D01*
X108195000Y-62420000D02*
X128935000Y-62420000D01*
X113195000Y-58000000D02*
X114480000Y-58000000D01*
X113195000Y-59000000D02*
X114480000Y-59000000D01*
X113195000Y-60300000D02*
X115646000Y-60300000D01*
X114829000Y-59748000D02*
X114829000Y-59748000D01*
X116985000Y-60300000D02*
X120646000Y-60300000D01*
X117802000Y-57252000D02*
X117802000Y-57252000D01*
X118151000Y-58000000D02*
X119480000Y-58000000D01*
X118151000Y-59000000D02*
X119480000Y-59000000D01*
X119829000Y-59748000D02*
X119829000Y-59748000D01*
X121985000Y-60300000D02*
X125646000Y-60300000D01*
X122802000Y-57252000D02*
X122802000Y-57252000D01*
X123151000Y-58000000D02*
X124480000Y-58000000D01*
X123151000Y-59000000D02*
X124480000Y-59000000D01*
X124829000Y-59748000D02*
X124829000Y-59748000D01*
X126985000Y-60300000D02*
X128935000Y-60300000D01*
X127802000Y-57252000D02*
X127802000Y-57252000D01*
X128151000Y-58000000D02*
X128935000Y-58000000D01*
X128151000Y-59000000D02*
X128935000Y-59000000D01*
X128935000Y-54380000D02*
X128935000Y-62420000D01*
X109439578Y-59072619D02*
G75*
G02*
X109440000Y-57926000I1875415J572619D01*
G01*
X110742381Y-56624578D02*
G75*
G02*
X111889000Y-56625000I572619J-1875422D01*
G01*
X111348500Y-60460607D02*
G75*
G02*
X110741000Y-60375000I-33500J1960607D01*
G01*
X111888049Y-60374357D02*
G75*
G02*
X111315000Y-60460000I-573049J1874357D01*
G01*
X113190422Y-57927381D02*
G75*
G02*
X113190000Y-59074000I-1875422J-572619D01*
G01*
X114749339Y-59679122D02*
G75*
G02*
X114750000Y-57320000I1565661J1179122D01*
G01*
X114749826Y-57319305D02*
G75*
G02*
X114836000Y-57213000I1564674J-1180295D01*
G01*
X114836125Y-59786294D02*
G75*
G02*
X114749999Y-59680001I1479575J1286894D01*
G01*
X114836202Y-57212988D02*
G75*
G02*
X114954000Y-57089000I1477098J-1285412D01*
G01*
X114953710Y-59910010D02*
G75*
G02*
X114835999Y-59786000I1361390J1410110D01*
G01*
X114953867Y-57089262D02*
G75*
G02*
X115082000Y-56975999I1361233J-1410838D01*
G01*
X115082069Y-60023253D02*
G75*
G02*
X114954000Y-59910000I1232831J1523153D01*
G01*
X115082452Y-56975623D02*
G75*
G02*
X115220000Y-56874000I1232548J-1524377D01*
G01*
X115219517Y-60125664D02*
G75*
G02*
X115082000Y-60024000I1095483J1625664D01*
G01*
X115248630Y-56855683D02*
G75*
G02*
X115396003Y-56769005I1065470J-1642917D01*
G01*
X115395344Y-60230739D02*
G75*
G02*
X115248000Y-60144000I921656J1734139D01*
G01*
X115487694Y-56722741D02*
G75*
G02*
X115678000Y-56646000I827306J-1777259D01*
G01*
X115677283Y-60353815D02*
G75*
G02*
X115487000Y-60277000I637717J1853815D01*
G01*
X115808681Y-56606527D02*
G75*
G02*
X116316000Y-56540001I506319J-1893473D01*
G01*
X116315479Y-60460685D02*
G75*
G02*
X115808001Y-60393997I-479J1960585D01*
G01*
X116315487Y-56539056D02*
G75*
G02*
X116823000Y-56606000I-487J-1960944D01*
G01*
X116822285Y-60393215D02*
G75*
G02*
X116315000Y-60460000I-507285J1893215D01*
G01*
X116953712Y-56646080D02*
G75*
G02*
X117143999Y-56723001I-638612J-1853620D01*
G01*
X117144295Y-60277050D02*
G75*
G02*
X116954000Y-60354001I-829795J1778250D01*
G01*
X117235652Y-56769174D02*
G75*
G02*
X117382997Y-56856004I-918652J-1727326D01*
G01*
X117383362Y-60144143D02*
G75*
G02*
X117236000Y-60231000I-1068362J1644143D01*
G01*
X117411479Y-56874249D02*
G75*
G02*
X117548999Y-56976002I-1097179J-1626651D01*
G01*
X117548457Y-60023294D02*
G75*
G02*
X117411001Y-60125002I-1232457J1521894D01*
G01*
X117548928Y-56976659D02*
G75*
G02*
X117677000Y-57090000I-1234028J-1523441D01*
G01*
X117677130Y-59910651D02*
G75*
G02*
X117549000Y-60024000I-1363630J1412351D01*
G01*
X117677286Y-57089903D02*
G75*
G02*
X117795000Y-57214000I-1362086J-1409897D01*
G01*
X117794707Y-59785928D02*
G75*
G02*
X117676999Y-59909999I-1479907J1286128D01*
G01*
X117794873Y-57213636D02*
G75*
G02*
X117881000Y-57320000I-1479373J-1285964D01*
G01*
X117880937Y-57319916D02*
G75*
G02*
X117881000Y-59680000I-1565937J-1180084D01*
G01*
X117881102Y-59679628D02*
G75*
G02*
X117795000Y-59786000I-1571402J1183928D01*
G01*
X119749339Y-59679122D02*
G75*
G02*
X119750000Y-57320000I1565661J1179122D01*
G01*
X119749826Y-57319305D02*
G75*
G02*
X119836000Y-57213000I1564674J-1180295D01*
G01*
X119836125Y-59786294D02*
G75*
G02*
X119749999Y-59680001I1479575J1286894D01*
G01*
X119836202Y-57212988D02*
G75*
G02*
X119954000Y-57089000I1477098J-1285412D01*
G01*
X119953710Y-59910010D02*
G75*
G02*
X119835999Y-59786000I1361390J1410110D01*
G01*
X119953867Y-57089262D02*
G75*
G02*
X120082000Y-56975999I1361233J-1410838D01*
G01*
X120082069Y-60023253D02*
G75*
G02*
X119954000Y-59910000I1232831J1523153D01*
G01*
X120082452Y-56975623D02*
G75*
G02*
X120220000Y-56874000I1232548J-1524377D01*
G01*
X120219517Y-60125664D02*
G75*
G02*
X120082000Y-60024000I1095483J1625664D01*
G01*
X120248630Y-56855683D02*
G75*
G02*
X120396003Y-56769005I1065470J-1642917D01*
G01*
X120395344Y-60230739D02*
G75*
G02*
X120248000Y-60144000I921656J1734139D01*
G01*
X120487694Y-56722741D02*
G75*
G02*
X120678000Y-56646000I827306J-1777259D01*
G01*
X120677283Y-60353815D02*
G75*
G02*
X120487000Y-60277000I637717J1853815D01*
G01*
X120808681Y-56606527D02*
G75*
G02*
X121316000Y-56540001I506319J-1893473D01*
G01*
X121315479Y-60460685D02*
G75*
G02*
X120808001Y-60393997I-479J1960585D01*
G01*
X121315487Y-56539056D02*
G75*
G02*
X121823000Y-56606000I-487J-1960944D01*
G01*
X121822285Y-60393215D02*
G75*
G02*
X121315000Y-60460000I-507285J1893215D01*
G01*
X121953712Y-56646080D02*
G75*
G02*
X122143999Y-56723001I-638612J-1853620D01*
G01*
X122144295Y-60277050D02*
G75*
G02*
X121954000Y-60354001I-829795J1778250D01*
G01*
X122235652Y-56769174D02*
G75*
G02*
X122382997Y-56856004I-918652J-1727326D01*
G01*
X122383362Y-60144143D02*
G75*
G02*
X122236000Y-60231000I-1068362J1644143D01*
G01*
X122411479Y-56874249D02*
G75*
G02*
X122548999Y-56976002I-1097179J-1626651D01*
G01*
X122548457Y-60023294D02*
G75*
G02*
X122411001Y-60125002I-1232457J1521894D01*
G01*
X122548928Y-56976659D02*
G75*
G02*
X122677000Y-57090000I-1234028J-1523441D01*
G01*
X122677130Y-59910651D02*
G75*
G02*
X122549000Y-60024000I-1363630J1412351D01*
G01*
X122677286Y-57089903D02*
G75*
G02*
X122795000Y-57214000I-1362086J-1409897D01*
G01*
X122794707Y-59785928D02*
G75*
G02*
X122676999Y-59909999I-1479907J1286128D01*
G01*
X122794873Y-57213636D02*
G75*
G02*
X122881000Y-57320000I-1479373J-1285964D01*
G01*
X122880937Y-57319916D02*
G75*
G02*
X122881000Y-59680000I-1565937J-1180084D01*
G01*
X122881102Y-59679628D02*
G75*
G02*
X122795000Y-59786000I-1571402J1183928D01*
G01*
X124749339Y-59679122D02*
G75*
G02*
X124750000Y-57320000I1565661J1179122D01*
G01*
X124749826Y-57319305D02*
G75*
G02*
X124836000Y-57213000I1564674J-1180295D01*
G01*
X124836125Y-59786294D02*
G75*
G02*
X124749999Y-59680001I1479575J1286894D01*
G01*
X124836202Y-57212988D02*
G75*
G02*
X124954000Y-57089000I1477098J-1285412D01*
G01*
X124953710Y-59910010D02*
G75*
G02*
X124835999Y-59786000I1361390J1410110D01*
G01*
X124953867Y-57089262D02*
G75*
G02*
X125082000Y-56975999I1361233J-1410838D01*
G01*
X125082069Y-60023253D02*
G75*
G02*
X124954000Y-59910000I1232831J1523153D01*
G01*
X125082452Y-56975623D02*
G75*
G02*
X125220000Y-56874000I1232548J-1524377D01*
G01*
X125219517Y-60125664D02*
G75*
G02*
X125082000Y-60024000I1095483J1625664D01*
G01*
X125248630Y-56855683D02*
G75*
G02*
X125396003Y-56769005I1065470J-1642917D01*
G01*
X125395344Y-60230739D02*
G75*
G02*
X125248000Y-60144000I921656J1734139D01*
G01*
X125487694Y-56722741D02*
G75*
G02*
X125678000Y-56646000I827306J-1777259D01*
G01*
X125677283Y-60353815D02*
G75*
G02*
X125487000Y-60277000I637717J1853815D01*
G01*
X125808681Y-56606527D02*
G75*
G02*
X126316000Y-56540001I506319J-1893473D01*
G01*
X126315479Y-60460685D02*
G75*
G02*
X125808001Y-60393997I-479J1960585D01*
G01*
X126315487Y-56539056D02*
G75*
G02*
X126823000Y-56606000I-487J-1960944D01*
G01*
X126822285Y-60393215D02*
G75*
G02*
X126315000Y-60460000I-507285J1893215D01*
G01*
X126953712Y-56646080D02*
G75*
G02*
X127143999Y-56723001I-638612J-1853620D01*
G01*
X127144295Y-60277050D02*
G75*
G02*
X126954000Y-60354001I-829795J1778250D01*
G01*
X127235652Y-56769174D02*
G75*
G02*
X127382997Y-56856004I-918652J-1727326D01*
G01*
X127383362Y-60144143D02*
G75*
G02*
X127236000Y-60231000I-1068362J1644143D01*
G01*
X127411479Y-56874249D02*
G75*
G02*
X127548999Y-56976002I-1097179J-1626651D01*
G01*
X127548457Y-60023294D02*
G75*
G02*
X127411001Y-60125002I-1232457J1521894D01*
G01*
X127548928Y-56976659D02*
G75*
G02*
X127677000Y-57090000I-1234028J-1523441D01*
G01*
X127677130Y-59910651D02*
G75*
G02*
X127549000Y-60024000I-1363630J1412351D01*
G01*
X127677286Y-57089903D02*
G75*
G02*
X127795000Y-57214000I-1362086J-1409897D01*
G01*
X127794707Y-59785928D02*
G75*
G02*
X127676999Y-59909999I-1479907J1286128D01*
G01*
X127794873Y-57213636D02*
G75*
G02*
X127881000Y-57320000I-1479373J-1285964D01*
G01*
X127880937Y-57319916D02*
G75*
G02*
X127881000Y-59680000I-1565937J-1180084D01*
G01*
X127881102Y-59679628D02*
G75*
G02*
X127795000Y-59786000I-1571402J1183928D01*
G01*
%TO.C,R1*%
X176630000Y-107150000D02*
X176630000Y-113690000D01*
X176630000Y-113690000D02*
X179370000Y-113690000D01*
X178000000Y-106380000D02*
X178000000Y-107150000D01*
X178000000Y-114460000D02*
X178000000Y-113690000D01*
X179370000Y-107150000D02*
X176630000Y-107150000D01*
X179370000Y-113690000D02*
X179370000Y-107150000D01*
%TO.C,R10*%
X132080000Y-106885000D02*
X132080000Y-113425000D01*
X132080000Y-113425000D02*
X134820000Y-113425000D01*
X133450000Y-106115000D02*
X133450000Y-106885000D01*
X133450000Y-114195000D02*
X133450000Y-113425000D01*
X134820000Y-106885000D02*
X132080000Y-106885000D01*
X134820000Y-113425000D02*
X134820000Y-106885000D01*
%TO.C,R2*%
X182130000Y-107070000D02*
X182130000Y-113610000D01*
X182130000Y-113610000D02*
X184870000Y-113610000D01*
X183500000Y-106300000D02*
X183500000Y-107070000D01*
X183500000Y-114380000D02*
X183500000Y-113610000D01*
X184870000Y-107070000D02*
X182130000Y-107070000D01*
X184870000Y-113610000D02*
X184870000Y-107070000D01*
%TO.C,C5*%
X133880000Y-124180000D02*
X133880000Y-123865000D01*
X133880000Y-126605000D02*
X133880000Y-126290000D01*
X139120000Y-123865000D02*
X133880000Y-123865000D01*
X139120000Y-124180000D02*
X139120000Y-123865000D01*
X139120000Y-126605000D02*
X133880000Y-126605000D01*
X139120000Y-126605000D02*
X139120000Y-126290000D01*
%TO.C,SW3*%
X149000000Y-93820000D02*
X149000000Y-95320000D01*
X150250000Y-97820000D02*
X154750000Y-97820000D01*
X154750000Y-91320000D02*
X150250000Y-91320000D01*
X156000000Y-95320000D02*
X156000000Y-93820000D01*
%TO.C,C4*%
X163280000Y-124365000D02*
X163280000Y-124050000D01*
X163280000Y-126790000D02*
X163280000Y-126475000D01*
X168520000Y-124050000D02*
X163280000Y-124050000D01*
X168520000Y-124365000D02*
X168520000Y-124050000D01*
X168520000Y-126790000D02*
X163280000Y-126790000D01*
X168520000Y-126790000D02*
X168520000Y-126475000D01*
%TO.C,J3*%
X153775000Y-54505000D02*
X169015000Y-54505000D01*
X153775000Y-60855000D02*
X169015000Y-60855000D01*
X153775000Y-62125000D02*
X153775000Y-54505000D01*
X153775000Y-62125000D02*
X169015000Y-62125000D01*
X169015000Y-62125000D02*
X169015000Y-54505000D01*
%TO.C,SW2*%
X189645000Y-93920000D02*
X189645000Y-95420000D01*
X190895000Y-97920000D02*
X195395000Y-97920000D01*
X195395000Y-91420000D02*
X190895000Y-91420000D01*
X196645000Y-95420000D02*
X196645000Y-93920000D01*
%TO.C,R5*%
X153630000Y-107130000D02*
X153630000Y-113670000D01*
X153630000Y-113670000D02*
X156370000Y-113670000D01*
X155000000Y-106360000D02*
X155000000Y-107130000D01*
X155000000Y-114440000D02*
X155000000Y-113670000D01*
X156370000Y-107130000D02*
X153630000Y-107130000D01*
X156370000Y-113670000D02*
X156370000Y-107130000D01*
%TO.C,R6*%
X147880000Y-107130000D02*
X147880000Y-113670000D01*
X147880000Y-113670000D02*
X150620000Y-113670000D01*
X149250000Y-106360000D02*
X149250000Y-107130000D01*
X149250000Y-114440000D02*
X149250000Y-113670000D01*
X150620000Y-107130000D02*
X147880000Y-107130000D01*
X150620000Y-113670000D02*
X150620000Y-107130000D01*
%TO.C,R7*%
X167630000Y-107130000D02*
X167630000Y-113670000D01*
X167630000Y-113670000D02*
X170370000Y-113670000D01*
X169000000Y-106360000D02*
X169000000Y-107130000D01*
X169000000Y-114440000D02*
X169000000Y-113670000D01*
X170370000Y-107130000D02*
X167630000Y-107130000D01*
X170370000Y-113670000D02*
X170370000Y-107130000D01*
%TO.C,SW4*%
X162750000Y-93820000D02*
X162750000Y-95320000D01*
X164000000Y-97820000D02*
X168500000Y-97820000D01*
X168500000Y-91320000D02*
X164000000Y-91320000D01*
X169750000Y-95320000D02*
X169750000Y-93820000D01*
%TO.C,C3*%
X149530000Y-124365000D02*
X149530000Y-124050000D01*
X149530000Y-126790000D02*
X149530000Y-126475000D01*
X154770000Y-124050000D02*
X149530000Y-124050000D01*
X154770000Y-124365000D02*
X154770000Y-124050000D01*
X154770000Y-126790000D02*
X149530000Y-126790000D01*
X154770000Y-126790000D02*
X154770000Y-126475000D01*
%TO.C,D3*%
X185300000Y-75300000D02*
X185300000Y-80350000D01*
X185750000Y-74850000D02*
X185300000Y-75300000D01*
X186100000Y-76700000D02*
X186100000Y-78500000D01*
X191500000Y-76700000D02*
X191500000Y-78500000D01*
X192300000Y-74850000D02*
X185750000Y-74850000D01*
X192300000Y-80350000D02*
X185300000Y-80350000D01*
X192300000Y-80350000D02*
X192300000Y-74850000D01*
%TO.C,D1*%
X171115000Y-75615000D02*
X171115000Y-80665000D01*
X171565000Y-75165000D02*
X171115000Y-75615000D01*
X171915000Y-77015000D02*
X171915000Y-78815000D01*
X177315000Y-77015000D02*
X177315000Y-78815000D01*
X178115000Y-75165000D02*
X171565000Y-75165000D01*
X178115000Y-80665000D02*
X171115000Y-80665000D01*
X178115000Y-80665000D02*
X178115000Y-75165000D01*
%TO.C,R9*%
X138130000Y-106885000D02*
X138130000Y-113425000D01*
X138130000Y-113425000D02*
X140870000Y-113425000D01*
X139500000Y-106115000D02*
X139500000Y-106885000D01*
X139500000Y-114195000D02*
X139500000Y-113425000D01*
X140870000Y-106885000D02*
X138130000Y-106885000D01*
X140870000Y-113425000D02*
X140870000Y-106885000D01*
D15*
%TO.C,G\u002A\u002A\u002A*%
G36*
X110993097Y-72575148D02*
G01*
X110968048Y-72600198D01*
X110942998Y-72575148D01*
X110968048Y-72550099D01*
X110993097Y-72575148D01*
G37*
G36*
X110993097Y-68542210D02*
G01*
X110993097Y-68993097D01*
X110542210Y-68993097D01*
X110091322Y-68993097D01*
X110091322Y-68542210D01*
X110091322Y-68091322D01*
X110542210Y-68091322D01*
X110993097Y-68091322D01*
X110993097Y-68542210D01*
G37*
G36*
X110993097Y-76457791D02*
G01*
X110993097Y-76908679D01*
X110542210Y-76908679D01*
X110091322Y-76908679D01*
X110091322Y-76457791D01*
X110091322Y-76006904D01*
X110542210Y-76006904D01*
X110993097Y-76006904D01*
X110993097Y-76457791D01*
G37*
G36*
X112245563Y-69293689D02*
G01*
X112245563Y-69594281D01*
X112070217Y-69594281D01*
X111894872Y-69594281D01*
X111894872Y-69293689D01*
X111894872Y-68993097D01*
X112070217Y-68993097D01*
X112245563Y-68993097D01*
X112245563Y-69293689D01*
G37*
G36*
X115552071Y-72199409D02*
G01*
X115552071Y-72349705D01*
X115251480Y-72349705D01*
X114950888Y-72349705D01*
X114950888Y-72199409D01*
X114950888Y-72049113D01*
X115251480Y-72049113D01*
X115552071Y-72049113D01*
X115552071Y-72199409D01*
G37*
G36*
X118908679Y-68542210D02*
G01*
X118908679Y-68993097D01*
X118457791Y-68993097D01*
X118006904Y-68993097D01*
X118006904Y-68542210D01*
X118006904Y-68091322D01*
X118457791Y-68091322D01*
X118908679Y-68091322D01*
X118908679Y-68542210D01*
G37*
G36*
X111550439Y-70558568D02*
G01*
X111589676Y-70617125D01*
X111594281Y-70696450D01*
X111581867Y-70802905D01*
X111523310Y-70842142D01*
X111443985Y-70846746D01*
X111337530Y-70834332D01*
X111298293Y-70775776D01*
X111293689Y-70696450D01*
X111306103Y-70589996D01*
X111364659Y-70550759D01*
X111443985Y-70546154D01*
X111550439Y-70558568D01*
G37*
G36*
X114005272Y-68103736D02*
G01*
X114044509Y-68162292D01*
X114049113Y-68241618D01*
X114036699Y-68348072D01*
X113978143Y-68387309D01*
X113898817Y-68391914D01*
X113792362Y-68379500D01*
X113753125Y-68320943D01*
X113748521Y-68241618D01*
X113760935Y-68135163D01*
X113819491Y-68095926D01*
X113898817Y-68091322D01*
X114005272Y-68103736D01*
G37*
G36*
X114005272Y-70859160D02*
G01*
X114044509Y-70917716D01*
X114049113Y-70997042D01*
X114036699Y-71103496D01*
X113978143Y-71142733D01*
X113898817Y-71147338D01*
X113792362Y-71134924D01*
X113753125Y-71076367D01*
X113748521Y-70997042D01*
X113760935Y-70890587D01*
X113819491Y-70851350D01*
X113898817Y-70846746D01*
X114005272Y-70859160D01*
G37*
G36*
X114907047Y-77221684D02*
G01*
X114946284Y-77280241D01*
X114950888Y-77359567D01*
X114938474Y-77466021D01*
X114879918Y-77505258D01*
X114800592Y-77509862D01*
X114694138Y-77497449D01*
X114654901Y-77438892D01*
X114650296Y-77359567D01*
X114662710Y-77253112D01*
X114721267Y-77213875D01*
X114800592Y-77209271D01*
X114907047Y-77221684D01*
G37*
G36*
X115207638Y-69306103D02*
G01*
X115246875Y-69364659D01*
X115251480Y-69443985D01*
X115239066Y-69550439D01*
X115180509Y-69589676D01*
X115101184Y-69594281D01*
X114994729Y-69581867D01*
X114955492Y-69523310D01*
X114950888Y-69443985D01*
X114963302Y-69337530D01*
X115021858Y-69298293D01*
X115101184Y-69293689D01*
X115207638Y-69306103D01*
G37*
G36*
X117047591Y-76616466D02*
G01*
X117095911Y-76658963D01*
X117105129Y-76758383D01*
X117095354Y-76859361D01*
X117045774Y-76900778D01*
X116929783Y-76908679D01*
X116811976Y-76900301D01*
X116763656Y-76857803D01*
X116754438Y-76758383D01*
X116764213Y-76657405D01*
X116813793Y-76615988D01*
X116929783Y-76608087D01*
X117047591Y-76616466D01*
G37*
G36*
X117662471Y-75418134D02*
G01*
X117701708Y-75476691D01*
X117706312Y-75556016D01*
X117693898Y-75662471D01*
X117635342Y-75701708D01*
X117556016Y-75706312D01*
X117449562Y-75693898D01*
X117410325Y-75635342D01*
X117405720Y-75556016D01*
X117418134Y-75449562D01*
X117476691Y-75410325D01*
X117556016Y-75405720D01*
X117662471Y-75418134D01*
G37*
G36*
X111594281Y-68542210D02*
G01*
X111594281Y-69594281D01*
X110542210Y-69594281D01*
X109490139Y-69594281D01*
X109490139Y-69293689D01*
X109790730Y-69293689D01*
X110542210Y-69293689D01*
X111293689Y-69293689D01*
X111293689Y-68542210D01*
X111293689Y-67790730D01*
X110542210Y-67790730D01*
X109790730Y-67790730D01*
X109790730Y-68542210D01*
X109790730Y-69293689D01*
X109490139Y-69293689D01*
X109490139Y-68542210D01*
X109490139Y-67490139D01*
X110542210Y-67490139D01*
X111594281Y-67490139D01*
X111594281Y-68542210D01*
G37*
G36*
X111594281Y-76457791D02*
G01*
X111594281Y-77509862D01*
X110542210Y-77509862D01*
X109490139Y-77509862D01*
X109490139Y-77209271D01*
X109790730Y-77209271D01*
X110542210Y-77209271D01*
X111293689Y-77209271D01*
X111293689Y-76457791D01*
X111293689Y-75706312D01*
X110542210Y-75706312D01*
X109790730Y-75706312D01*
X109790730Y-76457791D01*
X109790730Y-77209271D01*
X109490139Y-77209271D01*
X109490139Y-76457791D01*
X109490139Y-75405720D01*
X110542210Y-75405720D01*
X111594281Y-75405720D01*
X111594281Y-76457791D01*
G37*
G36*
X119509862Y-68542210D02*
G01*
X119509862Y-69594281D01*
X118457791Y-69594281D01*
X117405720Y-69594281D01*
X117405720Y-69293689D01*
X117706312Y-69293689D01*
X118457791Y-69293689D01*
X119209271Y-69293689D01*
X119209271Y-68542210D01*
X119209271Y-67790730D01*
X118457791Y-67790730D01*
X117706312Y-67790730D01*
X117706312Y-68542210D01*
X117706312Y-69293689D01*
X117405720Y-69293689D01*
X117405720Y-68542210D01*
X117405720Y-67490139D01*
X118457791Y-67490139D01*
X119509862Y-67490139D01*
X119509862Y-68542210D01*
G37*
G36*
X117405720Y-72349705D02*
G01*
X117405720Y-72650296D01*
X117080079Y-72650296D01*
X116754438Y-72650296D01*
X116754438Y-72800592D01*
X116754438Y-72950888D01*
X116604142Y-72950888D01*
X116497688Y-72938474D01*
X116458451Y-72879918D01*
X116453847Y-72800592D01*
X116466260Y-72694138D01*
X116524817Y-72654901D01*
X116604142Y-72650296D01*
X116710597Y-72637882D01*
X116749834Y-72579326D01*
X116754438Y-72500000D01*
X116764213Y-72399022D01*
X116813793Y-72357605D01*
X116929783Y-72349705D01*
X117047591Y-72341326D01*
X117095911Y-72298829D01*
X117105129Y-72199409D01*
X117117542Y-72092954D01*
X117176099Y-72053717D01*
X117255424Y-72049113D01*
X117405720Y-72049113D01*
X117405720Y-72349705D01*
G37*
G36*
X117662471Y-72662710D02*
G01*
X117701708Y-72721267D01*
X117706312Y-72800592D01*
X117718726Y-72907047D01*
X117777282Y-72946284D01*
X117856608Y-72950888D01*
X117963062Y-72963302D01*
X118002299Y-73021858D01*
X118006904Y-73101184D01*
X118019318Y-73207638D01*
X118077874Y-73246875D01*
X118157200Y-73251480D01*
X118307496Y-73251480D01*
X118307496Y-73552071D01*
X118307496Y-73852663D01*
X118006904Y-73852663D01*
X117706312Y-73852663D01*
X117706312Y-74002959D01*
X117693898Y-74109414D01*
X117635342Y-74148651D01*
X117556016Y-74153255D01*
X117449562Y-74140841D01*
X117410325Y-74082285D01*
X117405720Y-74002959D01*
X117405720Y-73852663D01*
X117080079Y-73852663D01*
X116754438Y-73852663D01*
X116754438Y-74002959D01*
X116742025Y-74109414D01*
X116683468Y-74148651D01*
X116604142Y-74153255D01*
X116497688Y-74140841D01*
X116458451Y-74082285D01*
X116453847Y-74002959D01*
X116441433Y-73896505D01*
X116382876Y-73857268D01*
X116303551Y-73852663D01*
X116197096Y-73840249D01*
X116157859Y-73781693D01*
X116153255Y-73702367D01*
X116153255Y-73552071D01*
X116453847Y-73552071D01*
X116754438Y-73552071D01*
X116754438Y-73251480D01*
X116754438Y-72950888D01*
X117080079Y-72950888D01*
X117405720Y-72950888D01*
X117405720Y-73401776D01*
X117405720Y-73852663D01*
X117556016Y-73852663D01*
X117706312Y-73852663D01*
X117706312Y-73401776D01*
X117706312Y-72950888D01*
X117556016Y-72950888D01*
X117449562Y-72938474D01*
X117410325Y-72879918D01*
X117405720Y-72800592D01*
X117405720Y-72650296D01*
X117556016Y-72650296D01*
X117662471Y-72662710D01*
G37*
G36*
X109746889Y-72061527D02*
G01*
X109786126Y-72120083D01*
X109790730Y-72199409D01*
X109790730Y-72349705D01*
X110241618Y-72349705D01*
X110692505Y-72349705D01*
X110692505Y-72500000D01*
X110680092Y-72606455D01*
X110621535Y-72645692D01*
X110542210Y-72650296D01*
X110391914Y-72650296D01*
X110391914Y-72950888D01*
X110391914Y-73251480D01*
X110542210Y-73251480D01*
X110648664Y-73239066D01*
X110687901Y-73180509D01*
X110692505Y-73101184D01*
X110993097Y-73101184D01*
X111005511Y-73207638D01*
X111064067Y-73246875D01*
X111143393Y-73251480D01*
X111249847Y-73263894D01*
X111289084Y-73322450D01*
X111293689Y-73401776D01*
X111306103Y-73508230D01*
X111364659Y-73547467D01*
X111443985Y-73552071D01*
X111550439Y-73539658D01*
X111589676Y-73481101D01*
X111594281Y-73401776D01*
X111581867Y-73295321D01*
X111523310Y-73256084D01*
X111443985Y-73251480D01*
X111337530Y-73239066D01*
X111298293Y-73180509D01*
X111293689Y-73101184D01*
X111306103Y-72994729D01*
X111364659Y-72955492D01*
X111443985Y-72950888D01*
X111550439Y-72938474D01*
X111589676Y-72879918D01*
X111594281Y-72800592D01*
X111581867Y-72694138D01*
X111523310Y-72654901D01*
X111443985Y-72650296D01*
X111337530Y-72662710D01*
X111298293Y-72721267D01*
X111293689Y-72800592D01*
X111281275Y-72907047D01*
X111222718Y-72946284D01*
X111143393Y-72950888D01*
X111036938Y-72963302D01*
X110997701Y-73021858D01*
X110993097Y-73101184D01*
X110692505Y-73101184D01*
X110704919Y-72994729D01*
X110763476Y-72955492D01*
X110842801Y-72950888D01*
X110949256Y-72938474D01*
X110988493Y-72879918D01*
X110993097Y-72800592D01*
X111005511Y-72694138D01*
X111064067Y-72654901D01*
X111143393Y-72650296D01*
X111249847Y-72637882D01*
X111289084Y-72579326D01*
X111293689Y-72500000D01*
X111306103Y-72393546D01*
X111364659Y-72354309D01*
X111443985Y-72349705D01*
X111550439Y-72362118D01*
X111589676Y-72420675D01*
X111594281Y-72500000D01*
X111594281Y-72650296D01*
X111919922Y-72650296D01*
X112245563Y-72650296D01*
X112245563Y-72800592D01*
X112257976Y-72907047D01*
X112316533Y-72946284D01*
X112395858Y-72950888D01*
X112546154Y-72950888D01*
X112546154Y-72650296D01*
X112546154Y-72349705D01*
X112696450Y-72349705D01*
X112846746Y-72349705D01*
X112846746Y-72650296D01*
X112846746Y-72950888D01*
X112696450Y-72950888D01*
X112589996Y-72963302D01*
X112550759Y-73021858D01*
X112546154Y-73101184D01*
X112533740Y-73207638D01*
X112475184Y-73246875D01*
X112395858Y-73251480D01*
X112289404Y-73239066D01*
X112250167Y-73180509D01*
X112245563Y-73101184D01*
X112235788Y-73000206D01*
X112186208Y-72958789D01*
X112070217Y-72950888D01*
X111894872Y-72950888D01*
X111894872Y-73251480D01*
X111894872Y-73552071D01*
X112370809Y-73552071D01*
X112846746Y-73552071D01*
X112846746Y-73251480D01*
X112846746Y-72950888D01*
X113147338Y-72950888D01*
X113447929Y-72950888D01*
X113447929Y-73101184D01*
X113435516Y-73207638D01*
X113376959Y-73246875D01*
X113297634Y-73251480D01*
X113147338Y-73251480D01*
X113147338Y-73552071D01*
X113147338Y-73852663D01*
X112521105Y-73852663D01*
X111894872Y-73852663D01*
X111894872Y-73702367D01*
X111882458Y-73595913D01*
X111823902Y-73556676D01*
X111744576Y-73552071D01*
X111638122Y-73564485D01*
X111598885Y-73623042D01*
X111594281Y-73702367D01*
X111581867Y-73808822D01*
X111523310Y-73848059D01*
X111443985Y-73852663D01*
X111337530Y-73840249D01*
X111298293Y-73781693D01*
X111293689Y-73702367D01*
X111293689Y-73552071D01*
X110993097Y-73552071D01*
X110692505Y-73552071D01*
X110692505Y-73852663D01*
X110692505Y-74153255D01*
X110542210Y-74153255D01*
X110391914Y-74153255D01*
X110391914Y-73852663D01*
X110391914Y-73552071D01*
X110241618Y-73552071D01*
X110091322Y-73552071D01*
X110091322Y-73852663D01*
X110091322Y-74153255D01*
X109941026Y-74153255D01*
X109790730Y-74153255D01*
X109790730Y-74629192D01*
X109790730Y-75105129D01*
X109640434Y-75105129D01*
X109490139Y-75105129D01*
X109490139Y-74478896D01*
X109490139Y-73852663D01*
X109640434Y-73852663D01*
X109746889Y-73840249D01*
X109786126Y-73781693D01*
X109790730Y-73702367D01*
X109803144Y-73595913D01*
X109861701Y-73556676D01*
X109941026Y-73552071D01*
X110091322Y-73552071D01*
X110091322Y-73101184D01*
X110091322Y-72650296D01*
X109941026Y-72650296D01*
X109790730Y-72650296D01*
X109790730Y-72950888D01*
X109790730Y-73251480D01*
X109640434Y-73251480D01*
X109490139Y-73251480D01*
X109490139Y-72650296D01*
X109490139Y-72049113D01*
X109640434Y-72049113D01*
X109746889Y-72061527D01*
G37*
G36*
X112546154Y-67790730D02*
G01*
X112546154Y-68091322D01*
X112696450Y-68091322D01*
X112802905Y-68078908D01*
X112842142Y-68020352D01*
X112846746Y-67941026D01*
X112846746Y-67790730D01*
X113147338Y-67790730D01*
X113447929Y-67790730D01*
X113447929Y-67941026D01*
X113435516Y-68047481D01*
X113376959Y-68086718D01*
X113297634Y-68091322D01*
X113147338Y-68091322D01*
X113147338Y-68391914D01*
X113147338Y-68692505D01*
X113748521Y-68692505D01*
X114349705Y-68692505D01*
X114349705Y-68391914D01*
X114349705Y-68241618D01*
X114650296Y-68241618D01*
X114650296Y-68391914D01*
X115101184Y-68391914D01*
X115552071Y-68391914D01*
X115552071Y-68542210D01*
X115552071Y-68692505D01*
X115852663Y-68692505D01*
X116153255Y-68692505D01*
X116153255Y-68842801D01*
X116165669Y-68949256D01*
X116224225Y-68988493D01*
X116303551Y-68993097D01*
X116453847Y-68993097D01*
X116453847Y-69293689D01*
X116453847Y-69594281D01*
X116604142Y-69594281D01*
X116754438Y-69594281D01*
X116754438Y-69293689D01*
X116754438Y-68993097D01*
X116604142Y-68993097D01*
X116497688Y-68980683D01*
X116458451Y-68922127D01*
X116453847Y-68842801D01*
X116441433Y-68736347D01*
X116382876Y-68697110D01*
X116303551Y-68692505D01*
X116197096Y-68680092D01*
X116157859Y-68621535D01*
X116153255Y-68542210D01*
X116165669Y-68435755D01*
X116224225Y-68396518D01*
X116303551Y-68391914D01*
X116410005Y-68379500D01*
X116449242Y-68320943D01*
X116453847Y-68241618D01*
X116466260Y-68135163D01*
X116524817Y-68095926D01*
X116604142Y-68091322D01*
X116710597Y-68078908D01*
X116749834Y-68020352D01*
X116754438Y-67941026D01*
X116742025Y-67834572D01*
X116683468Y-67795335D01*
X116604142Y-67790730D01*
X116497688Y-67803144D01*
X116458451Y-67861701D01*
X116453847Y-67941026D01*
X116441433Y-68047481D01*
X116382876Y-68086718D01*
X116303551Y-68091322D01*
X116197096Y-68103736D01*
X116157859Y-68162292D01*
X116153255Y-68241618D01*
X116140841Y-68348072D01*
X116082285Y-68387309D01*
X116002959Y-68391914D01*
X115896505Y-68379500D01*
X115857268Y-68320943D01*
X115852663Y-68241618D01*
X115840249Y-68135163D01*
X115781693Y-68095926D01*
X115702367Y-68091322D01*
X115595913Y-68078908D01*
X115556676Y-68020352D01*
X115552071Y-67941026D01*
X115539658Y-67834572D01*
X115481101Y-67795335D01*
X115401776Y-67790730D01*
X115295321Y-67803144D01*
X115256084Y-67861701D01*
X115251480Y-67941026D01*
X115251480Y-68091322D01*
X114950888Y-68091322D01*
X114650296Y-68091322D01*
X114650296Y-68241618D01*
X114349705Y-68241618D01*
X114349705Y-68091322D01*
X114500000Y-68091322D01*
X114606455Y-68078908D01*
X114645692Y-68020352D01*
X114650296Y-67941026D01*
X114650296Y-67790730D01*
X114349705Y-67790730D01*
X114049113Y-67790730D01*
X114049113Y-67640434D01*
X114049113Y-67490139D01*
X115101184Y-67490139D01*
X116153255Y-67490139D01*
X116153255Y-67640434D01*
X116165669Y-67746889D01*
X116224225Y-67786126D01*
X116303551Y-67790730D01*
X116410005Y-67778316D01*
X116449242Y-67719760D01*
X116453847Y-67640434D01*
X116466260Y-67533980D01*
X116524817Y-67494743D01*
X116604142Y-67490139D01*
X116710597Y-67502552D01*
X116749834Y-67561109D01*
X116754438Y-67640434D01*
X116764213Y-67741412D01*
X116813793Y-67782829D01*
X116929783Y-67790730D01*
X117047591Y-67799109D01*
X117095911Y-67841606D01*
X117105129Y-67941026D01*
X117095354Y-68042004D01*
X117045774Y-68083421D01*
X116929783Y-68091322D01*
X116811976Y-68099700D01*
X116763656Y-68142197D01*
X116754438Y-68241618D01*
X116764213Y-68342596D01*
X116813793Y-68384013D01*
X116929783Y-68391914D01*
X117105129Y-68391914D01*
X117105129Y-68993097D01*
X117105129Y-69594281D01*
X116929783Y-69594281D01*
X116811976Y-69602659D01*
X116763656Y-69645156D01*
X116754438Y-69744576D01*
X116754438Y-69894872D01*
X117080079Y-69894872D01*
X117405720Y-69894872D01*
X117405720Y-70070217D01*
X117414099Y-70188025D01*
X117456596Y-70236345D01*
X117556016Y-70245563D01*
X117656994Y-70235788D01*
X117698411Y-70186208D01*
X117706312Y-70070217D01*
X117714690Y-69952410D01*
X117757188Y-69904090D01*
X117856608Y-69894872D01*
X117957586Y-69904647D01*
X117999003Y-69954227D01*
X118006904Y-70070217D01*
X117998525Y-70188025D01*
X117956028Y-70236345D01*
X117856608Y-70245563D01*
X117706312Y-70245563D01*
X117706312Y-70696450D01*
X117706312Y-71147338D01*
X117856608Y-71147338D01*
X117963062Y-71134924D01*
X118002299Y-71076367D01*
X118006904Y-70997042D01*
X118307496Y-70997042D01*
X118319909Y-71103496D01*
X118378466Y-71142733D01*
X118457791Y-71147338D01*
X118564246Y-71134924D01*
X118603483Y-71076367D01*
X118608087Y-70997042D01*
X118620501Y-70890587D01*
X118679058Y-70851350D01*
X118758383Y-70846746D01*
X118864838Y-70834332D01*
X118904075Y-70775776D01*
X118908679Y-70696450D01*
X118896265Y-70589996D01*
X118837709Y-70550759D01*
X118758383Y-70546154D01*
X118651929Y-70558568D01*
X118612692Y-70617125D01*
X118608087Y-70696450D01*
X118595673Y-70802905D01*
X118537117Y-70842142D01*
X118457791Y-70846746D01*
X118351337Y-70859160D01*
X118312100Y-70917716D01*
X118307496Y-70997042D01*
X118006904Y-70997042D01*
X118019318Y-70890587D01*
X118077874Y-70851350D01*
X118157200Y-70846746D01*
X118263654Y-70834332D01*
X118302891Y-70775776D01*
X118307496Y-70696450D01*
X118319909Y-70589996D01*
X118378466Y-70550759D01*
X118457791Y-70546154D01*
X118564246Y-70533740D01*
X118603483Y-70475184D01*
X118608087Y-70395858D01*
X118595673Y-70289404D01*
X118537117Y-70250167D01*
X118457791Y-70245563D01*
X118356813Y-70235788D01*
X118315396Y-70186208D01*
X118307496Y-70070217D01*
X118315874Y-69952410D01*
X118358371Y-69904090D01*
X118457791Y-69894872D01*
X118558769Y-69904647D01*
X118600186Y-69954227D01*
X118608087Y-70070217D01*
X118616466Y-70188025D01*
X118658963Y-70236345D01*
X118758383Y-70245563D01*
X118859361Y-70235788D01*
X118900778Y-70186208D01*
X118908679Y-70070217D01*
X118917057Y-69952410D01*
X118959554Y-69904090D01*
X119058975Y-69894872D01*
X119159953Y-69904647D01*
X119201370Y-69954227D01*
X119209271Y-70070217D01*
X119217649Y-70188025D01*
X119260146Y-70236345D01*
X119359567Y-70245563D01*
X119466021Y-70257976D01*
X119505258Y-70316533D01*
X119509862Y-70395858D01*
X119497449Y-70502313D01*
X119438892Y-70541550D01*
X119359567Y-70546154D01*
X119253112Y-70558568D01*
X119213875Y-70617125D01*
X119209271Y-70696450D01*
X119196857Y-70802905D01*
X119138300Y-70842142D01*
X119058975Y-70846746D01*
X118952520Y-70859160D01*
X118913283Y-70917716D01*
X118908679Y-70997042D01*
X118896265Y-71103496D01*
X118837709Y-71142733D01*
X118758383Y-71147338D01*
X118651929Y-71159752D01*
X118612692Y-71218308D01*
X118608087Y-71297634D01*
X118608087Y-71447929D01*
X118307496Y-71447929D01*
X118006904Y-71447929D01*
X118006904Y-71598225D01*
X118019318Y-71704680D01*
X118077874Y-71743917D01*
X118157200Y-71748521D01*
X118263654Y-71760935D01*
X118302891Y-71819491D01*
X118307496Y-71898817D01*
X118295082Y-72005272D01*
X118236525Y-72044509D01*
X118157200Y-72049113D01*
X118050745Y-72061527D01*
X118011508Y-72120083D01*
X118006904Y-72199409D01*
X118019318Y-72305863D01*
X118077874Y-72345100D01*
X118157200Y-72349705D01*
X118263654Y-72362118D01*
X118302891Y-72420675D01*
X118307496Y-72500000D01*
X118319909Y-72606455D01*
X118378466Y-72645692D01*
X118457791Y-72650296D01*
X118608087Y-72650296D01*
X118608087Y-72950888D01*
X118608087Y-73251480D01*
X118758383Y-73251480D01*
X118908679Y-73251480D01*
X118908679Y-72800592D01*
X118908679Y-72349705D01*
X118758383Y-72349705D01*
X118651929Y-72337291D01*
X118612692Y-72278734D01*
X118608087Y-72199409D01*
X118620501Y-72092954D01*
X118679058Y-72053717D01*
X118758383Y-72049113D01*
X118908679Y-72049113D01*
X118908679Y-71748521D01*
X118908679Y-71447929D01*
X119209271Y-71447929D01*
X119509862Y-71447929D01*
X119509862Y-71598225D01*
X119497449Y-71704680D01*
X119438892Y-71743917D01*
X119359567Y-71748521D01*
X119253112Y-71760935D01*
X119213875Y-71819491D01*
X119209271Y-71898817D01*
X119196857Y-72005272D01*
X119138300Y-72044509D01*
X119058975Y-72049113D01*
X118952520Y-72061527D01*
X118913283Y-72120083D01*
X118908679Y-72199409D01*
X118921093Y-72305863D01*
X118979649Y-72345100D01*
X119058975Y-72349705D01*
X119165429Y-72362118D01*
X119204666Y-72420675D01*
X119209271Y-72500000D01*
X119221684Y-72606455D01*
X119280241Y-72645692D01*
X119359567Y-72650296D01*
X119466021Y-72662710D01*
X119505258Y-72721267D01*
X119509862Y-72800592D01*
X119497449Y-72907047D01*
X119438892Y-72946284D01*
X119359567Y-72950888D01*
X119253112Y-72963302D01*
X119213875Y-73021858D01*
X119209271Y-73101184D01*
X119196857Y-73207638D01*
X119138300Y-73246875D01*
X119058975Y-73251480D01*
X118952520Y-73263894D01*
X118913283Y-73322450D01*
X118908679Y-73401776D01*
X118921093Y-73508230D01*
X118979649Y-73547467D01*
X119058975Y-73552071D01*
X119165429Y-73564485D01*
X119204666Y-73623042D01*
X119209271Y-73702367D01*
X119221684Y-73808822D01*
X119280241Y-73848059D01*
X119359567Y-73852663D01*
X119466021Y-73865077D01*
X119505258Y-73923633D01*
X119509862Y-74002959D01*
X119497449Y-74109414D01*
X119438892Y-74148651D01*
X119359567Y-74153255D01*
X119253112Y-74165669D01*
X119213875Y-74224225D01*
X119209271Y-74303551D01*
X119196857Y-74410005D01*
X119138300Y-74449242D01*
X119058975Y-74453847D01*
X118952520Y-74466260D01*
X118913283Y-74524817D01*
X118908679Y-74604142D01*
X118896265Y-74710597D01*
X118837709Y-74749834D01*
X118758383Y-74754438D01*
X118657405Y-74764213D01*
X118615988Y-74813793D01*
X118608087Y-74929783D01*
X118616466Y-75047591D01*
X118658963Y-75095911D01*
X118758383Y-75105129D01*
X118864838Y-75117542D01*
X118904075Y-75176099D01*
X118908679Y-75255424D01*
X118921093Y-75361879D01*
X118979649Y-75401116D01*
X119058975Y-75405720D01*
X119209271Y-75405720D01*
X119209271Y-75080079D01*
X119209271Y-74754438D01*
X119359567Y-74754438D01*
X119509862Y-74754438D01*
X119509862Y-75080079D01*
X119509862Y-75405720D01*
X119359567Y-75405720D01*
X119253112Y-75418134D01*
X119213875Y-75476691D01*
X119209271Y-75556016D01*
X119196857Y-75662471D01*
X119138300Y-75701708D01*
X119058975Y-75706312D01*
X118952520Y-75718726D01*
X118913283Y-75777282D01*
X118908679Y-75856608D01*
X118896265Y-75963062D01*
X118837709Y-76002299D01*
X118758383Y-76006904D01*
X118651929Y-76019318D01*
X118612692Y-76077874D01*
X118608087Y-76157200D01*
X118608087Y-76307496D01*
X118908679Y-76307496D01*
X119209271Y-76307496D01*
X119209271Y-76157200D01*
X119221684Y-76050745D01*
X119280241Y-76011508D01*
X119359567Y-76006904D01*
X119509862Y-76006904D01*
X119509862Y-76307496D01*
X119509862Y-76608087D01*
X119058975Y-76608087D01*
X118608087Y-76608087D01*
X118608087Y-76758383D01*
X118620501Y-76864838D01*
X118679058Y-76904075D01*
X118758383Y-76908679D01*
X118864838Y-76921093D01*
X118904075Y-76979649D01*
X118908679Y-77058975D01*
X118921093Y-77165429D01*
X118979649Y-77204666D01*
X119058975Y-77209271D01*
X119165429Y-77221684D01*
X119204666Y-77280241D01*
X119209271Y-77359567D01*
X119196857Y-77466021D01*
X119138300Y-77505258D01*
X119058975Y-77509862D01*
X118952520Y-77497449D01*
X118913283Y-77438892D01*
X118908679Y-77359567D01*
X118896265Y-77253112D01*
X118837709Y-77213875D01*
X118758383Y-77209271D01*
X118651929Y-77221684D01*
X118612692Y-77280241D01*
X118608087Y-77359567D01*
X118595673Y-77466021D01*
X118537117Y-77505258D01*
X118457791Y-77509862D01*
X118351337Y-77497449D01*
X118312100Y-77438892D01*
X118307496Y-77359567D01*
X118295082Y-77253112D01*
X118236525Y-77213875D01*
X118157200Y-77209271D01*
X118050745Y-77196857D01*
X118011508Y-77138300D01*
X118006904Y-77058975D01*
X118006904Y-76908679D01*
X117706312Y-76908679D01*
X117405720Y-76908679D01*
X117405720Y-77209271D01*
X117405720Y-77509862D01*
X116779488Y-77509862D01*
X116153255Y-77509862D01*
X116153255Y-77359567D01*
X116140841Y-77253112D01*
X116082285Y-77213875D01*
X116002959Y-77209271D01*
X115896505Y-77221684D01*
X115857268Y-77280241D01*
X115852663Y-77359567D01*
X115840249Y-77466021D01*
X115781693Y-77505258D01*
X115702367Y-77509862D01*
X115595913Y-77497449D01*
X115556676Y-77438892D01*
X115552071Y-77359567D01*
X115539658Y-77253112D01*
X115481101Y-77213875D01*
X115401776Y-77209271D01*
X115295321Y-77196857D01*
X115256084Y-77138300D01*
X115251480Y-77058975D01*
X115263894Y-76952520D01*
X115322450Y-76913283D01*
X115401776Y-76908679D01*
X115508230Y-76921093D01*
X115547467Y-76979649D01*
X115552071Y-77058975D01*
X115564485Y-77165429D01*
X115623042Y-77204666D01*
X115702367Y-77209271D01*
X115852663Y-77209271D01*
X115852663Y-77058975D01*
X116153255Y-77058975D01*
X116165669Y-77165429D01*
X116224225Y-77204666D01*
X116303551Y-77209271D01*
X116410005Y-77196857D01*
X116449242Y-77138300D01*
X116453847Y-77058975D01*
X116466260Y-76952520D01*
X116524817Y-76913283D01*
X116604142Y-76908679D01*
X116710597Y-76921093D01*
X116749834Y-76979649D01*
X116754438Y-77058975D01*
X116764213Y-77159953D01*
X116813793Y-77201370D01*
X116929783Y-77209271D01*
X117047591Y-77200892D01*
X117095911Y-77158395D01*
X117105129Y-77058975D01*
X117117542Y-76952520D01*
X117176099Y-76913283D01*
X117255424Y-76908679D01*
X117361879Y-76896265D01*
X117401116Y-76837709D01*
X117405720Y-76758383D01*
X118006904Y-76758383D01*
X118019318Y-76864838D01*
X118077874Y-76904075D01*
X118157200Y-76908679D01*
X118263654Y-76896265D01*
X118302891Y-76837709D01*
X118307496Y-76758383D01*
X118295082Y-76651929D01*
X118236525Y-76612692D01*
X118157200Y-76608087D01*
X118050745Y-76620501D01*
X118011508Y-76679058D01*
X118006904Y-76758383D01*
X117405720Y-76758383D01*
X117418134Y-76651929D01*
X117476691Y-76612692D01*
X117556016Y-76608087D01*
X117662471Y-76595673D01*
X117701708Y-76537117D01*
X117706312Y-76457791D01*
X117693898Y-76351337D01*
X117635342Y-76312100D01*
X117556016Y-76307496D01*
X117449562Y-76319909D01*
X117410325Y-76378466D01*
X117405720Y-76457791D01*
X117393307Y-76564246D01*
X117334750Y-76603483D01*
X117255424Y-76608087D01*
X117148970Y-76595673D01*
X117109733Y-76537117D01*
X117105129Y-76457791D01*
X117095354Y-76356813D01*
X117045774Y-76315396D01*
X116929783Y-76307496D01*
X116811976Y-76299117D01*
X116763656Y-76256620D01*
X116754438Y-76157200D01*
X116742025Y-76050745D01*
X116683468Y-76011508D01*
X116604142Y-76006904D01*
X117105129Y-76006904D01*
X117556016Y-76006904D01*
X118006904Y-76006904D01*
X118006904Y-75556016D01*
X118608087Y-75556016D01*
X118620501Y-75662471D01*
X118679058Y-75701708D01*
X118758383Y-75706312D01*
X118864838Y-75693898D01*
X118904075Y-75635342D01*
X118908679Y-75556016D01*
X118896265Y-75449562D01*
X118837709Y-75410325D01*
X118758383Y-75405720D01*
X118651929Y-75418134D01*
X118612692Y-75476691D01*
X118608087Y-75556016D01*
X118006904Y-75556016D01*
X118006904Y-75105129D01*
X117556016Y-75105129D01*
X117105129Y-75105129D01*
X117105129Y-75556016D01*
X117105129Y-76006904D01*
X116604142Y-76006904D01*
X116453847Y-76006904D01*
X116453847Y-76457791D01*
X116453847Y-76908679D01*
X116303551Y-76908679D01*
X116197096Y-76921093D01*
X116157859Y-76979649D01*
X116153255Y-77058975D01*
X115852663Y-77058975D01*
X115852663Y-76908679D01*
X115852663Y-76608087D01*
X115251480Y-76608087D01*
X114650296Y-76608087D01*
X114650296Y-76758383D01*
X114637882Y-76864838D01*
X114579326Y-76904075D01*
X114500000Y-76908679D01*
X114349705Y-76908679D01*
X114349705Y-77209271D01*
X114349705Y-77509862D01*
X114049113Y-77509862D01*
X113748521Y-77509862D01*
X113748521Y-77359567D01*
X113736107Y-77253112D01*
X113677551Y-77213875D01*
X113598225Y-77209271D01*
X113491771Y-77221684D01*
X113452534Y-77280241D01*
X113447929Y-77359567D01*
X113435516Y-77466021D01*
X113376959Y-77505258D01*
X113297634Y-77509862D01*
X113147338Y-77509862D01*
X113147338Y-77209271D01*
X113147338Y-77058975D01*
X113748521Y-77058975D01*
X113760935Y-77165429D01*
X113819491Y-77204666D01*
X113898817Y-77209271D01*
X114005272Y-77196857D01*
X114044509Y-77138300D01*
X114049113Y-77058975D01*
X114036699Y-76952520D01*
X113978143Y-76913283D01*
X113898817Y-76908679D01*
X113792362Y-76921093D01*
X113753125Y-76979649D01*
X113748521Y-77058975D01*
X113147338Y-77058975D01*
X113147338Y-76908679D01*
X113297634Y-76908679D01*
X113404088Y-76896265D01*
X113443325Y-76837709D01*
X113447929Y-76758383D01*
X113435516Y-76651929D01*
X113376959Y-76612692D01*
X113297634Y-76608087D01*
X113191179Y-76595673D01*
X113151942Y-76537117D01*
X113147338Y-76457791D01*
X114049113Y-76457791D01*
X114061527Y-76564246D01*
X114120083Y-76603483D01*
X114199409Y-76608087D01*
X114305863Y-76595673D01*
X114345100Y-76537117D01*
X114349705Y-76457791D01*
X114337291Y-76351337D01*
X114278734Y-76312100D01*
X114199409Y-76307496D01*
X114092954Y-76319909D01*
X114053717Y-76378466D01*
X114049113Y-76457791D01*
X113147338Y-76457791D01*
X113134924Y-76351337D01*
X113076367Y-76312100D01*
X112997042Y-76307496D01*
X112846746Y-76307496D01*
X112846746Y-76608087D01*
X112846746Y-76908679D01*
X112696450Y-76908679D01*
X112546154Y-76908679D01*
X112546154Y-77209271D01*
X112546154Y-77509862D01*
X112220513Y-77509862D01*
X111894872Y-77509862D01*
X111894872Y-76758383D01*
X112245563Y-76758383D01*
X112257976Y-76864838D01*
X112316533Y-76904075D01*
X112395858Y-76908679D01*
X112502313Y-76896265D01*
X112541550Y-76837709D01*
X112546154Y-76758383D01*
X112533740Y-76651929D01*
X112475184Y-76612692D01*
X112395858Y-76608087D01*
X112289404Y-76620501D01*
X112250167Y-76679058D01*
X112245563Y-76758383D01*
X111894872Y-76758383D01*
X111894872Y-76006904D01*
X112070217Y-76006904D01*
X112188025Y-75998525D01*
X112236345Y-75956028D01*
X112245563Y-75856608D01*
X112235788Y-75755630D01*
X112186208Y-75714213D01*
X112070217Y-75706312D01*
X111894872Y-75706312D01*
X111894872Y-75405720D01*
X111894872Y-75105129D01*
X111443985Y-75105129D01*
X110993097Y-75105129D01*
X110993097Y-74929783D01*
X110984719Y-74811976D01*
X110942222Y-74763656D01*
X110842801Y-74754438D01*
X110736347Y-74742025D01*
X110697110Y-74683468D01*
X110692505Y-74604142D01*
X110692505Y-74453847D01*
X110993097Y-74453847D01*
X111293689Y-74453847D01*
X111293689Y-74303551D01*
X111293689Y-74153255D01*
X111594281Y-74153255D01*
X111894872Y-74153255D01*
X111894872Y-74303551D01*
X111894872Y-74453847D01*
X111594281Y-74453847D01*
X111293689Y-74453847D01*
X111293689Y-74604142D01*
X111293689Y-74754438D01*
X111769626Y-74754438D01*
X112245563Y-74754438D01*
X112245563Y-74453847D01*
X112245563Y-74153255D01*
X112395858Y-74153255D01*
X112546154Y-74153255D01*
X112546154Y-74453847D01*
X112546154Y-74754438D01*
X112395858Y-74754438D01*
X112294880Y-74764213D01*
X112253463Y-74813793D01*
X112245563Y-74929783D01*
X112245563Y-75105129D01*
X112546154Y-75105129D01*
X112846746Y-75105129D01*
X112846746Y-75255424D01*
X112846746Y-75405720D01*
X112546154Y-75405720D01*
X112245563Y-75405720D01*
X112245563Y-75556016D01*
X112245563Y-75706312D01*
X112546154Y-75706312D01*
X112846746Y-75706312D01*
X112846746Y-75556016D01*
X112846746Y-75405720D01*
X113147338Y-75405720D01*
X113447929Y-75405720D01*
X113447929Y-75556016D01*
X113435516Y-75662471D01*
X113376959Y-75701708D01*
X113297634Y-75706312D01*
X113147338Y-75706312D01*
X113147338Y-76006904D01*
X113147338Y-76307496D01*
X113598225Y-76307496D01*
X114049113Y-76307496D01*
X114049113Y-76157200D01*
X114036699Y-76050745D01*
X113978143Y-76011508D01*
X113898817Y-76006904D01*
X113792362Y-75994490D01*
X113753125Y-75935933D01*
X113748521Y-75856608D01*
X113760935Y-75750153D01*
X113819491Y-75710916D01*
X113898817Y-75706312D01*
X114005272Y-75693898D01*
X114044509Y-75635342D01*
X114049113Y-75556016D01*
X114349705Y-75556016D01*
X114362118Y-75662471D01*
X114420675Y-75701708D01*
X114500000Y-75706312D01*
X114606455Y-75718726D01*
X114645692Y-75777282D01*
X114650296Y-75856608D01*
X114662710Y-75963062D01*
X114721267Y-76002299D01*
X114800592Y-76006904D01*
X114907047Y-76019318D01*
X114946284Y-76077874D01*
X114950888Y-76157200D01*
X114963302Y-76263654D01*
X115021858Y-76302891D01*
X115101184Y-76307496D01*
X115552071Y-76307496D01*
X115852663Y-76307496D01*
X116153255Y-76307496D01*
X116153255Y-76157200D01*
X116153255Y-76006904D01*
X115852663Y-76006904D01*
X115552071Y-76006904D01*
X115552071Y-76157200D01*
X115552071Y-76307496D01*
X115101184Y-76307496D01*
X115207638Y-76295082D01*
X115246875Y-76236525D01*
X115251480Y-76157200D01*
X115239066Y-76050745D01*
X115180509Y-76011508D01*
X115101184Y-76006904D01*
X114994729Y-75994490D01*
X114955492Y-75935933D01*
X114950888Y-75856608D01*
X114938474Y-75750153D01*
X114879918Y-75710916D01*
X114800592Y-75706312D01*
X114694138Y-75693898D01*
X114654901Y-75635342D01*
X114650296Y-75556016D01*
X115251480Y-75556016D01*
X115263894Y-75662471D01*
X115322450Y-75701708D01*
X115401776Y-75706312D01*
X115852663Y-75706312D01*
X116153255Y-75706312D01*
X116453847Y-75706312D01*
X116453847Y-75556016D01*
X116453847Y-75405720D01*
X116453847Y-75105129D01*
X116604142Y-75105129D01*
X116705120Y-75095354D01*
X116746537Y-75045774D01*
X116754438Y-74929783D01*
X116746060Y-74811976D01*
X116703563Y-74763656D01*
X116604142Y-74754438D01*
X116503164Y-74764213D01*
X116461747Y-74813793D01*
X116453847Y-74929783D01*
X116445468Y-75047591D01*
X116402971Y-75095911D01*
X116303551Y-75105129D01*
X116202573Y-75095354D01*
X116161156Y-75045774D01*
X116153255Y-74929783D01*
X116144876Y-74811976D01*
X116102379Y-74763656D01*
X116002959Y-74754438D01*
X115852663Y-74754438D01*
X115852663Y-75230375D01*
X115852663Y-75706312D01*
X115401776Y-75706312D01*
X115508230Y-75693898D01*
X115547467Y-75635342D01*
X115552071Y-75556016D01*
X115539658Y-75449562D01*
X115481101Y-75410325D01*
X115401776Y-75405720D01*
X115295321Y-75418134D01*
X115256084Y-75476691D01*
X115251480Y-75556016D01*
X114650296Y-75556016D01*
X114637882Y-75449562D01*
X114579326Y-75410325D01*
X114500000Y-75405720D01*
X114393546Y-75418134D01*
X114354309Y-75476691D01*
X114349705Y-75556016D01*
X114049113Y-75556016D01*
X114061527Y-75449562D01*
X114120083Y-75410325D01*
X114199409Y-75405720D01*
X114305863Y-75393307D01*
X114345100Y-75334750D01*
X114349705Y-75255424D01*
X114362118Y-75148970D01*
X114420675Y-75109733D01*
X114500000Y-75105129D01*
X114600978Y-75095354D01*
X114642395Y-75045774D01*
X114650296Y-74929783D01*
X114658675Y-74811976D01*
X114701172Y-74763656D01*
X114800592Y-74754438D01*
X114901570Y-74764213D01*
X114942987Y-74813793D01*
X114950888Y-74929783D01*
X114942510Y-75047591D01*
X114900012Y-75095911D01*
X114800592Y-75105129D01*
X114694138Y-75117542D01*
X114654901Y-75176099D01*
X114650296Y-75255424D01*
X114650296Y-75405720D01*
X114950888Y-75405720D01*
X115251480Y-75405720D01*
X115251480Y-75255424D01*
X115254401Y-75230375D01*
X115263894Y-75148970D01*
X115322450Y-75109733D01*
X115401776Y-75105129D01*
X115552071Y-75105129D01*
X115552071Y-74779488D01*
X115552071Y-74453847D01*
X115702367Y-74453847D01*
X115808822Y-74441433D01*
X115848059Y-74382876D01*
X115852663Y-74303551D01*
X115852663Y-74153255D01*
X115401776Y-74153255D01*
X114950888Y-74153255D01*
X114950888Y-74303551D01*
X114950888Y-74453847D01*
X114650296Y-74453847D01*
X114349705Y-74453847D01*
X114349705Y-74604142D01*
X114337291Y-74710597D01*
X114278734Y-74749834D01*
X114199409Y-74754438D01*
X114098431Y-74764213D01*
X114057014Y-74813793D01*
X114049113Y-74929783D01*
X114040734Y-75047591D01*
X113998237Y-75095911D01*
X113898817Y-75105129D01*
X113797839Y-75095354D01*
X113756422Y-75045774D01*
X113748521Y-74929783D01*
X113740143Y-74811976D01*
X113697646Y-74763656D01*
X113598225Y-74754438D01*
X113497247Y-74764213D01*
X113455830Y-74813793D01*
X113447929Y-74929783D01*
X113439551Y-75047591D01*
X113397054Y-75095911D01*
X113297634Y-75105129D01*
X113147338Y-75105129D01*
X113147338Y-74779488D01*
X113147338Y-74604142D01*
X113748521Y-74604142D01*
X113760935Y-74710597D01*
X113819491Y-74749834D01*
X113898817Y-74754438D01*
X114005272Y-74742025D01*
X114044509Y-74683468D01*
X114049113Y-74604142D01*
X114036699Y-74497688D01*
X113978143Y-74458451D01*
X113898817Y-74453847D01*
X113792362Y-74466260D01*
X113753125Y-74524817D01*
X113748521Y-74604142D01*
X113147338Y-74604142D01*
X113147338Y-74453847D01*
X113297634Y-74453847D01*
X113404088Y-74441433D01*
X113443325Y-74382876D01*
X113447929Y-74303551D01*
X113435516Y-74197096D01*
X113376959Y-74157859D01*
X113297634Y-74153255D01*
X113191179Y-74140841D01*
X113151942Y-74082285D01*
X113147338Y-74002959D01*
X113147338Y-73852663D01*
X113598225Y-73852663D01*
X114049113Y-73852663D01*
X114049113Y-74002959D01*
X114061527Y-74109414D01*
X114120083Y-74148651D01*
X114199409Y-74153255D01*
X114305863Y-74140841D01*
X114345100Y-74082285D01*
X114349705Y-74002959D01*
X114362118Y-73896505D01*
X114420675Y-73857268D01*
X114500000Y-73852663D01*
X114606455Y-73840249D01*
X114645692Y-73781693D01*
X114650296Y-73702367D01*
X114662710Y-73595913D01*
X114721267Y-73556676D01*
X114800592Y-73552071D01*
X114907047Y-73539658D01*
X114946284Y-73481101D01*
X114950888Y-73401776D01*
X114950888Y-73251480D01*
X114500000Y-73251480D01*
X114049113Y-73251480D01*
X114049113Y-73401776D01*
X114036699Y-73508230D01*
X113978143Y-73547467D01*
X113898817Y-73552071D01*
X113792362Y-73539658D01*
X113753125Y-73481101D01*
X113748521Y-73401776D01*
X113760935Y-73295321D01*
X113819491Y-73256084D01*
X113898817Y-73251480D01*
X114005272Y-73239066D01*
X114044509Y-73180509D01*
X114049113Y-73101184D01*
X114049113Y-72950888D01*
X114500000Y-72950888D01*
X114950888Y-72950888D01*
X114950888Y-72800592D01*
X114938474Y-72694138D01*
X114879918Y-72654901D01*
X114800592Y-72650296D01*
X114694138Y-72637882D01*
X114654901Y-72579326D01*
X114650296Y-72500000D01*
X114637882Y-72393546D01*
X114579326Y-72354309D01*
X114500000Y-72349705D01*
X114393546Y-72337291D01*
X114354309Y-72278734D01*
X114349705Y-72199409D01*
X114650296Y-72199409D01*
X114662710Y-72305863D01*
X114721267Y-72345100D01*
X114800592Y-72349705D01*
X114907047Y-72362118D01*
X114946284Y-72420675D01*
X114950888Y-72500000D01*
X114950888Y-72650296D01*
X115401776Y-72650296D01*
X115852663Y-72650296D01*
X115852663Y-72800592D01*
X115852663Y-72950888D01*
X116153255Y-72950888D01*
X116453847Y-72950888D01*
X116453847Y-73101184D01*
X116441433Y-73207638D01*
X116382876Y-73246875D01*
X116303551Y-73251480D01*
X116197096Y-73263894D01*
X116157859Y-73322450D01*
X116153255Y-73401776D01*
X116153255Y-73552071D01*
X115852663Y-73552071D01*
X115552071Y-73552071D01*
X115552071Y-73251480D01*
X115552071Y-72950888D01*
X115251480Y-72950888D01*
X114950888Y-72950888D01*
X114950888Y-73101184D01*
X114963302Y-73207638D01*
X115021858Y-73246875D01*
X115101184Y-73251480D01*
X115207638Y-73263894D01*
X115246875Y-73322450D01*
X115251480Y-73401776D01*
X115239066Y-73508230D01*
X115180509Y-73547467D01*
X115101184Y-73552071D01*
X114994729Y-73564485D01*
X114955492Y-73623042D01*
X114950888Y-73702367D01*
X114950888Y-73852663D01*
X115552071Y-73852663D01*
X116153255Y-73852663D01*
X116153255Y-74002959D01*
X116165669Y-74109414D01*
X116224225Y-74148651D01*
X116303551Y-74153255D01*
X116410005Y-74165669D01*
X116449242Y-74224225D01*
X116453847Y-74303551D01*
X116466260Y-74410005D01*
X116524817Y-74449242D01*
X116604142Y-74453847D01*
X116710597Y-74441433D01*
X116749834Y-74382876D01*
X116754438Y-74303551D01*
X116754438Y-74153255D01*
X117080079Y-74153255D01*
X117405720Y-74153255D01*
X117405720Y-74303551D01*
X117393307Y-74410005D01*
X117334750Y-74449242D01*
X117255424Y-74453847D01*
X117148970Y-74466260D01*
X117109733Y-74524817D01*
X117105129Y-74604142D01*
X117105129Y-74754438D01*
X117556016Y-74754438D01*
X118006904Y-74754438D01*
X118006904Y-74604142D01*
X117994490Y-74497688D01*
X117935933Y-74458451D01*
X117856608Y-74453847D01*
X117750153Y-74441433D01*
X117710916Y-74382876D01*
X117706312Y-74303551D01*
X117706312Y-74153255D01*
X118006904Y-74153255D01*
X118307496Y-74153255D01*
X118307496Y-74002959D01*
X118319909Y-73896505D01*
X118378466Y-73857268D01*
X118457791Y-73852663D01*
X118608087Y-73852663D01*
X118608087Y-74153255D01*
X118608087Y-74453847D01*
X118758383Y-74453847D01*
X118908679Y-74453847D01*
X118908679Y-74002959D01*
X118908679Y-73552071D01*
X118758383Y-73552071D01*
X118651929Y-73539658D01*
X118612692Y-73481101D01*
X118608087Y-73401776D01*
X118595673Y-73295321D01*
X118537117Y-73256084D01*
X118457791Y-73251480D01*
X118307496Y-73251480D01*
X118307496Y-72950888D01*
X118307496Y-72650296D01*
X118157200Y-72650296D01*
X118050745Y-72637882D01*
X118011508Y-72579326D01*
X118006904Y-72500000D01*
X117994490Y-72393546D01*
X117935933Y-72354309D01*
X117856608Y-72349705D01*
X117750153Y-72337291D01*
X117710916Y-72278734D01*
X117706312Y-72199409D01*
X117718726Y-72092954D01*
X117777282Y-72053717D01*
X117856608Y-72049113D01*
X117963062Y-72036699D01*
X118002299Y-71978143D01*
X118006904Y-71898817D01*
X117994490Y-71792362D01*
X117935933Y-71753125D01*
X117856608Y-71748521D01*
X117750153Y-71760935D01*
X117710916Y-71819491D01*
X117706312Y-71898817D01*
X117693898Y-72005272D01*
X117635342Y-72044509D01*
X117556016Y-72049113D01*
X117405720Y-72049113D01*
X117405720Y-71748521D01*
X117405720Y-71447929D01*
X117556016Y-71447929D01*
X117662471Y-71435516D01*
X117701708Y-71376959D01*
X117706312Y-71297634D01*
X117693898Y-71191179D01*
X117635342Y-71151942D01*
X117556016Y-71147338D01*
X117449562Y-71134924D01*
X117410325Y-71076367D01*
X117405720Y-70997042D01*
X117393307Y-70890587D01*
X117334750Y-70851350D01*
X117255424Y-70846746D01*
X117148970Y-70834332D01*
X117109733Y-70775776D01*
X117105129Y-70696450D01*
X117117542Y-70589996D01*
X117176099Y-70550759D01*
X117255424Y-70546154D01*
X117361879Y-70533740D01*
X117401116Y-70475184D01*
X117405720Y-70395858D01*
X117405720Y-70245563D01*
X117080079Y-70245563D01*
X116754438Y-70245563D01*
X116754438Y-70395858D01*
X116742025Y-70502313D01*
X116683468Y-70541550D01*
X116604142Y-70546154D01*
X116453847Y-70546154D01*
X116453847Y-70846746D01*
X116453847Y-71147338D01*
X116604142Y-71147338D01*
X116710597Y-71134924D01*
X116749834Y-71076367D01*
X116754438Y-70997042D01*
X116764213Y-70896064D01*
X116813793Y-70854647D01*
X116929783Y-70846746D01*
X117047591Y-70855124D01*
X117095911Y-70897622D01*
X117105129Y-70997042D01*
X117117542Y-71103496D01*
X117176099Y-71142733D01*
X117255424Y-71147338D01*
X117361879Y-71159752D01*
X117401116Y-71218308D01*
X117405720Y-71297634D01*
X117405720Y-71447929D01*
X117080079Y-71447929D01*
X116754438Y-71447929D01*
X116754438Y-71598225D01*
X116742025Y-71704680D01*
X116683468Y-71743917D01*
X116604142Y-71748521D01*
X116497688Y-71736107D01*
X116458451Y-71677551D01*
X116453847Y-71598225D01*
X116441433Y-71491771D01*
X116382876Y-71452534D01*
X116303551Y-71447929D01*
X116197096Y-71460343D01*
X116157859Y-71518900D01*
X116153255Y-71598225D01*
X116165669Y-71704680D01*
X116224225Y-71743917D01*
X116303551Y-71748521D01*
X116453847Y-71748521D01*
X116453847Y-72199409D01*
X116453847Y-72650296D01*
X116303551Y-72650296D01*
X116197096Y-72637882D01*
X116157859Y-72579326D01*
X116153255Y-72500000D01*
X116140841Y-72393546D01*
X116082285Y-72354309D01*
X116002959Y-72349705D01*
X115896505Y-72337291D01*
X115857268Y-72278734D01*
X115852663Y-72199409D01*
X115840249Y-72092954D01*
X115781693Y-72053717D01*
X115702367Y-72049113D01*
X115595913Y-72036699D01*
X115556676Y-71978143D01*
X115552071Y-71898817D01*
X115552071Y-71748521D01*
X115251480Y-71748521D01*
X114950888Y-71748521D01*
X114950888Y-71898817D01*
X114938474Y-72005272D01*
X114879918Y-72044509D01*
X114800592Y-72049113D01*
X114694138Y-72061527D01*
X114654901Y-72120083D01*
X114650296Y-72199409D01*
X114349705Y-72199409D01*
X114349705Y-72049113D01*
X114049113Y-72049113D01*
X113748521Y-72049113D01*
X113748521Y-72199409D01*
X113760935Y-72305863D01*
X113819491Y-72345100D01*
X113898817Y-72349705D01*
X114005272Y-72362118D01*
X114044509Y-72420675D01*
X114049113Y-72500000D01*
X114036699Y-72606455D01*
X113978143Y-72645692D01*
X113898817Y-72650296D01*
X113792362Y-72637882D01*
X113753125Y-72579326D01*
X113748521Y-72500000D01*
X113736107Y-72393546D01*
X113677551Y-72354309D01*
X113598225Y-72349705D01*
X113491771Y-72362118D01*
X113452534Y-72420675D01*
X113447929Y-72500000D01*
X113435516Y-72606455D01*
X113376959Y-72645692D01*
X113297634Y-72650296D01*
X113147338Y-72650296D01*
X113147338Y-72349705D01*
X113147338Y-72049113D01*
X113297634Y-72049113D01*
X113404088Y-72036699D01*
X113443325Y-71978143D01*
X113447929Y-71898817D01*
X113435516Y-71792362D01*
X113376959Y-71753125D01*
X113297634Y-71748521D01*
X113191179Y-71736107D01*
X113151942Y-71677551D01*
X113147338Y-71598225D01*
X113134924Y-71491771D01*
X113076367Y-71452534D01*
X112997042Y-71447929D01*
X112846746Y-71447929D01*
X112846746Y-71748521D01*
X112846746Y-72049113D01*
X112696450Y-72049113D01*
X112589996Y-72036699D01*
X112550759Y-71978143D01*
X112546154Y-71898817D01*
X112533740Y-71792362D01*
X112475184Y-71753125D01*
X112395858Y-71748521D01*
X112245563Y-71748521D01*
X112245563Y-72049113D01*
X112245563Y-72349705D01*
X112070217Y-72349705D01*
X111894872Y-72349705D01*
X111894872Y-72049113D01*
X111894872Y-71748521D01*
X111744576Y-71748521D01*
X111638122Y-71760935D01*
X111598885Y-71819491D01*
X111594281Y-71898817D01*
X111594281Y-72049113D01*
X111143393Y-72049113D01*
X110692505Y-72049113D01*
X110692505Y-71898817D01*
X110680092Y-71792362D01*
X110621535Y-71753125D01*
X110542210Y-71748521D01*
X110435755Y-71760935D01*
X110396518Y-71819491D01*
X110391914Y-71898817D01*
X110379500Y-72005272D01*
X110320943Y-72044509D01*
X110241618Y-72049113D01*
X110135163Y-72036699D01*
X110095926Y-71978143D01*
X110091322Y-71898817D01*
X110078908Y-71792362D01*
X110020352Y-71753125D01*
X109941026Y-71748521D01*
X109834572Y-71736107D01*
X109795335Y-71677551D01*
X109790730Y-71598225D01*
X111293689Y-71598225D01*
X111306103Y-71704680D01*
X111364659Y-71743917D01*
X111443985Y-71748521D01*
X111550439Y-71736107D01*
X111589676Y-71677551D01*
X111594281Y-71598225D01*
X111894872Y-71598225D01*
X111904647Y-71699203D01*
X111954227Y-71740620D01*
X112070217Y-71748521D01*
X112188025Y-71740143D01*
X112236345Y-71697646D01*
X112245563Y-71598225D01*
X112235788Y-71497247D01*
X112186208Y-71455830D01*
X112070217Y-71447929D01*
X111952410Y-71456308D01*
X111904090Y-71498805D01*
X111894872Y-71598225D01*
X111594281Y-71598225D01*
X111581867Y-71491771D01*
X111523310Y-71452534D01*
X111443985Y-71447929D01*
X111337530Y-71460343D01*
X111298293Y-71518900D01*
X111293689Y-71598225D01*
X109790730Y-71598225D01*
X109778316Y-71491771D01*
X109719760Y-71452534D01*
X109640434Y-71447929D01*
X109533980Y-71435516D01*
X109494743Y-71376959D01*
X109490139Y-71297634D01*
X109502552Y-71191179D01*
X109561109Y-71151942D01*
X109640434Y-71147338D01*
X109746889Y-71159752D01*
X109786126Y-71218308D01*
X109790730Y-71297634D01*
X109803144Y-71404088D01*
X109861701Y-71443325D01*
X109941026Y-71447929D01*
X110091322Y-71447929D01*
X110091322Y-71297634D01*
X112546154Y-71297634D01*
X112558568Y-71404088D01*
X112617125Y-71443325D01*
X112696450Y-71447929D01*
X112802905Y-71435516D01*
X112842142Y-71376959D01*
X112846746Y-71297634D01*
X112834332Y-71191179D01*
X112775776Y-71151942D01*
X112696450Y-71147338D01*
X112589996Y-71159752D01*
X112550759Y-71218308D01*
X112546154Y-71297634D01*
X110091322Y-71297634D01*
X110091322Y-71147338D01*
X110091322Y-70997042D01*
X110391914Y-70997042D01*
X110404327Y-71103496D01*
X110462884Y-71142733D01*
X110542210Y-71147338D01*
X110648664Y-71134924D01*
X110687901Y-71076367D01*
X110692505Y-70997042D01*
X110692505Y-70846746D01*
X110993097Y-70846746D01*
X111293689Y-70846746D01*
X111293689Y-70997042D01*
X111306103Y-71103496D01*
X111364659Y-71142733D01*
X111443985Y-71147338D01*
X111550439Y-71134924D01*
X111589676Y-71076367D01*
X111594281Y-70997042D01*
X111594281Y-70846746D01*
X111919922Y-70846746D01*
X112245563Y-70846746D01*
X112245563Y-70546154D01*
X112245563Y-70245563D01*
X112070217Y-70245563D01*
X111952410Y-70253941D01*
X111904090Y-70296438D01*
X111894872Y-70395858D01*
X111882458Y-70502313D01*
X111823902Y-70541550D01*
X111744576Y-70546154D01*
X111638122Y-70533740D01*
X111598885Y-70475184D01*
X111594281Y-70395858D01*
X111581867Y-70289404D01*
X111523310Y-70250167D01*
X111443985Y-70245563D01*
X111337530Y-70257976D01*
X111298293Y-70316533D01*
X111293689Y-70395858D01*
X111293689Y-70546154D01*
X110993097Y-70546154D01*
X110692505Y-70546154D01*
X110692505Y-70696450D01*
X110680092Y-70802905D01*
X110621535Y-70842142D01*
X110542210Y-70846746D01*
X110435755Y-70859160D01*
X110396518Y-70917716D01*
X110391914Y-70997042D01*
X110091322Y-70997042D01*
X110091322Y-70846746D01*
X110241618Y-70846746D01*
X110348072Y-70834332D01*
X110387309Y-70775776D01*
X110391914Y-70696450D01*
X110404327Y-70589996D01*
X110462884Y-70550759D01*
X110542210Y-70546154D01*
X110648664Y-70533740D01*
X110687901Y-70475184D01*
X110692505Y-70395858D01*
X110692505Y-70245563D01*
X110241618Y-70245563D01*
X109790730Y-70245563D01*
X109790730Y-70546154D01*
X109790730Y-70846746D01*
X109640434Y-70846746D01*
X109490139Y-70846746D01*
X109490139Y-70370809D01*
X109490139Y-69894872D01*
X110241618Y-69894872D01*
X110993097Y-69894872D01*
X110993097Y-70070217D01*
X111001475Y-70188025D01*
X111043973Y-70236345D01*
X111143393Y-70245563D01*
X111244371Y-70235788D01*
X111285788Y-70186208D01*
X111293689Y-70070217D01*
X111293689Y-69894872D01*
X112070217Y-69894872D01*
X112846746Y-69894872D01*
X112846746Y-70070217D01*
X112838368Y-70188025D01*
X112795870Y-70236345D01*
X112696450Y-70245563D01*
X112546154Y-70245563D01*
X112546154Y-70546154D01*
X112546154Y-70846746D01*
X112696450Y-70846746D01*
X112802905Y-70834332D01*
X112842142Y-70775776D01*
X112846746Y-70696450D01*
X112846746Y-70546154D01*
X113147338Y-70546154D01*
X113447929Y-70546154D01*
X113447929Y-70696450D01*
X113435516Y-70802905D01*
X113376959Y-70842142D01*
X113297634Y-70846746D01*
X113147338Y-70846746D01*
X113147338Y-71147338D01*
X113147338Y-71447929D01*
X113748521Y-71447929D01*
X114349705Y-71447929D01*
X114349705Y-71598225D01*
X114362118Y-71704680D01*
X114420675Y-71743917D01*
X114500000Y-71748521D01*
X114650296Y-71748521D01*
X114650296Y-71447929D01*
X114650296Y-71147338D01*
X114500000Y-71147338D01*
X114393546Y-71134924D01*
X114354309Y-71076367D01*
X114349705Y-70997042D01*
X114362118Y-70890587D01*
X114420675Y-70851350D01*
X114500000Y-70846746D01*
X114606455Y-70859160D01*
X114645692Y-70917716D01*
X114650296Y-70997042D01*
X114662710Y-71103496D01*
X114721267Y-71142733D01*
X114800592Y-71147338D01*
X114907047Y-71159752D01*
X114946284Y-71218308D01*
X114950888Y-71297634D01*
X114963302Y-71404088D01*
X115021858Y-71443325D01*
X115101184Y-71447929D01*
X115207638Y-71435516D01*
X115246875Y-71376959D01*
X115251480Y-71297634D01*
X115263894Y-71191179D01*
X115322450Y-71151942D01*
X115401776Y-71147338D01*
X115508230Y-71159752D01*
X115547467Y-71218308D01*
X115552071Y-71297634D01*
X115552071Y-71447929D01*
X115852663Y-71447929D01*
X116153255Y-71447929D01*
X116153255Y-71297634D01*
X116140841Y-71191179D01*
X116082285Y-71151942D01*
X116002959Y-71147338D01*
X115896505Y-71134924D01*
X115857268Y-71076367D01*
X115852663Y-70997042D01*
X115865077Y-70890587D01*
X115923633Y-70851350D01*
X116002959Y-70846746D01*
X116109414Y-70834332D01*
X116148651Y-70775776D01*
X116153255Y-70696450D01*
X116165669Y-70589996D01*
X116224225Y-70550759D01*
X116303551Y-70546154D01*
X116453847Y-70546154D01*
X116453847Y-70220513D01*
X116453847Y-69894872D01*
X116002959Y-69894872D01*
X115552071Y-69894872D01*
X115552071Y-70070217D01*
X115560450Y-70188025D01*
X115602947Y-70236345D01*
X115702367Y-70245563D01*
X115808822Y-70257976D01*
X115848059Y-70316533D01*
X115852663Y-70395858D01*
X115852663Y-70546154D01*
X115552071Y-70546154D01*
X115251480Y-70546154D01*
X115251480Y-70696450D01*
X115239066Y-70802905D01*
X115180509Y-70842142D01*
X115101184Y-70846746D01*
X114994729Y-70834332D01*
X114955492Y-70775776D01*
X114950888Y-70696450D01*
X114950888Y-70546154D01*
X114500000Y-70546154D01*
X114049113Y-70546154D01*
X114049113Y-70395858D01*
X114036699Y-70289404D01*
X113978143Y-70250167D01*
X113898817Y-70245563D01*
X113797839Y-70235788D01*
X113756422Y-70186208D01*
X113748521Y-70070217D01*
X113740143Y-69952410D01*
X113697646Y-69904090D01*
X113598225Y-69894872D01*
X113497247Y-69904647D01*
X113455830Y-69954227D01*
X113447929Y-70070217D01*
X113439551Y-70188025D01*
X113397054Y-70236345D01*
X113297634Y-70245563D01*
X113147338Y-70245563D01*
X113147338Y-69769626D01*
X113147338Y-69443985D01*
X113447929Y-69443985D01*
X113460343Y-69550439D01*
X113518900Y-69589676D01*
X113598225Y-69594281D01*
X113704680Y-69606694D01*
X113743917Y-69665251D01*
X113748521Y-69744576D01*
X113760935Y-69851031D01*
X113819491Y-69890268D01*
X113898817Y-69894872D01*
X114005272Y-69882458D01*
X114044509Y-69823902D01*
X114049113Y-69744576D01*
X114061527Y-69638122D01*
X114120083Y-69598885D01*
X114199409Y-69594281D01*
X114349705Y-69594281D01*
X114349705Y-69919922D01*
X114349705Y-70245563D01*
X114500000Y-70245563D01*
X114600978Y-70235788D01*
X114642395Y-70186208D01*
X114650296Y-70070217D01*
X114658675Y-69952410D01*
X114701172Y-69904090D01*
X114800592Y-69894872D01*
X114901570Y-69904647D01*
X114942987Y-69954227D01*
X114950888Y-70070217D01*
X114959266Y-70188025D01*
X115001764Y-70236345D01*
X115101184Y-70245563D01*
X115251480Y-70245563D01*
X115251480Y-69919922D01*
X115251480Y-69594281D01*
X115401776Y-69594281D01*
X115508230Y-69581867D01*
X115547467Y-69523310D01*
X115552071Y-69443985D01*
X115564485Y-69337530D01*
X115623042Y-69298293D01*
X115702367Y-69293689D01*
X115808822Y-69306103D01*
X115848059Y-69364659D01*
X115852663Y-69443985D01*
X115865077Y-69550439D01*
X115923633Y-69589676D01*
X116002959Y-69594281D01*
X116109414Y-69581867D01*
X116148651Y-69523310D01*
X116153255Y-69443985D01*
X116140841Y-69337530D01*
X116082285Y-69298293D01*
X116002959Y-69293689D01*
X115896505Y-69281275D01*
X115857268Y-69222718D01*
X115852663Y-69143393D01*
X115852663Y-68993097D01*
X115251480Y-68993097D01*
X114650296Y-68993097D01*
X114650296Y-69293689D01*
X114650296Y-69594281D01*
X114500000Y-69594281D01*
X114393546Y-69581867D01*
X114354309Y-69523310D01*
X114349705Y-69443985D01*
X114337291Y-69337530D01*
X114278734Y-69298293D01*
X114199409Y-69293689D01*
X114092954Y-69306103D01*
X114053717Y-69364659D01*
X114049113Y-69443985D01*
X114036699Y-69550439D01*
X113978143Y-69589676D01*
X113898817Y-69594281D01*
X113792362Y-69581867D01*
X113753125Y-69523310D01*
X113748521Y-69443985D01*
X113736107Y-69337530D01*
X113677551Y-69298293D01*
X113598225Y-69293689D01*
X113491771Y-69306103D01*
X113452534Y-69364659D01*
X113447929Y-69443985D01*
X113147338Y-69443985D01*
X113147338Y-69293689D01*
X113297634Y-69293689D01*
X113404088Y-69281275D01*
X113443325Y-69222718D01*
X113447929Y-69143393D01*
X113435516Y-69036938D01*
X113376959Y-68997701D01*
X113297634Y-68993097D01*
X113191179Y-68980683D01*
X113151942Y-68922127D01*
X113147338Y-68842801D01*
X114349705Y-68842801D01*
X114362118Y-68949256D01*
X114420675Y-68988493D01*
X114500000Y-68993097D01*
X114650296Y-68993097D01*
X114650296Y-68842801D01*
X114637882Y-68736347D01*
X114579326Y-68697110D01*
X114500000Y-68692505D01*
X114393546Y-68704919D01*
X114354309Y-68763476D01*
X114349705Y-68842801D01*
X113147338Y-68842801D01*
X113134924Y-68736347D01*
X113076367Y-68697110D01*
X112997042Y-68692505D01*
X112846746Y-68692505D01*
X112846746Y-69143393D01*
X112846746Y-69594281D01*
X112696450Y-69594281D01*
X112546154Y-69594281D01*
X112546154Y-69143393D01*
X112546154Y-68692505D01*
X112220513Y-68692505D01*
X111894872Y-68692505D01*
X111894872Y-68542210D01*
X112546154Y-68542210D01*
X112558568Y-68648664D01*
X112617125Y-68687901D01*
X112696450Y-68692505D01*
X112802905Y-68680092D01*
X112842142Y-68621535D01*
X112846746Y-68542210D01*
X112834332Y-68435755D01*
X112775776Y-68396518D01*
X112696450Y-68391914D01*
X112589996Y-68404327D01*
X112550759Y-68462884D01*
X112546154Y-68542210D01*
X111894872Y-68542210D01*
X111904647Y-68441232D01*
X111954227Y-68399815D01*
X112070217Y-68391914D01*
X112188025Y-68383535D01*
X112236345Y-68341038D01*
X112245563Y-68241618D01*
X112235788Y-68140640D01*
X112186208Y-68099223D01*
X112070217Y-68091322D01*
X111952410Y-68082944D01*
X111904090Y-68040446D01*
X111894872Y-67941026D01*
X111904647Y-67840048D01*
X111954227Y-67798631D01*
X112070217Y-67790730D01*
X112188025Y-67782352D01*
X112236345Y-67739855D01*
X112245563Y-67640434D01*
X112257976Y-67533980D01*
X112316533Y-67494743D01*
X112395858Y-67490139D01*
X112546154Y-67490139D01*
X112546154Y-67790730D01*
G37*
D14*
%TO.C,SW1*%
X176750000Y-93920000D02*
X176750000Y-95420000D01*
X178000000Y-97920000D02*
X182500000Y-97920000D01*
X182500000Y-91420000D02*
X178000000Y-91420000D01*
X183750000Y-95420000D02*
X183750000Y-93920000D01*
%TO.C,R8*%
X161480000Y-107050000D02*
X161480000Y-113590000D01*
X161480000Y-113590000D02*
X164220000Y-113590000D01*
X162850000Y-106280000D02*
X162850000Y-107050000D01*
X162850000Y-114360000D02*
X162850000Y-113590000D01*
X164220000Y-107050000D02*
X161480000Y-107050000D01*
X164220000Y-113590000D02*
X164220000Y-107050000D01*
%TO.C,C1*%
X177880000Y-124365000D02*
X177880000Y-124050000D01*
X177880000Y-126790000D02*
X177880000Y-126475000D01*
X183120000Y-124050000D02*
X177880000Y-124050000D01*
X183120000Y-124365000D02*
X183120000Y-124050000D01*
X183120000Y-126790000D02*
X177880000Y-126790000D01*
X183120000Y-126790000D02*
X183120000Y-126475000D01*
%TO.C,J4*%
X176275000Y-54690000D02*
X191515000Y-54690000D01*
X176275000Y-61040000D02*
X191515000Y-61040000D01*
X176275000Y-62310000D02*
X176275000Y-54690000D01*
X176275000Y-62310000D02*
X191515000Y-62310000D01*
X191515000Y-62310000D02*
X191515000Y-54690000D01*
D16*
%TO.C,REF\u002A\u002A*%
X102870000Y-86317200D02*
X128270000Y-86317200D01*
X102870000Y-125227200D02*
X102870000Y-86317200D01*
X128270000Y-86317200D02*
X128270000Y-125227200D01*
X128270000Y-125227200D02*
X102870000Y-125227200D01*
D17*
X102208000Y-88425200D02*
G75*
G02*
X102008000Y-88425200I-100000J0D01*
G01*
X102008000Y-88425200D02*
G75*
G02*
X102208000Y-88425200I100000J0D01*
G01*
D14*
%TO.C,J1*%
X165620000Y-75380000D02*
X165620000Y-83420000D01*
X134880000Y-75380000D02*
X165620000Y-75380000D01*
X134880000Y-75380000D02*
X134880000Y-83420000D01*
X164487000Y-78252000D02*
X164487000Y-78252000D01*
X159487000Y-78252000D02*
X159487000Y-78252000D01*
X154487000Y-78252000D02*
X154487000Y-78252000D01*
X149487000Y-78252000D02*
X149487000Y-78252000D01*
X144487000Y-78252000D02*
X144487000Y-78252000D01*
X164836000Y-79000000D02*
X165620000Y-79000000D01*
X159836000Y-79000000D02*
X161165000Y-79000000D01*
X154836000Y-79000000D02*
X156165000Y-79000000D01*
X149836000Y-79000000D02*
X151165000Y-79000000D01*
X144836000Y-79000000D02*
X146165000Y-79000000D01*
X139880000Y-79000000D02*
X141165000Y-79000000D01*
X134880000Y-79000000D02*
X136120000Y-79000000D01*
X164836000Y-80000000D02*
X165620000Y-80000000D01*
X159836000Y-80000000D02*
X161165000Y-80000000D01*
X154836000Y-80000000D02*
X156165000Y-80000000D01*
X149836000Y-80000000D02*
X151165000Y-80000000D01*
X144836000Y-80000000D02*
X146165000Y-80000000D01*
X139880000Y-80000000D02*
X141165000Y-80000000D01*
X134880000Y-80000000D02*
X136120000Y-80000000D01*
X161514000Y-80748000D02*
X161514000Y-80748000D01*
X156514000Y-80748000D02*
X156514000Y-80748000D01*
X151514000Y-80748000D02*
X151514000Y-80748000D01*
X146514000Y-80748000D02*
X146514000Y-80748000D01*
X141514000Y-80748000D02*
X141514000Y-80748000D01*
X163670000Y-81300000D02*
X165620000Y-81300000D01*
X158670000Y-81300000D02*
X162331000Y-81300000D01*
X153670000Y-81300000D02*
X157331000Y-81300000D01*
X148670000Y-81300000D02*
X152331000Y-81300000D01*
X143670000Y-81300000D02*
X147331000Y-81300000D01*
X139880000Y-81300000D02*
X142331000Y-81300000D01*
X134880000Y-81300000D02*
X136120000Y-81300000D01*
X134640000Y-81470000D02*
X134640000Y-83660000D01*
X134880000Y-83420000D02*
X165620000Y-83420000D01*
X134640000Y-83660000D02*
X136590000Y-83660000D01*
X163000487Y-77539056D02*
G75*
G02*
X163508000Y-77606000I-487J-1960944D01*
G01*
X158000487Y-77539056D02*
G75*
G02*
X158508000Y-77606000I-487J-1960944D01*
G01*
X153000487Y-77539056D02*
G75*
G02*
X153508000Y-77606000I-487J-1960944D01*
G01*
X148000487Y-77539056D02*
G75*
G02*
X148508000Y-77606000I-487J-1960944D01*
G01*
X143000487Y-77539056D02*
G75*
G02*
X143508000Y-77606000I-487J-1960944D01*
G01*
X162493681Y-77606527D02*
G75*
G02*
X163001000Y-77540001I506319J-1893473D01*
G01*
X157493681Y-77606527D02*
G75*
G02*
X158001000Y-77540001I506319J-1893473D01*
G01*
X152493681Y-77606527D02*
G75*
G02*
X153001000Y-77540001I506319J-1893473D01*
G01*
X147493681Y-77606527D02*
G75*
G02*
X148001000Y-77540001I506319J-1893473D01*
G01*
X142493681Y-77606527D02*
G75*
G02*
X143001000Y-77540001I506319J-1893473D01*
G01*
X137427381Y-77624578D02*
G75*
G02*
X138574000Y-77625000I572619J-1875422D01*
G01*
X163638712Y-77646080D02*
G75*
G02*
X163828999Y-77723001I-638612J-1853620D01*
G01*
X158638712Y-77646080D02*
G75*
G02*
X158828999Y-77723001I-638612J-1853620D01*
G01*
X153638712Y-77646080D02*
G75*
G02*
X153828999Y-77723001I-638612J-1853620D01*
G01*
X148638712Y-77646080D02*
G75*
G02*
X148828999Y-77723001I-638612J-1853620D01*
G01*
X143638712Y-77646080D02*
G75*
G02*
X143828999Y-77723001I-638612J-1853620D01*
G01*
X162172694Y-77722741D02*
G75*
G02*
X162363000Y-77646000I827306J-1777259D01*
G01*
X157172694Y-77722741D02*
G75*
G02*
X157363000Y-77646000I827306J-1777259D01*
G01*
X152172694Y-77722741D02*
G75*
G02*
X152363000Y-77646000I827306J-1777259D01*
G01*
X147172694Y-77722741D02*
G75*
G02*
X147363000Y-77646000I827306J-1777259D01*
G01*
X142172694Y-77722741D02*
G75*
G02*
X142363000Y-77646000I827306J-1777259D01*
G01*
X163920652Y-77769174D02*
G75*
G02*
X164067997Y-77856004I-918652J-1727326D01*
G01*
X158920652Y-77769174D02*
G75*
G02*
X159067997Y-77856004I-918652J-1727326D01*
G01*
X153920652Y-77769174D02*
G75*
G02*
X154067997Y-77856004I-918652J-1727326D01*
G01*
X148920652Y-77769174D02*
G75*
G02*
X149067997Y-77856004I-918652J-1727326D01*
G01*
X143920652Y-77769174D02*
G75*
G02*
X144067997Y-77856004I-918652J-1727326D01*
G01*
X161933630Y-77855683D02*
G75*
G02*
X162081003Y-77769005I1065470J-1642917D01*
G01*
X156933630Y-77855683D02*
G75*
G02*
X157081003Y-77769005I1065470J-1642917D01*
G01*
X151933630Y-77855683D02*
G75*
G02*
X152081003Y-77769005I1065470J-1642917D01*
G01*
X146933630Y-77855683D02*
G75*
G02*
X147081003Y-77769005I1065470J-1642917D01*
G01*
X141933630Y-77855683D02*
G75*
G02*
X142081003Y-77769005I1065470J-1642917D01*
G01*
X164096479Y-77874249D02*
G75*
G02*
X164233999Y-77976002I-1097179J-1626651D01*
G01*
X159096479Y-77874249D02*
G75*
G02*
X159233999Y-77976002I-1097179J-1626651D01*
G01*
X154096479Y-77874249D02*
G75*
G02*
X154233999Y-77976002I-1097179J-1626651D01*
G01*
X149096479Y-77874249D02*
G75*
G02*
X149233999Y-77976002I-1097179J-1626651D01*
G01*
X144096479Y-77874249D02*
G75*
G02*
X144233999Y-77976002I-1097179J-1626651D01*
G01*
X161767452Y-77975623D02*
G75*
G02*
X161905000Y-77874000I1232548J-1524377D01*
G01*
X156767452Y-77975623D02*
G75*
G02*
X156905000Y-77874000I1232548J-1524377D01*
G01*
X151767452Y-77975623D02*
G75*
G02*
X151905000Y-77874000I1232548J-1524377D01*
G01*
X146767452Y-77975623D02*
G75*
G02*
X146905000Y-77874000I1232548J-1524377D01*
G01*
X141767452Y-77975623D02*
G75*
G02*
X141905000Y-77874000I1232548J-1524377D01*
G01*
X164233928Y-77976659D02*
G75*
G02*
X164362000Y-78090000I-1234028J-1523441D01*
G01*
X159233928Y-77976659D02*
G75*
G02*
X159362000Y-78090000I-1234028J-1523441D01*
G01*
X154233928Y-77976659D02*
G75*
G02*
X154362000Y-78090000I-1234028J-1523441D01*
G01*
X149233928Y-77976659D02*
G75*
G02*
X149362000Y-78090000I-1234028J-1523441D01*
G01*
X144233928Y-77976659D02*
G75*
G02*
X144362000Y-78090000I-1234028J-1523441D01*
G01*
X161638867Y-78089262D02*
G75*
G02*
X161767000Y-77975999I1361233J-1410838D01*
G01*
X156638867Y-78089262D02*
G75*
G02*
X156767000Y-77975999I1361233J-1410838D01*
G01*
X151638867Y-78089262D02*
G75*
G02*
X151767000Y-77975999I1361233J-1410838D01*
G01*
X146638867Y-78089262D02*
G75*
G02*
X146767000Y-77975999I1361233J-1410838D01*
G01*
X141638867Y-78089262D02*
G75*
G02*
X141767000Y-77975999I1361233J-1410838D01*
G01*
X164362286Y-78089903D02*
G75*
G02*
X164480000Y-78214000I-1362086J-1409897D01*
G01*
X159362286Y-78089903D02*
G75*
G02*
X159480000Y-78214000I-1362086J-1409897D01*
G01*
X154362286Y-78089903D02*
G75*
G02*
X154480000Y-78214000I-1362086J-1409897D01*
G01*
X149362286Y-78089903D02*
G75*
G02*
X149480000Y-78214000I-1362086J-1409897D01*
G01*
X144362286Y-78089903D02*
G75*
G02*
X144480000Y-78214000I-1362086J-1409897D01*
G01*
X161521202Y-78212988D02*
G75*
G02*
X161639000Y-78089000I1477098J-1285412D01*
G01*
X156521202Y-78212988D02*
G75*
G02*
X156639000Y-78089000I1477098J-1285412D01*
G01*
X151521202Y-78212988D02*
G75*
G02*
X151639000Y-78089000I1477098J-1285412D01*
G01*
X146521202Y-78212988D02*
G75*
G02*
X146639000Y-78089000I1477098J-1285412D01*
G01*
X141521202Y-78212988D02*
G75*
G02*
X141639000Y-78089000I1477098J-1285412D01*
G01*
X164479873Y-78213636D02*
G75*
G02*
X164566000Y-78320000I-1479373J-1285964D01*
G01*
X159479873Y-78213636D02*
G75*
G02*
X159566000Y-78320000I-1479373J-1285964D01*
G01*
X154479873Y-78213636D02*
G75*
G02*
X154566000Y-78320000I-1479373J-1285964D01*
G01*
X149479873Y-78213636D02*
G75*
G02*
X149566000Y-78320000I-1479373J-1285964D01*
G01*
X144479873Y-78213636D02*
G75*
G02*
X144566000Y-78320000I-1479373J-1285964D01*
G01*
X161434826Y-78319305D02*
G75*
G02*
X161521000Y-78213000I1564674J-1180295D01*
G01*
X156434826Y-78319305D02*
G75*
G02*
X156521000Y-78213000I1564674J-1180295D01*
G01*
X151434826Y-78319305D02*
G75*
G02*
X151521000Y-78213000I1564674J-1180295D01*
G01*
X146434826Y-78319305D02*
G75*
G02*
X146521000Y-78213000I1564674J-1180295D01*
G01*
X141434826Y-78319305D02*
G75*
G02*
X141521000Y-78213000I1564674J-1180295D01*
G01*
X164565937Y-78319916D02*
G75*
G02*
X164566000Y-80680000I-1565937J-1180084D01*
G01*
X159565937Y-78319916D02*
G75*
G02*
X159566000Y-80680000I-1565937J-1180084D01*
G01*
X154565937Y-78319916D02*
G75*
G02*
X154566000Y-80680000I-1565937J-1180084D01*
G01*
X149565937Y-78319916D02*
G75*
G02*
X149566000Y-80680000I-1565937J-1180084D01*
G01*
X144565937Y-78319916D02*
G75*
G02*
X144566000Y-80680000I-1565937J-1180084D01*
G01*
X139875422Y-78927381D02*
G75*
G02*
X139875000Y-80074000I-1875422J-572619D01*
G01*
X136124578Y-80072619D02*
G75*
G02*
X136125000Y-78926000I1875415J572619D01*
G01*
X161434339Y-80679122D02*
G75*
G02*
X161435000Y-78320000I1565661J1179122D01*
G01*
X156434339Y-80679122D02*
G75*
G02*
X156435000Y-78320000I1565661J1179122D01*
G01*
X151434339Y-80679122D02*
G75*
G02*
X151435000Y-78320000I1565661J1179122D01*
G01*
X146434339Y-80679122D02*
G75*
G02*
X146435000Y-78320000I1565661J1179122D01*
G01*
X141434339Y-80679122D02*
G75*
G02*
X141435000Y-78320000I1565661J1179122D01*
G01*
X164566102Y-80679628D02*
G75*
G02*
X164480000Y-80786000I-1571402J1183928D01*
G01*
X159566102Y-80679628D02*
G75*
G02*
X159480000Y-80786000I-1571402J1183928D01*
G01*
X154566102Y-80679628D02*
G75*
G02*
X154480000Y-80786000I-1571402J1183928D01*
G01*
X149566102Y-80679628D02*
G75*
G02*
X149480000Y-80786000I-1571402J1183928D01*
G01*
X144566102Y-80679628D02*
G75*
G02*
X144480000Y-80786000I-1571402J1183928D01*
G01*
X164479707Y-80785928D02*
G75*
G02*
X164361999Y-80909999I-1479907J1286128D01*
G01*
X159479707Y-80785928D02*
G75*
G02*
X159361999Y-80909999I-1479907J1286128D01*
G01*
X154479707Y-80785928D02*
G75*
G02*
X154361999Y-80909999I-1479907J1286128D01*
G01*
X149479707Y-80785928D02*
G75*
G02*
X149361999Y-80909999I-1479907J1286128D01*
G01*
X144479707Y-80785928D02*
G75*
G02*
X144361999Y-80909999I-1479907J1286128D01*
G01*
X161521125Y-80786294D02*
G75*
G02*
X161434999Y-80680001I1479575J1286894D01*
G01*
X156521125Y-80786294D02*
G75*
G02*
X156434999Y-80680001I1479575J1286894D01*
G01*
X151521125Y-80786294D02*
G75*
G02*
X151434999Y-80680001I1479575J1286894D01*
G01*
X146521125Y-80786294D02*
G75*
G02*
X146434999Y-80680001I1479575J1286894D01*
G01*
X141521125Y-80786294D02*
G75*
G02*
X141434999Y-80680001I1479575J1286894D01*
G01*
X161638710Y-80910010D02*
G75*
G02*
X161520999Y-80786000I1361390J1410110D01*
G01*
X156638710Y-80910010D02*
G75*
G02*
X156520999Y-80786000I1361390J1410110D01*
G01*
X151638710Y-80910010D02*
G75*
G02*
X151520999Y-80786000I1361390J1410110D01*
G01*
X146638710Y-80910010D02*
G75*
G02*
X146520999Y-80786000I1361390J1410110D01*
G01*
X141638710Y-80910010D02*
G75*
G02*
X141520999Y-80786000I1361390J1410110D01*
G01*
X164362130Y-80910651D02*
G75*
G02*
X164234000Y-81024000I-1363630J1412351D01*
G01*
X159362130Y-80910651D02*
G75*
G02*
X159234000Y-81024000I-1363630J1412351D01*
G01*
X154362130Y-80910651D02*
G75*
G02*
X154234000Y-81024000I-1363630J1412351D01*
G01*
X149362130Y-80910651D02*
G75*
G02*
X149234000Y-81024000I-1363630J1412351D01*
G01*
X144362130Y-80910651D02*
G75*
G02*
X144234000Y-81024000I-1363630J1412351D01*
G01*
X161767069Y-81023253D02*
G75*
G02*
X161639000Y-80910000I1232831J1523153D01*
G01*
X156767069Y-81023253D02*
G75*
G02*
X156639000Y-80910000I1232831J1523153D01*
G01*
X151767069Y-81023253D02*
G75*
G02*
X151639000Y-80910000I1232831J1523153D01*
G01*
X146767069Y-81023253D02*
G75*
G02*
X146639000Y-80910000I1232831J1523153D01*
G01*
X141767069Y-81023253D02*
G75*
G02*
X141639000Y-80910000I1232831J1523153D01*
G01*
X164233457Y-81023294D02*
G75*
G02*
X164096001Y-81125002I-1232457J1521894D01*
G01*
X159233457Y-81023294D02*
G75*
G02*
X159096001Y-81125002I-1232457J1521894D01*
G01*
X154233457Y-81023294D02*
G75*
G02*
X154096001Y-81125002I-1232457J1521894D01*
G01*
X149233457Y-81023294D02*
G75*
G02*
X149096001Y-81125002I-1232457J1521894D01*
G01*
X144233457Y-81023294D02*
G75*
G02*
X144096001Y-81125002I-1232457J1521894D01*
G01*
X161904517Y-81125664D02*
G75*
G02*
X161767000Y-81024000I1095483J1625664D01*
G01*
X156904517Y-81125664D02*
G75*
G02*
X156767000Y-81024000I1095483J1625664D01*
G01*
X151904517Y-81125664D02*
G75*
G02*
X151767000Y-81024000I1095483J1625664D01*
G01*
X146904517Y-81125664D02*
G75*
G02*
X146767000Y-81024000I1095483J1625664D01*
G01*
X141904517Y-81125664D02*
G75*
G02*
X141767000Y-81024000I1095483J1625664D01*
G01*
X164068362Y-81144143D02*
G75*
G02*
X163921000Y-81231000I-1068362J1644143D01*
G01*
X159068362Y-81144143D02*
G75*
G02*
X158921000Y-81231000I-1068362J1644143D01*
G01*
X154068362Y-81144143D02*
G75*
G02*
X153921000Y-81231000I-1068362J1644143D01*
G01*
X149068362Y-81144143D02*
G75*
G02*
X148921000Y-81231000I-1068362J1644143D01*
G01*
X144068362Y-81144143D02*
G75*
G02*
X143921000Y-81231000I-1068362J1644143D01*
G01*
X162080344Y-81230739D02*
G75*
G02*
X161933000Y-81144000I921656J1734139D01*
G01*
X157080344Y-81230739D02*
G75*
G02*
X156933000Y-81144000I921656J1734139D01*
G01*
X152080344Y-81230739D02*
G75*
G02*
X151933000Y-81144000I921656J1734139D01*
G01*
X147080344Y-81230739D02*
G75*
G02*
X146933000Y-81144000I921656J1734139D01*
G01*
X142080344Y-81230739D02*
G75*
G02*
X141933000Y-81144000I921656J1734139D01*
G01*
X163829295Y-81277050D02*
G75*
G02*
X163639000Y-81354001I-829795J1778250D01*
G01*
X158829295Y-81277050D02*
G75*
G02*
X158639000Y-81354001I-829795J1778250D01*
G01*
X153829295Y-81277050D02*
G75*
G02*
X153639000Y-81354001I-829795J1778250D01*
G01*
X148829295Y-81277050D02*
G75*
G02*
X148639000Y-81354001I-829795J1778250D01*
G01*
X143829295Y-81277050D02*
G75*
G02*
X143639000Y-81354001I-829795J1778250D01*
G01*
X162362283Y-81353815D02*
G75*
G02*
X162172000Y-81277000I637717J1853815D01*
G01*
X157362283Y-81353815D02*
G75*
G02*
X157172000Y-81277000I637717J1853815D01*
G01*
X152362283Y-81353815D02*
G75*
G02*
X152172000Y-81277000I637717J1853815D01*
G01*
X147362283Y-81353815D02*
G75*
G02*
X147172000Y-81277000I637717J1853815D01*
G01*
X142362283Y-81353815D02*
G75*
G02*
X142172000Y-81277000I637717J1853815D01*
G01*
X138573049Y-81374357D02*
G75*
G02*
X138000000Y-81460000I-573049J1874357D01*
G01*
X163507285Y-81393215D02*
G75*
G02*
X163000000Y-81460000I-507285J1893215D01*
G01*
X158507285Y-81393215D02*
G75*
G02*
X158000000Y-81460000I-507285J1893215D01*
G01*
X153507285Y-81393215D02*
G75*
G02*
X153000000Y-81460000I-507285J1893215D01*
G01*
X148507285Y-81393215D02*
G75*
G02*
X148000000Y-81460000I-507285J1893215D01*
G01*
X143507285Y-81393215D02*
G75*
G02*
X143000000Y-81460000I-507285J1893215D01*
G01*
X138033500Y-81460607D02*
G75*
G02*
X137426000Y-81375000I-33500J1960607D01*
G01*
X163000479Y-81460685D02*
G75*
G02*
X162493001Y-81393997I-479J1960585D01*
G01*
X158000479Y-81460685D02*
G75*
G02*
X157493001Y-81393997I-479J1960585D01*
G01*
X153000479Y-81460685D02*
G75*
G02*
X152493001Y-81393997I-479J1960585D01*
G01*
X148000479Y-81460685D02*
G75*
G02*
X147493001Y-81393997I-479J1960585D01*
G01*
X143000479Y-81460685D02*
G75*
G02*
X142493001Y-81393997I-479J1960585D01*
G01*
%TD*%
M02*
