%TF.GenerationSoftware,KiCad,Pcbnew,8.0.6*%
%TF.CreationDate,2024-11-13T16:57:41+01:00*%
%TF.ProjectId,pcb,7063622e-6b69-4636-9164-5f7063625858,rev?*%
%TF.SameCoordinates,Original*%
%TF.FileFunction,Drillmap*%
%TF.FilePolarity,Positive*%
%FSLAX45Y45*%
G04 Gerber Fmt 4.5, Leading zero omitted, Abs format (unit mm)*
G04 Created by KiCad (PCBNEW 8.0.6) date 2024-11-13 16:57:41*
%MOMM*%
%LPD*%
G01*
G04 APERTURE LIST*
%ADD10C,0.200000*%
G04 APERTURE END LIST*
D10*
X6600000Y-5050000D02*
X20100000Y-5050000D01*
X20100000Y-13050000D01*
X6600000Y-13050000D01*
X6600000Y-5050000D01*
X6850777Y-13371484D02*
X6850777Y-13171484D01*
X6850777Y-13171484D02*
X6898396Y-13171484D01*
X6898396Y-13171484D02*
X6926967Y-13181008D01*
X6926967Y-13181008D02*
X6946015Y-13200055D01*
X6946015Y-13200055D02*
X6955539Y-13219103D01*
X6955539Y-13219103D02*
X6965062Y-13257198D01*
X6965062Y-13257198D02*
X6965062Y-13285769D01*
X6965062Y-13285769D02*
X6955539Y-13323865D01*
X6955539Y-13323865D02*
X6946015Y-13342912D01*
X6946015Y-13342912D02*
X6926967Y-13361960D01*
X6926967Y-13361960D02*
X6898396Y-13371484D01*
X6898396Y-13371484D02*
X6850777Y-13371484D01*
X7050777Y-13371484D02*
X7050777Y-13238150D01*
X7050777Y-13276246D02*
X7060301Y-13257198D01*
X7060301Y-13257198D02*
X7069824Y-13247674D01*
X7069824Y-13247674D02*
X7088872Y-13238150D01*
X7088872Y-13238150D02*
X7107920Y-13238150D01*
X7174586Y-13371484D02*
X7174586Y-13238150D01*
X7174586Y-13171484D02*
X7165062Y-13181008D01*
X7165062Y-13181008D02*
X7174586Y-13190531D01*
X7174586Y-13190531D02*
X7184110Y-13181008D01*
X7184110Y-13181008D02*
X7174586Y-13171484D01*
X7174586Y-13171484D02*
X7174586Y-13190531D01*
X7298396Y-13371484D02*
X7279348Y-13361960D01*
X7279348Y-13361960D02*
X7269824Y-13342912D01*
X7269824Y-13342912D02*
X7269824Y-13171484D01*
X7403158Y-13371484D02*
X7384110Y-13361960D01*
X7384110Y-13361960D02*
X7374586Y-13342912D01*
X7374586Y-13342912D02*
X7374586Y-13171484D01*
X7631729Y-13371484D02*
X7631729Y-13171484D01*
X7631729Y-13171484D02*
X7698396Y-13314341D01*
X7698396Y-13314341D02*
X7765062Y-13171484D01*
X7765062Y-13171484D02*
X7765062Y-13371484D01*
X7946015Y-13371484D02*
X7946015Y-13266722D01*
X7946015Y-13266722D02*
X7936491Y-13247674D01*
X7936491Y-13247674D02*
X7917443Y-13238150D01*
X7917443Y-13238150D02*
X7879348Y-13238150D01*
X7879348Y-13238150D02*
X7860301Y-13247674D01*
X7946015Y-13361960D02*
X7926967Y-13371484D01*
X7926967Y-13371484D02*
X7879348Y-13371484D01*
X7879348Y-13371484D02*
X7860301Y-13361960D01*
X7860301Y-13361960D02*
X7850777Y-13342912D01*
X7850777Y-13342912D02*
X7850777Y-13323865D01*
X7850777Y-13323865D02*
X7860301Y-13304817D01*
X7860301Y-13304817D02*
X7879348Y-13295293D01*
X7879348Y-13295293D02*
X7926967Y-13295293D01*
X7926967Y-13295293D02*
X7946015Y-13285769D01*
X8041253Y-13238150D02*
X8041253Y-13438150D01*
X8041253Y-13247674D02*
X8060301Y-13238150D01*
X8060301Y-13238150D02*
X8098396Y-13238150D01*
X8098396Y-13238150D02*
X8117443Y-13247674D01*
X8117443Y-13247674D02*
X8126967Y-13257198D01*
X8126967Y-13257198D02*
X8136491Y-13276246D01*
X8136491Y-13276246D02*
X8136491Y-13333388D01*
X8136491Y-13333388D02*
X8126967Y-13352436D01*
X8126967Y-13352436D02*
X8117443Y-13361960D01*
X8117443Y-13361960D02*
X8098396Y-13371484D01*
X8098396Y-13371484D02*
X8060301Y-13371484D01*
X8060301Y-13371484D02*
X8041253Y-13361960D01*
X8222205Y-13352436D02*
X8231729Y-13361960D01*
X8231729Y-13361960D02*
X8222205Y-13371484D01*
X8222205Y-13371484D02*
X8212682Y-13361960D01*
X8212682Y-13361960D02*
X8222205Y-13352436D01*
X8222205Y-13352436D02*
X8222205Y-13371484D01*
X8222205Y-13247674D02*
X8231729Y-13257198D01*
X8231729Y-13257198D02*
X8222205Y-13266722D01*
X8222205Y-13266722D02*
X8212682Y-13257198D01*
X8212682Y-13257198D02*
X8222205Y-13247674D01*
X8222205Y-13247674D02*
X8222205Y-13266722D01*
M02*
