%TF.GenerationSoftware,KiCad,Pcbnew,8.0.6*%
%TF.CreationDate,2024-11-18T20:28:14+01:00*%
%TF.ProjectId,pcb,7063622e-6b69-4636-9164-5f7063625858,rev?*%
%TF.SameCoordinates,Original*%
%TF.FileFunction,Drillmap*%
%TF.FilePolarity,Positive*%
%FSLAX45Y45*%
G04 Gerber Fmt 4.5, Leading zero omitted, Abs format (unit mm)*
G04 Created by KiCad (PCBNEW 8.0.6) date 2024-11-18 20:28:14*
%MOMM*%
%LPD*%
G01*
G04 APERTURE LIST*
%ADD10C,0.200000*%
%ADD11C,0.100000*%
%ADD12C,0.102000*%
%ADD13C,0.110000*%
%ADD14C,0.130000*%
%ADD15C,0.152000*%
G04 APERTURE END LIST*
D10*
X9950000Y-5050000D02*
X19950000Y-5050000D01*
X19950000Y-13050000D01*
X9950000Y-13050000D01*
X9950000Y-5050000D01*
D11*
X13305000Y-10244000D02*
X13385000Y-10324000D01*
X13385000Y-10244000D02*
X13305000Y-10324000D01*
X13305000Y-11260000D02*
X13385000Y-11340000D01*
X13385000Y-11260000D02*
X13305000Y-11340000D01*
X13360000Y-12260000D02*
X13440000Y-12340000D01*
X13440000Y-12260000D02*
X13360000Y-12340000D01*
X13860000Y-12260000D02*
X13940000Y-12340000D01*
X13940000Y-12260000D02*
X13860000Y-12340000D01*
X13910000Y-10244000D02*
X13990000Y-10324000D01*
X13990000Y-10244000D02*
X13910000Y-10324000D01*
X13910000Y-11260000D02*
X13990000Y-11340000D01*
X13990000Y-11260000D02*
X13910000Y-11340000D01*
X14885000Y-10268500D02*
X14965000Y-10348500D01*
X14965000Y-10268500D02*
X14885000Y-10348500D01*
X14885000Y-11284500D02*
X14965000Y-11364500D01*
X14965000Y-11284500D02*
X14885000Y-11364500D01*
X14925000Y-12278500D02*
X15005000Y-12358500D01*
X15005000Y-12278500D02*
X14925000Y-12358500D01*
X15425000Y-12278500D02*
X15505000Y-12358500D01*
X15505000Y-12278500D02*
X15425000Y-12358500D01*
X15460000Y-10268500D02*
X15540000Y-10348500D01*
X15540000Y-10268500D02*
X15460000Y-10348500D01*
X15460000Y-11284500D02*
X15540000Y-11364500D01*
X15540000Y-11284500D02*
X15460000Y-11364500D01*
X16245000Y-10260500D02*
X16325000Y-10340500D01*
X16325000Y-10260500D02*
X16245000Y-10340500D01*
X16245000Y-11276500D02*
X16325000Y-11356500D01*
X16325000Y-11276500D02*
X16245000Y-11356500D01*
X16300000Y-12278500D02*
X16380000Y-12358500D01*
X16380000Y-12278500D02*
X16300000Y-12358500D01*
X16800000Y-12278500D02*
X16880000Y-12358500D01*
X16880000Y-12278500D02*
X16800000Y-12358500D01*
X16860000Y-10268500D02*
X16940000Y-10348500D01*
X16940000Y-10268500D02*
X16860000Y-10348500D01*
X16860000Y-11284500D02*
X16940000Y-11364500D01*
X16940000Y-11284500D02*
X16860000Y-11364500D01*
X17760000Y-10270500D02*
X17840000Y-10350500D01*
X17840000Y-10270500D02*
X17760000Y-10350500D01*
X17760000Y-11286500D02*
X17840000Y-11366500D01*
X17840000Y-11286500D02*
X17760000Y-11366500D01*
X17760000Y-12278500D02*
X17840000Y-12358500D01*
X17840000Y-12278500D02*
X17760000Y-12358500D01*
X18260000Y-12278500D02*
X18340000Y-12358500D01*
X18340000Y-12278500D02*
X18260000Y-12358500D01*
X18310000Y-10262500D02*
X18390000Y-10342500D01*
X18390000Y-10262500D02*
X18310000Y-10342500D01*
X18310000Y-11278500D02*
X18390000Y-11358500D01*
X18390000Y-11278500D02*
X18310000Y-11358500D01*
X19009500Y-10278500D02*
X19089500Y-10358500D01*
X19089500Y-10278500D02*
X19009500Y-10358500D01*
X19009500Y-11294500D02*
X19089500Y-11374500D01*
X19089500Y-11294500D02*
X19009500Y-11374500D01*
X19049500Y-12278500D02*
X19129500Y-12358500D01*
X19129500Y-12278500D02*
X19049500Y-12358500D01*
X19549500Y-12278500D02*
X19629500Y-12358500D01*
X19629500Y-12278500D02*
X19549500Y-12358500D01*
X19584500Y-10278500D02*
X19664500Y-10358500D01*
X19664500Y-10278500D02*
X19584500Y-10358500D01*
X19584500Y-11294500D02*
X19664500Y-11374500D01*
X19664500Y-11294500D02*
X19584500Y-11374500D01*
D12*
X10465000Y-8838000D02*
G75*
G02*
X10363000Y-8838000I-51000J0D01*
G01*
X10363000Y-8838000D02*
G75*
G02*
X10465000Y-8838000I51000J0D01*
G01*
X10465000Y-9092000D02*
G75*
G02*
X10363000Y-9092000I-51000J0D01*
G01*
X10363000Y-9092000D02*
G75*
G02*
X10465000Y-9092000I51000J0D01*
G01*
X10465000Y-9346000D02*
G75*
G02*
X10363000Y-9346000I-51000J0D01*
G01*
X10363000Y-9346000D02*
G75*
G02*
X10465000Y-9346000I51000J0D01*
G01*
X10465000Y-9600000D02*
G75*
G02*
X10363000Y-9600000I-51000J0D01*
G01*
X10363000Y-9600000D02*
G75*
G02*
X10465000Y-9600000I51000J0D01*
G01*
X10465000Y-9854000D02*
G75*
G02*
X10363000Y-9854000I-51000J0D01*
G01*
X10363000Y-9854000D02*
G75*
G02*
X10465000Y-9854000I51000J0D01*
G01*
X10465000Y-10108000D02*
G75*
G02*
X10363000Y-10108000I-51000J0D01*
G01*
X10363000Y-10108000D02*
G75*
G02*
X10465000Y-10108000I51000J0D01*
G01*
X10465000Y-10362000D02*
G75*
G02*
X10363000Y-10362000I-51000J0D01*
G01*
X10363000Y-10362000D02*
G75*
G02*
X10465000Y-10362000I51000J0D01*
G01*
X10465000Y-10616000D02*
G75*
G02*
X10363000Y-10616000I-51000J0D01*
G01*
X10363000Y-10616000D02*
G75*
G02*
X10465000Y-10616000I51000J0D01*
G01*
X10465000Y-10870000D02*
G75*
G02*
X10363000Y-10870000I-51000J0D01*
G01*
X10363000Y-10870000D02*
G75*
G02*
X10465000Y-10870000I51000J0D01*
G01*
X10465000Y-11124000D02*
G75*
G02*
X10363000Y-11124000I-51000J0D01*
G01*
X10363000Y-11124000D02*
G75*
G02*
X10465000Y-11124000I51000J0D01*
G01*
X10465000Y-11378000D02*
G75*
G02*
X10363000Y-11378000I-51000J0D01*
G01*
X10363000Y-11378000D02*
G75*
G02*
X10465000Y-11378000I51000J0D01*
G01*
X10465000Y-11632000D02*
G75*
G02*
X10363000Y-11632000I-51000J0D01*
G01*
X10363000Y-11632000D02*
G75*
G02*
X10465000Y-11632000I51000J0D01*
G01*
X10465000Y-11886000D02*
G75*
G02*
X10363000Y-11886000I-51000J0D01*
G01*
X10363000Y-11886000D02*
G75*
G02*
X10465000Y-11886000I51000J0D01*
G01*
X10465000Y-12140000D02*
G75*
G02*
X10363000Y-12140000I-51000J0D01*
G01*
X10363000Y-12140000D02*
G75*
G02*
X10465000Y-12140000I51000J0D01*
G01*
X10465000Y-12394000D02*
G75*
G02*
X10363000Y-12394000I-51000J0D01*
G01*
X10363000Y-12394000D02*
G75*
G02*
X10465000Y-12394000I51000J0D01*
G01*
X12751000Y-8838000D02*
G75*
G02*
X12649000Y-8838000I-51000J0D01*
G01*
X12649000Y-8838000D02*
G75*
G02*
X12751000Y-8838000I51000J0D01*
G01*
X12751000Y-9092000D02*
G75*
G02*
X12649000Y-9092000I-51000J0D01*
G01*
X12649000Y-9092000D02*
G75*
G02*
X12751000Y-9092000I51000J0D01*
G01*
X12751000Y-9346000D02*
G75*
G02*
X12649000Y-9346000I-51000J0D01*
G01*
X12649000Y-9346000D02*
G75*
G02*
X12751000Y-9346000I51000J0D01*
G01*
X12751000Y-9600000D02*
G75*
G02*
X12649000Y-9600000I-51000J0D01*
G01*
X12649000Y-9600000D02*
G75*
G02*
X12751000Y-9600000I51000J0D01*
G01*
X12751000Y-9854000D02*
G75*
G02*
X12649000Y-9854000I-51000J0D01*
G01*
X12649000Y-9854000D02*
G75*
G02*
X12751000Y-9854000I51000J0D01*
G01*
X12751000Y-10108000D02*
G75*
G02*
X12649000Y-10108000I-51000J0D01*
G01*
X12649000Y-10108000D02*
G75*
G02*
X12751000Y-10108000I51000J0D01*
G01*
X12751000Y-10362000D02*
G75*
G02*
X12649000Y-10362000I-51000J0D01*
G01*
X12649000Y-10362000D02*
G75*
G02*
X12751000Y-10362000I51000J0D01*
G01*
X12751000Y-10616000D02*
G75*
G02*
X12649000Y-10616000I-51000J0D01*
G01*
X12649000Y-10616000D02*
G75*
G02*
X12751000Y-10616000I51000J0D01*
G01*
X12751000Y-10870000D02*
G75*
G02*
X12649000Y-10870000I-51000J0D01*
G01*
X12649000Y-10870000D02*
G75*
G02*
X12751000Y-10870000I51000J0D01*
G01*
X12751000Y-11124000D02*
G75*
G02*
X12649000Y-11124000I-51000J0D01*
G01*
X12649000Y-11124000D02*
G75*
G02*
X12751000Y-11124000I51000J0D01*
G01*
X12751000Y-11378000D02*
G75*
G02*
X12649000Y-11378000I-51000J0D01*
G01*
X12649000Y-11378000D02*
G75*
G02*
X12751000Y-11378000I51000J0D01*
G01*
X12751000Y-11632000D02*
G75*
G02*
X12649000Y-11632000I-51000J0D01*
G01*
X12649000Y-11632000D02*
G75*
G02*
X12751000Y-11632000I51000J0D01*
G01*
X12751000Y-11886000D02*
G75*
G02*
X12649000Y-11886000I-51000J0D01*
G01*
X12649000Y-11886000D02*
G75*
G02*
X12751000Y-11886000I51000J0D01*
G01*
X12751000Y-12140000D02*
G75*
G02*
X12649000Y-12140000I-51000J0D01*
G01*
X12649000Y-12140000D02*
G75*
G02*
X12751000Y-12140000I51000J0D01*
G01*
X12751000Y-12394000D02*
G75*
G02*
X12649000Y-12394000I-51000J0D01*
G01*
X12649000Y-12394000D02*
G75*
G02*
X12751000Y-12394000I51000J0D01*
G01*
D13*
X13350000Y-8945000D02*
X13350000Y-9055000D01*
X13295000Y-9000000D02*
X13405000Y-9000000D01*
X13350000Y-9395000D02*
X13350000Y-9505000D01*
X13295000Y-9450000D02*
X13405000Y-9450000D01*
X14000000Y-8945000D02*
X14000000Y-9055000D01*
X13945000Y-9000000D02*
X14055000Y-9000000D01*
X14000000Y-9395000D02*
X14000000Y-9505000D01*
X13945000Y-9450000D02*
X14055000Y-9450000D01*
X14925000Y-8953500D02*
X14925000Y-9063500D01*
X14870000Y-9008500D02*
X14980000Y-9008500D01*
X14925000Y-9403500D02*
X14925000Y-9513500D01*
X14870000Y-9458500D02*
X14980000Y-9458500D01*
X15575000Y-8953500D02*
X15575000Y-9063500D01*
X15520000Y-9008500D02*
X15630000Y-9008500D01*
X15575000Y-9403500D02*
X15575000Y-9513500D01*
X15520000Y-9458500D02*
X15630000Y-9458500D01*
X16300000Y-8953500D02*
X16300000Y-9063500D01*
X16245000Y-9008500D02*
X16355000Y-9008500D01*
X16300000Y-9403500D02*
X16300000Y-9513500D01*
X16245000Y-9458500D02*
X16355000Y-9458500D01*
X16950000Y-8953500D02*
X16950000Y-9063500D01*
X16895000Y-9008500D02*
X17005000Y-9008500D01*
X16950000Y-9403500D02*
X16950000Y-9513500D01*
X16895000Y-9458500D02*
X17005000Y-9458500D01*
X17700000Y-8963500D02*
X17700000Y-9073500D01*
X17645000Y-9018500D02*
X17755000Y-9018500D01*
X17700000Y-9413500D02*
X17700000Y-9523500D01*
X17645000Y-9468500D02*
X17755000Y-9468500D01*
X18350000Y-8963500D02*
X18350000Y-9073500D01*
X18295000Y-9018500D02*
X18405000Y-9018500D01*
X18350000Y-9413500D02*
X18350000Y-9523500D01*
X18295000Y-9468500D02*
X18405000Y-9468500D01*
X18989500Y-8963500D02*
X18989500Y-9073500D01*
X18934500Y-9018500D02*
X19044500Y-9018500D01*
X18989500Y-9413500D02*
X18989500Y-9523500D01*
X18934500Y-9468500D02*
X19044500Y-9468500D01*
X19639500Y-8963500D02*
X19639500Y-9073500D01*
X19584500Y-9018500D02*
X19694500Y-9018500D01*
X19639500Y-9413500D02*
X19639500Y-9523500D01*
X19584500Y-9468500D02*
X19694500Y-9468500D01*
D14*
X11177462Y-5895962D02*
X11177462Y-5804038D01*
X11085538Y-5804038D01*
X11085538Y-5895962D01*
X11177462Y-5895962D01*
X11677462Y-5895962D02*
X11677462Y-5804038D01*
X11585538Y-5804038D01*
X11585538Y-5895962D01*
X11677462Y-5895962D01*
X12177462Y-5895962D02*
X12177462Y-5804038D01*
X12085538Y-5804038D01*
X12085538Y-5895962D01*
X12177462Y-5895962D01*
X12677462Y-5895962D02*
X12677462Y-5804038D01*
X12585538Y-5804038D01*
X12585538Y-5895962D01*
X12677462Y-5895962D01*
X13495962Y-7795962D02*
X13495962Y-7704038D01*
X13404038Y-7704038D01*
X13404038Y-7795962D01*
X13495962Y-7795962D01*
X13995962Y-7795962D02*
X13995962Y-7704038D01*
X13904038Y-7704038D01*
X13904038Y-7795962D01*
X13995962Y-7795962D01*
X14495962Y-7795962D02*
X14495962Y-7704038D01*
X14404038Y-7704038D01*
X14404038Y-7795962D01*
X14495962Y-7795962D01*
X14995962Y-7795962D02*
X14995962Y-7704038D01*
X14904038Y-7704038D01*
X14904038Y-7795962D01*
X14995962Y-7795962D01*
X15495962Y-7795962D02*
X15495962Y-7704038D01*
X15404038Y-7704038D01*
X15404038Y-7795962D01*
X15495962Y-7795962D01*
X15995962Y-7795962D02*
X15995962Y-7704038D01*
X15904038Y-7704038D01*
X15904038Y-7795962D01*
X15995962Y-7795962D01*
D15*
X13723500Y-5907500D02*
X13799500Y-5831500D01*
X13723500Y-5755500D01*
X13647500Y-5831500D01*
X13723500Y-5907500D01*
X14231500Y-5907500D02*
X14307500Y-5831500D01*
X14231500Y-5755500D01*
X14155500Y-5831500D01*
X14231500Y-5907500D01*
X15631500Y-5907500D02*
X15707500Y-5831500D01*
X15631500Y-5755500D01*
X15555500Y-5831500D01*
X15631500Y-5907500D01*
X16139500Y-5907500D02*
X16215500Y-5831500D01*
X16139500Y-5755500D01*
X16063500Y-5831500D01*
X16139500Y-5907500D01*
X16647500Y-5907500D02*
X16723500Y-5831500D01*
X16647500Y-5755500D01*
X16571500Y-5831500D01*
X16647500Y-5907500D01*
X17881500Y-5926000D02*
X17957500Y-5850000D01*
X17881500Y-5774000D01*
X17805500Y-5850000D01*
X17881500Y-5926000D01*
X18389500Y-5926000D02*
X18465500Y-5850000D01*
X18389500Y-5774000D01*
X18313500Y-5850000D01*
X18389500Y-5926000D01*
X18897500Y-5926000D02*
X18973500Y-5850000D01*
X18897500Y-5774000D01*
X18821500Y-5850000D01*
X18897500Y-5926000D01*
D10*
X10200777Y-13371484D02*
X10200777Y-13171484D01*
X10200777Y-13171484D02*
X10248396Y-13171484D01*
X10248396Y-13171484D02*
X10276967Y-13181008D01*
X10276967Y-13181008D02*
X10296015Y-13200055D01*
X10296015Y-13200055D02*
X10305539Y-13219103D01*
X10305539Y-13219103D02*
X10315063Y-13257198D01*
X10315063Y-13257198D02*
X10315063Y-13285769D01*
X10315063Y-13285769D02*
X10305539Y-13323865D01*
X10305539Y-13323865D02*
X10296015Y-13342912D01*
X10296015Y-13342912D02*
X10276967Y-13361960D01*
X10276967Y-13361960D02*
X10248396Y-13371484D01*
X10248396Y-13371484D02*
X10200777Y-13371484D01*
X10400777Y-13371484D02*
X10400777Y-13238150D01*
X10400777Y-13276246D02*
X10410301Y-13257198D01*
X10410301Y-13257198D02*
X10419824Y-13247674D01*
X10419824Y-13247674D02*
X10438872Y-13238150D01*
X10438872Y-13238150D02*
X10457920Y-13238150D01*
X10524586Y-13371484D02*
X10524586Y-13238150D01*
X10524586Y-13171484D02*
X10515063Y-13181008D01*
X10515063Y-13181008D02*
X10524586Y-13190531D01*
X10524586Y-13190531D02*
X10534110Y-13181008D01*
X10534110Y-13181008D02*
X10524586Y-13171484D01*
X10524586Y-13171484D02*
X10524586Y-13190531D01*
X10648396Y-13371484D02*
X10629348Y-13361960D01*
X10629348Y-13361960D02*
X10619824Y-13342912D01*
X10619824Y-13342912D02*
X10619824Y-13171484D01*
X10753158Y-13371484D02*
X10734110Y-13361960D01*
X10734110Y-13361960D02*
X10724586Y-13342912D01*
X10724586Y-13342912D02*
X10724586Y-13171484D01*
X10981729Y-13371484D02*
X10981729Y-13171484D01*
X10981729Y-13171484D02*
X11048396Y-13314341D01*
X11048396Y-13314341D02*
X11115063Y-13171484D01*
X11115063Y-13171484D02*
X11115063Y-13371484D01*
X11296015Y-13371484D02*
X11296015Y-13266722D01*
X11296015Y-13266722D02*
X11286491Y-13247674D01*
X11286491Y-13247674D02*
X11267443Y-13238150D01*
X11267443Y-13238150D02*
X11229348Y-13238150D01*
X11229348Y-13238150D02*
X11210301Y-13247674D01*
X11296015Y-13361960D02*
X11276967Y-13371484D01*
X11276967Y-13371484D02*
X11229348Y-13371484D01*
X11229348Y-13371484D02*
X11210301Y-13361960D01*
X11210301Y-13361960D02*
X11200777Y-13342912D01*
X11200777Y-13342912D02*
X11200777Y-13323865D01*
X11200777Y-13323865D02*
X11210301Y-13304817D01*
X11210301Y-13304817D02*
X11229348Y-13295293D01*
X11229348Y-13295293D02*
X11276967Y-13295293D01*
X11276967Y-13295293D02*
X11296015Y-13285769D01*
X11391253Y-13238150D02*
X11391253Y-13438150D01*
X11391253Y-13247674D02*
X11410301Y-13238150D01*
X11410301Y-13238150D02*
X11448396Y-13238150D01*
X11448396Y-13238150D02*
X11467443Y-13247674D01*
X11467443Y-13247674D02*
X11476967Y-13257198D01*
X11476967Y-13257198D02*
X11486491Y-13276246D01*
X11486491Y-13276246D02*
X11486491Y-13333388D01*
X11486491Y-13333388D02*
X11476967Y-13352436D01*
X11476967Y-13352436D02*
X11467443Y-13361960D01*
X11467443Y-13361960D02*
X11448396Y-13371484D01*
X11448396Y-13371484D02*
X11410301Y-13371484D01*
X11410301Y-13371484D02*
X11391253Y-13361960D01*
X11572205Y-13352436D02*
X11581729Y-13361960D01*
X11581729Y-13361960D02*
X11572205Y-13371484D01*
X11572205Y-13371484D02*
X11562682Y-13361960D01*
X11562682Y-13361960D02*
X11572205Y-13352436D01*
X11572205Y-13352436D02*
X11572205Y-13371484D01*
X11572205Y-13247674D02*
X11581729Y-13257198D01*
X11581729Y-13257198D02*
X11572205Y-13266722D01*
X11572205Y-13266722D02*
X11562682Y-13257198D01*
X11562682Y-13257198D02*
X11572205Y-13247674D01*
X11572205Y-13247674D02*
X11572205Y-13266722D01*
D11*
X9860000Y-13660000D02*
X9940000Y-13740000D01*
X9940000Y-13660000D02*
X9860000Y-13740000D01*
D10*
X10238872Y-13591484D02*
X10257920Y-13591484D01*
X10257920Y-13591484D02*
X10276967Y-13601008D01*
X10276967Y-13601008D02*
X10286491Y-13610531D01*
X10286491Y-13610531D02*
X10296015Y-13629579D01*
X10296015Y-13629579D02*
X10305539Y-13667674D01*
X10305539Y-13667674D02*
X10305539Y-13715293D01*
X10305539Y-13715293D02*
X10296015Y-13753388D01*
X10296015Y-13753388D02*
X10286491Y-13772436D01*
X10286491Y-13772436D02*
X10276967Y-13781960D01*
X10276967Y-13781960D02*
X10257920Y-13791484D01*
X10257920Y-13791484D02*
X10238872Y-13791484D01*
X10238872Y-13791484D02*
X10219824Y-13781960D01*
X10219824Y-13781960D02*
X10210301Y-13772436D01*
X10210301Y-13772436D02*
X10200777Y-13753388D01*
X10200777Y-13753388D02*
X10191253Y-13715293D01*
X10191253Y-13715293D02*
X10191253Y-13667674D01*
X10191253Y-13667674D02*
X10200777Y-13629579D01*
X10200777Y-13629579D02*
X10210301Y-13610531D01*
X10210301Y-13610531D02*
X10219824Y-13601008D01*
X10219824Y-13601008D02*
X10238872Y-13591484D01*
X10391253Y-13772436D02*
X10400777Y-13781960D01*
X10400777Y-13781960D02*
X10391253Y-13791484D01*
X10391253Y-13791484D02*
X10381729Y-13781960D01*
X10381729Y-13781960D02*
X10391253Y-13772436D01*
X10391253Y-13772436D02*
X10391253Y-13791484D01*
X10515063Y-13677198D02*
X10496015Y-13667674D01*
X10496015Y-13667674D02*
X10486491Y-13658150D01*
X10486491Y-13658150D02*
X10476967Y-13639103D01*
X10476967Y-13639103D02*
X10476967Y-13629579D01*
X10476967Y-13629579D02*
X10486491Y-13610531D01*
X10486491Y-13610531D02*
X10496015Y-13601008D01*
X10496015Y-13601008D02*
X10515063Y-13591484D01*
X10515063Y-13591484D02*
X10553158Y-13591484D01*
X10553158Y-13591484D02*
X10572205Y-13601008D01*
X10572205Y-13601008D02*
X10581729Y-13610531D01*
X10581729Y-13610531D02*
X10591253Y-13629579D01*
X10591253Y-13629579D02*
X10591253Y-13639103D01*
X10591253Y-13639103D02*
X10581729Y-13658150D01*
X10581729Y-13658150D02*
X10572205Y-13667674D01*
X10572205Y-13667674D02*
X10553158Y-13677198D01*
X10553158Y-13677198D02*
X10515063Y-13677198D01*
X10515063Y-13677198D02*
X10496015Y-13686722D01*
X10496015Y-13686722D02*
X10486491Y-13696246D01*
X10486491Y-13696246D02*
X10476967Y-13715293D01*
X10476967Y-13715293D02*
X10476967Y-13753388D01*
X10476967Y-13753388D02*
X10486491Y-13772436D01*
X10486491Y-13772436D02*
X10496015Y-13781960D01*
X10496015Y-13781960D02*
X10515063Y-13791484D01*
X10515063Y-13791484D02*
X10553158Y-13791484D01*
X10553158Y-13791484D02*
X10572205Y-13781960D01*
X10572205Y-13781960D02*
X10581729Y-13772436D01*
X10581729Y-13772436D02*
X10591253Y-13753388D01*
X10591253Y-13753388D02*
X10591253Y-13715293D01*
X10591253Y-13715293D02*
X10581729Y-13696246D01*
X10581729Y-13696246D02*
X10572205Y-13686722D01*
X10572205Y-13686722D02*
X10553158Y-13677198D01*
X10715063Y-13591484D02*
X10734110Y-13591484D01*
X10734110Y-13591484D02*
X10753158Y-13601008D01*
X10753158Y-13601008D02*
X10762682Y-13610531D01*
X10762682Y-13610531D02*
X10772205Y-13629579D01*
X10772205Y-13629579D02*
X10781729Y-13667674D01*
X10781729Y-13667674D02*
X10781729Y-13715293D01*
X10781729Y-13715293D02*
X10772205Y-13753388D01*
X10772205Y-13753388D02*
X10762682Y-13772436D01*
X10762682Y-13772436D02*
X10753158Y-13781960D01*
X10753158Y-13781960D02*
X10734110Y-13791484D01*
X10734110Y-13791484D02*
X10715063Y-13791484D01*
X10715063Y-13791484D02*
X10696015Y-13781960D01*
X10696015Y-13781960D02*
X10686491Y-13772436D01*
X10686491Y-13772436D02*
X10676967Y-13753388D01*
X10676967Y-13753388D02*
X10667444Y-13715293D01*
X10667444Y-13715293D02*
X10667444Y-13667674D01*
X10667444Y-13667674D02*
X10676967Y-13629579D01*
X10676967Y-13629579D02*
X10686491Y-13610531D01*
X10686491Y-13610531D02*
X10696015Y-13601008D01*
X10696015Y-13601008D02*
X10715063Y-13591484D01*
X10905539Y-13591484D02*
X10924586Y-13591484D01*
X10924586Y-13591484D02*
X10943634Y-13601008D01*
X10943634Y-13601008D02*
X10953158Y-13610531D01*
X10953158Y-13610531D02*
X10962682Y-13629579D01*
X10962682Y-13629579D02*
X10972205Y-13667674D01*
X10972205Y-13667674D02*
X10972205Y-13715293D01*
X10972205Y-13715293D02*
X10962682Y-13753388D01*
X10962682Y-13753388D02*
X10953158Y-13772436D01*
X10953158Y-13772436D02*
X10943634Y-13781960D01*
X10943634Y-13781960D02*
X10924586Y-13791484D01*
X10924586Y-13791484D02*
X10905539Y-13791484D01*
X10905539Y-13791484D02*
X10886491Y-13781960D01*
X10886491Y-13781960D02*
X10876967Y-13772436D01*
X10876967Y-13772436D02*
X10867444Y-13753388D01*
X10867444Y-13753388D02*
X10857920Y-13715293D01*
X10857920Y-13715293D02*
X10857920Y-13667674D01*
X10857920Y-13667674D02*
X10867444Y-13629579D01*
X10867444Y-13629579D02*
X10876967Y-13610531D01*
X10876967Y-13610531D02*
X10886491Y-13601008D01*
X10886491Y-13601008D02*
X10905539Y-13591484D01*
X11057920Y-13791484D02*
X11057920Y-13658150D01*
X11057920Y-13677198D02*
X11067444Y-13667674D01*
X11067444Y-13667674D02*
X11086491Y-13658150D01*
X11086491Y-13658150D02*
X11115063Y-13658150D01*
X11115063Y-13658150D02*
X11134110Y-13667674D01*
X11134110Y-13667674D02*
X11143634Y-13686722D01*
X11143634Y-13686722D02*
X11143634Y-13791484D01*
X11143634Y-13686722D02*
X11153158Y-13667674D01*
X11153158Y-13667674D02*
X11172205Y-13658150D01*
X11172205Y-13658150D02*
X11200777Y-13658150D01*
X11200777Y-13658150D02*
X11219824Y-13667674D01*
X11219824Y-13667674D02*
X11229348Y-13686722D01*
X11229348Y-13686722D02*
X11229348Y-13791484D01*
X11324586Y-13791484D02*
X11324586Y-13658150D01*
X11324586Y-13677198D02*
X11334110Y-13667674D01*
X11334110Y-13667674D02*
X11353158Y-13658150D01*
X11353158Y-13658150D02*
X11381729Y-13658150D01*
X11381729Y-13658150D02*
X11400777Y-13667674D01*
X11400777Y-13667674D02*
X11410301Y-13686722D01*
X11410301Y-13686722D02*
X11410301Y-13791484D01*
X11410301Y-13686722D02*
X11419824Y-13667674D01*
X11419824Y-13667674D02*
X11438872Y-13658150D01*
X11438872Y-13658150D02*
X11467443Y-13658150D01*
X11467443Y-13658150D02*
X11486491Y-13667674D01*
X11486491Y-13667674D02*
X11496015Y-13686722D01*
X11496015Y-13686722D02*
X11496015Y-13791484D01*
X11886491Y-13581960D02*
X11715063Y-13839103D01*
X12143634Y-13591484D02*
X12162682Y-13591484D01*
X12162682Y-13591484D02*
X12181729Y-13601008D01*
X12181729Y-13601008D02*
X12191253Y-13610531D01*
X12191253Y-13610531D02*
X12200777Y-13629579D01*
X12200777Y-13629579D02*
X12210301Y-13667674D01*
X12210301Y-13667674D02*
X12210301Y-13715293D01*
X12210301Y-13715293D02*
X12200777Y-13753388D01*
X12200777Y-13753388D02*
X12191253Y-13772436D01*
X12191253Y-13772436D02*
X12181729Y-13781960D01*
X12181729Y-13781960D02*
X12162682Y-13791484D01*
X12162682Y-13791484D02*
X12143634Y-13791484D01*
X12143634Y-13791484D02*
X12124586Y-13781960D01*
X12124586Y-13781960D02*
X12115063Y-13772436D01*
X12115063Y-13772436D02*
X12105539Y-13753388D01*
X12105539Y-13753388D02*
X12096015Y-13715293D01*
X12096015Y-13715293D02*
X12096015Y-13667674D01*
X12096015Y-13667674D02*
X12105539Y-13629579D01*
X12105539Y-13629579D02*
X12115063Y-13610531D01*
X12115063Y-13610531D02*
X12124586Y-13601008D01*
X12124586Y-13601008D02*
X12143634Y-13591484D01*
X12296015Y-13772436D02*
X12305539Y-13781960D01*
X12305539Y-13781960D02*
X12296015Y-13791484D01*
X12296015Y-13791484D02*
X12286491Y-13781960D01*
X12286491Y-13781960D02*
X12296015Y-13772436D01*
X12296015Y-13772436D02*
X12296015Y-13791484D01*
X12429348Y-13591484D02*
X12448396Y-13591484D01*
X12448396Y-13591484D02*
X12467444Y-13601008D01*
X12467444Y-13601008D02*
X12476967Y-13610531D01*
X12476967Y-13610531D02*
X12486491Y-13629579D01*
X12486491Y-13629579D02*
X12496015Y-13667674D01*
X12496015Y-13667674D02*
X12496015Y-13715293D01*
X12496015Y-13715293D02*
X12486491Y-13753388D01*
X12486491Y-13753388D02*
X12476967Y-13772436D01*
X12476967Y-13772436D02*
X12467444Y-13781960D01*
X12467444Y-13781960D02*
X12448396Y-13791484D01*
X12448396Y-13791484D02*
X12429348Y-13791484D01*
X12429348Y-13791484D02*
X12410301Y-13781960D01*
X12410301Y-13781960D02*
X12400777Y-13772436D01*
X12400777Y-13772436D02*
X12391253Y-13753388D01*
X12391253Y-13753388D02*
X12381729Y-13715293D01*
X12381729Y-13715293D02*
X12381729Y-13667674D01*
X12381729Y-13667674D02*
X12391253Y-13629579D01*
X12391253Y-13629579D02*
X12400777Y-13610531D01*
X12400777Y-13610531D02*
X12410301Y-13601008D01*
X12410301Y-13601008D02*
X12429348Y-13591484D01*
X12562682Y-13591484D02*
X12686491Y-13591484D01*
X12686491Y-13591484D02*
X12619825Y-13667674D01*
X12619825Y-13667674D02*
X12648396Y-13667674D01*
X12648396Y-13667674D02*
X12667444Y-13677198D01*
X12667444Y-13677198D02*
X12676967Y-13686722D01*
X12676967Y-13686722D02*
X12686491Y-13705769D01*
X12686491Y-13705769D02*
X12686491Y-13753388D01*
X12686491Y-13753388D02*
X12676967Y-13772436D01*
X12676967Y-13772436D02*
X12667444Y-13781960D01*
X12667444Y-13781960D02*
X12648396Y-13791484D01*
X12648396Y-13791484D02*
X12591253Y-13791484D01*
X12591253Y-13791484D02*
X12572206Y-13781960D01*
X12572206Y-13781960D02*
X12562682Y-13772436D01*
X12876967Y-13791484D02*
X12762682Y-13791484D01*
X12819825Y-13791484D02*
X12819825Y-13591484D01*
X12819825Y-13591484D02*
X12800777Y-13620055D01*
X12800777Y-13620055D02*
X12781729Y-13639103D01*
X12781729Y-13639103D02*
X12762682Y-13648627D01*
X13057920Y-13591484D02*
X12962682Y-13591484D01*
X12962682Y-13591484D02*
X12953158Y-13686722D01*
X12953158Y-13686722D02*
X12962682Y-13677198D01*
X12962682Y-13677198D02*
X12981729Y-13667674D01*
X12981729Y-13667674D02*
X13029348Y-13667674D01*
X13029348Y-13667674D02*
X13048396Y-13677198D01*
X13048396Y-13677198D02*
X13057920Y-13686722D01*
X13057920Y-13686722D02*
X13067444Y-13705769D01*
X13067444Y-13705769D02*
X13067444Y-13753388D01*
X13067444Y-13753388D02*
X13057920Y-13772436D01*
X13057920Y-13772436D02*
X13048396Y-13781960D01*
X13048396Y-13781960D02*
X13029348Y-13791484D01*
X13029348Y-13791484D02*
X12981729Y-13791484D01*
X12981729Y-13791484D02*
X12962682Y-13781960D01*
X12962682Y-13781960D02*
X12953158Y-13772436D01*
X13143634Y-13591484D02*
X13143634Y-13629579D01*
X13219825Y-13591484D02*
X13219825Y-13629579D01*
X13515063Y-13867674D02*
X13505539Y-13858150D01*
X13505539Y-13858150D02*
X13486491Y-13829579D01*
X13486491Y-13829579D02*
X13476968Y-13810531D01*
X13476968Y-13810531D02*
X13467444Y-13781960D01*
X13467444Y-13781960D02*
X13457920Y-13734341D01*
X13457920Y-13734341D02*
X13457920Y-13696246D01*
X13457920Y-13696246D02*
X13467444Y-13648627D01*
X13467444Y-13648627D02*
X13476968Y-13620055D01*
X13476968Y-13620055D02*
X13486491Y-13601008D01*
X13486491Y-13601008D02*
X13505539Y-13572436D01*
X13505539Y-13572436D02*
X13515063Y-13562912D01*
X13572206Y-13591484D02*
X13696015Y-13591484D01*
X13696015Y-13591484D02*
X13629348Y-13667674D01*
X13629348Y-13667674D02*
X13657920Y-13667674D01*
X13657920Y-13667674D02*
X13676968Y-13677198D01*
X13676968Y-13677198D02*
X13686491Y-13686722D01*
X13686491Y-13686722D02*
X13696015Y-13705769D01*
X13696015Y-13705769D02*
X13696015Y-13753388D01*
X13696015Y-13753388D02*
X13686491Y-13772436D01*
X13686491Y-13772436D02*
X13676968Y-13781960D01*
X13676968Y-13781960D02*
X13657920Y-13791484D01*
X13657920Y-13791484D02*
X13600777Y-13791484D01*
X13600777Y-13791484D02*
X13581729Y-13781960D01*
X13581729Y-13781960D02*
X13572206Y-13772436D01*
X13819825Y-13591484D02*
X13838872Y-13591484D01*
X13838872Y-13591484D02*
X13857920Y-13601008D01*
X13857920Y-13601008D02*
X13867444Y-13610531D01*
X13867444Y-13610531D02*
X13876968Y-13629579D01*
X13876968Y-13629579D02*
X13886491Y-13667674D01*
X13886491Y-13667674D02*
X13886491Y-13715293D01*
X13886491Y-13715293D02*
X13876968Y-13753388D01*
X13876968Y-13753388D02*
X13867444Y-13772436D01*
X13867444Y-13772436D02*
X13857920Y-13781960D01*
X13857920Y-13781960D02*
X13838872Y-13791484D01*
X13838872Y-13791484D02*
X13819825Y-13791484D01*
X13819825Y-13791484D02*
X13800777Y-13781960D01*
X13800777Y-13781960D02*
X13791253Y-13772436D01*
X13791253Y-13772436D02*
X13781729Y-13753388D01*
X13781729Y-13753388D02*
X13772206Y-13715293D01*
X13772206Y-13715293D02*
X13772206Y-13667674D01*
X13772206Y-13667674D02*
X13781729Y-13629579D01*
X13781729Y-13629579D02*
X13791253Y-13610531D01*
X13791253Y-13610531D02*
X13800777Y-13601008D01*
X13800777Y-13601008D02*
X13819825Y-13591484D01*
X14124587Y-13791484D02*
X14124587Y-13591484D01*
X14210301Y-13791484D02*
X14210301Y-13686722D01*
X14210301Y-13686722D02*
X14200777Y-13667674D01*
X14200777Y-13667674D02*
X14181730Y-13658150D01*
X14181730Y-13658150D02*
X14153158Y-13658150D01*
X14153158Y-13658150D02*
X14134110Y-13667674D01*
X14134110Y-13667674D02*
X14124587Y-13677198D01*
X14334110Y-13791484D02*
X14315063Y-13781960D01*
X14315063Y-13781960D02*
X14305539Y-13772436D01*
X14305539Y-13772436D02*
X14296015Y-13753388D01*
X14296015Y-13753388D02*
X14296015Y-13696246D01*
X14296015Y-13696246D02*
X14305539Y-13677198D01*
X14305539Y-13677198D02*
X14315063Y-13667674D01*
X14315063Y-13667674D02*
X14334110Y-13658150D01*
X14334110Y-13658150D02*
X14362682Y-13658150D01*
X14362682Y-13658150D02*
X14381730Y-13667674D01*
X14381730Y-13667674D02*
X14391253Y-13677198D01*
X14391253Y-13677198D02*
X14400777Y-13696246D01*
X14400777Y-13696246D02*
X14400777Y-13753388D01*
X14400777Y-13753388D02*
X14391253Y-13772436D01*
X14391253Y-13772436D02*
X14381730Y-13781960D01*
X14381730Y-13781960D02*
X14362682Y-13791484D01*
X14362682Y-13791484D02*
X14334110Y-13791484D01*
X14515063Y-13791484D02*
X14496015Y-13781960D01*
X14496015Y-13781960D02*
X14486491Y-13762912D01*
X14486491Y-13762912D02*
X14486491Y-13591484D01*
X14667444Y-13781960D02*
X14648396Y-13791484D01*
X14648396Y-13791484D02*
X14610301Y-13791484D01*
X14610301Y-13791484D02*
X14591253Y-13781960D01*
X14591253Y-13781960D02*
X14581730Y-13762912D01*
X14581730Y-13762912D02*
X14581730Y-13686722D01*
X14581730Y-13686722D02*
X14591253Y-13667674D01*
X14591253Y-13667674D02*
X14610301Y-13658150D01*
X14610301Y-13658150D02*
X14648396Y-13658150D01*
X14648396Y-13658150D02*
X14667444Y-13667674D01*
X14667444Y-13667674D02*
X14676968Y-13686722D01*
X14676968Y-13686722D02*
X14676968Y-13705769D01*
X14676968Y-13705769D02*
X14581730Y-13724817D01*
X14753158Y-13781960D02*
X14772206Y-13791484D01*
X14772206Y-13791484D02*
X14810301Y-13791484D01*
X14810301Y-13791484D02*
X14829349Y-13781960D01*
X14829349Y-13781960D02*
X14838872Y-13762912D01*
X14838872Y-13762912D02*
X14838872Y-13753388D01*
X14838872Y-13753388D02*
X14829349Y-13734341D01*
X14829349Y-13734341D02*
X14810301Y-13724817D01*
X14810301Y-13724817D02*
X14781730Y-13724817D01*
X14781730Y-13724817D02*
X14762682Y-13715293D01*
X14762682Y-13715293D02*
X14753158Y-13696246D01*
X14753158Y-13696246D02*
X14753158Y-13686722D01*
X14753158Y-13686722D02*
X14762682Y-13667674D01*
X14762682Y-13667674D02*
X14781730Y-13658150D01*
X14781730Y-13658150D02*
X14810301Y-13658150D01*
X14810301Y-13658150D02*
X14829349Y-13667674D01*
X14905539Y-13867674D02*
X14915063Y-13858150D01*
X14915063Y-13858150D02*
X14934111Y-13829579D01*
X14934111Y-13829579D02*
X14943634Y-13810531D01*
X14943634Y-13810531D02*
X14953158Y-13781960D01*
X14953158Y-13781960D02*
X14962682Y-13734341D01*
X14962682Y-13734341D02*
X14962682Y-13696246D01*
X14962682Y-13696246D02*
X14953158Y-13648627D01*
X14953158Y-13648627D02*
X14943634Y-13620055D01*
X14943634Y-13620055D02*
X14934111Y-13601008D01*
X14934111Y-13601008D02*
X14915063Y-13572436D01*
X14915063Y-13572436D02*
X14905539Y-13562912D01*
D12*
X9940000Y-13964000D02*
G75*
G02*
X9838000Y-13964000I-51000J0D01*
G01*
X9838000Y-13964000D02*
G75*
G02*
X9940000Y-13964000I51000J0D01*
G01*
D10*
X10305539Y-14055484D02*
X10191253Y-14055484D01*
X10248396Y-14055484D02*
X10248396Y-13855484D01*
X10248396Y-13855484D02*
X10229348Y-13884055D01*
X10229348Y-13884055D02*
X10210301Y-13903103D01*
X10210301Y-13903103D02*
X10191253Y-13912627D01*
X10391253Y-14036436D02*
X10400777Y-14045960D01*
X10400777Y-14045960D02*
X10391253Y-14055484D01*
X10391253Y-14055484D02*
X10381729Y-14045960D01*
X10381729Y-14045960D02*
X10391253Y-14036436D01*
X10391253Y-14036436D02*
X10391253Y-14055484D01*
X10524586Y-13855484D02*
X10543634Y-13855484D01*
X10543634Y-13855484D02*
X10562682Y-13865008D01*
X10562682Y-13865008D02*
X10572205Y-13874531D01*
X10572205Y-13874531D02*
X10581729Y-13893579D01*
X10581729Y-13893579D02*
X10591253Y-13931674D01*
X10591253Y-13931674D02*
X10591253Y-13979293D01*
X10591253Y-13979293D02*
X10581729Y-14017388D01*
X10581729Y-14017388D02*
X10572205Y-14036436D01*
X10572205Y-14036436D02*
X10562682Y-14045960D01*
X10562682Y-14045960D02*
X10543634Y-14055484D01*
X10543634Y-14055484D02*
X10524586Y-14055484D01*
X10524586Y-14055484D02*
X10505539Y-14045960D01*
X10505539Y-14045960D02*
X10496015Y-14036436D01*
X10496015Y-14036436D02*
X10486491Y-14017388D01*
X10486491Y-14017388D02*
X10476967Y-13979293D01*
X10476967Y-13979293D02*
X10476967Y-13931674D01*
X10476967Y-13931674D02*
X10486491Y-13893579D01*
X10486491Y-13893579D02*
X10496015Y-13874531D01*
X10496015Y-13874531D02*
X10505539Y-13865008D01*
X10505539Y-13865008D02*
X10524586Y-13855484D01*
X10667444Y-13874531D02*
X10676967Y-13865008D01*
X10676967Y-13865008D02*
X10696015Y-13855484D01*
X10696015Y-13855484D02*
X10743634Y-13855484D01*
X10743634Y-13855484D02*
X10762682Y-13865008D01*
X10762682Y-13865008D02*
X10772205Y-13874531D01*
X10772205Y-13874531D02*
X10781729Y-13893579D01*
X10781729Y-13893579D02*
X10781729Y-13912627D01*
X10781729Y-13912627D02*
X10772205Y-13941198D01*
X10772205Y-13941198D02*
X10657920Y-14055484D01*
X10657920Y-14055484D02*
X10781729Y-14055484D01*
X10905539Y-13855484D02*
X10924586Y-13855484D01*
X10924586Y-13855484D02*
X10943634Y-13865008D01*
X10943634Y-13865008D02*
X10953158Y-13874531D01*
X10953158Y-13874531D02*
X10962682Y-13893579D01*
X10962682Y-13893579D02*
X10972205Y-13931674D01*
X10972205Y-13931674D02*
X10972205Y-13979293D01*
X10972205Y-13979293D02*
X10962682Y-14017388D01*
X10962682Y-14017388D02*
X10953158Y-14036436D01*
X10953158Y-14036436D02*
X10943634Y-14045960D01*
X10943634Y-14045960D02*
X10924586Y-14055484D01*
X10924586Y-14055484D02*
X10905539Y-14055484D01*
X10905539Y-14055484D02*
X10886491Y-14045960D01*
X10886491Y-14045960D02*
X10876967Y-14036436D01*
X10876967Y-14036436D02*
X10867444Y-14017388D01*
X10867444Y-14017388D02*
X10857920Y-13979293D01*
X10857920Y-13979293D02*
X10857920Y-13931674D01*
X10857920Y-13931674D02*
X10867444Y-13893579D01*
X10867444Y-13893579D02*
X10876967Y-13874531D01*
X10876967Y-13874531D02*
X10886491Y-13865008D01*
X10886491Y-13865008D02*
X10905539Y-13855484D01*
X11057920Y-14055484D02*
X11057920Y-13922150D01*
X11057920Y-13941198D02*
X11067444Y-13931674D01*
X11067444Y-13931674D02*
X11086491Y-13922150D01*
X11086491Y-13922150D02*
X11115063Y-13922150D01*
X11115063Y-13922150D02*
X11134110Y-13931674D01*
X11134110Y-13931674D02*
X11143634Y-13950722D01*
X11143634Y-13950722D02*
X11143634Y-14055484D01*
X11143634Y-13950722D02*
X11153158Y-13931674D01*
X11153158Y-13931674D02*
X11172205Y-13922150D01*
X11172205Y-13922150D02*
X11200777Y-13922150D01*
X11200777Y-13922150D02*
X11219824Y-13931674D01*
X11219824Y-13931674D02*
X11229348Y-13950722D01*
X11229348Y-13950722D02*
X11229348Y-14055484D01*
X11324586Y-14055484D02*
X11324586Y-13922150D01*
X11324586Y-13941198D02*
X11334110Y-13931674D01*
X11334110Y-13931674D02*
X11353158Y-13922150D01*
X11353158Y-13922150D02*
X11381729Y-13922150D01*
X11381729Y-13922150D02*
X11400777Y-13931674D01*
X11400777Y-13931674D02*
X11410301Y-13950722D01*
X11410301Y-13950722D02*
X11410301Y-14055484D01*
X11410301Y-13950722D02*
X11419824Y-13931674D01*
X11419824Y-13931674D02*
X11438872Y-13922150D01*
X11438872Y-13922150D02*
X11467443Y-13922150D01*
X11467443Y-13922150D02*
X11486491Y-13931674D01*
X11486491Y-13931674D02*
X11496015Y-13950722D01*
X11496015Y-13950722D02*
X11496015Y-14055484D01*
X11886491Y-13845960D02*
X11715063Y-14103103D01*
X12143634Y-13855484D02*
X12162682Y-13855484D01*
X12162682Y-13855484D02*
X12181729Y-13865008D01*
X12181729Y-13865008D02*
X12191253Y-13874531D01*
X12191253Y-13874531D02*
X12200777Y-13893579D01*
X12200777Y-13893579D02*
X12210301Y-13931674D01*
X12210301Y-13931674D02*
X12210301Y-13979293D01*
X12210301Y-13979293D02*
X12200777Y-14017388D01*
X12200777Y-14017388D02*
X12191253Y-14036436D01*
X12191253Y-14036436D02*
X12181729Y-14045960D01*
X12181729Y-14045960D02*
X12162682Y-14055484D01*
X12162682Y-14055484D02*
X12143634Y-14055484D01*
X12143634Y-14055484D02*
X12124586Y-14045960D01*
X12124586Y-14045960D02*
X12115063Y-14036436D01*
X12115063Y-14036436D02*
X12105539Y-14017388D01*
X12105539Y-14017388D02*
X12096015Y-13979293D01*
X12096015Y-13979293D02*
X12096015Y-13931674D01*
X12096015Y-13931674D02*
X12105539Y-13893579D01*
X12105539Y-13893579D02*
X12115063Y-13874531D01*
X12115063Y-13874531D02*
X12124586Y-13865008D01*
X12124586Y-13865008D02*
X12143634Y-13855484D01*
X12296015Y-14036436D02*
X12305539Y-14045960D01*
X12305539Y-14045960D02*
X12296015Y-14055484D01*
X12296015Y-14055484D02*
X12286491Y-14045960D01*
X12286491Y-14045960D02*
X12296015Y-14036436D01*
X12296015Y-14036436D02*
X12296015Y-14055484D01*
X12429348Y-13855484D02*
X12448396Y-13855484D01*
X12448396Y-13855484D02*
X12467444Y-13865008D01*
X12467444Y-13865008D02*
X12476967Y-13874531D01*
X12476967Y-13874531D02*
X12486491Y-13893579D01*
X12486491Y-13893579D02*
X12496015Y-13931674D01*
X12496015Y-13931674D02*
X12496015Y-13979293D01*
X12496015Y-13979293D02*
X12486491Y-14017388D01*
X12486491Y-14017388D02*
X12476967Y-14036436D01*
X12476967Y-14036436D02*
X12467444Y-14045960D01*
X12467444Y-14045960D02*
X12448396Y-14055484D01*
X12448396Y-14055484D02*
X12429348Y-14055484D01*
X12429348Y-14055484D02*
X12410301Y-14045960D01*
X12410301Y-14045960D02*
X12400777Y-14036436D01*
X12400777Y-14036436D02*
X12391253Y-14017388D01*
X12391253Y-14017388D02*
X12381729Y-13979293D01*
X12381729Y-13979293D02*
X12381729Y-13931674D01*
X12381729Y-13931674D02*
X12391253Y-13893579D01*
X12391253Y-13893579D02*
X12400777Y-13874531D01*
X12400777Y-13874531D02*
X12410301Y-13865008D01*
X12410301Y-13865008D02*
X12429348Y-13855484D01*
X12667444Y-13922150D02*
X12667444Y-14055484D01*
X12619825Y-13845960D02*
X12572206Y-13988817D01*
X12572206Y-13988817D02*
X12696015Y-13988817D01*
X12810301Y-13855484D02*
X12829348Y-13855484D01*
X12829348Y-13855484D02*
X12848396Y-13865008D01*
X12848396Y-13865008D02*
X12857920Y-13874531D01*
X12857920Y-13874531D02*
X12867444Y-13893579D01*
X12867444Y-13893579D02*
X12876967Y-13931674D01*
X12876967Y-13931674D02*
X12876967Y-13979293D01*
X12876967Y-13979293D02*
X12867444Y-14017388D01*
X12867444Y-14017388D02*
X12857920Y-14036436D01*
X12857920Y-14036436D02*
X12848396Y-14045960D01*
X12848396Y-14045960D02*
X12829348Y-14055484D01*
X12829348Y-14055484D02*
X12810301Y-14055484D01*
X12810301Y-14055484D02*
X12791253Y-14045960D01*
X12791253Y-14045960D02*
X12781729Y-14036436D01*
X12781729Y-14036436D02*
X12772206Y-14017388D01*
X12772206Y-14017388D02*
X12762682Y-13979293D01*
X12762682Y-13979293D02*
X12762682Y-13931674D01*
X12762682Y-13931674D02*
X12772206Y-13893579D01*
X12772206Y-13893579D02*
X12781729Y-13874531D01*
X12781729Y-13874531D02*
X12791253Y-13865008D01*
X12791253Y-13865008D02*
X12810301Y-13855484D01*
X12953158Y-13874531D02*
X12962682Y-13865008D01*
X12962682Y-13865008D02*
X12981729Y-13855484D01*
X12981729Y-13855484D02*
X13029348Y-13855484D01*
X13029348Y-13855484D02*
X13048396Y-13865008D01*
X13048396Y-13865008D02*
X13057920Y-13874531D01*
X13057920Y-13874531D02*
X13067444Y-13893579D01*
X13067444Y-13893579D02*
X13067444Y-13912627D01*
X13067444Y-13912627D02*
X13057920Y-13941198D01*
X13057920Y-13941198D02*
X12943634Y-14055484D01*
X12943634Y-14055484D02*
X13067444Y-14055484D01*
X13143634Y-13855484D02*
X13143634Y-13893579D01*
X13219825Y-13855484D02*
X13219825Y-13893579D01*
X13515063Y-14131674D02*
X13505539Y-14122150D01*
X13505539Y-14122150D02*
X13486491Y-14093579D01*
X13486491Y-14093579D02*
X13476968Y-14074531D01*
X13476968Y-14074531D02*
X13467444Y-14045960D01*
X13467444Y-14045960D02*
X13457920Y-13998341D01*
X13457920Y-13998341D02*
X13457920Y-13960246D01*
X13457920Y-13960246D02*
X13467444Y-13912627D01*
X13467444Y-13912627D02*
X13476968Y-13884055D01*
X13476968Y-13884055D02*
X13486491Y-13865008D01*
X13486491Y-13865008D02*
X13505539Y-13836436D01*
X13505539Y-13836436D02*
X13515063Y-13826912D01*
X13572206Y-13855484D02*
X13696015Y-13855484D01*
X13696015Y-13855484D02*
X13629348Y-13931674D01*
X13629348Y-13931674D02*
X13657920Y-13931674D01*
X13657920Y-13931674D02*
X13676968Y-13941198D01*
X13676968Y-13941198D02*
X13686491Y-13950722D01*
X13686491Y-13950722D02*
X13696015Y-13969769D01*
X13696015Y-13969769D02*
X13696015Y-14017388D01*
X13696015Y-14017388D02*
X13686491Y-14036436D01*
X13686491Y-14036436D02*
X13676968Y-14045960D01*
X13676968Y-14045960D02*
X13657920Y-14055484D01*
X13657920Y-14055484D02*
X13600777Y-14055484D01*
X13600777Y-14055484D02*
X13581729Y-14045960D01*
X13581729Y-14045960D02*
X13572206Y-14036436D01*
X13819825Y-13855484D02*
X13838872Y-13855484D01*
X13838872Y-13855484D02*
X13857920Y-13865008D01*
X13857920Y-13865008D02*
X13867444Y-13874531D01*
X13867444Y-13874531D02*
X13876968Y-13893579D01*
X13876968Y-13893579D02*
X13886491Y-13931674D01*
X13886491Y-13931674D02*
X13886491Y-13979293D01*
X13886491Y-13979293D02*
X13876968Y-14017388D01*
X13876968Y-14017388D02*
X13867444Y-14036436D01*
X13867444Y-14036436D02*
X13857920Y-14045960D01*
X13857920Y-14045960D02*
X13838872Y-14055484D01*
X13838872Y-14055484D02*
X13819825Y-14055484D01*
X13819825Y-14055484D02*
X13800777Y-14045960D01*
X13800777Y-14045960D02*
X13791253Y-14036436D01*
X13791253Y-14036436D02*
X13781729Y-14017388D01*
X13781729Y-14017388D02*
X13772206Y-13979293D01*
X13772206Y-13979293D02*
X13772206Y-13931674D01*
X13772206Y-13931674D02*
X13781729Y-13893579D01*
X13781729Y-13893579D02*
X13791253Y-13874531D01*
X13791253Y-13874531D02*
X13800777Y-13865008D01*
X13800777Y-13865008D02*
X13819825Y-13855484D01*
X14124587Y-14055484D02*
X14124587Y-13855484D01*
X14210301Y-14055484D02*
X14210301Y-13950722D01*
X14210301Y-13950722D02*
X14200777Y-13931674D01*
X14200777Y-13931674D02*
X14181730Y-13922150D01*
X14181730Y-13922150D02*
X14153158Y-13922150D01*
X14153158Y-13922150D02*
X14134110Y-13931674D01*
X14134110Y-13931674D02*
X14124587Y-13941198D01*
X14334110Y-14055484D02*
X14315063Y-14045960D01*
X14315063Y-14045960D02*
X14305539Y-14036436D01*
X14305539Y-14036436D02*
X14296015Y-14017388D01*
X14296015Y-14017388D02*
X14296015Y-13960246D01*
X14296015Y-13960246D02*
X14305539Y-13941198D01*
X14305539Y-13941198D02*
X14315063Y-13931674D01*
X14315063Y-13931674D02*
X14334110Y-13922150D01*
X14334110Y-13922150D02*
X14362682Y-13922150D01*
X14362682Y-13922150D02*
X14381730Y-13931674D01*
X14381730Y-13931674D02*
X14391253Y-13941198D01*
X14391253Y-13941198D02*
X14400777Y-13960246D01*
X14400777Y-13960246D02*
X14400777Y-14017388D01*
X14400777Y-14017388D02*
X14391253Y-14036436D01*
X14391253Y-14036436D02*
X14381730Y-14045960D01*
X14381730Y-14045960D02*
X14362682Y-14055484D01*
X14362682Y-14055484D02*
X14334110Y-14055484D01*
X14515063Y-14055484D02*
X14496015Y-14045960D01*
X14496015Y-14045960D02*
X14486491Y-14026912D01*
X14486491Y-14026912D02*
X14486491Y-13855484D01*
X14667444Y-14045960D02*
X14648396Y-14055484D01*
X14648396Y-14055484D02*
X14610301Y-14055484D01*
X14610301Y-14055484D02*
X14591253Y-14045960D01*
X14591253Y-14045960D02*
X14581730Y-14026912D01*
X14581730Y-14026912D02*
X14581730Y-13950722D01*
X14581730Y-13950722D02*
X14591253Y-13931674D01*
X14591253Y-13931674D02*
X14610301Y-13922150D01*
X14610301Y-13922150D02*
X14648396Y-13922150D01*
X14648396Y-13922150D02*
X14667444Y-13931674D01*
X14667444Y-13931674D02*
X14676968Y-13950722D01*
X14676968Y-13950722D02*
X14676968Y-13969769D01*
X14676968Y-13969769D02*
X14581730Y-13988817D01*
X14753158Y-14045960D02*
X14772206Y-14055484D01*
X14772206Y-14055484D02*
X14810301Y-14055484D01*
X14810301Y-14055484D02*
X14829349Y-14045960D01*
X14829349Y-14045960D02*
X14838872Y-14026912D01*
X14838872Y-14026912D02*
X14838872Y-14017388D01*
X14838872Y-14017388D02*
X14829349Y-13998341D01*
X14829349Y-13998341D02*
X14810301Y-13988817D01*
X14810301Y-13988817D02*
X14781730Y-13988817D01*
X14781730Y-13988817D02*
X14762682Y-13979293D01*
X14762682Y-13979293D02*
X14753158Y-13960246D01*
X14753158Y-13960246D02*
X14753158Y-13950722D01*
X14753158Y-13950722D02*
X14762682Y-13931674D01*
X14762682Y-13931674D02*
X14781730Y-13922150D01*
X14781730Y-13922150D02*
X14810301Y-13922150D01*
X14810301Y-13922150D02*
X14829349Y-13931674D01*
X14905539Y-14131674D02*
X14915063Y-14122150D01*
X14915063Y-14122150D02*
X14934111Y-14093579D01*
X14934111Y-14093579D02*
X14943634Y-14074531D01*
X14943634Y-14074531D02*
X14953158Y-14045960D01*
X14953158Y-14045960D02*
X14962682Y-13998341D01*
X14962682Y-13998341D02*
X14962682Y-13960246D01*
X14962682Y-13960246D02*
X14953158Y-13912627D01*
X14953158Y-13912627D02*
X14943634Y-13884055D01*
X14943634Y-13884055D02*
X14934111Y-13865008D01*
X14934111Y-13865008D02*
X14915063Y-13836436D01*
X14915063Y-13836436D02*
X14905539Y-13826912D01*
D13*
X9885000Y-14173000D02*
X9885000Y-14283000D01*
X9830000Y-14228000D02*
X9940000Y-14228000D01*
D10*
X10305539Y-14319484D02*
X10191253Y-14319484D01*
X10248396Y-14319484D02*
X10248396Y-14119484D01*
X10248396Y-14119484D02*
X10229348Y-14148055D01*
X10229348Y-14148055D02*
X10210301Y-14167103D01*
X10210301Y-14167103D02*
X10191253Y-14176627D01*
X10391253Y-14300436D02*
X10400777Y-14309960D01*
X10400777Y-14309960D02*
X10391253Y-14319484D01*
X10391253Y-14319484D02*
X10381729Y-14309960D01*
X10381729Y-14309960D02*
X10391253Y-14300436D01*
X10391253Y-14300436D02*
X10391253Y-14319484D01*
X10591253Y-14319484D02*
X10476967Y-14319484D01*
X10534110Y-14319484D02*
X10534110Y-14119484D01*
X10534110Y-14119484D02*
X10515063Y-14148055D01*
X10515063Y-14148055D02*
X10496015Y-14167103D01*
X10496015Y-14167103D02*
X10476967Y-14176627D01*
X10715063Y-14119484D02*
X10734110Y-14119484D01*
X10734110Y-14119484D02*
X10753158Y-14129008D01*
X10753158Y-14129008D02*
X10762682Y-14138531D01*
X10762682Y-14138531D02*
X10772205Y-14157579D01*
X10772205Y-14157579D02*
X10781729Y-14195674D01*
X10781729Y-14195674D02*
X10781729Y-14243293D01*
X10781729Y-14243293D02*
X10772205Y-14281388D01*
X10772205Y-14281388D02*
X10762682Y-14300436D01*
X10762682Y-14300436D02*
X10753158Y-14309960D01*
X10753158Y-14309960D02*
X10734110Y-14319484D01*
X10734110Y-14319484D02*
X10715063Y-14319484D01*
X10715063Y-14319484D02*
X10696015Y-14309960D01*
X10696015Y-14309960D02*
X10686491Y-14300436D01*
X10686491Y-14300436D02*
X10676967Y-14281388D01*
X10676967Y-14281388D02*
X10667444Y-14243293D01*
X10667444Y-14243293D02*
X10667444Y-14195674D01*
X10667444Y-14195674D02*
X10676967Y-14157579D01*
X10676967Y-14157579D02*
X10686491Y-14138531D01*
X10686491Y-14138531D02*
X10696015Y-14129008D01*
X10696015Y-14129008D02*
X10715063Y-14119484D01*
X10905539Y-14119484D02*
X10924586Y-14119484D01*
X10924586Y-14119484D02*
X10943634Y-14129008D01*
X10943634Y-14129008D02*
X10953158Y-14138531D01*
X10953158Y-14138531D02*
X10962682Y-14157579D01*
X10962682Y-14157579D02*
X10972205Y-14195674D01*
X10972205Y-14195674D02*
X10972205Y-14243293D01*
X10972205Y-14243293D02*
X10962682Y-14281388D01*
X10962682Y-14281388D02*
X10953158Y-14300436D01*
X10953158Y-14300436D02*
X10943634Y-14309960D01*
X10943634Y-14309960D02*
X10924586Y-14319484D01*
X10924586Y-14319484D02*
X10905539Y-14319484D01*
X10905539Y-14319484D02*
X10886491Y-14309960D01*
X10886491Y-14309960D02*
X10876967Y-14300436D01*
X10876967Y-14300436D02*
X10867444Y-14281388D01*
X10867444Y-14281388D02*
X10857920Y-14243293D01*
X10857920Y-14243293D02*
X10857920Y-14195674D01*
X10857920Y-14195674D02*
X10867444Y-14157579D01*
X10867444Y-14157579D02*
X10876967Y-14138531D01*
X10876967Y-14138531D02*
X10886491Y-14129008D01*
X10886491Y-14129008D02*
X10905539Y-14119484D01*
X11057920Y-14319484D02*
X11057920Y-14186150D01*
X11057920Y-14205198D02*
X11067444Y-14195674D01*
X11067444Y-14195674D02*
X11086491Y-14186150D01*
X11086491Y-14186150D02*
X11115063Y-14186150D01*
X11115063Y-14186150D02*
X11134110Y-14195674D01*
X11134110Y-14195674D02*
X11143634Y-14214722D01*
X11143634Y-14214722D02*
X11143634Y-14319484D01*
X11143634Y-14214722D02*
X11153158Y-14195674D01*
X11153158Y-14195674D02*
X11172205Y-14186150D01*
X11172205Y-14186150D02*
X11200777Y-14186150D01*
X11200777Y-14186150D02*
X11219824Y-14195674D01*
X11219824Y-14195674D02*
X11229348Y-14214722D01*
X11229348Y-14214722D02*
X11229348Y-14319484D01*
X11324586Y-14319484D02*
X11324586Y-14186150D01*
X11324586Y-14205198D02*
X11334110Y-14195674D01*
X11334110Y-14195674D02*
X11353158Y-14186150D01*
X11353158Y-14186150D02*
X11381729Y-14186150D01*
X11381729Y-14186150D02*
X11400777Y-14195674D01*
X11400777Y-14195674D02*
X11410301Y-14214722D01*
X11410301Y-14214722D02*
X11410301Y-14319484D01*
X11410301Y-14214722D02*
X11419824Y-14195674D01*
X11419824Y-14195674D02*
X11438872Y-14186150D01*
X11438872Y-14186150D02*
X11467443Y-14186150D01*
X11467443Y-14186150D02*
X11486491Y-14195674D01*
X11486491Y-14195674D02*
X11496015Y-14214722D01*
X11496015Y-14214722D02*
X11496015Y-14319484D01*
X11886491Y-14109960D02*
X11715063Y-14367103D01*
X12143634Y-14119484D02*
X12162682Y-14119484D01*
X12162682Y-14119484D02*
X12181729Y-14129008D01*
X12181729Y-14129008D02*
X12191253Y-14138531D01*
X12191253Y-14138531D02*
X12200777Y-14157579D01*
X12200777Y-14157579D02*
X12210301Y-14195674D01*
X12210301Y-14195674D02*
X12210301Y-14243293D01*
X12210301Y-14243293D02*
X12200777Y-14281388D01*
X12200777Y-14281388D02*
X12191253Y-14300436D01*
X12191253Y-14300436D02*
X12181729Y-14309960D01*
X12181729Y-14309960D02*
X12162682Y-14319484D01*
X12162682Y-14319484D02*
X12143634Y-14319484D01*
X12143634Y-14319484D02*
X12124586Y-14309960D01*
X12124586Y-14309960D02*
X12115063Y-14300436D01*
X12115063Y-14300436D02*
X12105539Y-14281388D01*
X12105539Y-14281388D02*
X12096015Y-14243293D01*
X12096015Y-14243293D02*
X12096015Y-14195674D01*
X12096015Y-14195674D02*
X12105539Y-14157579D01*
X12105539Y-14157579D02*
X12115063Y-14138531D01*
X12115063Y-14138531D02*
X12124586Y-14129008D01*
X12124586Y-14129008D02*
X12143634Y-14119484D01*
X12296015Y-14300436D02*
X12305539Y-14309960D01*
X12305539Y-14309960D02*
X12296015Y-14319484D01*
X12296015Y-14319484D02*
X12286491Y-14309960D01*
X12286491Y-14309960D02*
X12296015Y-14300436D01*
X12296015Y-14300436D02*
X12296015Y-14319484D01*
X12429348Y-14119484D02*
X12448396Y-14119484D01*
X12448396Y-14119484D02*
X12467444Y-14129008D01*
X12467444Y-14129008D02*
X12476967Y-14138531D01*
X12476967Y-14138531D02*
X12486491Y-14157579D01*
X12486491Y-14157579D02*
X12496015Y-14195674D01*
X12496015Y-14195674D02*
X12496015Y-14243293D01*
X12496015Y-14243293D02*
X12486491Y-14281388D01*
X12486491Y-14281388D02*
X12476967Y-14300436D01*
X12476967Y-14300436D02*
X12467444Y-14309960D01*
X12467444Y-14309960D02*
X12448396Y-14319484D01*
X12448396Y-14319484D02*
X12429348Y-14319484D01*
X12429348Y-14319484D02*
X12410301Y-14309960D01*
X12410301Y-14309960D02*
X12400777Y-14300436D01*
X12400777Y-14300436D02*
X12391253Y-14281388D01*
X12391253Y-14281388D02*
X12381729Y-14243293D01*
X12381729Y-14243293D02*
X12381729Y-14195674D01*
X12381729Y-14195674D02*
X12391253Y-14157579D01*
X12391253Y-14157579D02*
X12400777Y-14138531D01*
X12400777Y-14138531D02*
X12410301Y-14129008D01*
X12410301Y-14129008D02*
X12429348Y-14119484D01*
X12667444Y-14186150D02*
X12667444Y-14319484D01*
X12619825Y-14109960D02*
X12572206Y-14252817D01*
X12572206Y-14252817D02*
X12696015Y-14252817D01*
X12753158Y-14119484D02*
X12876967Y-14119484D01*
X12876967Y-14119484D02*
X12810301Y-14195674D01*
X12810301Y-14195674D02*
X12838872Y-14195674D01*
X12838872Y-14195674D02*
X12857920Y-14205198D01*
X12857920Y-14205198D02*
X12867444Y-14214722D01*
X12867444Y-14214722D02*
X12876967Y-14233769D01*
X12876967Y-14233769D02*
X12876967Y-14281388D01*
X12876967Y-14281388D02*
X12867444Y-14300436D01*
X12867444Y-14300436D02*
X12857920Y-14309960D01*
X12857920Y-14309960D02*
X12838872Y-14319484D01*
X12838872Y-14319484D02*
X12781729Y-14319484D01*
X12781729Y-14319484D02*
X12762682Y-14309960D01*
X12762682Y-14309960D02*
X12753158Y-14300436D01*
X12943634Y-14119484D02*
X13067444Y-14119484D01*
X13067444Y-14119484D02*
X13000777Y-14195674D01*
X13000777Y-14195674D02*
X13029348Y-14195674D01*
X13029348Y-14195674D02*
X13048396Y-14205198D01*
X13048396Y-14205198D02*
X13057920Y-14214722D01*
X13057920Y-14214722D02*
X13067444Y-14233769D01*
X13067444Y-14233769D02*
X13067444Y-14281388D01*
X13067444Y-14281388D02*
X13057920Y-14300436D01*
X13057920Y-14300436D02*
X13048396Y-14309960D01*
X13048396Y-14309960D02*
X13029348Y-14319484D01*
X13029348Y-14319484D02*
X12972206Y-14319484D01*
X12972206Y-14319484D02*
X12953158Y-14309960D01*
X12953158Y-14309960D02*
X12943634Y-14300436D01*
X13143634Y-14119484D02*
X13143634Y-14157579D01*
X13219825Y-14119484D02*
X13219825Y-14157579D01*
X13515063Y-14395674D02*
X13505539Y-14386150D01*
X13505539Y-14386150D02*
X13486491Y-14357579D01*
X13486491Y-14357579D02*
X13476968Y-14338531D01*
X13476968Y-14338531D02*
X13467444Y-14309960D01*
X13467444Y-14309960D02*
X13457920Y-14262341D01*
X13457920Y-14262341D02*
X13457920Y-14224246D01*
X13457920Y-14224246D02*
X13467444Y-14176627D01*
X13467444Y-14176627D02*
X13476968Y-14148055D01*
X13476968Y-14148055D02*
X13486491Y-14129008D01*
X13486491Y-14129008D02*
X13505539Y-14100436D01*
X13505539Y-14100436D02*
X13515063Y-14090912D01*
X13581729Y-14138531D02*
X13591253Y-14129008D01*
X13591253Y-14129008D02*
X13610301Y-14119484D01*
X13610301Y-14119484D02*
X13657920Y-14119484D01*
X13657920Y-14119484D02*
X13676968Y-14129008D01*
X13676968Y-14129008D02*
X13686491Y-14138531D01*
X13686491Y-14138531D02*
X13696015Y-14157579D01*
X13696015Y-14157579D02*
X13696015Y-14176627D01*
X13696015Y-14176627D02*
X13686491Y-14205198D01*
X13686491Y-14205198D02*
X13572206Y-14319484D01*
X13572206Y-14319484D02*
X13696015Y-14319484D01*
X13819825Y-14119484D02*
X13838872Y-14119484D01*
X13838872Y-14119484D02*
X13857920Y-14129008D01*
X13857920Y-14129008D02*
X13867444Y-14138531D01*
X13867444Y-14138531D02*
X13876968Y-14157579D01*
X13876968Y-14157579D02*
X13886491Y-14195674D01*
X13886491Y-14195674D02*
X13886491Y-14243293D01*
X13886491Y-14243293D02*
X13876968Y-14281388D01*
X13876968Y-14281388D02*
X13867444Y-14300436D01*
X13867444Y-14300436D02*
X13857920Y-14309960D01*
X13857920Y-14309960D02*
X13838872Y-14319484D01*
X13838872Y-14319484D02*
X13819825Y-14319484D01*
X13819825Y-14319484D02*
X13800777Y-14309960D01*
X13800777Y-14309960D02*
X13791253Y-14300436D01*
X13791253Y-14300436D02*
X13781729Y-14281388D01*
X13781729Y-14281388D02*
X13772206Y-14243293D01*
X13772206Y-14243293D02*
X13772206Y-14195674D01*
X13772206Y-14195674D02*
X13781729Y-14157579D01*
X13781729Y-14157579D02*
X13791253Y-14138531D01*
X13791253Y-14138531D02*
X13800777Y-14129008D01*
X13800777Y-14129008D02*
X13819825Y-14119484D01*
X14124587Y-14319484D02*
X14124587Y-14119484D01*
X14210301Y-14319484D02*
X14210301Y-14214722D01*
X14210301Y-14214722D02*
X14200777Y-14195674D01*
X14200777Y-14195674D02*
X14181730Y-14186150D01*
X14181730Y-14186150D02*
X14153158Y-14186150D01*
X14153158Y-14186150D02*
X14134110Y-14195674D01*
X14134110Y-14195674D02*
X14124587Y-14205198D01*
X14334110Y-14319484D02*
X14315063Y-14309960D01*
X14315063Y-14309960D02*
X14305539Y-14300436D01*
X14305539Y-14300436D02*
X14296015Y-14281388D01*
X14296015Y-14281388D02*
X14296015Y-14224246D01*
X14296015Y-14224246D02*
X14305539Y-14205198D01*
X14305539Y-14205198D02*
X14315063Y-14195674D01*
X14315063Y-14195674D02*
X14334110Y-14186150D01*
X14334110Y-14186150D02*
X14362682Y-14186150D01*
X14362682Y-14186150D02*
X14381730Y-14195674D01*
X14381730Y-14195674D02*
X14391253Y-14205198D01*
X14391253Y-14205198D02*
X14400777Y-14224246D01*
X14400777Y-14224246D02*
X14400777Y-14281388D01*
X14400777Y-14281388D02*
X14391253Y-14300436D01*
X14391253Y-14300436D02*
X14381730Y-14309960D01*
X14381730Y-14309960D02*
X14362682Y-14319484D01*
X14362682Y-14319484D02*
X14334110Y-14319484D01*
X14515063Y-14319484D02*
X14496015Y-14309960D01*
X14496015Y-14309960D02*
X14486491Y-14290912D01*
X14486491Y-14290912D02*
X14486491Y-14119484D01*
X14667444Y-14309960D02*
X14648396Y-14319484D01*
X14648396Y-14319484D02*
X14610301Y-14319484D01*
X14610301Y-14319484D02*
X14591253Y-14309960D01*
X14591253Y-14309960D02*
X14581730Y-14290912D01*
X14581730Y-14290912D02*
X14581730Y-14214722D01*
X14581730Y-14214722D02*
X14591253Y-14195674D01*
X14591253Y-14195674D02*
X14610301Y-14186150D01*
X14610301Y-14186150D02*
X14648396Y-14186150D01*
X14648396Y-14186150D02*
X14667444Y-14195674D01*
X14667444Y-14195674D02*
X14676968Y-14214722D01*
X14676968Y-14214722D02*
X14676968Y-14233769D01*
X14676968Y-14233769D02*
X14581730Y-14252817D01*
X14753158Y-14309960D02*
X14772206Y-14319484D01*
X14772206Y-14319484D02*
X14810301Y-14319484D01*
X14810301Y-14319484D02*
X14829349Y-14309960D01*
X14829349Y-14309960D02*
X14838872Y-14290912D01*
X14838872Y-14290912D02*
X14838872Y-14281388D01*
X14838872Y-14281388D02*
X14829349Y-14262341D01*
X14829349Y-14262341D02*
X14810301Y-14252817D01*
X14810301Y-14252817D02*
X14781730Y-14252817D01*
X14781730Y-14252817D02*
X14762682Y-14243293D01*
X14762682Y-14243293D02*
X14753158Y-14224246D01*
X14753158Y-14224246D02*
X14753158Y-14214722D01*
X14753158Y-14214722D02*
X14762682Y-14195674D01*
X14762682Y-14195674D02*
X14781730Y-14186150D01*
X14781730Y-14186150D02*
X14810301Y-14186150D01*
X14810301Y-14186150D02*
X14829349Y-14195674D01*
X14905539Y-14395674D02*
X14915063Y-14386150D01*
X14915063Y-14386150D02*
X14934111Y-14357579D01*
X14934111Y-14357579D02*
X14943634Y-14338531D01*
X14943634Y-14338531D02*
X14953158Y-14309960D01*
X14953158Y-14309960D02*
X14962682Y-14262341D01*
X14962682Y-14262341D02*
X14962682Y-14224246D01*
X14962682Y-14224246D02*
X14953158Y-14176627D01*
X14953158Y-14176627D02*
X14943634Y-14148055D01*
X14943634Y-14148055D02*
X14934111Y-14129008D01*
X14934111Y-14129008D02*
X14915063Y-14100436D01*
X14915063Y-14100436D02*
X14905539Y-14090912D01*
D14*
X9920962Y-14537962D02*
X9920962Y-14446038D01*
X9829038Y-14446038D01*
X9829038Y-14537962D01*
X9920962Y-14537962D01*
D10*
X10305539Y-14583484D02*
X10191253Y-14583484D01*
X10248396Y-14583484D02*
X10248396Y-14383484D01*
X10248396Y-14383484D02*
X10229348Y-14412055D01*
X10229348Y-14412055D02*
X10210301Y-14431103D01*
X10210301Y-14431103D02*
X10191253Y-14440627D01*
X10391253Y-14564436D02*
X10400777Y-14573960D01*
X10400777Y-14573960D02*
X10391253Y-14583484D01*
X10391253Y-14583484D02*
X10381729Y-14573960D01*
X10381729Y-14573960D02*
X10391253Y-14564436D01*
X10391253Y-14564436D02*
X10391253Y-14583484D01*
X10467444Y-14383484D02*
X10591253Y-14383484D01*
X10591253Y-14383484D02*
X10524586Y-14459674D01*
X10524586Y-14459674D02*
X10553158Y-14459674D01*
X10553158Y-14459674D02*
X10572205Y-14469198D01*
X10572205Y-14469198D02*
X10581729Y-14478722D01*
X10581729Y-14478722D02*
X10591253Y-14497769D01*
X10591253Y-14497769D02*
X10591253Y-14545388D01*
X10591253Y-14545388D02*
X10581729Y-14564436D01*
X10581729Y-14564436D02*
X10572205Y-14573960D01*
X10572205Y-14573960D02*
X10553158Y-14583484D01*
X10553158Y-14583484D02*
X10496015Y-14583484D01*
X10496015Y-14583484D02*
X10476967Y-14573960D01*
X10476967Y-14573960D02*
X10467444Y-14564436D01*
X10715063Y-14383484D02*
X10734110Y-14383484D01*
X10734110Y-14383484D02*
X10753158Y-14393008D01*
X10753158Y-14393008D02*
X10762682Y-14402531D01*
X10762682Y-14402531D02*
X10772205Y-14421579D01*
X10772205Y-14421579D02*
X10781729Y-14459674D01*
X10781729Y-14459674D02*
X10781729Y-14507293D01*
X10781729Y-14507293D02*
X10772205Y-14545388D01*
X10772205Y-14545388D02*
X10762682Y-14564436D01*
X10762682Y-14564436D02*
X10753158Y-14573960D01*
X10753158Y-14573960D02*
X10734110Y-14583484D01*
X10734110Y-14583484D02*
X10715063Y-14583484D01*
X10715063Y-14583484D02*
X10696015Y-14573960D01*
X10696015Y-14573960D02*
X10686491Y-14564436D01*
X10686491Y-14564436D02*
X10676967Y-14545388D01*
X10676967Y-14545388D02*
X10667444Y-14507293D01*
X10667444Y-14507293D02*
X10667444Y-14459674D01*
X10667444Y-14459674D02*
X10676967Y-14421579D01*
X10676967Y-14421579D02*
X10686491Y-14402531D01*
X10686491Y-14402531D02*
X10696015Y-14393008D01*
X10696015Y-14393008D02*
X10715063Y-14383484D01*
X10905539Y-14383484D02*
X10924586Y-14383484D01*
X10924586Y-14383484D02*
X10943634Y-14393008D01*
X10943634Y-14393008D02*
X10953158Y-14402531D01*
X10953158Y-14402531D02*
X10962682Y-14421579D01*
X10962682Y-14421579D02*
X10972205Y-14459674D01*
X10972205Y-14459674D02*
X10972205Y-14507293D01*
X10972205Y-14507293D02*
X10962682Y-14545388D01*
X10962682Y-14545388D02*
X10953158Y-14564436D01*
X10953158Y-14564436D02*
X10943634Y-14573960D01*
X10943634Y-14573960D02*
X10924586Y-14583484D01*
X10924586Y-14583484D02*
X10905539Y-14583484D01*
X10905539Y-14583484D02*
X10886491Y-14573960D01*
X10886491Y-14573960D02*
X10876967Y-14564436D01*
X10876967Y-14564436D02*
X10867444Y-14545388D01*
X10867444Y-14545388D02*
X10857920Y-14507293D01*
X10857920Y-14507293D02*
X10857920Y-14459674D01*
X10857920Y-14459674D02*
X10867444Y-14421579D01*
X10867444Y-14421579D02*
X10876967Y-14402531D01*
X10876967Y-14402531D02*
X10886491Y-14393008D01*
X10886491Y-14393008D02*
X10905539Y-14383484D01*
X11057920Y-14583484D02*
X11057920Y-14450150D01*
X11057920Y-14469198D02*
X11067444Y-14459674D01*
X11067444Y-14459674D02*
X11086491Y-14450150D01*
X11086491Y-14450150D02*
X11115063Y-14450150D01*
X11115063Y-14450150D02*
X11134110Y-14459674D01*
X11134110Y-14459674D02*
X11143634Y-14478722D01*
X11143634Y-14478722D02*
X11143634Y-14583484D01*
X11143634Y-14478722D02*
X11153158Y-14459674D01*
X11153158Y-14459674D02*
X11172205Y-14450150D01*
X11172205Y-14450150D02*
X11200777Y-14450150D01*
X11200777Y-14450150D02*
X11219824Y-14459674D01*
X11219824Y-14459674D02*
X11229348Y-14478722D01*
X11229348Y-14478722D02*
X11229348Y-14583484D01*
X11324586Y-14583484D02*
X11324586Y-14450150D01*
X11324586Y-14469198D02*
X11334110Y-14459674D01*
X11334110Y-14459674D02*
X11353158Y-14450150D01*
X11353158Y-14450150D02*
X11381729Y-14450150D01*
X11381729Y-14450150D02*
X11400777Y-14459674D01*
X11400777Y-14459674D02*
X11410301Y-14478722D01*
X11410301Y-14478722D02*
X11410301Y-14583484D01*
X11410301Y-14478722D02*
X11419824Y-14459674D01*
X11419824Y-14459674D02*
X11438872Y-14450150D01*
X11438872Y-14450150D02*
X11467443Y-14450150D01*
X11467443Y-14450150D02*
X11486491Y-14459674D01*
X11486491Y-14459674D02*
X11496015Y-14478722D01*
X11496015Y-14478722D02*
X11496015Y-14583484D01*
X11886491Y-14373960D02*
X11715063Y-14631103D01*
X12143634Y-14383484D02*
X12162682Y-14383484D01*
X12162682Y-14383484D02*
X12181729Y-14393008D01*
X12181729Y-14393008D02*
X12191253Y-14402531D01*
X12191253Y-14402531D02*
X12200777Y-14421579D01*
X12200777Y-14421579D02*
X12210301Y-14459674D01*
X12210301Y-14459674D02*
X12210301Y-14507293D01*
X12210301Y-14507293D02*
X12200777Y-14545388D01*
X12200777Y-14545388D02*
X12191253Y-14564436D01*
X12191253Y-14564436D02*
X12181729Y-14573960D01*
X12181729Y-14573960D02*
X12162682Y-14583484D01*
X12162682Y-14583484D02*
X12143634Y-14583484D01*
X12143634Y-14583484D02*
X12124586Y-14573960D01*
X12124586Y-14573960D02*
X12115063Y-14564436D01*
X12115063Y-14564436D02*
X12105539Y-14545388D01*
X12105539Y-14545388D02*
X12096015Y-14507293D01*
X12096015Y-14507293D02*
X12096015Y-14459674D01*
X12096015Y-14459674D02*
X12105539Y-14421579D01*
X12105539Y-14421579D02*
X12115063Y-14402531D01*
X12115063Y-14402531D02*
X12124586Y-14393008D01*
X12124586Y-14393008D02*
X12143634Y-14383484D01*
X12296015Y-14564436D02*
X12305539Y-14573960D01*
X12305539Y-14573960D02*
X12296015Y-14583484D01*
X12296015Y-14583484D02*
X12286491Y-14573960D01*
X12286491Y-14573960D02*
X12296015Y-14564436D01*
X12296015Y-14564436D02*
X12296015Y-14583484D01*
X12429348Y-14383484D02*
X12448396Y-14383484D01*
X12448396Y-14383484D02*
X12467444Y-14393008D01*
X12467444Y-14393008D02*
X12476967Y-14402531D01*
X12476967Y-14402531D02*
X12486491Y-14421579D01*
X12486491Y-14421579D02*
X12496015Y-14459674D01*
X12496015Y-14459674D02*
X12496015Y-14507293D01*
X12496015Y-14507293D02*
X12486491Y-14545388D01*
X12486491Y-14545388D02*
X12476967Y-14564436D01*
X12476967Y-14564436D02*
X12467444Y-14573960D01*
X12467444Y-14573960D02*
X12448396Y-14583484D01*
X12448396Y-14583484D02*
X12429348Y-14583484D01*
X12429348Y-14583484D02*
X12410301Y-14573960D01*
X12410301Y-14573960D02*
X12400777Y-14564436D01*
X12400777Y-14564436D02*
X12391253Y-14545388D01*
X12391253Y-14545388D02*
X12381729Y-14507293D01*
X12381729Y-14507293D02*
X12381729Y-14459674D01*
X12381729Y-14459674D02*
X12391253Y-14421579D01*
X12391253Y-14421579D02*
X12400777Y-14402531D01*
X12400777Y-14402531D02*
X12410301Y-14393008D01*
X12410301Y-14393008D02*
X12429348Y-14383484D01*
X12676967Y-14383484D02*
X12581729Y-14383484D01*
X12581729Y-14383484D02*
X12572206Y-14478722D01*
X12572206Y-14478722D02*
X12581729Y-14469198D01*
X12581729Y-14469198D02*
X12600777Y-14459674D01*
X12600777Y-14459674D02*
X12648396Y-14459674D01*
X12648396Y-14459674D02*
X12667444Y-14469198D01*
X12667444Y-14469198D02*
X12676967Y-14478722D01*
X12676967Y-14478722D02*
X12686491Y-14497769D01*
X12686491Y-14497769D02*
X12686491Y-14545388D01*
X12686491Y-14545388D02*
X12676967Y-14564436D01*
X12676967Y-14564436D02*
X12667444Y-14573960D01*
X12667444Y-14573960D02*
X12648396Y-14583484D01*
X12648396Y-14583484D02*
X12600777Y-14583484D01*
X12600777Y-14583484D02*
X12581729Y-14573960D01*
X12581729Y-14573960D02*
X12572206Y-14564436D01*
X12876967Y-14583484D02*
X12762682Y-14583484D01*
X12819825Y-14583484D02*
X12819825Y-14383484D01*
X12819825Y-14383484D02*
X12800777Y-14412055D01*
X12800777Y-14412055D02*
X12781729Y-14431103D01*
X12781729Y-14431103D02*
X12762682Y-14440627D01*
X12953158Y-14402531D02*
X12962682Y-14393008D01*
X12962682Y-14393008D02*
X12981729Y-14383484D01*
X12981729Y-14383484D02*
X13029348Y-14383484D01*
X13029348Y-14383484D02*
X13048396Y-14393008D01*
X13048396Y-14393008D02*
X13057920Y-14402531D01*
X13057920Y-14402531D02*
X13067444Y-14421579D01*
X13067444Y-14421579D02*
X13067444Y-14440627D01*
X13067444Y-14440627D02*
X13057920Y-14469198D01*
X13057920Y-14469198D02*
X12943634Y-14583484D01*
X12943634Y-14583484D02*
X13067444Y-14583484D01*
X13143634Y-14383484D02*
X13143634Y-14421579D01*
X13219825Y-14383484D02*
X13219825Y-14421579D01*
X13515063Y-14659674D02*
X13505539Y-14650150D01*
X13505539Y-14650150D02*
X13486491Y-14621579D01*
X13486491Y-14621579D02*
X13476968Y-14602531D01*
X13476968Y-14602531D02*
X13467444Y-14573960D01*
X13467444Y-14573960D02*
X13457920Y-14526341D01*
X13457920Y-14526341D02*
X13457920Y-14488246D01*
X13457920Y-14488246D02*
X13467444Y-14440627D01*
X13467444Y-14440627D02*
X13476968Y-14412055D01*
X13476968Y-14412055D02*
X13486491Y-14393008D01*
X13486491Y-14393008D02*
X13505539Y-14364436D01*
X13505539Y-14364436D02*
X13515063Y-14354912D01*
X13696015Y-14583484D02*
X13581729Y-14583484D01*
X13638872Y-14583484D02*
X13638872Y-14383484D01*
X13638872Y-14383484D02*
X13619825Y-14412055D01*
X13619825Y-14412055D02*
X13600777Y-14431103D01*
X13600777Y-14431103D02*
X13581729Y-14440627D01*
X13819825Y-14383484D02*
X13838872Y-14383484D01*
X13838872Y-14383484D02*
X13857920Y-14393008D01*
X13857920Y-14393008D02*
X13867444Y-14402531D01*
X13867444Y-14402531D02*
X13876968Y-14421579D01*
X13876968Y-14421579D02*
X13886491Y-14459674D01*
X13886491Y-14459674D02*
X13886491Y-14507293D01*
X13886491Y-14507293D02*
X13876968Y-14545388D01*
X13876968Y-14545388D02*
X13867444Y-14564436D01*
X13867444Y-14564436D02*
X13857920Y-14573960D01*
X13857920Y-14573960D02*
X13838872Y-14583484D01*
X13838872Y-14583484D02*
X13819825Y-14583484D01*
X13819825Y-14583484D02*
X13800777Y-14573960D01*
X13800777Y-14573960D02*
X13791253Y-14564436D01*
X13791253Y-14564436D02*
X13781729Y-14545388D01*
X13781729Y-14545388D02*
X13772206Y-14507293D01*
X13772206Y-14507293D02*
X13772206Y-14459674D01*
X13772206Y-14459674D02*
X13781729Y-14421579D01*
X13781729Y-14421579D02*
X13791253Y-14402531D01*
X13791253Y-14402531D02*
X13800777Y-14393008D01*
X13800777Y-14393008D02*
X13819825Y-14383484D01*
X14124587Y-14583484D02*
X14124587Y-14383484D01*
X14210301Y-14583484D02*
X14210301Y-14478722D01*
X14210301Y-14478722D02*
X14200777Y-14459674D01*
X14200777Y-14459674D02*
X14181730Y-14450150D01*
X14181730Y-14450150D02*
X14153158Y-14450150D01*
X14153158Y-14450150D02*
X14134110Y-14459674D01*
X14134110Y-14459674D02*
X14124587Y-14469198D01*
X14334110Y-14583484D02*
X14315063Y-14573960D01*
X14315063Y-14573960D02*
X14305539Y-14564436D01*
X14305539Y-14564436D02*
X14296015Y-14545388D01*
X14296015Y-14545388D02*
X14296015Y-14488246D01*
X14296015Y-14488246D02*
X14305539Y-14469198D01*
X14305539Y-14469198D02*
X14315063Y-14459674D01*
X14315063Y-14459674D02*
X14334110Y-14450150D01*
X14334110Y-14450150D02*
X14362682Y-14450150D01*
X14362682Y-14450150D02*
X14381730Y-14459674D01*
X14381730Y-14459674D02*
X14391253Y-14469198D01*
X14391253Y-14469198D02*
X14400777Y-14488246D01*
X14400777Y-14488246D02*
X14400777Y-14545388D01*
X14400777Y-14545388D02*
X14391253Y-14564436D01*
X14391253Y-14564436D02*
X14381730Y-14573960D01*
X14381730Y-14573960D02*
X14362682Y-14583484D01*
X14362682Y-14583484D02*
X14334110Y-14583484D01*
X14515063Y-14583484D02*
X14496015Y-14573960D01*
X14496015Y-14573960D02*
X14486491Y-14554912D01*
X14486491Y-14554912D02*
X14486491Y-14383484D01*
X14667444Y-14573960D02*
X14648396Y-14583484D01*
X14648396Y-14583484D02*
X14610301Y-14583484D01*
X14610301Y-14583484D02*
X14591253Y-14573960D01*
X14591253Y-14573960D02*
X14581730Y-14554912D01*
X14581730Y-14554912D02*
X14581730Y-14478722D01*
X14581730Y-14478722D02*
X14591253Y-14459674D01*
X14591253Y-14459674D02*
X14610301Y-14450150D01*
X14610301Y-14450150D02*
X14648396Y-14450150D01*
X14648396Y-14450150D02*
X14667444Y-14459674D01*
X14667444Y-14459674D02*
X14676968Y-14478722D01*
X14676968Y-14478722D02*
X14676968Y-14497769D01*
X14676968Y-14497769D02*
X14581730Y-14516817D01*
X14753158Y-14573960D02*
X14772206Y-14583484D01*
X14772206Y-14583484D02*
X14810301Y-14583484D01*
X14810301Y-14583484D02*
X14829349Y-14573960D01*
X14829349Y-14573960D02*
X14838872Y-14554912D01*
X14838872Y-14554912D02*
X14838872Y-14545388D01*
X14838872Y-14545388D02*
X14829349Y-14526341D01*
X14829349Y-14526341D02*
X14810301Y-14516817D01*
X14810301Y-14516817D02*
X14781730Y-14516817D01*
X14781730Y-14516817D02*
X14762682Y-14507293D01*
X14762682Y-14507293D02*
X14753158Y-14488246D01*
X14753158Y-14488246D02*
X14753158Y-14478722D01*
X14753158Y-14478722D02*
X14762682Y-14459674D01*
X14762682Y-14459674D02*
X14781730Y-14450150D01*
X14781730Y-14450150D02*
X14810301Y-14450150D01*
X14810301Y-14450150D02*
X14829349Y-14459674D01*
X14905539Y-14659674D02*
X14915063Y-14650150D01*
X14915063Y-14650150D02*
X14934111Y-14621579D01*
X14934111Y-14621579D02*
X14943634Y-14602531D01*
X14943634Y-14602531D02*
X14953158Y-14573960D01*
X14953158Y-14573960D02*
X14962682Y-14526341D01*
X14962682Y-14526341D02*
X14962682Y-14488246D01*
X14962682Y-14488246D02*
X14953158Y-14440627D01*
X14953158Y-14440627D02*
X14943634Y-14412055D01*
X14943634Y-14412055D02*
X14934111Y-14393008D01*
X14934111Y-14393008D02*
X14915063Y-14364436D01*
X14915063Y-14364436D02*
X14905539Y-14354912D01*
D15*
X9864000Y-14832000D02*
X9940000Y-14756000D01*
X9864000Y-14680000D01*
X9788000Y-14756000D01*
X9864000Y-14832000D01*
D10*
X10305539Y-14847484D02*
X10191253Y-14847484D01*
X10248396Y-14847484D02*
X10248396Y-14647484D01*
X10248396Y-14647484D02*
X10229348Y-14676055D01*
X10229348Y-14676055D02*
X10210301Y-14695103D01*
X10210301Y-14695103D02*
X10191253Y-14704627D01*
X10391253Y-14828436D02*
X10400777Y-14837960D01*
X10400777Y-14837960D02*
X10391253Y-14847484D01*
X10391253Y-14847484D02*
X10381729Y-14837960D01*
X10381729Y-14837960D02*
X10391253Y-14828436D01*
X10391253Y-14828436D02*
X10391253Y-14847484D01*
X10581729Y-14647484D02*
X10486491Y-14647484D01*
X10486491Y-14647484D02*
X10476967Y-14742722D01*
X10476967Y-14742722D02*
X10486491Y-14733198D01*
X10486491Y-14733198D02*
X10505539Y-14723674D01*
X10505539Y-14723674D02*
X10553158Y-14723674D01*
X10553158Y-14723674D02*
X10572205Y-14733198D01*
X10572205Y-14733198D02*
X10581729Y-14742722D01*
X10581729Y-14742722D02*
X10591253Y-14761769D01*
X10591253Y-14761769D02*
X10591253Y-14809388D01*
X10591253Y-14809388D02*
X10581729Y-14828436D01*
X10581729Y-14828436D02*
X10572205Y-14837960D01*
X10572205Y-14837960D02*
X10553158Y-14847484D01*
X10553158Y-14847484D02*
X10505539Y-14847484D01*
X10505539Y-14847484D02*
X10486491Y-14837960D01*
X10486491Y-14837960D02*
X10476967Y-14828436D01*
X10667444Y-14666531D02*
X10676967Y-14657008D01*
X10676967Y-14657008D02*
X10696015Y-14647484D01*
X10696015Y-14647484D02*
X10743634Y-14647484D01*
X10743634Y-14647484D02*
X10762682Y-14657008D01*
X10762682Y-14657008D02*
X10772205Y-14666531D01*
X10772205Y-14666531D02*
X10781729Y-14685579D01*
X10781729Y-14685579D02*
X10781729Y-14704627D01*
X10781729Y-14704627D02*
X10772205Y-14733198D01*
X10772205Y-14733198D02*
X10657920Y-14847484D01*
X10657920Y-14847484D02*
X10781729Y-14847484D01*
X10905539Y-14647484D02*
X10924586Y-14647484D01*
X10924586Y-14647484D02*
X10943634Y-14657008D01*
X10943634Y-14657008D02*
X10953158Y-14666531D01*
X10953158Y-14666531D02*
X10962682Y-14685579D01*
X10962682Y-14685579D02*
X10972205Y-14723674D01*
X10972205Y-14723674D02*
X10972205Y-14771293D01*
X10972205Y-14771293D02*
X10962682Y-14809388D01*
X10962682Y-14809388D02*
X10953158Y-14828436D01*
X10953158Y-14828436D02*
X10943634Y-14837960D01*
X10943634Y-14837960D02*
X10924586Y-14847484D01*
X10924586Y-14847484D02*
X10905539Y-14847484D01*
X10905539Y-14847484D02*
X10886491Y-14837960D01*
X10886491Y-14837960D02*
X10876967Y-14828436D01*
X10876967Y-14828436D02*
X10867444Y-14809388D01*
X10867444Y-14809388D02*
X10857920Y-14771293D01*
X10857920Y-14771293D02*
X10857920Y-14723674D01*
X10857920Y-14723674D02*
X10867444Y-14685579D01*
X10867444Y-14685579D02*
X10876967Y-14666531D01*
X10876967Y-14666531D02*
X10886491Y-14657008D01*
X10886491Y-14657008D02*
X10905539Y-14647484D01*
X11057920Y-14847484D02*
X11057920Y-14714150D01*
X11057920Y-14733198D02*
X11067444Y-14723674D01*
X11067444Y-14723674D02*
X11086491Y-14714150D01*
X11086491Y-14714150D02*
X11115063Y-14714150D01*
X11115063Y-14714150D02*
X11134110Y-14723674D01*
X11134110Y-14723674D02*
X11143634Y-14742722D01*
X11143634Y-14742722D02*
X11143634Y-14847484D01*
X11143634Y-14742722D02*
X11153158Y-14723674D01*
X11153158Y-14723674D02*
X11172205Y-14714150D01*
X11172205Y-14714150D02*
X11200777Y-14714150D01*
X11200777Y-14714150D02*
X11219824Y-14723674D01*
X11219824Y-14723674D02*
X11229348Y-14742722D01*
X11229348Y-14742722D02*
X11229348Y-14847484D01*
X11324586Y-14847484D02*
X11324586Y-14714150D01*
X11324586Y-14733198D02*
X11334110Y-14723674D01*
X11334110Y-14723674D02*
X11353158Y-14714150D01*
X11353158Y-14714150D02*
X11381729Y-14714150D01*
X11381729Y-14714150D02*
X11400777Y-14723674D01*
X11400777Y-14723674D02*
X11410301Y-14742722D01*
X11410301Y-14742722D02*
X11410301Y-14847484D01*
X11410301Y-14742722D02*
X11419824Y-14723674D01*
X11419824Y-14723674D02*
X11438872Y-14714150D01*
X11438872Y-14714150D02*
X11467443Y-14714150D01*
X11467443Y-14714150D02*
X11486491Y-14723674D01*
X11486491Y-14723674D02*
X11496015Y-14742722D01*
X11496015Y-14742722D02*
X11496015Y-14847484D01*
X11886491Y-14637960D02*
X11715063Y-14895103D01*
X12143634Y-14647484D02*
X12162682Y-14647484D01*
X12162682Y-14647484D02*
X12181729Y-14657008D01*
X12181729Y-14657008D02*
X12191253Y-14666531D01*
X12191253Y-14666531D02*
X12200777Y-14685579D01*
X12200777Y-14685579D02*
X12210301Y-14723674D01*
X12210301Y-14723674D02*
X12210301Y-14771293D01*
X12210301Y-14771293D02*
X12200777Y-14809388D01*
X12200777Y-14809388D02*
X12191253Y-14828436D01*
X12191253Y-14828436D02*
X12181729Y-14837960D01*
X12181729Y-14837960D02*
X12162682Y-14847484D01*
X12162682Y-14847484D02*
X12143634Y-14847484D01*
X12143634Y-14847484D02*
X12124586Y-14837960D01*
X12124586Y-14837960D02*
X12115063Y-14828436D01*
X12115063Y-14828436D02*
X12105539Y-14809388D01*
X12105539Y-14809388D02*
X12096015Y-14771293D01*
X12096015Y-14771293D02*
X12096015Y-14723674D01*
X12096015Y-14723674D02*
X12105539Y-14685579D01*
X12105539Y-14685579D02*
X12115063Y-14666531D01*
X12115063Y-14666531D02*
X12124586Y-14657008D01*
X12124586Y-14657008D02*
X12143634Y-14647484D01*
X12296015Y-14828436D02*
X12305539Y-14837960D01*
X12305539Y-14837960D02*
X12296015Y-14847484D01*
X12296015Y-14847484D02*
X12286491Y-14837960D01*
X12286491Y-14837960D02*
X12296015Y-14828436D01*
X12296015Y-14828436D02*
X12296015Y-14847484D01*
X12429348Y-14647484D02*
X12448396Y-14647484D01*
X12448396Y-14647484D02*
X12467444Y-14657008D01*
X12467444Y-14657008D02*
X12476967Y-14666531D01*
X12476967Y-14666531D02*
X12486491Y-14685579D01*
X12486491Y-14685579D02*
X12496015Y-14723674D01*
X12496015Y-14723674D02*
X12496015Y-14771293D01*
X12496015Y-14771293D02*
X12486491Y-14809388D01*
X12486491Y-14809388D02*
X12476967Y-14828436D01*
X12476967Y-14828436D02*
X12467444Y-14837960D01*
X12467444Y-14837960D02*
X12448396Y-14847484D01*
X12448396Y-14847484D02*
X12429348Y-14847484D01*
X12429348Y-14847484D02*
X12410301Y-14837960D01*
X12410301Y-14837960D02*
X12400777Y-14828436D01*
X12400777Y-14828436D02*
X12391253Y-14809388D01*
X12391253Y-14809388D02*
X12381729Y-14771293D01*
X12381729Y-14771293D02*
X12381729Y-14723674D01*
X12381729Y-14723674D02*
X12391253Y-14685579D01*
X12391253Y-14685579D02*
X12400777Y-14666531D01*
X12400777Y-14666531D02*
X12410301Y-14657008D01*
X12410301Y-14657008D02*
X12429348Y-14647484D01*
X12676967Y-14647484D02*
X12581729Y-14647484D01*
X12581729Y-14647484D02*
X12572206Y-14742722D01*
X12572206Y-14742722D02*
X12581729Y-14733198D01*
X12581729Y-14733198D02*
X12600777Y-14723674D01*
X12600777Y-14723674D02*
X12648396Y-14723674D01*
X12648396Y-14723674D02*
X12667444Y-14733198D01*
X12667444Y-14733198D02*
X12676967Y-14742722D01*
X12676967Y-14742722D02*
X12686491Y-14761769D01*
X12686491Y-14761769D02*
X12686491Y-14809388D01*
X12686491Y-14809388D02*
X12676967Y-14828436D01*
X12676967Y-14828436D02*
X12667444Y-14837960D01*
X12667444Y-14837960D02*
X12648396Y-14847484D01*
X12648396Y-14847484D02*
X12600777Y-14847484D01*
X12600777Y-14847484D02*
X12581729Y-14837960D01*
X12581729Y-14837960D02*
X12572206Y-14828436D01*
X12781729Y-14847484D02*
X12819825Y-14847484D01*
X12819825Y-14847484D02*
X12838872Y-14837960D01*
X12838872Y-14837960D02*
X12848396Y-14828436D01*
X12848396Y-14828436D02*
X12867444Y-14799865D01*
X12867444Y-14799865D02*
X12876967Y-14761769D01*
X12876967Y-14761769D02*
X12876967Y-14685579D01*
X12876967Y-14685579D02*
X12867444Y-14666531D01*
X12867444Y-14666531D02*
X12857920Y-14657008D01*
X12857920Y-14657008D02*
X12838872Y-14647484D01*
X12838872Y-14647484D02*
X12800777Y-14647484D01*
X12800777Y-14647484D02*
X12781729Y-14657008D01*
X12781729Y-14657008D02*
X12772206Y-14666531D01*
X12772206Y-14666531D02*
X12762682Y-14685579D01*
X12762682Y-14685579D02*
X12762682Y-14733198D01*
X12762682Y-14733198D02*
X12772206Y-14752246D01*
X12772206Y-14752246D02*
X12781729Y-14761769D01*
X12781729Y-14761769D02*
X12800777Y-14771293D01*
X12800777Y-14771293D02*
X12838872Y-14771293D01*
X12838872Y-14771293D02*
X12857920Y-14761769D01*
X12857920Y-14761769D02*
X12867444Y-14752246D01*
X12867444Y-14752246D02*
X12876967Y-14733198D01*
X12991253Y-14733198D02*
X12972206Y-14723674D01*
X12972206Y-14723674D02*
X12962682Y-14714150D01*
X12962682Y-14714150D02*
X12953158Y-14695103D01*
X12953158Y-14695103D02*
X12953158Y-14685579D01*
X12953158Y-14685579D02*
X12962682Y-14666531D01*
X12962682Y-14666531D02*
X12972206Y-14657008D01*
X12972206Y-14657008D02*
X12991253Y-14647484D01*
X12991253Y-14647484D02*
X13029348Y-14647484D01*
X13029348Y-14647484D02*
X13048396Y-14657008D01*
X13048396Y-14657008D02*
X13057920Y-14666531D01*
X13057920Y-14666531D02*
X13067444Y-14685579D01*
X13067444Y-14685579D02*
X13067444Y-14695103D01*
X13067444Y-14695103D02*
X13057920Y-14714150D01*
X13057920Y-14714150D02*
X13048396Y-14723674D01*
X13048396Y-14723674D02*
X13029348Y-14733198D01*
X13029348Y-14733198D02*
X12991253Y-14733198D01*
X12991253Y-14733198D02*
X12972206Y-14742722D01*
X12972206Y-14742722D02*
X12962682Y-14752246D01*
X12962682Y-14752246D02*
X12953158Y-14771293D01*
X12953158Y-14771293D02*
X12953158Y-14809388D01*
X12953158Y-14809388D02*
X12962682Y-14828436D01*
X12962682Y-14828436D02*
X12972206Y-14837960D01*
X12972206Y-14837960D02*
X12991253Y-14847484D01*
X12991253Y-14847484D02*
X13029348Y-14847484D01*
X13029348Y-14847484D02*
X13048396Y-14837960D01*
X13048396Y-14837960D02*
X13057920Y-14828436D01*
X13057920Y-14828436D02*
X13067444Y-14809388D01*
X13067444Y-14809388D02*
X13067444Y-14771293D01*
X13067444Y-14771293D02*
X13057920Y-14752246D01*
X13057920Y-14752246D02*
X13048396Y-14742722D01*
X13048396Y-14742722D02*
X13029348Y-14733198D01*
X13143634Y-14647484D02*
X13143634Y-14685579D01*
X13219825Y-14647484D02*
X13219825Y-14685579D01*
X13515063Y-14923674D02*
X13505539Y-14914150D01*
X13505539Y-14914150D02*
X13486491Y-14885579D01*
X13486491Y-14885579D02*
X13476968Y-14866531D01*
X13476968Y-14866531D02*
X13467444Y-14837960D01*
X13467444Y-14837960D02*
X13457920Y-14790341D01*
X13457920Y-14790341D02*
X13457920Y-14752246D01*
X13457920Y-14752246D02*
X13467444Y-14704627D01*
X13467444Y-14704627D02*
X13476968Y-14676055D01*
X13476968Y-14676055D02*
X13486491Y-14657008D01*
X13486491Y-14657008D02*
X13505539Y-14628436D01*
X13505539Y-14628436D02*
X13515063Y-14618912D01*
X13619825Y-14733198D02*
X13600777Y-14723674D01*
X13600777Y-14723674D02*
X13591253Y-14714150D01*
X13591253Y-14714150D02*
X13581729Y-14695103D01*
X13581729Y-14695103D02*
X13581729Y-14685579D01*
X13581729Y-14685579D02*
X13591253Y-14666531D01*
X13591253Y-14666531D02*
X13600777Y-14657008D01*
X13600777Y-14657008D02*
X13619825Y-14647484D01*
X13619825Y-14647484D02*
X13657920Y-14647484D01*
X13657920Y-14647484D02*
X13676968Y-14657008D01*
X13676968Y-14657008D02*
X13686491Y-14666531D01*
X13686491Y-14666531D02*
X13696015Y-14685579D01*
X13696015Y-14685579D02*
X13696015Y-14695103D01*
X13696015Y-14695103D02*
X13686491Y-14714150D01*
X13686491Y-14714150D02*
X13676968Y-14723674D01*
X13676968Y-14723674D02*
X13657920Y-14733198D01*
X13657920Y-14733198D02*
X13619825Y-14733198D01*
X13619825Y-14733198D02*
X13600777Y-14742722D01*
X13600777Y-14742722D02*
X13591253Y-14752246D01*
X13591253Y-14752246D02*
X13581729Y-14771293D01*
X13581729Y-14771293D02*
X13581729Y-14809388D01*
X13581729Y-14809388D02*
X13591253Y-14828436D01*
X13591253Y-14828436D02*
X13600777Y-14837960D01*
X13600777Y-14837960D02*
X13619825Y-14847484D01*
X13619825Y-14847484D02*
X13657920Y-14847484D01*
X13657920Y-14847484D02*
X13676968Y-14837960D01*
X13676968Y-14837960D02*
X13686491Y-14828436D01*
X13686491Y-14828436D02*
X13696015Y-14809388D01*
X13696015Y-14809388D02*
X13696015Y-14771293D01*
X13696015Y-14771293D02*
X13686491Y-14752246D01*
X13686491Y-14752246D02*
X13676968Y-14742722D01*
X13676968Y-14742722D02*
X13657920Y-14733198D01*
X13934110Y-14847484D02*
X13934110Y-14647484D01*
X14019825Y-14847484D02*
X14019825Y-14742722D01*
X14019825Y-14742722D02*
X14010301Y-14723674D01*
X14010301Y-14723674D02*
X13991253Y-14714150D01*
X13991253Y-14714150D02*
X13962682Y-14714150D01*
X13962682Y-14714150D02*
X13943634Y-14723674D01*
X13943634Y-14723674D02*
X13934110Y-14733198D01*
X14143634Y-14847484D02*
X14124587Y-14837960D01*
X14124587Y-14837960D02*
X14115063Y-14828436D01*
X14115063Y-14828436D02*
X14105539Y-14809388D01*
X14105539Y-14809388D02*
X14105539Y-14752246D01*
X14105539Y-14752246D02*
X14115063Y-14733198D01*
X14115063Y-14733198D02*
X14124587Y-14723674D01*
X14124587Y-14723674D02*
X14143634Y-14714150D01*
X14143634Y-14714150D02*
X14172206Y-14714150D01*
X14172206Y-14714150D02*
X14191253Y-14723674D01*
X14191253Y-14723674D02*
X14200777Y-14733198D01*
X14200777Y-14733198D02*
X14210301Y-14752246D01*
X14210301Y-14752246D02*
X14210301Y-14809388D01*
X14210301Y-14809388D02*
X14200777Y-14828436D01*
X14200777Y-14828436D02*
X14191253Y-14837960D01*
X14191253Y-14837960D02*
X14172206Y-14847484D01*
X14172206Y-14847484D02*
X14143634Y-14847484D01*
X14324587Y-14847484D02*
X14305539Y-14837960D01*
X14305539Y-14837960D02*
X14296015Y-14818912D01*
X14296015Y-14818912D02*
X14296015Y-14647484D01*
X14476968Y-14837960D02*
X14457920Y-14847484D01*
X14457920Y-14847484D02*
X14419825Y-14847484D01*
X14419825Y-14847484D02*
X14400777Y-14837960D01*
X14400777Y-14837960D02*
X14391253Y-14818912D01*
X14391253Y-14818912D02*
X14391253Y-14742722D01*
X14391253Y-14742722D02*
X14400777Y-14723674D01*
X14400777Y-14723674D02*
X14419825Y-14714150D01*
X14419825Y-14714150D02*
X14457920Y-14714150D01*
X14457920Y-14714150D02*
X14476968Y-14723674D01*
X14476968Y-14723674D02*
X14486491Y-14742722D01*
X14486491Y-14742722D02*
X14486491Y-14761769D01*
X14486491Y-14761769D02*
X14391253Y-14780817D01*
X14562682Y-14837960D02*
X14581730Y-14847484D01*
X14581730Y-14847484D02*
X14619825Y-14847484D01*
X14619825Y-14847484D02*
X14638872Y-14837960D01*
X14638872Y-14837960D02*
X14648396Y-14818912D01*
X14648396Y-14818912D02*
X14648396Y-14809388D01*
X14648396Y-14809388D02*
X14638872Y-14790341D01*
X14638872Y-14790341D02*
X14619825Y-14780817D01*
X14619825Y-14780817D02*
X14591253Y-14780817D01*
X14591253Y-14780817D02*
X14572206Y-14771293D01*
X14572206Y-14771293D02*
X14562682Y-14752246D01*
X14562682Y-14752246D02*
X14562682Y-14742722D01*
X14562682Y-14742722D02*
X14572206Y-14723674D01*
X14572206Y-14723674D02*
X14591253Y-14714150D01*
X14591253Y-14714150D02*
X14619825Y-14714150D01*
X14619825Y-14714150D02*
X14638872Y-14723674D01*
X14715063Y-14923674D02*
X14724587Y-14914150D01*
X14724587Y-14914150D02*
X14743634Y-14885579D01*
X14743634Y-14885579D02*
X14753158Y-14866531D01*
X14753158Y-14866531D02*
X14762682Y-14837960D01*
X14762682Y-14837960D02*
X14772206Y-14790341D01*
X14772206Y-14790341D02*
X14772206Y-14752246D01*
X14772206Y-14752246D02*
X14762682Y-14704627D01*
X14762682Y-14704627D02*
X14753158Y-14676055D01*
X14753158Y-14676055D02*
X14743634Y-14657008D01*
X14743634Y-14657008D02*
X14724587Y-14628436D01*
X14724587Y-14628436D02*
X14715063Y-14618912D01*
M02*
