%TF.GenerationSoftware,KiCad,Pcbnew,8.0.6*%
%TF.CreationDate,2024-11-18T20:28:24+01:00*%
%TF.ProjectId,pcb,7063622e-6b69-4636-9164-5f7063625858,rev?*%
%TF.SameCoordinates,Original*%
%TF.FileFunction,Copper,L2,Bot*%
%TF.FilePolarity,Positive*%
%FSLAX46Y46*%
G04 Gerber Fmt 4.6, Leading zero omitted, Abs format (unit mm)*
G04 Created by KiCad (PCBNEW 8.0.6) date 2024-11-18 20:28:24*
%MOMM*%
%LPD*%
G01*
G04 APERTURE LIST*
%TA.AperFunction,ComponentPad*%
%ADD10C,2.000000*%
%TD*%
%TA.AperFunction,ComponentPad*%
%ADD11R,3.000000X3.000000*%
%TD*%
%TA.AperFunction,ComponentPad*%
%ADD12C,3.000000*%
%TD*%
%TA.AperFunction,ComponentPad*%
%ADD13C,1.600000*%
%TD*%
%TA.AperFunction,ComponentPad*%
%ADD14O,1.600000X1.600000*%
%TD*%
%TA.AperFunction,ComponentPad*%
%ADD15R,2.800000X2.800000*%
%TD*%
%TA.AperFunction,ComponentPad*%
%ADD16C,2.800000*%
%TD*%
%TA.AperFunction,ComponentPad*%
%ADD17R,1.530000X1.530000*%
%TD*%
%TA.AperFunction,ComponentPad*%
%ADD18C,1.530000*%
%TD*%
%TA.AperFunction,Conductor*%
%ADD19C,0.200000*%
%TD*%
G04 APERTURE END LIST*
D10*
%TO.P,SW5,1,1*%
%TO.N,5V*%
X133500000Y-90000000D03*
X140000000Y-90000000D03*
%TO.P,SW5,2,2*%
%TO.N,Net-(R10-Pad1)*%
X133500000Y-94500000D03*
X140000000Y-94500000D03*
%TD*%
D11*
%TO.P,P1,1,5V*%
%TO.N,5V*%
X137235000Y-58315000D03*
D12*
%TO.P,P1,2,GND*%
%TO.N,GND*%
X142315000Y-58315000D03*
%TD*%
D13*
%TO.P,C2,1*%
%TO.N,Net-(U1-GPIO1)*%
X195895000Y-123185000D03*
%TO.P,C2,2*%
%TO.N,GND*%
X190895000Y-123185000D03*
%TD*%
%TO.P,R4,1*%
%TO.N,Net-(R3-Pad1)*%
X190495000Y-103185000D03*
D14*
%TO.P,R4,2*%
%TO.N,GND*%
X190495000Y-113345000D03*
%TD*%
D13*
%TO.P,R3,1*%
%TO.N,Net-(R3-Pad1)*%
X196245000Y-103185000D03*
D14*
%TO.P,R3,2*%
%TO.N,Net-(U1-GPIO1)*%
X196245000Y-113345000D03*
%TD*%
D15*
%TO.P,J2,1,A0*%
%TO.N,Net-(J2-A0)*%
X111315000Y-58500000D03*
D16*
%TO.P,J2,2,GND*%
%TO.N,GND*%
X116315000Y-58500000D03*
%TO.P,J2,3,5V*%
%TO.N,5V*%
X121315000Y-58500000D03*
%TO.P,J2,4,D0*%
%TO.N,unconnected-(J2-D0-Pad4)*%
X126315000Y-58500000D03*
%TD*%
D13*
%TO.P,R1,1*%
%TO.N,Net-(R1-Pad1)*%
X178000000Y-103105000D03*
D14*
%TO.P,R1,2*%
%TO.N,GND*%
X178000000Y-113265000D03*
%TD*%
D13*
%TO.P,R10,1*%
%TO.N,Net-(R10-Pad1)*%
X133450000Y-102840000D03*
D14*
%TO.P,R10,2*%
%TO.N,GND*%
X133450000Y-113000000D03*
%TD*%
D13*
%TO.P,R2,1*%
%TO.N,Net-(R1-Pad1)*%
X183500000Y-103025000D03*
D14*
%TO.P,R2,2*%
%TO.N,Net-(U1-GPIO2)*%
X183500000Y-113185000D03*
%TD*%
D13*
%TO.P,C5,1*%
%TO.N,Net-(U1-GPIO19{slash}USBD_+)*%
X139000000Y-123000000D03*
%TO.P,C5,2*%
%TO.N,GND*%
X134000000Y-123000000D03*
%TD*%
D10*
%TO.P,SW3,1,1*%
%TO.N,5V*%
X149250000Y-90085000D03*
X155750000Y-90085000D03*
%TO.P,SW3,2,2*%
%TO.N,Net-(R5-Pad1)*%
X149250000Y-94585000D03*
X155750000Y-94585000D03*
%TD*%
D13*
%TO.P,C4,1*%
%TO.N,Net-(U1-GPIO10)*%
X168400000Y-123185000D03*
%TO.P,C4,2*%
%TO.N,GND*%
X163400000Y-123185000D03*
%TD*%
D11*
%TO.P,J3,1,GND*%
%TO.N,GND*%
X156315000Y-58315000D03*
D12*
%TO.P,J3,2,5V*%
%TO.N,5V*%
X161395000Y-58315000D03*
%TO.P,J3,3,S*%
%TO.N,GND*%
X166475000Y-58315000D03*
%TD*%
D10*
%TO.P,SW2,1,1*%
%TO.N,5V*%
X189895000Y-90185000D03*
X196395000Y-90185000D03*
%TO.P,SW2,2,2*%
%TO.N,Net-(R3-Pad1)*%
X189895000Y-94685000D03*
X196395000Y-94685000D03*
%TD*%
D13*
%TO.P,R5,1*%
%TO.N,Net-(R5-Pad1)*%
X155000000Y-103085000D03*
D14*
%TO.P,R5,2*%
%TO.N,Net-(U1-GPIO9)*%
X155000000Y-113245000D03*
%TD*%
D13*
%TO.P,R6,1*%
%TO.N,Net-(R5-Pad1)*%
X149250000Y-103085000D03*
D14*
%TO.P,R6,2*%
%TO.N,GND*%
X149250000Y-113245000D03*
%TD*%
D13*
%TO.P,R7,1*%
%TO.N,Net-(R7-Pad1)*%
X169000000Y-103085000D03*
D14*
%TO.P,R7,2*%
%TO.N,Net-(U1-GPIO10)*%
X169000000Y-113245000D03*
%TD*%
D10*
%TO.P,SW4,1,1*%
%TO.N,5V*%
X163000000Y-90085000D03*
X169500000Y-90085000D03*
%TO.P,SW4,2,2*%
%TO.N,Net-(R7-Pad1)*%
X163000000Y-94585000D03*
X169500000Y-94585000D03*
%TD*%
D13*
%TO.P,C3,1*%
%TO.N,Net-(U1-GPIO9)*%
X154650000Y-123185000D03*
%TO.P,C3,2*%
%TO.N,GND*%
X149650000Y-123185000D03*
%TD*%
%TO.P,R9,1*%
%TO.N,Net-(R10-Pad1)*%
X139500000Y-102840000D03*
D14*
%TO.P,R9,2*%
%TO.N,Net-(U1-GPIO19{slash}USBD_+)*%
X139500000Y-113000000D03*
%TD*%
D10*
%TO.P,SW1,1,1*%
%TO.N,5V*%
X177000000Y-90185000D03*
X183500000Y-90185000D03*
%TO.P,SW1,2,2*%
%TO.N,Net-(R1-Pad1)*%
X177000000Y-94685000D03*
X183500000Y-94685000D03*
%TD*%
D13*
%TO.P,R8,1*%
%TO.N,Net-(R7-Pad1)*%
X162850000Y-103005000D03*
D14*
%TO.P,R8,2*%
%TO.N,GND*%
X162850000Y-113165000D03*
%TD*%
D13*
%TO.P,C1,1*%
%TO.N,Net-(U1-GPIO2)*%
X183000000Y-123185000D03*
%TO.P,C1,2*%
%TO.N,GND*%
X178000000Y-123185000D03*
%TD*%
D11*
%TO.P,J4,1,5V*%
%TO.N,5V*%
X178815000Y-58500000D03*
D12*
%TO.P,J4,2,GND*%
%TO.N,GND*%
X183895000Y-58500000D03*
%TO.P,J4,3,Data*%
%TO.N,Net-(D3-DOUT)*%
X188975000Y-58500000D03*
%TD*%
D16*
%TO.P,J1,6,GND*%
%TO.N,GND*%
X159500000Y-77500000D03*
%TO.P,J1,5,5V*%
%TO.N,5V*%
X154500000Y-77500000D03*
%TO.P,J1,4,MISO*%
%TO.N,Net-(J1-MISO)*%
X149500000Y-77500000D03*
%TO.P,J1,3,MOSI*%
%TO.N,Net-(J1-MOSI)*%
X144500000Y-77500000D03*
%TO.P,J1,2,SCK*%
%TO.N,Net-(J1-SCK)*%
X139500000Y-77500000D03*
D15*
%TO.P,J1,1,CS*%
%TO.N,Net-(J1-CS)*%
X134500000Y-77500000D03*
%TD*%
D17*
%TO.P,REF\u002A\u002A,1,GND*%
%TO.N,GND*%
X104140000Y-88380000D03*
D18*
%TO.P,REF\u002A\u002A,2,3V3*%
%TO.N,3V3*%
X104140000Y-90920000D03*
%TO.P,REF\u002A\u002A,3,3V3*%
X104140000Y-93460000D03*
%TO.P,REF\u002A\u002A,4,RST*%
%TO.N,unconnected-(U1-RST-Pad4)*%
X104140000Y-96000000D03*
%TO.P,REF\u002A\u002A,5,GND*%
%TO.N,GND*%
X104140000Y-98540000D03*
%TO.P,REF\u002A\u002A,6,GPIO4*%
%TO.N,Net-(J1-SCK)*%
X104140000Y-101080000D03*
%TO.P,REF\u002A\u002A,7,GPIO5*%
%TO.N,Net-(J1-MISO)*%
X104140000Y-103620000D03*
%TO.P,REF\u002A\u002A,8,GPIO6*%
%TO.N,Net-(J1-MOSI)*%
X104140000Y-106160000D03*
%TO.P,REF\u002A\u002A,9,GPIO7*%
%TO.N,Net-(J1-CS)*%
X104140000Y-108700000D03*
%TO.P,REF\u002A\u002A,10,GND*%
%TO.N,GND*%
X104140000Y-111240000D03*
%TO.P,REF\u002A\u002A,11,GPIO8/RGB_LED*%
%TO.N,Net-(D1-DIN)*%
X104140000Y-113780000D03*
%TO.P,REF\u002A\u002A,12,GPIO9*%
%TO.N,Net-(U1-GPIO9)*%
X104140000Y-116320000D03*
%TO.P,REF\u002A\u002A,13,5V*%
%TO.N,5V*%
X104140000Y-118860000D03*
%TO.P,REF\u002A\u002A,14,5V*%
X104140000Y-121400000D03*
%TO.P,REF\u002A\u002A,15,GND*%
%TO.N,GND*%
X104140000Y-123940000D03*
%TO.P,REF\u002A\u002A,16,GND*%
X127000000Y-123940000D03*
%TO.P,REF\u002A\u002A,17,GND*%
X127000000Y-121400000D03*
%TO.P,REF\u002A\u002A,18,GPIO19/USBD_+*%
%TO.N,Net-(U1-GPIO19{slash}USBD_+)*%
X127000000Y-118860000D03*
%TO.P,REF\u002A\u002A,19,GPIO18/USBD_-*%
%TO.N,unconnected-(U1-GPIO18{slash}USBD_--Pad19)*%
X127000000Y-116320000D03*
%TO.P,REF\u002A\u002A,20,GND*%
%TO.N,GND*%
X127000000Y-113780000D03*
%TO.P,REF\u002A\u002A,21,GPIO21/U0TXD*%
%TO.N,unconnected-(U1-GPIO21{slash}U0TXD-Pad21)*%
X127000000Y-111240000D03*
%TO.P,REF\u002A\u002A,22,GPIO20/U0RXD*%
%TO.N,unconnected-(U1-GPIO20{slash}U0RXD-Pad22)*%
X127000000Y-108700000D03*
%TO.P,REF\u002A\u002A,23,GND*%
%TO.N,GND*%
X127000000Y-106160000D03*
%TO.P,REF\u002A\u002A,24,GPIO10*%
%TO.N,Net-(U1-GPIO10)*%
X127000000Y-103620000D03*
%TO.P,REF\u002A\u002A,25,GND*%
%TO.N,GND*%
X127000000Y-101080000D03*
%TO.P,REF\u002A\u002A,26,GPIO3*%
X127000000Y-98540000D03*
%TO.P,REF\u002A\u002A,27,GPIO2*%
%TO.N,Net-(U1-GPIO2)*%
X127000000Y-96000000D03*
%TO.P,REF\u002A\u002A,28,GPIO1*%
%TO.N,Net-(U1-GPIO1)*%
X127000000Y-93460000D03*
%TO.P,REF\u002A\u002A,29,GPIO0*%
%TO.N,Net-(J2-A0)*%
X127000000Y-90920000D03*
%TO.P,REF\u002A\u002A,30,GND*%
%TO.N,GND*%
X127000000Y-88380000D03*
%TD*%
D19*
%TO.N,GND*%
X158500000Y-69500000D02*
X150500000Y-61500000D01*
X159500000Y-77500000D02*
X158500000Y-76500000D01*
X158500000Y-76500000D02*
X158500000Y-69500000D01*
X150500000Y-61500000D02*
X151250000Y-61500000D01*
X146000000Y-61500000D02*
X150500000Y-61500000D01*
%TO.N,Net-(J1-MOSI)*%
X144500000Y-77500000D02*
X136500000Y-85500000D01*
X136500000Y-85500000D02*
X124800000Y-85500000D01*
X124800000Y-85500000D02*
X104140000Y-106160000D01*
%TO.N,Net-(J1-CS)*%
X101700000Y-108700000D02*
X104140000Y-108700000D01*
X101000000Y-92553862D02*
X101000000Y-108000000D01*
X103698862Y-89855000D02*
X101000000Y-92553862D01*
X105145000Y-89855000D02*
X103698862Y-89855000D01*
X117500000Y-77500000D02*
X105145000Y-89855000D01*
X134500000Y-77500000D02*
X117500000Y-77500000D01*
X101000000Y-108000000D02*
X101700000Y-108700000D01*
%TO.N,GND*%
X103380000Y-88380000D02*
X104140000Y-88380000D01*
X101000000Y-86000000D02*
X103380000Y-88380000D01*
X101000000Y-56000000D02*
X101000000Y-86000000D01*
X113815000Y-56000000D02*
X101000000Y-56000000D01*
X116315000Y-58500000D02*
X113815000Y-56000000D01*
%TO.N,Net-(J1-SCK)*%
X116000000Y-89220000D02*
X104140000Y-101080000D01*
X116000000Y-84000000D02*
X116000000Y-89220000D01*
%TO.N,5V*%
X154500000Y-88835000D02*
X155750000Y-90085000D01*
X154500000Y-77500000D02*
X154500000Y-88835000D01*
%TO.N,Net-(J2-A0)*%
X142904164Y-86500000D02*
X131420000Y-86500000D01*
X136304164Y-61900000D02*
X151500000Y-77095836D01*
X151500000Y-77095836D02*
X151500000Y-77904164D01*
X151500000Y-77904164D02*
X142904164Y-86500000D01*
X131420000Y-86500000D02*
X127000000Y-90920000D01*
X114715000Y-61900000D02*
X136304164Y-61900000D01*
X111315000Y-58500000D02*
X114715000Y-61900000D01*
%TO.N,Net-(J1-MISO)*%
X120000000Y-87760000D02*
X104140000Y-103620000D01*
X120000000Y-84000000D02*
X120000000Y-87760000D01*
X121000000Y-83000000D02*
X120000000Y-84000000D01*
X142000000Y-79000000D02*
X138000000Y-83000000D01*
X142000000Y-75500000D02*
X142000000Y-79000000D01*
X143000000Y-74500000D02*
X142000000Y-75500000D01*
X146500000Y-74500000D02*
X143000000Y-74500000D01*
X138000000Y-83000000D02*
X121000000Y-83000000D01*
X149500000Y-77500000D02*
X146500000Y-74500000D01*
%TO.N,Net-(J1-SCK)*%
X119000000Y-81000000D02*
X116000000Y-84000000D01*
X136000000Y-81000000D02*
X119000000Y-81000000D01*
X139500000Y-77500000D02*
X136000000Y-81000000D01*
%TO.N,5V*%
X183500000Y-89985000D02*
X177000000Y-89985000D01*
X183700000Y-90185000D02*
X183500000Y-89985000D01*
%TO.N,GND*%
X142000000Y-61500000D02*
X146000000Y-61500000D01*
%TO.N,5V*%
X100100000Y-55000000D02*
X100100000Y-64000000D01*
X100100000Y-64000000D02*
X100100000Y-114820000D01*
X100100000Y-114820000D02*
X104140000Y-118860000D01*
X116815000Y-55000000D02*
X100100000Y-55000000D01*
%TO.N,Net-(U1-GPIO1)*%
X130000000Y-96460000D02*
X127000000Y-93460000D01*
X192755000Y-109045000D02*
X133045000Y-109045000D01*
X130000000Y-106000000D02*
X130000000Y-96460000D01*
X196245000Y-112535000D02*
X192755000Y-109045000D01*
X196245000Y-113345000D02*
X196245000Y-112535000D01*
X133045000Y-109045000D02*
X130000000Y-106000000D01*
%TO.N,Net-(U1-GPIO2)*%
X132465000Y-109815000D02*
X129000000Y-106350000D01*
X129000000Y-106350000D02*
X129000000Y-98000000D01*
X178025000Y-109815000D02*
X132465000Y-109815000D01*
X129000000Y-98000000D02*
X127000000Y-96000000D01*
X181395000Y-113185000D02*
X178025000Y-109815000D01*
X183500000Y-113185000D02*
X181395000Y-113185000D01*
%TO.N,Net-(U1-GPIO10)*%
X128065000Y-104685000D02*
X127000000Y-103620000D01*
X132215000Y-110215000D02*
X128065000Y-106065000D01*
X128065000Y-106065000D02*
X128065000Y-104685000D01*
X165970000Y-110215000D02*
X132215000Y-110215000D01*
X169000000Y-113245000D02*
X165970000Y-110215000D01*
%TO.N,Net-(U1-GPIO9)*%
X124000000Y-112715000D02*
X107745000Y-112715000D01*
X127285000Y-112715000D02*
X124000000Y-112715000D01*
X128500000Y-111500000D02*
X127285000Y-112715000D01*
X153255000Y-111500000D02*
X128500000Y-111500000D01*
X107745000Y-112715000D02*
X104140000Y-116320000D01*
X155000000Y-113245000D02*
X153255000Y-111500000D01*
%TO.N,Net-(U1-GPIO19{slash}USBD_+)*%
X127000000Y-117826138D02*
X127000000Y-118860000D01*
X132926138Y-111900000D02*
X127000000Y-117826138D01*
X139500000Y-113000000D02*
X138400000Y-111900000D01*
X138400000Y-111900000D02*
X132926138Y-111900000D01*
%TO.N,GND*%
X133060000Y-123940000D02*
X127000000Y-123940000D01*
X134000000Y-123000000D02*
X133060000Y-123940000D01*
X135100000Y-124100000D02*
X134000000Y-123000000D01*
X148735000Y-124100000D02*
X135100000Y-124100000D01*
X149650000Y-123185000D02*
X148735000Y-124100000D01*
X150750000Y-124285000D02*
X149650000Y-123185000D01*
X162300000Y-124285000D02*
X150750000Y-124285000D01*
X163400000Y-123185000D02*
X162300000Y-124285000D01*
X164500000Y-124285000D02*
X163400000Y-123185000D01*
X176900000Y-124285000D02*
X164500000Y-124285000D01*
X178000000Y-123185000D02*
X176900000Y-124285000D01*
X179100000Y-124285000D02*
X178000000Y-123185000D01*
X189795000Y-124285000D02*
X179100000Y-124285000D01*
X190895000Y-123185000D02*
X189795000Y-124285000D01*
%TO.N,5V*%
X197500000Y-89080000D02*
X196395000Y-90185000D01*
X191500000Y-55000000D02*
X197500000Y-61000000D01*
X197500000Y-61000000D02*
X197500000Y-89080000D01*
X174815000Y-55000000D02*
X191500000Y-55000000D01*
X140085000Y-90085000D02*
X140000000Y-90000000D01*
X149250000Y-90085000D02*
X140085000Y-90085000D01*
X163000000Y-90085000D02*
X155750000Y-90085000D01*
X169600000Y-90185000D02*
X169500000Y-90085000D01*
X177000000Y-90185000D02*
X169600000Y-90185000D01*
X189895000Y-90185000D02*
X183500000Y-90185000D01*
%TO.N,Net-(U1-GPIO2)*%
X183500000Y-122685000D02*
X183000000Y-123185000D01*
X183500000Y-113185000D02*
X183500000Y-122685000D01*
%TO.N,GND*%
X153130000Y-61500000D02*
X152815000Y-61500000D01*
X178000000Y-113265000D02*
X178000000Y-123185000D01*
X149250000Y-113245000D02*
X149250000Y-122785000D01*
X190495000Y-113345000D02*
X190495000Y-122785000D01*
X133450000Y-113000000D02*
X133450000Y-122450000D01*
X142315000Y-58315000D02*
X142315000Y-59500000D01*
X166475000Y-60840000D02*
X165815000Y-61500000D01*
X142315000Y-59500000D02*
X140315000Y-61500000D01*
X166475000Y-58315000D02*
X166475000Y-60840000D01*
X149250000Y-122785000D02*
X149650000Y-123185000D01*
X190495000Y-122785000D02*
X190895000Y-123185000D01*
X116315000Y-58500000D02*
X119315000Y-61500000D01*
X162850000Y-122635000D02*
X163400000Y-123185000D01*
X133450000Y-122450000D02*
X134000000Y-123000000D01*
X119315000Y-61500000D02*
X140315000Y-61500000D01*
X162850000Y-113165000D02*
X162850000Y-122635000D01*
X156315000Y-58315000D02*
X153130000Y-61500000D01*
X165815000Y-61500000D02*
X152815000Y-61500000D01*
X152815000Y-61500000D02*
X151250000Y-61500000D01*
X183895000Y-58500000D02*
X180895000Y-61500000D01*
X140315000Y-61500000D02*
X142000000Y-61500000D01*
X178000000Y-123185000D02*
X177500000Y-123185000D01*
X180895000Y-61500000D02*
X165815000Y-61500000D01*
%TO.N,Net-(U1-GPIO1)*%
X195895000Y-113695000D02*
X196245000Y-113345000D01*
X195895000Y-123185000D02*
X195895000Y-113695000D01*
%TO.N,Net-(U1-GPIO9)*%
X154400000Y-122935000D02*
X154650000Y-123185000D01*
X155000000Y-122835000D02*
X154650000Y-123185000D01*
X155000000Y-113245000D02*
X155000000Y-122835000D01*
%TO.N,Net-(U1-GPIO10)*%
X169000000Y-122585000D02*
X168400000Y-123185000D01*
X169000000Y-113245000D02*
X169000000Y-122585000D01*
%TO.N,Net-(U1-GPIO19{slash}USBD_+)*%
X139500000Y-122500000D02*
X139000000Y-123000000D01*
X139500000Y-113000000D02*
X139500000Y-113250000D01*
X139000000Y-113750000D02*
X139000000Y-123000000D01*
X139500000Y-113250000D02*
X139000000Y-113750000D01*
%TO.N,5V*%
X146670000Y-55000000D02*
X166815000Y-55000000D01*
X140315000Y-55000000D02*
X146670000Y-55000000D01*
X175315000Y-55000000D02*
X174815000Y-55000000D01*
X137235000Y-58315000D02*
X137235000Y-58080000D01*
X121315000Y-58500000D02*
X117815000Y-55000000D01*
X196395000Y-90185000D02*
X189895000Y-90185000D01*
X140000000Y-90000000D02*
X133500000Y-90000000D01*
X173840000Y-55000000D02*
X174815000Y-55000000D01*
X155750000Y-90085000D02*
X149250000Y-90085000D01*
X116815000Y-55000000D02*
X140315000Y-55000000D01*
X169500000Y-90085000D02*
X163000000Y-90085000D01*
X117815000Y-55000000D02*
X116815000Y-55000000D01*
X137235000Y-58080000D02*
X140315000Y-55000000D01*
X164710000Y-55000000D02*
X166815000Y-55000000D01*
X140100000Y-89900000D02*
X140000000Y-90000000D01*
X166815000Y-55000000D02*
X173840000Y-55000000D01*
X178815000Y-58500000D02*
X175315000Y-55000000D01*
X161395000Y-58315000D02*
X164710000Y-55000000D01*
%TO.N,Net-(R1-Pad1)*%
X183420000Y-103105000D02*
X183500000Y-103025000D01*
X183500000Y-94485000D02*
X177000000Y-94485000D01*
X183500000Y-94685000D02*
X183500000Y-103025000D01*
X178000000Y-103105000D02*
X183420000Y-103105000D01*
%TO.N,Net-(R3-Pad1)*%
X190495000Y-103185000D02*
X196245000Y-103185000D01*
X196395000Y-94685000D02*
X189895000Y-94685000D01*
X196245000Y-94835000D02*
X196395000Y-94685000D01*
X196245000Y-103185000D02*
X196245000Y-94835000D01*
%TO.N,Net-(R5-Pad1)*%
X155750000Y-94585000D02*
X149250000Y-94585000D01*
X155750000Y-102335000D02*
X155000000Y-103085000D01*
X155750000Y-94585000D02*
X155750000Y-102335000D01*
X155000000Y-103085000D02*
X149250000Y-103085000D01*
%TO.N,Net-(R7-Pad1)*%
X162850000Y-103005000D02*
X168920000Y-103005000D01*
X168920000Y-103005000D02*
X169000000Y-103085000D01*
X163000000Y-102855000D02*
X162850000Y-103005000D01*
X169500000Y-102585000D02*
X169000000Y-103085000D01*
X169500000Y-94585000D02*
X163000000Y-94585000D01*
X169500000Y-94585000D02*
X169500000Y-102585000D01*
%TO.N,Net-(R10-Pad1)*%
X139500000Y-102840000D02*
X133450000Y-102840000D01*
X140000000Y-94500000D02*
X133500000Y-94500000D01*
X139500000Y-94500000D02*
X139500000Y-102840000D01*
%TD*%
M02*
